<?xml version="1.0" encoding="UTF-8" standalone="no"?><svg xmlns="http://www.w3.org/2000/svg" xmlns:xlink="http://www.w3.org/1999/xlink" clip-rule="evenodd" stroke-miterlimit="10" viewBox="0 0 1024 768"><desc>SVG generated by Keynote</desc><defs></defs><g transform="matrix(1.00, 0.00, -0.00, -1.00, 0.0, 768.0)"><path d="M 0.0 768.0 L 1024.0 768.0 L 1024.0 0.0 L 0.0 0.0 Z M 0.0 768.0 " fill="#000000"></path><text xml:space="preserve" font-family="AvenirNext-Regular,Avenir Next" font-size="74.4" fill="#FEFFFF" transform="matrix(1.00, 0.00, -0.00, -1.00, 80.9, 639.2)">S</text><text xml:space="preserve" font-family="AvenirNext-Regular,Avenir Next" font-size="74.4" fill="#FEFFFF" transform="matrix(1.00, 0.00, -0.00, -1.00, 122.8, 639.2)">o</text><text xml:space="preserve" font-family="AvenirNext-Regular,Avenir Next" font-size="74.4" fill="#FEFFFF" transform="matrix(1.00, 0.00, -0.00, -1.00, 168.3, 639.2)">l</text><text xml:space="preserve" font-family="AvenirNext-Regular,Avenir Next" font-size="74.4" fill="#FEFFFF" transform="matrix(1.00, 0.00, -0.00, -1.00, 187.0, 639.2)">u</text><text xml:space="preserve" font-family="AvenirNext-Regular,Avenir Next" font-size="74.4" fill="#FEFFFF" transform="matrix(1.00, 0.00, -0.00, -1.00, 230.2, 639.2)">t</text><text xml:space="preserve" font-family="AvenirNext-Regular,Avenir Next" font-size="74.4" fill="#FEFFFF" transform="matrix(1.00, 0.00, -0.00, -1.00, 253.8, 639.2)">i</text><text xml:space="preserve" font-family="AvenirNext-Regular,Avenir Next" font-size="74.4" fill="#FEFFFF" transform="matrix(1.00, 0.00, -0.00, -1.00, 272.4, 639.2)">o</text><text xml:space="preserve" font-family="AvenirNext-Regular,Avenir Next" font-size="74.4" fill="#FEFFFF" transform="matrix(1.00, 0.00, -0.00, -1.00, 317.9, 639.2)">n</text><text xml:space="preserve" font-family="AvenirNext-Regular,Avenir Next" font-size="74.4" fill="#FEFFFF" transform="matrix(1.00, 0.00, -0.00, -1.00, 361.1, 639.2)">s</text><text xml:space="preserve" font-family="AvenirNext-Regular,Avenir Next" font-size="74.4" fill="#FEFFFF" transform="matrix(1.00, 0.00, -0.00, -1.00, 394.2, 639.2)">:</text><text xml:space="preserve" font-family="AvenirNext-Regular,Avenir Next" font-size="74.4" fill="#FEFFFF" transform="matrix(1.00, 0.00, -0.00, -1.00, 416.5, 639.2)"> </text><text xml:space="preserve" font-family="AvenirNext-Regular,Avenir Next" font-size="74.4" fill="#FEFFFF" transform="matrix(1.00, 0.00, -0.00, -1.00, 435.1, 639.2)">N</text><text xml:space="preserve" font-family="AvenirNext-Regular,Avenir Next" font-size="74.4" fill="#FEFFFF" transform="matrix(1.00, 0.00, -0.00, -1.00, 491.9, 639.2)">o</text><text xml:space="preserve" font-family="AvenirNext-Regular,Avenir Next" font-size="74.4" fill="#FEFFFF" transform="matrix(1.00, 0.00, -0.00, -1.00, 537.4, 639.2)"> </text><text xml:space="preserve" font-family="AvenirNext-Regular,Avenir Next" font-size="74.4" fill="#FEFFFF" transform="matrix(1.00, 0.00, -0.00, -1.00, 556.0, 639.2)">D</text><text xml:space="preserve" font-family="AvenirNext-Regular,Avenir Next" font-size="74.4" fill="#FEFFFF" transform="matrix(1.00, 0.00, -0.00, -1.00, 612.3, 639.2)">e</text><text xml:space="preserve" font-family="AvenirNext-Regular,Avenir Next" font-size="74.4" fill="#FEFFFF" transform="matrix(1.00, 0.00, -0.00, -1.00, 654.8, 639.2)">s</text><text xml:space="preserve" font-family="AvenirNext-Regular,Avenir Next" font-size="74.4" fill="#FEFFFF" transform="matrix(1.00, 0.00, -0.00, -1.00, 687.9, 639.2)">t</text><text xml:space="preserve" font-family="AvenirNext-Regular,Avenir Next" font-size="74.4" fill="#FEFFFF" transform="matrix(1.00, 0.00, -0.00, -1.00, 711.5, 639.2)">i</text><text xml:space="preserve" font-family="AvenirNext-Regular,Avenir Next" font-size="74.4" fill="#FEFFFF" transform="matrix(1.00, 0.00, -0.00, -1.00, 730.1, 639.2)">n</text><text xml:space="preserve" font-family="AvenirNext-Regular,Avenir Next" font-size="74.4" fill="#FEFFFF" transform="matrix(1.00, 0.00, -0.00, -1.00, 773.3, 639.2)">a</text><text xml:space="preserve" font-family="AvenirNext-Regular,Avenir Next" font-size="74.4" fill="#FEFFFF" transform="matrix(1.00, 0.00, -0.00, -1.00, 812.3, 639.2)">t</text><text xml:space="preserve" font-family="AvenirNext-Regular,Avenir Next" font-size="74.4" fill="#FEFFFF" transform="matrix(1.00, 0.00, -0.00, -1.00, 835.9, 639.2)">i</text><text xml:space="preserve" font-family="AvenirNext-Regular,Avenir Next" font-size="74.4" fill="#FEFFFF" transform="matrix(1.00, 0.00, -0.00, -1.00, 854.5, 639.2)">o</text><text xml:space="preserve" font-family="AvenirNext-Regular,Avenir Next" font-size="74.4" fill="#FEFFFF" transform="matrix(1.00, 0.00, -0.00, -1.00, 899.9, 639.2)">n</text><text xml:space="preserve" font-family="AvenirNext-Regular,Avenir Next" font-size="28.5" fill="#FEFFFF" transform="matrix(1.00, 0.00, -0.00, -1.00, 79.0, 494.9)">•</text><text xml:space="preserve" font-family="AvenirNext-Regular,Avenir Next" font-size="38.0" fill="#FEFFFF" transform="matrix(1.00, 0.00, -0.00, -1.00, 114.0, 491.9)">R</text><text xml:space="preserve" font-family="AvenirNext-Regular,Avenir Next" font-size="38.0" fill="#FEFFFF" transform="matrix(1.00, 0.00, -0.00, -1.00, 136.3, 491.9)">e</text><text xml:space="preserve" font-family="AvenirNext-Regular,Avenir Next" font-size="38.0" fill="#FEFFFF" transform="matrix(1.00, 0.00, -0.00, -1.00, 158.0, 491.9)">j</text><text xml:space="preserve" font-family="AvenirNext-Regular,Avenir Next" font-size="38.0" fill="#FEFFFF" transform="matrix(1.00, 0.00, -0.00, -1.00, 167.6, 491.9)">e</text><text xml:space="preserve" font-family="AvenirNext-Regular,Avenir Next" font-size="38.0" fill="#FEFFFF" transform="matrix(1.00, 0.00, -0.00, -1.00, 189.3, 491.9)">c</text><text xml:space="preserve" font-family="AvenirNext-Regular,Avenir Next" font-size="38.0" fill="#FEFFFF" transform="matrix(1.00, 0.00, -0.00, -1.00, 208.3, 491.9)">t</text><text xml:space="preserve" font-family="AvenirNext-Regular,Avenir Next" font-size="38.0" fill="#FEFFFF" transform="matrix(1.00, 0.00, -0.00, -1.00, 220.4, 491.9)"> </text><text xml:space="preserve" font-family="AvenirNext-Regular,Avenir Next" font-size="38.0" fill="#FEFFFF" transform="matrix(1.00, 0.00, -0.00, -1.00, 229.9, 491.9)">p</text><text xml:space="preserve" font-family="AvenirNext-Regular,Avenir Next" font-size="38.0" fill="#FEFFFF" transform="matrix(1.00, 0.00, -0.00, -1.00, 254.0, 491.9)">r</text><text xml:space="preserve" font-family="AvenirNext-Regular,Avenir Next" font-size="38.0" fill="#FEFFFF" transform="matrix(1.00, 0.00, -0.00, -1.00, 267.0, 491.9)">e</text><text xml:space="preserve" font-family="AvenirNext-Regular,Avenir Next" font-size="38.0" fill="#FEFFFF" transform="matrix(1.00, 0.00, -0.00, -1.00, 288.7, 491.9)">m</text><text xml:space="preserve" font-family="AvenirNext-Regular,Avenir Next" font-size="38.0" fill="#FEFFFF" transform="matrix(1.00, 0.00, -0.00, -1.00, 322.3, 491.9)">i</text><text xml:space="preserve" font-family="AvenirNext-Regular,Avenir Next" font-size="38.0" fill="#FEFFFF" transform="matrix(1.00, 0.00, -0.00, -1.00, 331.8, 491.9)">s</text><text xml:space="preserve" font-family="AvenirNext-Regular,Avenir Next" font-size="38.0" fill="#FEFFFF" transform="matrix(1.00, 0.00, -0.00, -1.00, 348.6, 491.9)">e</text><text xml:space="preserve" font-family="AvenirNext-Regular,Avenir Next" font-size="38.0" fill="#FEFFFF" transform="matrix(1.00, 0.00, -0.00, -1.00, 370.4, 491.9)"> </text><text xml:space="preserve" font-family="AvenirNext-Regular,Avenir Next" font-size="38.0" fill="#FEFFFF" transform="matrix(1.00, 0.00, -0.00, -1.00, 379.9, 491.9)">1</text><text xml:space="preserve" font-family="AvenirNext-Regular,Avenir Next" font-size="38.0" fill="#FEFFFF" transform="matrix(1.00, 0.00, -0.00, -1.00, 401.9, 491.9)"> </text><text xml:space="preserve" font-family="AvenirNext-Regular,Avenir Next" font-size="28.5" fill="#FEFFFF" transform="matrix(1.00, 0.00, -0.00, -1.00, 79.0, 400.9)">•</text><text xml:space="preserve" font-family="AvenirNext-Regular,Avenir Next" font-size="38.0" fill="#FEFFFF" transform="matrix(1.00, 0.00, -0.00, -1.00, 114.0, 397.9)">A</text><text xml:space="preserve" font-family="AvenirNext-Regular,Avenir Next" font-size="38.0" fill="#FEFFFF" transform="matrix(1.00, 0.00, -0.00, -1.00, 140.6, 397.9)">c</text><text xml:space="preserve" font-family="AvenirNext-Regular,Avenir Next" font-size="38.0" fill="#FEFFFF" transform="matrix(1.00, 0.00, -0.00, -1.00, 159.6, 397.9)">c</text><text xml:space="preserve" font-family="AvenirNext-Regular,Avenir Next" font-size="38.0" fill="#FEFFFF" transform="matrix(1.00, 0.00, -0.00, -1.00, 178.6, 397.9)">e</text><text xml:space="preserve" font-family="AvenirNext-Regular,Avenir Next" font-size="38.0" fill="#FEFFFF" transform="matrix(1.00, 0.00, -0.00, -1.00, 200.3, 397.9)">p</text><text xml:space="preserve" font-family="AvenirNext-Regular,Avenir Next" font-size="38.0" fill="#FEFFFF" transform="matrix(1.00, 0.00, -0.00, -1.00, 224.5, 397.9)">t</text><text xml:space="preserve" font-family="AvenirNext-Regular,Avenir Next" font-size="38.0" fill="#FEFFFF" transform="matrix(1.00, 0.00, -0.00, -1.00, 236.5, 397.9)">s</text><text xml:space="preserve" font-family="AvenirNext-Regular,Avenir Next" font-size="38.0" fill="#FEFFFF" transform="matrix(1.00, 0.00, -0.00, -1.00, 253.4, 397.9)"> </text><text xml:space="preserve" font-family="AvenirNext-Regular,Avenir Next" font-size="38.0" fill="#FEFFFF" transform="matrix(1.00, 0.00, -0.00, -1.00, 262.9, 397.9)">P</text><text xml:space="preserve" font-family="AvenirNext-Regular,Avenir Next" font-size="38.0" fill="#FEFFFF" transform="matrix(1.00, 0.00, -0.00, -1.00, 283.1, 397.9)">r</text><text xml:space="preserve" font-family="AvenirNext-Regular,Avenir Next" font-size="38.0" fill="#FEFFFF" transform="matrix(1.00, 0.00, -0.00, -1.00, 296.1, 397.9)">e</text><text xml:space="preserve" font-family="AvenirNext-Regular,Avenir Next" font-size="38.0" fill="#FEFFFF" transform="matrix(1.00, 0.00, -0.00, -1.00, 317.8, 397.9)">s</text><text xml:space="preserve" font-family="AvenirNext-Regular,Avenir Next" font-size="38.0" fill="#FEFFFF" transform="matrix(1.00, 0.00, -0.00, -1.00, 334.7, 397.9)">e</text><text xml:space="preserve" font-family="AvenirNext-Regular,Avenir Next" font-size="38.0" fill="#FEFFFF" transform="matrix(1.00, 0.00, -0.00, -1.00, 356.4, 397.9)">n</text><text xml:space="preserve" font-family="AvenirNext-Regular,Avenir Next" font-size="38.0" fill="#FEFFFF" transform="matrix(1.00, 0.00, -0.00, -1.00, 378.5, 397.9)">t</text><text xml:space="preserve" font-family="AvenirNext-Regular,Avenir Next" font-size="38.0" fill="#FEFFFF" transform="matrix(1.00, 0.00, -0.00, -1.00, 390.6, 397.9)">i</text><text xml:space="preserve" font-family="AvenirNext-Regular,Avenir Next" font-size="38.0" fill="#FEFFFF" transform="matrix(1.00, 0.00, -0.00, -1.00, 400.1, 397.9)">s</text><text xml:space="preserve" font-family="AvenirNext-Regular,Avenir Next" font-size="38.0" fill="#FEFFFF" transform="matrix(1.00, 0.00, -0.00, -1.00, 416.9, 397.9)">m</text><text xml:space="preserve" font-family="AvenirNext-Regular,Avenir Next" font-size="38.0" fill="#FEFFFF" transform="matrix(1.00, 0.00, -0.00, -1.00, 450.5, 397.9)"> </text><text xml:space="preserve" font-family="AvenirNext-Regular,Avenir Next" font-size="28.5" fill="#FEFFFF" transform="matrix(1.00, 0.00, -0.00, -1.00, 79.0, 306.9)">•</text><text xml:space="preserve" font-family="AvenirNext-Regular,Avenir Next" font-size="38.0" fill="#FEFFFF" transform="matrix(1.00, 0.00, -0.00, -1.00, 114.0, 303.9)">O</text><text xml:space="preserve" font-family="AvenirNext-Regular,Avenir Next" font-size="38.0" fill="#FEFFFF" transform="matrix(1.00, 0.00, -0.00, -1.00, 146.3, 303.9)">b</text><text xml:space="preserve" font-family="AvenirNext-Regular,Avenir Next" font-size="38.0" fill="#FEFFFF" transform="matrix(1.00, 0.00, -0.00, -1.00, 170.5, 303.9)">j</text><text xml:space="preserve" font-family="AvenirNext-Regular,Avenir Next" font-size="38.0" fill="#FEFFFF" transform="matrix(1.00, 0.00, -0.00, -1.00, 180.0, 303.9)">e</text><text xml:space="preserve" font-family="AvenirNext-Regular,Avenir Next" font-size="38.0" fill="#FEFFFF" transform="matrix(1.00, 0.00, -0.00, -1.00, 201.8, 303.9)">c</text><text xml:space="preserve" font-family="AvenirNext-Regular,Avenir Next" font-size="38.0" fill="#FEFFFF" transform="matrix(1.00, 0.00, -0.00, -1.00, 220.8, 303.9)">t</text><text xml:space="preserve" font-family="AvenirNext-Regular,Avenir Next" font-size="38.0" fill="#FEFFFF" transform="matrix(1.00, 0.00, -0.00, -1.00, 232.8, 303.9)">i</text><text xml:space="preserve" font-family="AvenirNext-Regular,Avenir Next" font-size="38.0" fill="#FEFFFF" transform="matrix(1.00, 0.00, -0.00, -1.00, 242.3, 303.9)">o</text><text xml:space="preserve" font-family="AvenirNext-Regular,Avenir Next" font-size="38.0" fill="#FEFFFF" transform="matrix(1.00, 0.00, -0.00, -1.00, 265.5, 303.9)">n</text><text xml:space="preserve" font-family="AvenirNext-Regular,Avenir Next" font-size="38.0" fill="#FEFFFF" transform="matrix(1.00, 0.00, -0.00, -1.00, 287.6, 303.9)">s</text><text xml:space="preserve" font-family="AvenirNext-Regular,Avenir Next" font-size="38.0" fill="#FEFFFF" transform="matrix(1.00, 0.00, -0.00, -1.00, 304.5, 303.9)">:</text><text xml:space="preserve" font-family="AvenirNext-Regular,Avenir Next" font-size="38.0" fill="#FEFFFF" transform="matrix(1.00, 0.00, -0.00, -1.00, 315.9, 303.9)"> </text><text xml:space="preserve" font-family="AvenirNext-Regular,Avenir Next" font-size="28.5" fill="#FEFFFF" transform="matrix(1.00, 0.00, -0.00, -1.00, 149.0, 212.9)">•</text><text xml:space="preserve" font-family="AvenirNext-Regular,Avenir Next" font-size="38.0" fill="#FEFFFF" transform="matrix(1.00, 0.00, -0.00, -1.00, 184.0, 209.9)">I</text><text xml:space="preserve" font-family="AvenirNext-Regular,Avenir Next" font-size="38.0" fill="#FEFFFF" transform="matrix(1.00, 0.00, -0.00, -1.00, 193.9, 209.9)">n</text><text xml:space="preserve" font-family="AvenirNext-Regular,Avenir Next" font-size="38.0" fill="#FEFFFF" transform="matrix(1.00, 0.00, -0.00, -1.00, 216.0, 209.9)">t</text><text xml:space="preserve" font-family="AvenirNext-Regular,Avenir Next" font-size="38.0" fill="#FEFFFF" transform="matrix(1.00, 0.00, -0.00, -1.00, 228.0, 209.9)">u</text><text xml:space="preserve" font-family="AvenirNext-Regular,Avenir Next" font-size="38.0" fill="#FEFFFF" transform="matrix(1.00, 0.00, -0.00, -1.00, 250.1, 209.9)">i</text><text xml:space="preserve" font-family="AvenirNext-Regular,Avenir Next" font-size="38.0" fill="#FEFFFF" transform="matrix(1.00, 0.00, -0.00, -1.00, 259.6, 209.9)">t</text><text xml:space="preserve" font-family="AvenirNext-Regular,Avenir Next" font-size="38.0" fill="#FEFFFF" transform="matrix(1.00, 0.00, -0.00, -1.00, 271.6, 209.9)">i</text><text xml:space="preserve" font-family="AvenirNext-Regular,Avenir Next" font-size="38.0" fill="#FEFFFF" transform="matrix(1.00, 0.00, -0.00, -1.00, 281.1, 209.9)">v</text><text xml:space="preserve" font-family="AvenirNext-Regular,Avenir Next" font-size="38.0" fill="#FEFFFF" transform="matrix(1.00, 0.00, -0.00, -1.00, 299.7, 209.9)">e</text><text xml:space="preserve" font-family="AvenirNext-Regular,Avenir Next" font-size="38.0" fill="#FEFFFF" transform="matrix(1.00, 0.00, -0.00, -1.00, 321.4, 209.9)">l</text><text xml:space="preserve" font-family="AvenirNext-Regular,Avenir Next" font-size="38.0" fill="#FEFFFF" transform="matrix(1.00, 0.00, -0.00, -1.00, 331.0, 209.9)">y</text><text xml:space="preserve" font-family="AvenirNext-Regular,Avenir Next" font-size="38.0" fill="#FEFFFF" transform="matrix(1.00, 0.00, -0.00, -1.00, 348.2, 209.9)">,</text><text xml:space="preserve" font-family="AvenirNext-Regular,Avenir Next" font-size="38.0" fill="#FEFFFF" transform="matrix(1.00, 0.00, -0.00, -1.00, 356.9, 209.9)"> </text><text xml:space="preserve" font-family="AvenirNext-Regular,Avenir Next" font-size="38.0" fill="#FEFFFF" transform="matrix(1.00, 0.00, -0.00, -1.00, 366.4, 209.9)">t</text><text xml:space="preserve" font-family="AvenirNext-Regular,Avenir Next" font-size="38.0" fill="#FEFFFF" transform="matrix(1.00, 0.00, -0.00, -1.00, 378.4, 209.9)">h</text><text xml:space="preserve" font-family="AvenirNext-Regular,Avenir Next" font-size="38.0" fill="#FEFFFF" transform="matrix(1.00, 0.00, -0.00, -1.00, 400.6, 209.9)">e</text><text xml:space="preserve" font-family="AvenirNext-Regular,Avenir Next" font-size="38.0" fill="#FEFFFF" transform="matrix(1.00, 0.00, -0.00, -1.00, 422.3, 209.9)"> </text><text xml:space="preserve" font-family="AvenirNext-Regular,Avenir Next" font-size="38.0" fill="#FEFFFF" transform="matrix(1.00, 0.00, -0.00, -1.00, 431.8, 209.9)">p</text><text xml:space="preserve" font-family="AvenirNext-Regular,Avenir Next" font-size="38.0" fill="#FEFFFF" transform="matrix(1.00, 0.00, -0.00, -1.00, 456.0, 209.9)">a</text><text xml:space="preserve" font-family="AvenirNext-Regular,Avenir Next" font-size="38.0" fill="#FEFFFF" transform="matrix(1.00, 0.00, -0.00, -1.00, 476.3, 209.9)">s</text><text xml:space="preserve" font-family="AvenirNext-Regular,Avenir Next" font-size="38.0" fill="#FEFFFF" transform="matrix(1.00, 0.00, -0.00, -1.00, 493.1, 209.9)">t</text><text xml:space="preserve" font-family="AvenirNext-Regular,Avenir Next" font-size="38.0" fill="#FEFFFF" transform="matrix(1.00, 0.00, -0.00, -1.00, 505.2, 209.9)"> </text><text xml:space="preserve" font-family="AvenirNext-Regular,Avenir Next" font-size="38.0" fill="#FEFFFF" transform="matrix(1.00, 0.00, -0.00, -1.00, 514.7, 209.9)">a</text><text xml:space="preserve" font-family="AvenirNext-Regular,Avenir Next" font-size="38.0" fill="#FEFFFF" transform="matrix(1.00, 0.00, -0.00, -1.00, 535.0, 209.9)">f</text><text xml:space="preserve" font-family="AvenirNext-Regular,Avenir Next" font-size="38.0" fill="#FEFFFF" transform="matrix(1.00, 0.00, -0.00, -1.00, 545.5, 209.9)">f</text><text xml:space="preserve" font-family="AvenirNext-Regular,Avenir Next" font-size="38.0" fill="#FEFFFF" transform="matrix(1.00, 0.00, -0.00, -1.00, 556.7, 209.9)">e</text><text xml:space="preserve" font-family="AvenirNext-Regular,Avenir Next" font-size="38.0" fill="#FEFFFF" transform="matrix(1.00, 0.00, -0.00, -1.00, 578.4, 209.9)">c</text><text xml:space="preserve" font-family="AvenirNext-Regular,Avenir Next" font-size="38.0" fill="#FEFFFF" transform="matrix(1.00, 0.00, -0.00, -1.00, 597.4, 209.9)">t</text><text xml:space="preserve" font-family="AvenirNext-Regular,Avenir Next" font-size="38.0" fill="#FEFFFF" transform="matrix(1.00, 0.00, -0.00, -1.00, 609.5, 209.9)">s</text><text xml:space="preserve" font-family="AvenirNext-Regular,Avenir Next" font-size="38.0" fill="#FEFFFF" transform="matrix(1.00, 0.00, -0.00, -1.00, 626.4, 209.9)"> </text><text xml:space="preserve" font-family="AvenirNext-Regular,Avenir Next" font-size="38.0" fill="#FEFFFF" transform="matrix(1.00, 0.00, -0.00, -1.00, 635.9, 209.9)">t</text><text xml:space="preserve" font-family="AvenirNext-Regular,Avenir Next" font-size="38.0" fill="#FEFFFF" transform="matrix(1.00, 0.00, -0.00, -1.00, 647.9, 209.9)">h</text><text xml:space="preserve" font-family="AvenirNext-Regular,Avenir Next" font-size="38.0" fill="#FEFFFF" transform="matrix(1.00, 0.00, -0.00, -1.00, 670.1, 209.9)">e</text><text xml:space="preserve" font-family="AvenirNext-Regular,Avenir Next" font-size="38.0" fill="#FEFFFF" transform="matrix(1.00, 0.00, -0.00, -1.00, 691.8, 209.9)"> </text><text xml:space="preserve" font-family="AvenirNext-Regular,Avenir Next" font-size="38.0" fill="#FEFFFF" transform="matrix(1.00, 0.00, -0.00, -1.00, 701.3, 209.9)">p</text><text xml:space="preserve" font-family="AvenirNext-Regular,Avenir Next" font-size="38.0" fill="#FEFFFF" transform="matrix(1.00, 0.00, -0.00, -1.00, 725.4, 209.9)">r</text><text xml:space="preserve" font-family="AvenirNext-Regular,Avenir Next" font-size="38.0" fill="#FEFFFF" transform="matrix(1.00, 0.00, -0.00, -1.00, 738.4, 209.9)">e</text><text xml:space="preserve" font-family="AvenirNext-Regular,Avenir Next" font-size="38.0" fill="#FEFFFF" transform="matrix(1.00, 0.00, -0.00, -1.00, 760.2, 209.9)">s</text><text xml:space="preserve" font-family="AvenirNext-Regular,Avenir Next" font-size="38.0" fill="#FEFFFF" transform="matrix(1.00, 0.00, -0.00, -1.00, 777.0, 209.9)">e</text><text xml:space="preserve" font-family="AvenirNext-Regular,Avenir Next" font-size="38.0" fill="#FEFFFF" transform="matrix(1.00, 0.00, -0.00, -1.00, 798.8, 209.9)">n</text><text xml:space="preserve" font-family="AvenirNext-Regular,Avenir Next" font-size="38.0" fill="#FEFFFF" transform="matrix(1.00, 0.00, -0.00, -1.00, 820.8, 209.9)">t</text><text xml:space="preserve" font-family="AvenirNext-Regular,Avenir Next" font-size="38.0" fill="#FEFFFF" transform="matrix(1.00, 0.00, -0.00, -1.00, 832.9, 209.9)"> </text><text xml:space="preserve" font-family="AvenirNext-Regular,Avenir Next" font-size="28.5" fill="#FEFFFF" transform="matrix(1.00, 0.00, -0.00, -1.00, 149.0, 118.9)">•</text><text xml:space="preserve" font-family="AvenirNext-Regular,Avenir Next" font-size="38.0" fill="#FEFFFF" transform="matrix(1.00, 0.00, -0.00, -1.00, 184.0, 115.9)">4</text><text xml:space="preserve" font-family="AvenirNext-Regular,Avenir Next" font-size="38.0" fill="#FEFFFF" transform="matrix(1.00, 0.00, -0.00, -1.00, 206.0, 115.9)">-</text><text xml:space="preserve" font-family="AvenirNext-Regular,Avenir Next" font-size="38.0" fill="#FEFFFF" transform="matrix(1.00, 0.00, -0.00, -1.00, 218.2, 115.9)">D</text><text xml:space="preserve" font-family="AvenirNext-Regular,Avenir Next" font-size="38.0" fill="#FEFFFF" transform="matrix(1.00, 0.00, -0.00, -1.00, 247.0, 115.9)">i</text><text xml:space="preserve" font-family="AvenirNext-Regular,Avenir Next" font-size="38.0" fill="#FEFFFF" transform="matrix(1.00, 0.00, -0.00, -1.00, 256.5, 115.9)">m</text><text xml:space="preserve" font-family="AvenirNext-Regular,Avenir Next" font-size="38.0" fill="#FEFFFF" transform="matrix(1.00, 0.00, -0.00, -1.00, 290.0, 115.9)">e</text><text xml:space="preserve" font-family="AvenirNext-Regular,Avenir Next" font-size="38.0" fill="#FEFFFF" transform="matrix(1.00, 0.00, -0.00, -1.00, 311.8, 115.9)">n</text><text xml:space="preserve" font-family="AvenirNext-Regular,Avenir Next" font-size="38.0" fill="#FEFFFF" transform="matrix(1.00, 0.00, -0.00, -1.00, 333.8, 115.9)">s</text><text xml:space="preserve" font-family="AvenirNext-Regular,Avenir Next" font-size="38.0" fill="#FEFFFF" transform="matrix(1.00, 0.00, -0.00, -1.00, 350.7, 115.9)">i</text><text xml:space="preserve" font-family="AvenirNext-Regular,Avenir Next" font-size="38.0" fill="#FEFFFF" transform="matrix(1.00, 0.00, -0.00, -1.00, 360.2, 115.9)">o</text><text xml:space="preserve" font-family="AvenirNext-Regular,Avenir Next" font-size="38.0" fill="#FEFFFF" transform="matrix(1.00, 0.00, -0.00, -1.00, 383.4, 115.9)">n</text><text xml:space="preserve" font-family="AvenirNext-Regular,Avenir Next" font-size="38.0" fill="#FEFFFF" transform="matrix(1.00, 0.00, -0.00, -1.00, 405.5, 115.9)">a</text><text xml:space="preserve" font-family="AvenirNext-Regular,Avenir Next" font-size="38.0" fill="#FEFFFF" transform="matrix(1.00, 0.00, -0.00, -1.00, 425.8, 115.9)">l</text><text xml:space="preserve" font-family="AvenirNext-Regular,Avenir Next" font-size="38.0" fill="#FEFFFF" transform="matrix(1.00, 0.00, -0.00, -1.00, 435.4, 115.9)">i</text><text xml:space="preserve" font-family="AvenirNext-Regular,Avenir Next" font-size="38.0" fill="#FEFFFF" transform="matrix(1.00, 0.00, -0.00, -1.00, 444.9, 115.9)">s</text><text xml:space="preserve" font-family="AvenirNext-Regular,Avenir Next" font-size="38.0" fill="#FEFFFF" transform="matrix(1.00, 0.00, -0.00, -1.00, 461.7, 115.9)">m</text><text xml:space="preserve" font-family="AvenirNext-Regular,Avenir Next" font-size="38.0" fill="#FEFFFF" transform="matrix(1.00, 0.00, -0.00, -1.00, 495.3, 115.9)">:</text><text xml:space="preserve" font-family="AvenirNext-Regular,Avenir Next" font-size="38.0" fill="#FEFFFF" transform="matrix(1.00, 0.00, -0.00, -1.00, 506.7, 115.9)"> </text><text xml:space="preserve" font-family="AvenirNext-Regular,Avenir Next" font-size="38.0" fill="#FEFFFF" transform="matrix(1.00, 0.00, -0.00, -1.00, 516.2, 115.9)">P</text><text xml:space="preserve" font-family="AvenirNext-Regular,Avenir Next" font-size="38.0" fill="#FEFFFF" transform="matrix(1.00, 0.00, -0.00, -1.00, 536.4, 115.9)">r</text><text xml:space="preserve" font-family="AvenirNext-Regular,Avenir Next" font-size="38.0" fill="#FEFFFF" transform="matrix(1.00, 0.00, -0.00, -1.00, 549.4, 115.9)">e</text><text xml:space="preserve" font-family="AvenirNext-Regular,Avenir Next" font-size="38.0" fill="#FEFFFF" transform="matrix(1.00, 0.00, -0.00, -1.00, 571.1, 115.9)">s</text><text xml:space="preserve" font-family="AvenirNext-Regular,Avenir Next" font-size="38.0" fill="#FEFFFF" transform="matrix(1.00, 0.00, -0.00, -1.00, 588.0, 115.9)">e</text><text xml:space="preserve" font-family="AvenirNext-Regular,Avenir Next" font-size="38.0" fill="#FEFFFF" transform="matrix(1.00, 0.00, -0.00, -1.00, 609.8, 115.9)">n</text><text xml:space="preserve" font-family="AvenirNext-Regular,Avenir Next" font-size="38.0" fill="#FEFFFF" transform="matrix(1.00, 0.00, -0.00, -1.00, 631.8, 115.9)">t</text><text xml:space="preserve" font-family="AvenirNext-Regular,Avenir Next" font-size="38.0" fill="#FEFFFF" transform="matrix(1.00, 0.00, -0.00, -1.00, 643.9, 115.9)">i</text><text xml:space="preserve" font-family="AvenirNext-Regular,Avenir Next" font-size="38.0" fill="#FEFFFF" transform="matrix(1.00, 0.00, -0.00, -1.00, 653.4, 115.9)">s</text><text xml:space="preserve" font-family="AvenirNext-Regular,Avenir Next" font-size="38.0" fill="#FEFFFF" transform="matrix(1.00, 0.00, -0.00, -1.00, 670.2, 115.9)">m</text><image xlink:href="../../83D82C1F-7632-49DD-8AC2-2BCC7DEB9DD8/assets/C6F55EBA85ED7779767668A4605D3D12.png" width="576.00" height="66.00" transform="matrix(0.61, 0.00, -0.00, -0.61, 449.0, 523.0)"></image><path d="M 0.0 0.0 L 191.0 0.0 " fill="none" stroke="#961817" stroke-width="8.00" transform="matrix(1.00, 0.00, 0.00, -1.00, 514.1, 124.0)"></path></g></svg>