<?xml version="1.0" encoding="UTF-8" standalone="no"?><svg xmlns="http://www.w3.org/2000/svg" xmlns:xlink="http://www.w3.org/1999/xlink" clip-rule="evenodd" stroke-miterlimit="10" viewBox="0 0 1024 768"><desc>SVG generated by Keynote</desc><defs></defs><g transform="matrix(1.00, 0.00, -0.00, -1.00, 0.0, 768.0)"><path d="M 0.0 768.0 L 1024.0 768.0 L 1024.0 0.0 L 0.0 0.0 Z M 0.0 768.0 " fill="#000000"></path><text xml:space="preserve" font-family="AvenirNext-Regular,Avenir Next" font-size="68.0" fill="#FEFFFF" transform="matrix(1.00, 0.00, -0.00, -1.00, 82.5, 640.9)">S</text><text xml:space="preserve" font-family="AvenirNext-Regular,Avenir Next" font-size="68.0" fill="#FEFFFF" transform="matrix(1.00, 0.00, -0.00, -1.00, 120.9, 640.9)">o</text><text xml:space="preserve" font-family="AvenirNext-Regular,Avenir Next" font-size="68.0" fill="#FEFFFF" transform="matrix(1.00, 0.00, -0.00, -1.00, 162.4, 640.9)">l</text><text xml:space="preserve" font-family="AvenirNext-Regular,Avenir Next" font-size="68.0" fill="#FEFFFF" transform="matrix(1.00, 0.00, -0.00, -1.00, 179.6, 640.9)">u</text><text xml:space="preserve" font-family="AvenirNext-Regular,Avenir Next" font-size="68.0" fill="#FEFFFF" transform="matrix(1.00, 0.00, -0.00, -1.00, 219.1, 640.9)">t</text><text xml:space="preserve" font-family="AvenirNext-Regular,Avenir Next" font-size="68.0" fill="#FEFFFF" transform="matrix(1.00, 0.00, -0.00, -1.00, 240.6, 640.9)">i</text><text xml:space="preserve" font-family="AvenirNext-Regular,Avenir Next" font-size="68.0" fill="#FEFFFF" transform="matrix(1.00, 0.00, -0.00, -1.00, 257.6, 640.9)">o</text><text xml:space="preserve" font-family="AvenirNext-Regular,Avenir Next" font-size="68.0" fill="#FEFFFF" transform="matrix(1.00, 0.00, -0.00, -1.00, 299.2, 640.9)">n</text><text xml:space="preserve" font-family="AvenirNext-Regular,Avenir Next" font-size="68.0" fill="#FEFFFF" transform="matrix(1.00, 0.00, -0.00, -1.00, 338.7, 640.9)">s</text><text xml:space="preserve" font-family="AvenirNext-Regular,Avenir Next" font-size="68.0" fill="#FEFFFF" transform="matrix(1.00, 0.00, -0.00, -1.00, 368.9, 640.9)">:</text><text xml:space="preserve" font-family="AvenirNext-Regular,Avenir Next" font-size="68.0" fill="#FEFFFF" transform="matrix(1.00, 0.00, -0.00, -1.00, 389.3, 640.9)"> </text><text xml:space="preserve" font-family="AvenirNext-Regular,Avenir Next" font-size="68.0" fill="#FEFFFF" transform="matrix(1.00, 0.00, -0.00, -1.00, 406.3, 640.9)">N</text><text xml:space="preserve" font-family="AvenirNext-Regular,Avenir Next" font-size="68.0" fill="#FEFFFF" transform="matrix(1.00, 0.00, -0.00, -1.00, 458.2, 640.9)">o</text><text xml:space="preserve" font-family="AvenirNext-Regular,Avenir Next" font-size="68.0" fill="#FEFFFF" transform="matrix(1.00, 0.00, -0.00, -1.00, 499.8, 640.9)"> </text><text xml:space="preserve" font-family="AvenirNext-Regular,Avenir Next" font-size="68.0" fill="#FEFFFF" transform="matrix(1.00, 0.00, -0.00, -1.00, 516.8, 640.9)">C</text><text xml:space="preserve" font-family="AvenirNext-Regular,Avenir Next" font-size="68.0" fill="#FEFFFF" transform="matrix(1.00, 0.00, -0.00, -1.00, 564.9, 640.9)">o</text><text xml:space="preserve" font-family="AvenirNext-Regular,Avenir Next" font-size="68.0" fill="#FEFFFF" transform="matrix(1.00, 0.00, -0.00, -1.00, 606.5, 640.9)">n</text><text xml:space="preserve" font-family="AvenirNext-Regular,Avenir Next" font-size="68.0" fill="#FEFFFF" transform="matrix(1.00, 0.00, -0.00, -1.00, 646.0, 640.9)">t</text><text xml:space="preserve" font-family="AvenirNext-Regular,Avenir Next" font-size="68.0" fill="#FEFFFF" transform="matrix(1.00, 0.00, -0.00, -1.00, 667.6, 640.9)">r</text><text xml:space="preserve" font-family="AvenirNext-Regular,Avenir Next" font-size="68.0" fill="#FEFFFF" transform="matrix(1.00, 0.00, -0.00, -1.00, 691.2, 640.9)">a</text><text xml:space="preserve" font-family="AvenirNext-Regular,Avenir Next" font-size="68.0" fill="#FEFFFF" transform="matrix(1.00, 0.00, -0.00, -1.00, 727.5, 640.9)">d</text><text xml:space="preserve" font-family="AvenirNext-Regular,Avenir Next" font-size="68.0" fill="#FEFFFF" transform="matrix(1.00, 0.00, -0.00, -1.00, 770.8, 640.9)">i</text><text xml:space="preserve" font-family="AvenirNext-Regular,Avenir Next" font-size="68.0" fill="#FEFFFF" transform="matrix(1.00, 0.00, -0.00, -1.00, 787.8, 640.9)">c</text><text xml:space="preserve" font-family="AvenirNext-Regular,Avenir Next" font-size="68.0" fill="#FEFFFF" transform="matrix(1.00, 0.00, -0.00, -1.00, 821.8, 640.9)">t</text><text xml:space="preserve" font-family="AvenirNext-Regular,Avenir Next" font-size="68.0" fill="#FEFFFF" transform="matrix(1.00, 0.00, -0.00, -1.00, 843.4, 640.9)">i</text><text xml:space="preserve" font-family="AvenirNext-Regular,Avenir Next" font-size="68.0" fill="#FEFFFF" transform="matrix(1.00, 0.00, -0.00, -1.00, 860.4, 640.9)">o</text><text xml:space="preserve" font-family="AvenirNext-Regular,Avenir Next" font-size="68.0" fill="#FEFFFF" transform="matrix(1.00, 0.00, -0.00, -1.00, 901.9, 640.9)">n</text><text xml:space="preserve" font-family="AvenirNext-Regular,Avenir Next" font-size="28.5" fill="#FEFFFF" transform="matrix(1.00, 0.00, -0.00, -1.00, 86.0, 494.9)">•</text><text xml:space="preserve" font-family="AvenirNext-Regular,Avenir Next" font-size="38.0" fill="#FEFFFF" transform="matrix(1.00, 0.00, -0.00, -1.00, 121.0, 491.9)">C</text><text xml:space="preserve" font-family="AvenirNext-Regular,Avenir Next" font-size="38.0" fill="#FEFFFF" transform="matrix(1.00, 0.00, -0.00, -1.00, 147.7, 491.9)">a</text><text xml:space="preserve" font-family="AvenirNext-Regular,Avenir Next" font-size="38.0" fill="#FEFFFF" transform="matrix(1.00, 0.00, -0.00, -1.00, 168.0, 491.9)">n</text><text xml:space="preserve" font-family="AvenirNext-Regular,Avenir Next" font-size="38.0" fill="#FEFFFF" transform="matrix(1.00, 0.00, -0.00, -1.00, 190.0, 491.9)"> </text><text xml:space="preserve" font-family="AvenirNext-Regular,Avenir Next" font-size="38.0" fill="#FEFFFF" transform="matrix(1.00, 0.00, -0.00, -1.00, 199.5, 491.9)">a</text><text xml:space="preserve" font-family="AvenirNext-Regular,Avenir Next" font-size="38.0" fill="#FEFFFF" transform="matrix(1.00, 0.00, -0.00, -1.00, 219.8, 491.9)">n</text><text xml:space="preserve" font-family="AvenirNext-Regular,Avenir Next" font-size="38.0" fill="#FEFFFF" transform="matrix(1.00, 0.00, -0.00, -1.00, 241.9, 491.9)">d</text><text xml:space="preserve" font-family="AvenirNext-Regular,Avenir Next" font-size="38.0" fill="#FEFFFF" transform="matrix(1.00, 0.00, -0.00, -1.00, 266.1, 491.9)"> </text><text xml:space="preserve" font-family="AvenirNext-Regular,Avenir Next" font-size="38.0" fill="#FEFFFF" transform="matrix(1.00, 0.00, -0.00, -1.00, 275.6, 491.9)">C</text><text xml:space="preserve" font-family="AvenirNext-Regular,Avenir Next" font-size="38.0" fill="#FEFFFF" transform="matrix(1.00, 0.00, -0.00, -1.00, 302.3, 491.9)">a</text><text xml:space="preserve" font-family="AvenirNext-Regular,Avenir Next" font-size="38.0" fill="#FEFFFF" transform="matrix(1.00, 0.00, -0.00, -1.00, 322.6, 491.9)">n</text><text xml:space="preserve" font-family="AvenirNext-Regular,Avenir Next" font-size="38.0" fill="#FEFFFF" transform="matrix(1.00, 0.00, -0.00, -1.00, 344.7, 491.9)">'</text><text xml:space="preserve" font-family="AvenirNext-Regular,Avenir Next" font-size="38.0" fill="#FEFFFF" transform="matrix(1.00, 0.00, -0.00, -1.00, 354.5, 491.9)">t</text><text xml:space="preserve" font-family="AvenirNext-Regular,Avenir Next" font-size="38.0" fill="#FEFFFF" transform="matrix(1.00, 0.00, -0.00, -1.00, 366.6, 491.9)"> </text><text xml:space="preserve" font-family="AvenirNext-Regular,Avenir Next" font-size="38.0" fill="#FEFFFF" transform="matrix(1.00, 0.00, -0.00, -1.00, 376.1, 491.9)">d</text><text xml:space="preserve" font-family="AvenirNext-Regular,Avenir Next" font-size="38.0" fill="#FEFFFF" transform="matrix(1.00, 0.00, -0.00, -1.00, 400.3, 491.9)">o</text><text xml:space="preserve" font-family="AvenirNext-Regular,Avenir Next" font-size="38.0" fill="#FEFFFF" transform="matrix(1.00, 0.00, -0.00, -1.00, 423.5, 491.9)"> </text><text xml:space="preserve" font-family="AvenirNext-Regular,Avenir Next" font-size="38.0" fill="#FEFFFF" transform="matrix(1.00, 0.00, -0.00, -1.00, 433.0, 491.9)">n</text><text xml:space="preserve" font-family="AvenirNext-Regular,Avenir Next" font-size="38.0" fill="#FEFFFF" transform="matrix(1.00, 0.00, -0.00, -1.00, 455.1, 491.9)">o</text><text xml:space="preserve" font-family="AvenirNext-Regular,Avenir Next" font-size="38.0" fill="#FEFFFF" transform="matrix(1.00, 0.00, -0.00, -1.00, 478.3, 491.9)">t</text><text xml:space="preserve" font-family="AvenirNext-Regular,Avenir Next" font-size="38.0" fill="#FEFFFF" transform="matrix(1.00, 0.00, -0.00, -1.00, 490.4, 491.9)"> </text><text xml:space="preserve" font-family="AvenirNext-Regular,Avenir Next" font-size="38.0" fill="#FEFFFF" transform="matrix(1.00, 0.00, -0.00, -1.00, 499.9, 491.9)">p</text><text xml:space="preserve" font-family="AvenirNext-Regular,Avenir Next" font-size="38.0" fill="#FEFFFF" transform="matrix(1.00, 0.00, -0.00, -1.00, 524.0, 491.9)">r</text><text xml:space="preserve" font-family="AvenirNext-Regular,Avenir Next" font-size="38.0" fill="#FEFFFF" transform="matrix(1.00, 0.00, -0.00, -1.00, 537.0, 491.9)">o</text><text xml:space="preserve" font-family="AvenirNext-Regular,Avenir Next" font-size="38.0" fill="#FEFFFF" transform="matrix(1.00, 0.00, -0.00, -1.00, 560.2, 491.9)">d</text><text xml:space="preserve" font-family="AvenirNext-Regular,Avenir Next" font-size="38.0" fill="#FEFFFF" transform="matrix(1.00, 0.00, -0.00, -1.00, 584.4, 491.9)">u</text><text xml:space="preserve" font-family="AvenirNext-Regular,Avenir Next" font-size="38.0" fill="#FEFFFF" transform="matrix(1.00, 0.00, -0.00, -1.00, 606.5, 491.9)">c</text><text xml:space="preserve" font-family="AvenirNext-Regular,Avenir Next" font-size="38.0" fill="#FEFFFF" transform="matrix(1.00, 0.00, -0.00, -1.00, 625.5, 491.9)">e</text><text xml:space="preserve" font-family="AvenirNext-Regular,Avenir Next" font-size="38.0" fill="#FEFFFF" transform="matrix(1.00, 0.00, -0.00, -1.00, 647.2, 491.9)"> </text><text xml:space="preserve" font-family="AvenirNext-Regular,Avenir Next" font-size="38.0" fill="#FEFFFF" transform="matrix(1.00, 0.00, -0.00, -1.00, 656.7, 491.9)">a</text><text xml:space="preserve" font-family="AvenirNext-Regular,Avenir Next" font-size="38.0" fill="#FEFFFF" transform="matrix(1.00, 0.00, -0.00, -1.00, 677.0, 491.9)"> </text><text xml:space="preserve" font-family="AvenirNext-Regular,Avenir Next" font-size="38.0" fill="#FEFFFF" transform="matrix(1.00, 0.00, -0.00, -1.00, 686.5, 491.9)">c</text><text xml:space="preserve" font-family="AvenirNext-Regular,Avenir Next" font-size="38.0" fill="#FEFFFF" transform="matrix(1.00, 0.00, -0.00, -1.00, 705.5, 491.9)">o</text><text xml:space="preserve" font-family="AvenirNext-Regular,Avenir Next" font-size="38.0" fill="#FEFFFF" transform="matrix(1.00, 0.00, -0.00, -1.00, 728.7, 491.9)">n</text><text xml:space="preserve" font-family="AvenirNext-Regular,Avenir Next" font-size="38.0" fill="#FEFFFF" transform="matrix(1.00, 0.00, -0.00, -1.00, 750.8, 491.9)">t</text><text xml:space="preserve" font-family="AvenirNext-Regular,Avenir Next" font-size="38.0" fill="#FEFFFF" transform="matrix(1.00, 0.00, -0.00, -1.00, 762.9, 491.9)">r</text><text xml:space="preserve" font-family="AvenirNext-Regular,Avenir Next" font-size="38.0" fill="#FEFFFF" transform="matrix(1.00, 0.00, -0.00, -1.00, 776.1, 491.9)">a</text><text xml:space="preserve" font-family="AvenirNext-Regular,Avenir Next" font-size="38.0" fill="#FEFFFF" transform="matrix(1.00, 0.00, -0.00, -1.00, 796.4, 491.9)">d</text><text xml:space="preserve" font-family="AvenirNext-Regular,Avenir Next" font-size="38.0" fill="#FEFFFF" transform="matrix(1.00, 0.00, -0.00, -1.00, 820.6, 491.9)">i</text><text xml:space="preserve" font-family="AvenirNext-Regular,Avenir Next" font-size="38.0" fill="#FEFFFF" transform="matrix(1.00, 0.00, -0.00, -1.00, 830.1, 491.9)">c</text><text xml:space="preserve" font-family="AvenirNext-Regular,Avenir Next" font-size="38.0" fill="#FEFFFF" transform="matrix(1.00, 0.00, -0.00, -1.00, 849.1, 491.9)">t</text><text xml:space="preserve" font-family="AvenirNext-Regular,Avenir Next" font-size="38.0" fill="#FEFFFF" transform="matrix(1.00, 0.00, -0.00, -1.00, 861.1, 491.9)">i</text><text xml:space="preserve" font-family="AvenirNext-Regular,Avenir Next" font-size="38.0" fill="#FEFFFF" transform="matrix(1.00, 0.00, -0.00, -1.00, 870.6, 491.9)">o</text><text xml:space="preserve" font-family="AvenirNext-Regular,Avenir Next" font-size="38.0" fill="#FEFFFF" transform="matrix(1.00, 0.00, -0.00, -1.00, 893.8, 491.9)">n</text><text xml:space="preserve" font-family="AvenirNext-Regular,Avenir Next" font-size="38.0" fill="#FEFFFF" transform="matrix(1.00, 0.00, -0.00, -1.00, 915.9, 491.9)"> </text><text xml:space="preserve" font-family="AvenirNext-Regular,Avenir Next" font-size="28.5" fill="#FEFFFF" transform="matrix(1.00, 0.00, -0.00, -1.00, 86.0, 400.9)">•</text><text xml:space="preserve" font-family="AvenirNext-Regular,Avenir Next" font-size="38.0" fill="#FEFFFF" transform="matrix(1.00, 0.00, -0.00, -1.00, 121.0, 397.9)">T</text><text xml:space="preserve" font-family="AvenirNext-Regular,Avenir Next" font-size="38.0" fill="#FEFFFF" transform="matrix(1.00, 0.00, -0.00, -1.00, 142.0, 397.9)">h</text><text xml:space="preserve" font-family="AvenirNext-Regular,Avenir Next" font-size="38.0" fill="#FEFFFF" transform="matrix(1.00, 0.00, -0.00, -1.00, 164.1, 397.9)">e</text><text xml:space="preserve" font-family="AvenirNext-Regular,Avenir Next" font-size="38.0" fill="#FEFFFF" transform="matrix(1.00, 0.00, -0.00, -1.00, 185.9, 397.9)">s</text><text xml:space="preserve" font-family="AvenirNext-Regular,Avenir Next" font-size="38.0" fill="#FEFFFF" transform="matrix(1.00, 0.00, -0.00, -1.00, 202.7, 397.9)">e</text><text xml:space="preserve" font-family="AvenirNext-Regular,Avenir Next" font-size="38.0" fill="#FEFFFF" transform="matrix(1.00, 0.00, -0.00, -1.00, 224.5, 397.9)"> </text><text xml:space="preserve" font-family="AvenirNext-Regular,Avenir Next" font-size="38.0" fill="#FEFFFF" transform="matrix(1.00, 0.00, -0.00, -1.00, 234.0, 397.9)">w</text><text xml:space="preserve" font-family="AvenirNext-Regular,Avenir Next" font-size="38.0" fill="#FEFFFF" transform="matrix(1.00, 0.00, -0.00, -1.00, 262.3, 397.9)">o</text><text xml:space="preserve" font-family="AvenirNext-Regular,Avenir Next" font-size="38.0" fill="#FEFFFF" transform="matrix(1.00, 0.00, -0.00, -1.00, 285.5, 397.9)">r</text><text xml:space="preserve" font-family="AvenirNext-Regular,Avenir Next" font-size="38.0" fill="#FEFFFF" transform="matrix(1.00, 0.00, -0.00, -1.00, 298.5, 397.9)">d</text><text xml:space="preserve" font-family="AvenirNext-Regular,Avenir Next" font-size="38.0" fill="#FEFFFF" transform="matrix(1.00, 0.00, -0.00, -1.00, 322.7, 397.9)">s</text><text xml:space="preserve" font-family="AvenirNext-Regular,Avenir Next" font-size="38.0" fill="#FEFFFF" transform="matrix(1.00, 0.00, -0.00, -1.00, 339.6, 397.9)"> </text><text xml:space="preserve" font-family="AvenirNext-Regular,Avenir Next" font-size="38.0" fill="#FEFFFF" transform="matrix(1.00, 0.00, -0.00, -1.00, 349.1, 397.9)">a</text><text xml:space="preserve" font-family="AvenirNext-Regular,Avenir Next" font-size="38.0" fill="#FEFFFF" transform="matrix(1.00, 0.00, -0.00, -1.00, 369.4, 397.9)">r</text><text xml:space="preserve" font-family="AvenirNext-Regular,Avenir Next" font-size="38.0" fill="#FEFFFF" transform="matrix(1.00, 0.00, -0.00, -1.00, 382.4, 397.9)">e</text><text xml:space="preserve" font-family="AvenirNext-Regular,Avenir Next" font-size="38.0" fill="#FEFFFF" transform="matrix(1.00, 0.00, -0.00, -1.00, 404.1, 397.9)"> </text><text xml:space="preserve" font-family="AvenirNext-Regular,Avenir Next" font-size="38.0" fill="#FEFFFF" transform="matrix(1.00, 0.00, -0.00, -1.00, 413.6, 397.9)">c</text><text xml:space="preserve" font-family="AvenirNext-Regular,Avenir Next" font-size="38.0" fill="#FEFFFF" transform="matrix(1.00, 0.00, -0.00, -1.00, 432.6, 397.9)">o</text><text xml:space="preserve" font-family="AvenirNext-Regular,Avenir Next" font-size="38.0" fill="#FEFFFF" transform="matrix(1.00, 0.00, -0.00, -1.00, 455.9, 397.9)">n</text><text xml:space="preserve" font-family="AvenirNext-Regular,Avenir Next" font-size="38.0" fill="#FEFFFF" transform="matrix(1.00, 0.00, -0.00, -1.00, 477.9, 397.9)">t</text><text xml:space="preserve" font-family="AvenirNext-Regular,Avenir Next" font-size="38.0" fill="#FEFFFF" transform="matrix(1.00, 0.00, -0.00, -1.00, 490.0, 397.9)">e</text><text xml:space="preserve" font-family="AvenirNext-Regular,Avenir Next" font-size="38.0" fill="#FEFFFF" transform="matrix(1.00, 0.00, -0.00, -1.00, 511.5, 397.9)">x</text><text xml:space="preserve" font-family="AvenirNext-Regular,Avenir Next" font-size="38.0" fill="#FEFFFF" transform="matrix(1.00, 0.00, -0.00, -1.00, 529.9, 397.9)">t</text><text xml:space="preserve" font-family="AvenirNext-Regular,Avenir Next" font-size="38.0" fill="#FEFFFF" transform="matrix(1.00, 0.00, -0.00, -1.00, 541.9, 397.9)">-</text><text xml:space="preserve" font-family="AvenirNext-Regular,Avenir Next" font-size="38.0" fill="#FEFFFF" transform="matrix(1.00, 0.00, -0.00, -1.00, 554.1, 397.9)">s</text><text xml:space="preserve" font-family="AvenirNext-Regular,Avenir Next" font-size="38.0" fill="#FEFFFF" transform="matrix(1.00, 0.00, -0.00, -1.00, 571.0, 397.9)">e</text><text xml:space="preserve" font-family="AvenirNext-Regular,Avenir Next" font-size="38.0" fill="#FEFFFF" transform="matrix(1.00, 0.00, -0.00, -1.00, 592.7, 397.9)">n</text><text xml:space="preserve" font-family="AvenirNext-Regular,Avenir Next" font-size="38.0" fill="#FEFFFF" transform="matrix(1.00, 0.00, -0.00, -1.00, 614.8, 397.9)">s</text><text xml:space="preserve" font-family="AvenirNext-Regular,Avenir Next" font-size="38.0" fill="#FEFFFF" transform="matrix(1.00, 0.00, -0.00, -1.00, 631.6, 397.9)">i</text><text xml:space="preserve" font-family="AvenirNext-Regular,Avenir Next" font-size="38.0" fill="#FEFFFF" transform="matrix(1.00, 0.00, -0.00, -1.00, 641.1, 397.9)">t</text><text xml:space="preserve" font-family="AvenirNext-Regular,Avenir Next" font-size="38.0" fill="#FEFFFF" transform="matrix(1.00, 0.00, -0.00, -1.00, 653.2, 397.9)">i</text><text xml:space="preserve" font-family="AvenirNext-Regular,Avenir Next" font-size="38.0" fill="#FEFFFF" transform="matrix(1.00, 0.00, -0.00, -1.00, 662.7, 397.9)">v</text><text xml:space="preserve" font-family="AvenirNext-Regular,Avenir Next" font-size="38.0" fill="#FEFFFF" transform="matrix(1.00, 0.00, -0.00, -1.00, 681.2, 397.9)">e</text><text xml:space="preserve" font-family="AvenirNext-Regular,Avenir Next" font-size="38.0" fill="#FEFFFF" transform="matrix(1.00, 0.00, -0.00, -1.00, 703.0, 397.9)"> </text><text xml:space="preserve" font-family="AvenirNext-Regular,Avenir Next" font-size="28.5" fill="#FEFFFF" transform="matrix(1.00, 0.00, -0.00, -1.00, 86.0, 306.9)">•</text><text xml:space="preserve" font-family="AvenirNext-Regular,Avenir Next" font-size="38.0" fill="#FEFFFF" transform="matrix(1.00, 0.00, -0.00, -1.00, 121.0, 303.9)">P</text><text xml:space="preserve" font-family="AvenirNext-Regular,Avenir Next" font-size="38.0" fill="#FEFFFF" transform="matrix(1.00, 0.00, -0.00, -1.00, 143.0, 303.9)">h</text><text xml:space="preserve" font-family="AvenirNext-Regular,Avenir Next" font-size="38.0" fill="#FEFFFF" transform="matrix(1.00, 0.00, -0.00, -1.00, 165.2, 303.9)">y</text><text xml:space="preserve" font-family="AvenirNext-Regular,Avenir Next" font-size="38.0" fill="#FEFFFF" transform="matrix(1.00, 0.00, -0.00, -1.00, 183.7, 303.9)">s</text><text xml:space="preserve" font-family="AvenirNext-Regular,Avenir Next" font-size="38.0" fill="#FEFFFF" transform="matrix(1.00, 0.00, -0.00, -1.00, 200.6, 303.9)">i</text><text xml:space="preserve" font-family="AvenirNext-Regular,Avenir Next" font-size="38.0" fill="#FEFFFF" transform="matrix(1.00, 0.00, -0.00, -1.00, 210.1, 303.9)">c</text><text xml:space="preserve" font-family="AvenirNext-Regular,Avenir Next" font-size="38.0" fill="#FEFFFF" transform="matrix(1.00, 0.00, -0.00, -1.00, 229.1, 303.9)">a</text><text xml:space="preserve" font-family="AvenirNext-Regular,Avenir Next" font-size="38.0" fill="#FEFFFF" transform="matrix(1.00, 0.00, -0.00, -1.00, 249.4, 303.9)">l</text><text xml:space="preserve" font-family="AvenirNext-Regular,Avenir Next" font-size="38.0" fill="#FEFFFF" transform="matrix(1.00, 0.00, -0.00, -1.00, 259.0, 303.9)">l</text><text xml:space="preserve" font-family="AvenirNext-Regular,Avenir Next" font-size="38.0" fill="#FEFFFF" transform="matrix(1.00, 0.00, -0.00, -1.00, 268.6, 303.9)">y</text><text xml:space="preserve" font-family="AvenirNext-Regular,Avenir Next" font-size="38.0" fill="#FEFFFF" transform="matrix(1.00, 0.00, -0.00, -1.00, 287.1, 303.9)"> </text><text xml:space="preserve" font-family="AvenirNext-Regular,Avenir Next" font-size="38.0" fill="#FEFFFF" transform="matrix(1.00, 0.00, -0.00, -1.00, 296.6, 303.9)">c</text><text xml:space="preserve" font-family="AvenirNext-Regular,Avenir Next" font-size="38.0" fill="#FEFFFF" transform="matrix(1.00, 0.00, -0.00, -1.00, 315.6, 303.9)">a</text><text xml:space="preserve" font-family="AvenirNext-Regular,Avenir Next" font-size="38.0" fill="#FEFFFF" transform="matrix(1.00, 0.00, -0.00, -1.00, 335.9, 303.9)">n</text><text xml:space="preserve" font-family="AvenirNext-Regular,Avenir Next" font-size="38.0" fill="#FEFFFF" transform="matrix(1.00, 0.00, -0.00, -1.00, 358.0, 303.9)">,</text><text xml:space="preserve" font-family="AvenirNext-Regular,Avenir Next" font-size="38.0" fill="#FEFFFF" transform="matrix(1.00, 0.00, -0.00, -1.00, 366.7, 303.9)"> </text><text xml:space="preserve" font-family="AvenirNext-Regular,Avenir Next" font-size="38.0" fill="#FEFFFF" transform="matrix(1.00, 0.00, -0.00, -1.00, 376.2, 303.9)">l</text><text xml:space="preserve" font-family="AvenirNext-Regular,Avenir Next" font-size="38.0" fill="#FEFFFF" transform="matrix(1.00, 0.00, -0.00, -1.00, 385.8, 303.9)">o</text><text xml:space="preserve" font-family="AvenirNext-Regular,Avenir Next" font-size="38.0" fill="#FEFFFF" transform="matrix(1.00, 0.00, -0.00, -1.00, 409.0, 303.9)">g</text><text xml:space="preserve" font-family="AvenirNext-Regular,Avenir Next" font-size="38.0" fill="#FEFFFF" transform="matrix(1.00, 0.00, -0.00, -1.00, 433.0, 303.9)">i</text><text xml:space="preserve" font-family="AvenirNext-Regular,Avenir Next" font-size="38.0" fill="#FEFFFF" transform="matrix(1.00, 0.00, -0.00, -1.00, 442.5, 303.9)">c</text><text xml:space="preserve" font-family="AvenirNext-Regular,Avenir Next" font-size="38.0" fill="#FEFFFF" transform="matrix(1.00, 0.00, -0.00, -1.00, 461.5, 303.9)">a</text><text xml:space="preserve" font-family="AvenirNext-Regular,Avenir Next" font-size="38.0" fill="#FEFFFF" transform="matrix(1.00, 0.00, -0.00, -1.00, 481.8, 303.9)">l</text><text xml:space="preserve" font-family="AvenirNext-Regular,Avenir Next" font-size="38.0" fill="#FEFFFF" transform="matrix(1.00, 0.00, -0.00, -1.00, 491.4, 303.9)">l</text><text xml:space="preserve" font-family="AvenirNext-Regular,Avenir Next" font-size="38.0" fill="#FEFFFF" transform="matrix(1.00, 0.00, -0.00, -1.00, 501.0, 303.9)">y</text><text xml:space="preserve" font-family="AvenirNext-Regular,Avenir Next" font-size="38.0" fill="#FEFFFF" transform="matrix(1.00, 0.00, -0.00, -1.00, 519.5, 303.9)"> </text><text xml:space="preserve" font-family="AvenirNext-Regular,Avenir Next" font-size="38.0" fill="#FEFFFF" transform="matrix(1.00, 0.00, -0.00, -1.00, 529.0, 303.9)">c</text><text xml:space="preserve" font-family="AvenirNext-Regular,Avenir Next" font-size="38.0" fill="#FEFFFF" transform="matrix(1.00, 0.00, -0.00, -1.00, 548.0, 303.9)">a</text><text xml:space="preserve" font-family="AvenirNext-Regular,Avenir Next" font-size="38.0" fill="#FEFFFF" transform="matrix(1.00, 0.00, -0.00, -1.00, 568.3, 303.9)">n</text><text xml:space="preserve" font-family="AvenirNext-Regular,Avenir Next" font-size="38.0" fill="#FEFFFF" transform="matrix(1.00, 0.00, -0.00, -1.00, 590.4, 303.9)">'</text><text xml:space="preserve" font-family="AvenirNext-Regular,Avenir Next" font-size="38.0" fill="#FEFFFF" transform="matrix(1.00, 0.00, -0.00, -1.00, 600.3, 303.9)">t</text><text xml:space="preserve" font-family="AvenirNext-Regular,Avenir Next" font-size="38.0" fill="#FEFFFF" transform="matrix(1.00, 0.00, -0.00, -1.00, 612.3, 303.9)"> </text><text xml:space="preserve" font-family="AvenirNext-Regular,Avenir Next" font-size="28.5" fill="#FEFFFF" transform="matrix(1.00, 0.00, -0.00, -1.00, 86.0, 212.9)">•</text><text xml:space="preserve" font-family="AvenirNext-Regular,Avenir Next" font-size="38.0" fill="#FEFFFF" transform="matrix(1.00, 0.00, -0.00, -1.00, 121.0, 209.9)">O</text><text xml:space="preserve" font-family="AvenirNext-Regular,Avenir Next" font-size="38.0" fill="#FEFFFF" transform="matrix(1.00, 0.00, -0.00, -1.00, 153.3, 209.9)">b</text><text xml:space="preserve" font-family="AvenirNext-Regular,Avenir Next" font-size="38.0" fill="#FEFFFF" transform="matrix(1.00, 0.00, -0.00, -1.00, 177.5, 209.9)">j</text><text xml:space="preserve" font-family="AvenirNext-Regular,Avenir Next" font-size="38.0" fill="#FEFFFF" transform="matrix(1.00, 0.00, -0.00, -1.00, 187.0, 209.9)">e</text><text xml:space="preserve" font-family="AvenirNext-Regular,Avenir Next" font-size="38.0" fill="#FEFFFF" transform="matrix(1.00, 0.00, -0.00, -1.00, 208.8, 209.9)">c</text><text xml:space="preserve" font-family="AvenirNext-Regular,Avenir Next" font-size="38.0" fill="#FEFFFF" transform="matrix(1.00, 0.00, -0.00, -1.00, 227.8, 209.9)">t</text><text xml:space="preserve" font-family="AvenirNext-Regular,Avenir Next" font-size="38.0" fill="#FEFFFF" transform="matrix(1.00, 0.00, -0.00, -1.00, 239.8, 209.9)">i</text><text xml:space="preserve" font-family="AvenirNext-Regular,Avenir Next" font-size="38.0" fill="#FEFFFF" transform="matrix(1.00, 0.00, -0.00, -1.00, 249.3, 209.9)">o</text><text xml:space="preserve" font-family="AvenirNext-Regular,Avenir Next" font-size="38.0" fill="#FEFFFF" transform="matrix(1.00, 0.00, -0.00, -1.00, 272.5, 209.9)">n</text><text xml:space="preserve" font-family="AvenirNext-Regular,Avenir Next" font-size="38.0" fill="#FEFFFF" transform="matrix(1.00, 0.00, -0.00, -1.00, 294.6, 209.9)">:</text><text xml:space="preserve" font-family="AvenirNext-Regular,Avenir Next" font-size="38.0" fill="#FEFFFF" transform="matrix(1.00, 0.00, -0.00, -1.00, 306.0, 209.9)"> </text><text xml:space="preserve" font-family="AvenirNext-Regular,Avenir Next" font-size="28.5" fill="#FEFFFF" transform="matrix(1.00, 0.00, -0.00, -1.00, 121.0, 118.9)">•</text><text xml:space="preserve" font-family="AvenirNext-Regular,Avenir Next" font-size="38.0" fill="#FEFFFF" transform="matrix(1.00, 0.00, -0.00, -1.00, 156.0, 115.9)">D</text><text xml:space="preserve" font-family="AvenirNext-Regular,Avenir Next" font-size="38.0" fill="#FEFFFF" transform="matrix(1.00, 0.00, -0.00, -1.00, 184.8, 115.9)">o</text><text xml:space="preserve" font-family="AvenirNext-Regular,Avenir Next" font-size="38.0" fill="#FEFFFF" transform="matrix(1.00, 0.00, -0.00, -1.00, 208.0, 115.9)">e</text><text xml:space="preserve" font-family="AvenirNext-Regular,Avenir Next" font-size="38.0" fill="#FEFFFF" transform="matrix(1.00, 0.00, -0.00, -1.00, 229.7, 115.9)">s</text><text xml:space="preserve" font-family="AvenirNext-Regular,Avenir Next" font-size="38.0" fill="#FEFFFF" transform="matrix(1.00, 0.00, -0.00, -1.00, 246.6, 115.9)">n</text><text xml:space="preserve" font-family="AvenirNext-Regular,Avenir Next" font-size="38.0" fill="#FEFFFF" transform="matrix(1.00, 0.00, -0.00, -1.00, 268.7, 115.9)">'</text><text xml:space="preserve" font-family="AvenirNext-Regular,Avenir Next" font-size="38.0" fill="#FEFFFF" transform="matrix(1.00, 0.00, -0.00, -1.00, 278.6, 115.9)">t</text><text xml:space="preserve" font-family="AvenirNext-Regular,Avenir Next" font-size="38.0" fill="#FEFFFF" transform="matrix(1.00, 0.00, -0.00, -1.00, 290.6, 115.9)"> </text><text xml:space="preserve" font-family="AvenirNext-Regular,Avenir Next" font-size="38.0" fill="#FEFFFF" transform="matrix(1.00, 0.00, -0.00, -1.00, 300.1, 115.9)">r</text><text xml:space="preserve" font-family="AvenirNext-Regular,Avenir Next" font-size="38.0" fill="#FEFFFF" transform="matrix(1.00, 0.00, -0.00, -1.00, 313.1, 115.9)">e</text><text xml:space="preserve" font-family="AvenirNext-Regular,Avenir Next" font-size="38.0" fill="#FEFFFF" transform="matrix(1.00, 0.00, -0.00, -1.00, 334.8, 115.9)">j</text><text xml:space="preserve" font-family="AvenirNext-Regular,Avenir Next" font-size="38.0" fill="#FEFFFF" transform="matrix(1.00, 0.00, -0.00, -1.00, 344.4, 115.9)">e</text><text xml:space="preserve" font-family="AvenirNext-Regular,Avenir Next" font-size="38.0" fill="#FEFFFF" transform="matrix(1.00, 0.00, -0.00, -1.00, 366.1, 115.9)">c</text><text xml:space="preserve" font-family="AvenirNext-Regular,Avenir Next" font-size="38.0" fill="#FEFFFF" transform="matrix(1.00, 0.00, -0.00, -1.00, 385.1, 115.9)">t</text><text xml:space="preserve" font-family="AvenirNext-Regular,Avenir Next" font-size="38.0" fill="#FEFFFF" transform="matrix(1.00, 0.00, -0.00, -1.00, 397.1, 115.9)"> </text><text xml:space="preserve" font-family="AvenirNext-Regular,Avenir Next" font-size="38.0" fill="#FEFFFF" transform="matrix(1.00, 0.00, -0.00, -1.00, 406.6, 115.9)">a</text><text xml:space="preserve" font-family="AvenirNext-Regular,Avenir Next" font-size="38.0" fill="#FEFFFF" transform="matrix(1.00, 0.00, -0.00, -1.00, 426.9, 115.9)">n</text><text xml:space="preserve" font-family="AvenirNext-Regular,Avenir Next" font-size="38.0" fill="#FEFFFF" transform="matrix(1.00, 0.00, -0.00, -1.00, 449.0, 115.9)">y</text><text xml:space="preserve" font-family="AvenirNext-Regular,Avenir Next" font-size="38.0" fill="#FEFFFF" transform="matrix(1.00, 0.00, -0.00, -1.00, 467.6, 115.9)"> </text><text xml:space="preserve" font-family="AvenirNext-Regular,Avenir Next" font-size="38.0" fill="#FEFFFF" transform="matrix(1.00, 0.00, -0.00, -1.00, 477.1, 115.9)">p</text><text xml:space="preserve" font-family="AvenirNext-Regular,Avenir Next" font-size="38.0" fill="#FEFFFF" transform="matrix(1.00, 0.00, -0.00, -1.00, 501.2, 115.9)">r</text><text xml:space="preserve" font-family="AvenirNext-Regular,Avenir Next" font-size="38.0" fill="#FEFFFF" transform="matrix(1.00, 0.00, -0.00, -1.00, 514.2, 115.9)">e</text><text xml:space="preserve" font-family="AvenirNext-Regular,Avenir Next" font-size="38.0" fill="#FEFFFF" transform="matrix(1.00, 0.00, -0.00, -1.00, 535.9, 115.9)">m</text><text xml:space="preserve" font-family="AvenirNext-Regular,Avenir Next" font-size="38.0" fill="#FEFFFF" transform="matrix(1.00, 0.00, -0.00, -1.00, 569.5, 115.9)">i</text><text xml:space="preserve" font-family="AvenirNext-Regular,Avenir Next" font-size="38.0" fill="#FEFFFF" transform="matrix(1.00, 0.00, -0.00, -1.00, 579.0, 115.9)">s</text><text xml:space="preserve" font-family="AvenirNext-Regular,Avenir Next" font-size="38.0" fill="#FEFFFF" transform="matrix(1.00, 0.00, -0.00, -1.00, 595.8, 115.9)">e</text><text xml:space="preserve" font-family="AvenirNext-Regular,Avenir Next" font-size="38.0" fill="#FEFFFF" transform="matrix(1.00, 0.00, -0.00, -1.00, 617.6, 115.9)">s</text></g></svg>