<?xml version="1.0" encoding="UTF-8" standalone="no"?><svg xmlns="http://www.w3.org/2000/svg" xmlns:xlink="http://www.w3.org/1999/xlink" clip-rule="evenodd" stroke-miterlimit="10" viewBox="0 0 1024 768"><desc>SVG generated by Keynote</desc><defs></defs><g transform="matrix(1.00, 0.00, -0.00, -1.00, 0.0, 768.0)"><path d="M 0.0 768.0 L 1024.0 768.0 L 1024.0 0.0 L 0.0 0.0 Z M 0.0 768.0 " fill="#000000"></path><text xml:space="preserve" font-family="AvenirNext-Regular,Avenir Next" font-size="75.2" fill="#FEFFFF" transform="matrix(1.00, 0.00, -0.00, -1.00, 81.1, 638.5)">S</text><text xml:space="preserve" font-family="AvenirNext-Regular,Avenir Next" font-size="75.2" fill="#FEFFFF" transform="matrix(1.00, 0.00, -0.00, -1.00, 123.5, 638.5)">o</text><text xml:space="preserve" font-family="AvenirNext-Regular,Avenir Next" font-size="75.2" fill="#FEFFFF" transform="matrix(1.00, 0.00, -0.00, -1.00, 169.4, 638.5)">l</text><text xml:space="preserve" font-family="AvenirNext-Regular,Avenir Next" font-size="75.2" fill="#FEFFFF" transform="matrix(1.00, 0.00, -0.00, -1.00, 188.4, 638.5)">u</text><text xml:space="preserve" font-family="AvenirNext-Regular,Avenir Next" font-size="75.2" fill="#FEFFFF" transform="matrix(1.00, 0.00, -0.00, -1.00, 232.1, 638.5)">t</text><text xml:space="preserve" font-family="AvenirNext-Regular,Avenir Next" font-size="75.2" fill="#FEFFFF" transform="matrix(1.00, 0.00, -0.00, -1.00, 255.9, 638.5)">i</text><text xml:space="preserve" font-family="AvenirNext-Regular,Avenir Next" font-size="75.2" fill="#FEFFFF" transform="matrix(1.00, 0.00, -0.00, -1.00, 274.7, 638.5)">o</text><text xml:space="preserve" font-family="AvenirNext-Regular,Avenir Next" font-size="75.2" fill="#FEFFFF" transform="matrix(1.00, 0.00, -0.00, -1.00, 320.7, 638.5)">n</text><text xml:space="preserve" font-family="AvenirNext-Regular,Avenir Next" font-size="75.2" fill="#FEFFFF" transform="matrix(1.00, 0.00, -0.00, -1.00, 364.3, 638.5)">s</text><text xml:space="preserve" font-family="AvenirNext-Regular,Avenir Next" font-size="75.2" fill="#FEFFFF" transform="matrix(1.00, 0.00, -0.00, -1.00, 397.7, 638.5)">:</text><text xml:space="preserve" font-family="AvenirNext-Regular,Avenir Next" font-size="75.2" fill="#FEFFFF" transform="matrix(1.00, 0.00, -0.00, -1.00, 420.3, 638.5)"> </text><text xml:space="preserve" font-family="AvenirNext-Regular,Avenir Next" font-size="75.2" fill="#FEFFFF" transform="matrix(1.00, 0.00, -0.00, -1.00, 439.1, 638.5)">G</text><text xml:space="preserve" font-family="AvenirNext-Regular,Avenir Next" font-size="75.2" fill="#FEFFFF" transform="matrix(1.00, 0.00, -0.00, -1.00, 497.7, 638.5)">r</text><text xml:space="preserve" font-family="AvenirNext-Regular,Avenir Next" font-size="75.2" fill="#FEFFFF" transform="matrix(1.00, 0.00, -0.00, -1.00, 523.4, 638.5)">o</text><text xml:space="preserve" font-family="AvenirNext-Regular,Avenir Next" font-size="75.2" fill="#FEFFFF" transform="matrix(1.00, 0.00, -0.00, -1.00, 569.3, 638.5)">w</text><text xml:space="preserve" font-family="AvenirNext-Regular,Avenir Next" font-size="75.2" fill="#FEFFFF" transform="matrix(1.00, 0.00, -0.00, -1.00, 625.4, 638.5)">i</text><text xml:space="preserve" font-family="AvenirNext-Regular,Avenir Next" font-size="75.2" fill="#FEFFFF" transform="matrix(1.00, 0.00, -0.00, -1.00, 644.2, 638.5)">n</text><text xml:space="preserve" font-family="AvenirNext-Regular,Avenir Next" font-size="75.2" fill="#FEFFFF" transform="matrix(1.00, 0.00, -0.00, -1.00, 687.9, 638.5)">g</text><text xml:space="preserve" font-family="AvenirNext-Regular,Avenir Next" font-size="75.2" fill="#FEFFFF" transform="matrix(1.00, 0.00, -0.00, -1.00, 735.5, 638.5)"> </text><text xml:space="preserve" font-family="AvenirNext-Regular,Avenir Next" font-size="75.2" fill="#FEFFFF" transform="matrix(1.00, 0.00, -0.00, -1.00, 754.3, 638.5)">B</text><text xml:space="preserve" font-family="AvenirNext-Regular,Avenir Next" font-size="75.2" fill="#FEFFFF" transform="matrix(1.00, 0.00, -0.00, -1.00, 802.1, 638.5)">l</text><text xml:space="preserve" font-family="AvenirNext-Regular,Avenir Next" font-size="75.2" fill="#FEFFFF" transform="matrix(1.00, 0.00, -0.00, -1.00, 821.0, 638.5)">o</text><text xml:space="preserve" font-family="AvenirNext-Regular,Avenir Next" font-size="75.2" fill="#FEFFFF" transform="matrix(1.00, 0.00, -0.00, -1.00, 867.0, 638.5)">c</text><text xml:space="preserve" font-family="AvenirNext-Regular,Avenir Next" font-size="75.2" fill="#FEFFFF" transform="matrix(1.00, 0.00, -0.00, -1.00, 904.6, 638.5)">k</text><text xml:space="preserve" font-family="AvenirNext-Regular,Avenir Next" font-size="22.2" fill="#FEFFFF" transform="matrix(1.00, 0.00, -0.00, -1.00, 79.0, 514.6)">•</text><text xml:space="preserve" font-family="AvenirNext-Regular,Avenir Next" font-size="29.6" fill="#FEFFFF" transform="matrix(1.00, 0.00, -0.00, -1.00, 106.3, 511.8)">R</text><text xml:space="preserve" font-family="AvenirNext-Regular,Avenir Next" font-size="29.6" fill="#FEFFFF" transform="matrix(1.00, 0.00, -0.00, -1.00, 123.7, 511.8)">e</text><text xml:space="preserve" font-family="AvenirNext-Regular,Avenir Next" font-size="29.6" fill="#FEFFFF" transform="matrix(1.00, 0.00, -0.00, -1.00, 140.7, 511.8)">j</text><text xml:space="preserve" font-family="AvenirNext-Regular,Avenir Next" font-size="29.6" fill="#FEFFFF" transform="matrix(1.00, 0.00, -0.00, -1.00, 148.1, 511.8)">e</text><text xml:space="preserve" font-family="AvenirNext-Regular,Avenir Next" font-size="29.6" fill="#FEFFFF" transform="matrix(1.00, 0.00, -0.00, -1.00, 165.0, 511.8)">c</text><text xml:space="preserve" font-family="AvenirNext-Regular,Avenir Next" font-size="29.6" fill="#FEFFFF" transform="matrix(1.00, 0.00, -0.00, -1.00, 179.9, 511.8)">t</text><text xml:space="preserve" font-family="AvenirNext-Regular,Avenir Next" font-size="29.6" fill="#FEFFFF" transform="matrix(1.00, 0.00, -0.00, -1.00, 189.3, 511.8)"> </text><text xml:space="preserve" font-family="AvenirNext-Regular,Avenir Next" font-size="29.6" fill="#FEFFFF" transform="matrix(1.00, 0.00, -0.00, -1.00, 196.7, 511.8)">p</text><text xml:space="preserve" font-family="AvenirNext-Regular,Avenir Next" font-size="29.6" fill="#FEFFFF" transform="matrix(1.00, 0.00, -0.00, -1.00, 215.5, 511.8)">r</text><text xml:space="preserve" font-family="AvenirNext-Regular,Avenir Next" font-size="29.6" fill="#FEFFFF" transform="matrix(1.00, 0.00, -0.00, -1.00, 225.6, 511.8)">e</text><text xml:space="preserve" font-family="AvenirNext-Regular,Avenir Next" font-size="29.6" fill="#FEFFFF" transform="matrix(1.00, 0.00, -0.00, -1.00, 242.6, 511.8)">m</text><text xml:space="preserve" font-family="AvenirNext-Regular,Avenir Next" font-size="29.6" fill="#FEFFFF" transform="matrix(1.00, 0.00, -0.00, -1.00, 268.8, 511.8)">i</text><text xml:space="preserve" font-family="AvenirNext-Regular,Avenir Next" font-size="29.6" fill="#FEFFFF" transform="matrix(1.00, 0.00, -0.00, -1.00, 276.2, 511.8)">s</text><text xml:space="preserve" font-family="AvenirNext-Regular,Avenir Next" font-size="29.6" fill="#FEFFFF" transform="matrix(1.00, 0.00, -0.00, -1.00, 289.3, 511.8)">e</text><text xml:space="preserve" font-family="AvenirNext-Regular,Avenir Next" font-size="29.6" fill="#FEFFFF" transform="matrix(1.00, 0.00, -0.00, -1.00, 306.3, 511.8)"> </text><text xml:space="preserve" font-family="AvenirNext-Regular,Avenir Next" font-size="29.6" fill="#FEFFFF" transform="matrix(1.00, 0.00, -0.00, -1.00, 313.7, 511.8)">9</text><text xml:space="preserve" font-family="AvenirNext-Regular,Avenir Next" font-size="29.6" fill="#FEFFFF" transform="matrix(1.00, 0.00, -0.00, -1.00, 330.9, 511.8)"> </text><text xml:space="preserve" font-family="AvenirNext-Regular,Avenir Next" font-size="22.2" fill="#FEFFFF" transform="matrix(1.00, 0.00, -0.00, -1.00, 79.0, 440.9)">•</text><text xml:space="preserve" font-family="AvenirNext-Regular,Avenir Next" font-size="29.6" fill="#FEFFFF" transform="matrix(1.00, 0.00, -0.00, -1.00, 106.3, 438.1)">"</text><text xml:space="preserve" font-family="AvenirNext-Regular,Avenir Next" font-size="29.6" fill="#FEFFFF" transform="matrix(1.00, 0.00, -0.00, -1.00, 118.3, 438.1)">G</text><text xml:space="preserve" font-family="AvenirNext-Regular,Avenir Next" font-size="29.6" fill="#FEFFFF" transform="matrix(1.00, 0.00, -0.00, -1.00, 141.4, 438.1)">r</text><text xml:space="preserve" font-family="AvenirNext-Regular,Avenir Next" font-size="29.6" fill="#FEFFFF" transform="matrix(1.00, 0.00, -0.00, -1.00, 151.5, 438.1)">o</text><text xml:space="preserve" font-family="AvenirNext-Regular,Avenir Next" font-size="29.6" fill="#FEFFFF" transform="matrix(1.00, 0.00, -0.00, -1.00, 169.6, 438.1)">w</text><text xml:space="preserve" font-family="AvenirNext-Regular,Avenir Next" font-size="29.6" fill="#FEFFFF" transform="matrix(1.00, 0.00, -0.00, -1.00, 191.8, 438.1)">i</text><text xml:space="preserve" font-family="AvenirNext-Regular,Avenir Next" font-size="29.6" fill="#FEFFFF" transform="matrix(1.00, 0.00, -0.00, -1.00, 199.2, 438.1)">n</text><text xml:space="preserve" font-family="AvenirNext-Regular,Avenir Next" font-size="29.6" fill="#FEFFFF" transform="matrix(1.00, 0.00, -0.00, -1.00, 216.4, 438.1)">g</text><text xml:space="preserve" font-family="AvenirNext-Regular,Avenir Next" font-size="29.6" fill="#FEFFFF" transform="matrix(1.00, 0.00, -0.00, -1.00, 235.1, 438.1)"> </text><text xml:space="preserve" font-family="AvenirNext-Regular,Avenir Next" font-size="29.6" fill="#FEFFFF" transform="matrix(1.00, 0.00, -0.00, -1.00, 242.5, 438.1)">b</text><text xml:space="preserve" font-family="AvenirNext-Regular,Avenir Next" font-size="29.6" fill="#FEFFFF" transform="matrix(1.00, 0.00, -0.00, -1.00, 261.4, 438.1)">l</text><text xml:space="preserve" font-family="AvenirNext-Regular,Avenir Next" font-size="29.6" fill="#FEFFFF" transform="matrix(1.00, 0.00, -0.00, -1.00, 268.9, 438.1)">o</text><text xml:space="preserve" font-family="AvenirNext-Regular,Avenir Next" font-size="29.6" fill="#FEFFFF" transform="matrix(1.00, 0.00, -0.00, -1.00, 287.0, 438.1)">c</text><text xml:space="preserve" font-family="AvenirNext-Regular,Avenir Next" font-size="29.6" fill="#FEFFFF" transform="matrix(1.00, 0.00, -0.00, -1.00, 301.8, 438.1)">k</text><text xml:space="preserve" font-family="AvenirNext-Regular,Avenir Next" font-size="29.6" fill="#FEFFFF" transform="matrix(1.00, 0.00, -0.00, -1.00, 316.9, 438.1)"> </text><text xml:space="preserve" font-family="AvenirNext-Regular,Avenir Next" font-size="29.6" fill="#FEFFFF" transform="matrix(1.00, 0.00, -0.00, -1.00, 324.3, 438.1)">t</text><text xml:space="preserve" font-family="AvenirNext-Regular,Avenir Next" font-size="29.6" fill="#FEFFFF" transform="matrix(1.00, 0.00, -0.00, -1.00, 333.7, 438.1)">h</text><text xml:space="preserve" font-family="AvenirNext-Regular,Avenir Next" font-size="29.6" fill="#FEFFFF" transform="matrix(1.00, 0.00, -0.00, -1.00, 351.0, 438.1)">e</text><text xml:space="preserve" font-family="AvenirNext-Regular,Avenir Next" font-size="29.6" fill="#FEFFFF" transform="matrix(1.00, 0.00, -0.00, -1.00, 368.0, 438.1)">o</text><text xml:space="preserve" font-family="AvenirNext-Regular,Avenir Next" font-size="29.6" fill="#FEFFFF" transform="matrix(1.00, 0.00, -0.00, -1.00, 386.1, 438.1)">r</text><text xml:space="preserve" font-family="AvenirNext-Regular,Avenir Next" font-size="29.6" fill="#FEFFFF" transform="matrix(1.00, 0.00, -0.00, -1.00, 396.7, 438.1)">y</text><text xml:space="preserve" font-family="AvenirNext-Regular,Avenir Next" font-size="29.6" fill="#FEFFFF" transform="matrix(1.00, 0.00, -0.00, -1.00, 411.2, 438.1)">"</text><text xml:space="preserve" font-family="AvenirNext-Regular,Avenir Next" font-size="29.6" fill="#FEFFFF" transform="matrix(1.00, 0.00, -0.00, -1.00, 423.2, 438.1)"> </text><text xml:space="preserve" font-family="AvenirNext-Regular,Avenir Next" font-size="29.6" fill="#FEFFFF" transform="matrix(1.00, 0.00, -0.00, -1.00, 430.6, 438.1)">o</text><text xml:space="preserve" font-family="AvenirNext-Regular,Avenir Next" font-size="29.6" fill="#FEFFFF" transform="matrix(1.00, 0.00, -0.00, -1.00, 448.7, 438.1)">f</text><text xml:space="preserve" font-family="AvenirNext-Regular,Avenir Next" font-size="29.6" fill="#FEFFFF" transform="matrix(1.00, 0.00, -0.00, -1.00, 458.2, 438.1)"> </text><text xml:space="preserve" font-family="AvenirNext-Regular,Avenir Next" font-size="29.6" fill="#FEFFFF" transform="matrix(1.00, 0.00, -0.00, -1.00, 465.6, 438.1)">t</text><text xml:space="preserve" font-family="AvenirNext-Regular,Avenir Next" font-size="29.6" fill="#FEFFFF" transform="matrix(1.00, 0.00, -0.00, -1.00, 475.0, 438.1)">i</text><text xml:space="preserve" font-family="AvenirNext-Regular,Avenir Next" font-size="29.6" fill="#FEFFFF" transform="matrix(1.00, 0.00, -0.00, -1.00, 482.4, 438.1)">m</text><text xml:space="preserve" font-family="AvenirNext-Regular,Avenir Next" font-size="29.6" fill="#FEFFFF" transform="matrix(1.00, 0.00, -0.00, -1.00, 508.6, 438.1)">e</text><text xml:space="preserve" font-family="AvenirNext-Regular,Avenir Next" font-size="29.6" fill="#FEFFFF" transform="matrix(1.00, 0.00, -0.00, -1.00, 525.5, 438.1)">:</text><text xml:space="preserve" font-family="AvenirNext-Regular,Avenir Next" font-size="29.6" fill="#FEFFFF" transform="matrix(1.00, 0.00, -0.00, -1.00, 534.4, 438.1)"> </text><text xml:space="preserve" font-family="AvenirNext-Regular,Avenir Next" font-size="29.6" fill="#FEFFFF" transform="matrix(1.00, 0.00, -0.00, -1.00, 541.8, 438.1)">4</text><text xml:space="preserve" font-family="AvenirNext-Regular,Avenir Next" font-size="29.6" fill="#FEFFFF" transform="matrix(1.00, 0.00, -0.00, -1.00, 559.0, 438.1)">-</text><text xml:space="preserve" font-family="AvenirNext-Regular,Avenir Next" font-size="29.6" fill="#FEFFFF" transform="matrix(1.00, 0.00, -0.00, -1.00, 568.5, 438.1)">d</text><text xml:space="preserve" font-family="AvenirNext-Regular,Avenir Next" font-size="29.6" fill="#FEFFFF" transform="matrix(1.00, 0.00, -0.00, -1.00, 587.4, 438.1)">i</text><text xml:space="preserve" font-family="AvenirNext-Regular,Avenir Next" font-size="29.6" fill="#FEFFFF" transform="matrix(1.00, 0.00, -0.00, -1.00, 594.8, 438.1)">m</text><text xml:space="preserve" font-family="AvenirNext-Regular,Avenir Next" font-size="29.6" fill="#FEFFFF" transform="matrix(1.00, 0.00, -0.00, -1.00, 621.0, 438.1)">e</text><text xml:space="preserve" font-family="AvenirNext-Regular,Avenir Next" font-size="29.6" fill="#FEFFFF" transform="matrix(1.00, 0.00, -0.00, -1.00, 637.9, 438.1)">n</text><text xml:space="preserve" font-family="AvenirNext-Regular,Avenir Next" font-size="29.6" fill="#FEFFFF" transform="matrix(1.00, 0.00, -0.00, -1.00, 655.1, 438.1)">s</text><text xml:space="preserve" font-family="AvenirNext-Regular,Avenir Next" font-size="29.6" fill="#FEFFFF" transform="matrix(1.00, 0.00, -0.00, -1.00, 668.3, 438.1)">i</text><text xml:space="preserve" font-family="AvenirNext-Regular,Avenir Next" font-size="29.6" fill="#FEFFFF" transform="matrix(1.00, 0.00, -0.00, -1.00, 675.7, 438.1)">o</text><text xml:space="preserve" font-family="AvenirNext-Regular,Avenir Next" font-size="29.6" fill="#FEFFFF" transform="matrix(1.00, 0.00, -0.00, -1.00, 693.8, 438.1)">n</text><text xml:space="preserve" font-family="AvenirNext-Regular,Avenir Next" font-size="29.6" fill="#FEFFFF" transform="matrix(1.00, 0.00, -0.00, -1.00, 711.0, 438.1)">a</text><text xml:space="preserve" font-family="AvenirNext-Regular,Avenir Next" font-size="29.6" fill="#FEFFFF" transform="matrix(1.00, 0.00, -0.00, -1.00, 726.9, 438.1)">l</text><text xml:space="preserve" font-family="AvenirNext-Regular,Avenir Next" font-size="29.6" fill="#FEFFFF" transform="matrix(1.00, 0.00, -0.00, -1.00, 734.3, 438.1)"> </text><text xml:space="preserve" font-family="AvenirNext-Regular,Avenir Next" font-size="29.6" fill="#FEFFFF" transform="matrix(1.00, 0.00, -0.00, -1.00, 741.8, 438.1)">c</text><text xml:space="preserve" font-family="AvenirNext-Regular,Avenir Next" font-size="29.6" fill="#FEFFFF" transform="matrix(1.00, 0.00, -0.00, -1.00, 756.6, 438.1)">u</text><text xml:space="preserve" font-family="AvenirNext-Regular,Avenir Next" font-size="29.6" fill="#FEFFFF" transform="matrix(1.00, 0.00, -0.00, -1.00, 773.8, 438.1)">b</text><text xml:space="preserve" font-family="AvenirNext-Regular,Avenir Next" font-size="29.6" fill="#FEFFFF" transform="matrix(1.00, 0.00, -0.00, -1.00, 792.7, 438.1)">e</text><text xml:space="preserve" font-family="AvenirNext-Regular,Avenir Next" font-size="29.6" fill="#FEFFFF" transform="matrix(1.00, 0.00, -0.00, -1.00, 809.6, 438.1)">,</text><text xml:space="preserve" font-family="AvenirNext-Regular,Avenir Next" font-size="29.6" fill="#FEFFFF" transform="matrix(1.00, 0.00, -0.00, -1.00, 816.4, 438.1)"> </text><text xml:space="preserve" font-family="AvenirNext-Regular,Avenir Next" font-size="29.6" fill="#FEFFFF" transform="matrix(1.00, 0.00, -0.00, -1.00, 823.9, 438.1)">g</text><text xml:space="preserve" font-family="AvenirNext-Regular,Avenir Next" font-size="29.6" fill="#FEFFFF" transform="matrix(1.00, 0.00, -0.00, -1.00, 842.6, 438.1)">r</text><text xml:space="preserve" font-family="AvenirNext-Regular,Avenir Next" font-size="29.6" fill="#FEFFFF" transform="matrix(1.00, 0.00, -0.00, -1.00, 852.7, 438.1)">o</text><text xml:space="preserve" font-family="AvenirNext-Regular,Avenir Next" font-size="29.6" fill="#FEFFFF" transform="matrix(1.00, 0.00, -0.00, -1.00, 870.8, 438.1)">w</text><text xml:space="preserve" font-family="AvenirNext-Regular,Avenir Next" font-size="29.6" fill="#FEFFFF" transform="matrix(1.00, 0.00, -0.00, -1.00, 892.9, 438.1)">i</text><text xml:space="preserve" font-family="AvenirNext-Regular,Avenir Next" font-size="29.6" fill="#FEFFFF" transform="matrix(1.00, 0.00, -0.00, -1.00, 900.4, 438.1)">n</text><text xml:space="preserve" font-family="AvenirNext-Regular,Avenir Next" font-size="29.6" fill="#FEFFFF" transform="matrix(1.00, 0.00, -0.00, -1.00, 917.6, 438.1)">g</text><text xml:space="preserve" font-family="AvenirNext-Regular,Avenir Next" font-size="29.6" fill="#FEFFFF" transform="matrix(1.00, 0.00, -0.00, -1.00, 936.3, 438.1)"> </text><text xml:space="preserve" font-family="AvenirNext-Regular,Avenir Next" font-size="29.6" fill="#FEFFFF" transform="matrix(1.00, 0.00, -0.00, -1.00, 106.3, 397.1)">f</text><text xml:space="preserve" font-family="AvenirNext-Regular,Avenir Next" font-size="29.6" fill="#FEFFFF" transform="matrix(1.00, 0.00, -0.00, -1.00, 115.0, 397.1)">r</text><text xml:space="preserve" font-family="AvenirNext-Regular,Avenir Next" font-size="29.6" fill="#FEFFFF" transform="matrix(1.00, 0.00, -0.00, -1.00, 125.2, 397.1)">o</text><text xml:space="preserve" font-family="AvenirNext-Regular,Avenir Next" font-size="29.6" fill="#FEFFFF" transform="matrix(1.00, 0.00, -0.00, -1.00, 143.3, 397.1)">m</text><text xml:space="preserve" font-family="AvenirNext-Regular,Avenir Next" font-size="29.6" fill="#FEFFFF" transform="matrix(1.00, 0.00, -0.00, -1.00, 169.5, 397.1)"> </text><text xml:space="preserve" font-family="AvenirNext-Regular,Avenir Next" font-size="29.6" fill="#FEFFFF" transform="matrix(1.00, 0.00, -0.00, -1.00, 176.9, 397.1)">t</text><text xml:space="preserve" font-family="AvenirNext-Regular,Avenir Next" font-size="29.6" fill="#FEFFFF" transform="matrix(1.00, 0.00, -0.00, -1.00, 186.3, 397.1)">h</text><text xml:space="preserve" font-family="AvenirNext-Regular,Avenir Next" font-size="29.6" fill="#FEFFFF" transform="matrix(1.00, 0.00, -0.00, -1.00, 203.5, 397.1)">e</text><text xml:space="preserve" font-family="AvenirNext-Regular,Avenir Next" font-size="29.6" fill="#FEFFFF" transform="matrix(1.00, 0.00, -0.00, -1.00, 220.5, 397.1)"> </text><text xml:space="preserve" font-family="AvenirNext-Regular,Avenir Next" font-size="29.6" fill="#FEFFFF" transform="matrix(1.00, 0.00, -0.00, -1.00, 227.9, 397.1)">b</text><text xml:space="preserve" font-family="AvenirNext-Regular,Avenir Next" font-size="29.6" fill="#FEFFFF" transform="matrix(1.00, 0.00, -0.00, -1.00, 246.8, 397.1)">e</text><text xml:space="preserve" font-family="AvenirNext-Regular,Avenir Next" font-size="29.6" fill="#FEFFFF" transform="matrix(1.00, 0.00, -0.00, -1.00, 263.7, 397.1)">g</text><text xml:space="preserve" font-family="AvenirNext-Regular,Avenir Next" font-size="29.6" fill="#FEFFFF" transform="matrix(1.00, 0.00, -0.00, -1.00, 282.5, 397.1)">i</text><text xml:space="preserve" font-family="AvenirNext-Regular,Avenir Next" font-size="29.6" fill="#FEFFFF" transform="matrix(1.00, 0.00, -0.00, -1.00, 289.9, 397.1)">n</text><text xml:space="preserve" font-family="AvenirNext-Regular,Avenir Next" font-size="29.6" fill="#FEFFFF" transform="matrix(1.00, 0.00, -0.00, -1.00, 307.1, 397.1)">n</text><text xml:space="preserve" font-family="AvenirNext-Regular,Avenir Next" font-size="29.6" fill="#FEFFFF" transform="matrix(1.00, 0.00, -0.00, -1.00, 324.3, 397.1)">i</text><text xml:space="preserve" font-family="AvenirNext-Regular,Avenir Next" font-size="29.6" fill="#FEFFFF" transform="matrix(1.00, 0.00, -0.00, -1.00, 331.7, 397.1)">n</text><text xml:space="preserve" font-family="AvenirNext-Regular,Avenir Next" font-size="29.6" fill="#FEFFFF" transform="matrix(1.00, 0.00, -0.00, -1.00, 349.0, 397.1)">g</text><text xml:space="preserve" font-family="AvenirNext-Regular,Avenir Next" font-size="29.6" fill="#FEFFFF" transform="matrix(1.00, 0.00, -0.00, -1.00, 367.7, 397.1)"> </text><text xml:space="preserve" font-family="AvenirNext-Regular,Avenir Next" font-size="29.6" fill="#FEFFFF" transform="matrix(1.00, 0.00, -0.00, -1.00, 375.1, 397.1)">(</text><text xml:space="preserve" font-family="AvenirNext-Regular,Avenir Next" font-size="29.6" fill="#FEFFFF" transform="matrix(1.00, 0.00, -0.00, -1.00, 384.0, 397.1)">h</text><text xml:space="preserve" font-family="AvenirNext-Regular,Avenir Next" font-size="29.6" fill="#FEFFFF" transform="matrix(1.00, 0.00, -0.00, -1.00, 401.3, 397.1)">i</text><text xml:space="preserve" font-family="AvenirNext-Regular,Avenir Next" font-size="29.6" fill="#FEFFFF" transform="matrix(1.00, 0.00, -0.00, -1.00, 408.7, 397.1)">s</text><text xml:space="preserve" font-family="AvenirNext-Regular,Avenir Next" font-size="29.6" fill="#FEFFFF" transform="matrix(1.00, 0.00, -0.00, -1.00, 421.8, 397.1)">t</text><text xml:space="preserve" font-family="AvenirNext-Regular,Avenir Next" font-size="29.6" fill="#FEFFFF" transform="matrix(1.00, 0.00, -0.00, -1.00, 431.2, 397.1)">o</text><text xml:space="preserve" font-family="AvenirNext-Regular,Avenir Next" font-size="29.6" fill="#FEFFFF" transform="matrix(1.00, 0.00, -0.00, -1.00, 449.4, 397.1)">r</text><text xml:space="preserve" font-family="AvenirNext-Regular,Avenir Next" font-size="29.6" fill="#FEFFFF" transform="matrix(1.00, 0.00, -0.00, -1.00, 460.0, 397.1)">y</text><text xml:space="preserve" font-family="AvenirNext-Regular,Avenir Next" font-size="29.6" fill="#FEFFFF" transform="matrix(1.00, 0.00, -0.00, -1.00, 474.5, 397.1)"> </text><text xml:space="preserve" font-family="AvenirNext-Regular,Avenir Next" font-size="29.6" fill="#FEFFFF" transform="matrix(1.00, 0.00, -0.00, -1.00, 481.9, 397.1)">e</text><text xml:space="preserve" font-family="AvenirNext-Regular,Avenir Next" font-size="29.6" fill="#FEFFFF" transform="matrix(1.00, 0.00, -0.00, -1.00, 498.7, 397.1)">x</text><text xml:space="preserve" font-family="AvenirNext-Regular,Avenir Next" font-size="29.6" fill="#FEFFFF" transform="matrix(1.00, 0.00, -0.00, -1.00, 513.0, 397.1)">i</text><text xml:space="preserve" font-family="AvenirNext-Regular,Avenir Next" font-size="29.6" fill="#FEFFFF" transform="matrix(1.00, 0.00, -0.00, -1.00, 520.4, 397.1)">s</text><text xml:space="preserve" font-family="AvenirNext-Regular,Avenir Next" font-size="29.6" fill="#FEFFFF" transform="matrix(1.00, 0.00, -0.00, -1.00, 533.6, 397.1)">t</text><text xml:space="preserve" font-family="AvenirNext-Regular,Avenir Next" font-size="29.6" fill="#FEFFFF" transform="matrix(1.00, 0.00, -0.00, -1.00, 543.0, 397.1)">s</text><text xml:space="preserve" font-family="AvenirNext-Regular,Avenir Next" font-size="29.6" fill="#FEFFFF" transform="matrix(1.00, 0.00, -0.00, -1.00, 556.1, 397.1)"> </text><text xml:space="preserve" font-family="AvenirNext-Regular,Avenir Next" font-size="29.6" fill="#FEFFFF" transform="matrix(1.00, 0.00, -0.00, -1.00, 563.6, 397.1)">b</text><text xml:space="preserve" font-family="AvenirNext-Regular,Avenir Next" font-size="29.6" fill="#FEFFFF" transform="matrix(1.00, 0.00, -0.00, -1.00, 582.4, 397.1)">u</text><text xml:space="preserve" font-family="AvenirNext-Regular,Avenir Next" font-size="29.6" fill="#FEFFFF" transform="matrix(1.00, 0.00, -0.00, -1.00, 599.7, 397.1)">t</text><text xml:space="preserve" font-family="AvenirNext-Regular,Avenir Next" font-size="29.6" fill="#FEFFFF" transform="matrix(1.00, 0.00, -0.00, -1.00, 609.1, 397.1)"> </text><text xml:space="preserve" font-family="AvenirNext-Regular,Avenir Next" font-size="29.6" fill="#FEFFFF" transform="matrix(1.00, 0.00, -0.00, -1.00, 616.5, 397.1)">f</text><text xml:space="preserve" font-family="AvenirNext-Regular,Avenir Next" font-size="29.6" fill="#FEFFFF" transform="matrix(1.00, 0.00, -0.00, -1.00, 625.2, 397.1)">u</text><text xml:space="preserve" font-family="AvenirNext-Regular,Avenir Next" font-size="29.6" fill="#FEFFFF" transform="matrix(1.00, 0.00, -0.00, -1.00, 642.4, 397.1)">t</text><text xml:space="preserve" font-family="AvenirNext-Regular,Avenir Next" font-size="29.6" fill="#FEFFFF" transform="matrix(1.00, 0.00, -0.00, -1.00, 651.8, 397.1)">u</text><text xml:space="preserve" font-family="AvenirNext-Regular,Avenir Next" font-size="29.6" fill="#FEFFFF" transform="matrix(1.00, 0.00, -0.00, -1.00, 669.0, 397.1)">r</text><text xml:space="preserve" font-family="AvenirNext-Regular,Avenir Next" font-size="29.6" fill="#FEFFFF" transform="matrix(1.00, 0.00, -0.00, -1.00, 679.2, 397.1)">e</text><text xml:space="preserve" font-family="AvenirNext-Regular,Avenir Next" font-size="29.6" fill="#FEFFFF" transform="matrix(1.00, 0.00, -0.00, -1.00, 696.1, 397.1)"> </text><text xml:space="preserve" font-family="AvenirNext-Regular,Avenir Next" font-size="29.6" fill="#FEFFFF" transform="matrix(1.00, 0.00, -0.00, -1.00, 703.5, 397.1)">d</text><text xml:space="preserve" font-family="AvenirNext-Regular,Avenir Next" font-size="29.6" fill="#FEFFFF" transform="matrix(1.00, 0.00, -0.00, -1.00, 722.4, 397.1)">o</text><text xml:space="preserve" font-family="AvenirNext-Regular,Avenir Next" font-size="29.6" fill="#FEFFFF" transform="matrix(1.00, 0.00, -0.00, -1.00, 740.5, 397.1)">e</text><text xml:space="preserve" font-family="AvenirNext-Regular,Avenir Next" font-size="29.6" fill="#FEFFFF" transform="matrix(1.00, 0.00, -0.00, -1.00, 757.5, 397.1)">s</text><text xml:space="preserve" font-family="AvenirNext-Regular,Avenir Next" font-size="29.6" fill="#FEFFFF" transform="matrix(1.00, 0.00, -0.00, -1.00, 770.7, 397.1)">n</text><text xml:space="preserve" font-family="AvenirNext-Regular,Avenir Next" font-size="29.6" fill="#FEFFFF" transform="matrix(1.00, 0.00, -0.00, -1.00, 787.9, 397.1)">'</text><text xml:space="preserve" font-family="AvenirNext-Regular,Avenir Next" font-size="29.6" fill="#FEFFFF" transform="matrix(1.00, 0.00, -0.00, -1.00, 795.6, 397.1)">t</text><text xml:space="preserve" font-family="AvenirNext-Regular,Avenir Next" font-size="29.6" fill="#FEFFFF" transform="matrix(1.00, 0.00, -0.00, -1.00, 805.0, 397.1)"> </text><text xml:space="preserve" font-family="AvenirNext-Regular,Avenir Next" font-size="29.6" fill="#FEFFFF" transform="matrix(1.00, 0.00, -0.00, -1.00, 812.4, 397.1)">e</text><text xml:space="preserve" font-family="AvenirNext-Regular,Avenir Next" font-size="29.6" fill="#FEFFFF" transform="matrix(1.00, 0.00, -0.00, -1.00, 829.2, 397.1)">x</text><text xml:space="preserve" font-family="AvenirNext-Regular,Avenir Next" font-size="29.6" fill="#FEFFFF" transform="matrix(1.00, 0.00, -0.00, -1.00, 843.5, 397.1)">i</text><text xml:space="preserve" font-family="AvenirNext-Regular,Avenir Next" font-size="29.6" fill="#FEFFFF" transform="matrix(1.00, 0.00, -0.00, -1.00, 850.9, 397.1)">s</text><text xml:space="preserve" font-family="AvenirNext-Regular,Avenir Next" font-size="29.6" fill="#FEFFFF" transform="matrix(1.00, 0.00, -0.00, -1.00, 864.1, 397.1)">t</text><text xml:space="preserve" font-family="AvenirNext-Regular,Avenir Next" font-size="29.6" fill="#FEFFFF" transform="matrix(1.00, 0.00, -0.00, -1.00, 873.5, 397.1)">)</text><text xml:space="preserve" font-family="AvenirNext-Regular,Avenir Next" font-size="29.6" fill="#FEFFFF" transform="matrix(1.00, 0.00, -0.00, -1.00, 882.4, 397.1)"> </text><text xml:space="preserve" font-family="AvenirNext-Regular,Avenir Next" font-size="22.2" fill="#FEFFFF" transform="matrix(1.00, 0.00, -0.00, -1.00, 79.0, 326.1)">•</text><text xml:space="preserve" font-family="AvenirNext-Regular,Avenir Next" font-size="29.6" fill="#FEFFFF" transform="matrix(1.00, 0.00, -0.00, -1.00, 106.3, 323.3)">H</text><text xml:space="preserve" font-family="AvenirNext-Regular,Avenir Next" font-size="29.6" fill="#FEFFFF" transform="matrix(1.00, 0.00, -0.00, -1.00, 127.6, 323.3)">i</text><text xml:space="preserve" font-family="AvenirNext-Regular,Avenir Next" font-size="29.6" fill="#FEFFFF" transform="matrix(1.00, 0.00, -0.00, -1.00, 135.0, 323.3)">s</text><text xml:space="preserve" font-family="AvenirNext-Regular,Avenir Next" font-size="29.6" fill="#FEFFFF" transform="matrix(1.00, 0.00, -0.00, -1.00, 148.2, 323.3)">t</text><text xml:space="preserve" font-family="AvenirNext-Regular,Avenir Next" font-size="29.6" fill="#FEFFFF" transform="matrix(1.00, 0.00, -0.00, -1.00, 157.5, 323.3)">o</text><text xml:space="preserve" font-family="AvenirNext-Regular,Avenir Next" font-size="29.6" fill="#FEFFFF" transform="matrix(1.00, 0.00, -0.00, -1.00, 175.7, 323.3)">r</text><text xml:space="preserve" font-family="AvenirNext-Regular,Avenir Next" font-size="29.6" fill="#FEFFFF" transform="matrix(1.00, 0.00, -0.00, -1.00, 186.3, 323.3)">y</text><text xml:space="preserve" font-family="AvenirNext-Regular,Avenir Next" font-size="29.6" fill="#FEFFFF" transform="matrix(1.00, 0.00, -0.00, -1.00, 200.8, 323.3)"> </text><text xml:space="preserve" font-family="AvenirNext-Regular,Avenir Next" font-size="29.6" fill="#FEFFFF" transform="matrix(1.00, 0.00, -0.00, -1.00, 208.2, 323.3)">c</text><text xml:space="preserve" font-family="AvenirNext-Regular,Avenir Next" font-size="29.6" fill="#FEFFFF" transform="matrix(1.00, 0.00, -0.00, -1.00, 223.0, 323.3)">a</text><text xml:space="preserve" font-family="AvenirNext-Regular,Avenir Next" font-size="29.6" fill="#FEFFFF" transform="matrix(1.00, 0.00, -0.00, -1.00, 238.9, 323.3)">n</text><text xml:space="preserve" font-family="AvenirNext-Regular,Avenir Next" font-size="29.6" fill="#FEFFFF" transform="matrix(1.00, 0.00, -0.00, -1.00, 256.1, 323.3)"> </text><text xml:space="preserve" font-family="AvenirNext-Regular,Avenir Next" font-size="29.6" fill="#FEFFFF" transform="matrix(1.00, 0.00, -0.00, -1.00, 263.5, 323.3)">c</text><text xml:space="preserve" font-family="AvenirNext-Regular,Avenir Next" font-size="29.6" fill="#FEFFFF" transform="matrix(1.00, 0.00, -0.00, -1.00, 278.3, 323.3)">h</text><text xml:space="preserve" font-family="AvenirNext-Regular,Avenir Next" font-size="29.6" fill="#FEFFFF" transform="matrix(1.00, 0.00, -0.00, -1.00, 295.6, 323.3)">a</text><text xml:space="preserve" font-family="AvenirNext-Regular,Avenir Next" font-size="29.6" fill="#FEFFFF" transform="matrix(1.00, 0.00, -0.00, -1.00, 311.4, 323.3)">n</text><text xml:space="preserve" font-family="AvenirNext-Regular,Avenir Next" font-size="29.6" fill="#FEFFFF" transform="matrix(1.00, 0.00, -0.00, -1.00, 328.6, 323.3)">g</text><text xml:space="preserve" font-family="AvenirNext-Regular,Avenir Next" font-size="29.6" fill="#FEFFFF" transform="matrix(1.00, 0.00, -0.00, -1.00, 347.4, 323.3)">e</text><text xml:space="preserve" font-family="AvenirNext-Regular,Avenir Next" font-size="29.6" fill="#FEFFFF" transform="matrix(1.00, 0.00, -0.00, -1.00, 364.3, 323.3)"> </text><text xml:space="preserve" font-family="AvenirNext-Regular,Avenir Next" font-size="22.2" fill="#FEFFFF" transform="matrix(1.00, 0.00, -0.00, -1.00, 79.0, 252.4)">•</text><text xml:space="preserve" font-family="AvenirNext-Regular,Avenir Next" font-size="29.6" fill="#FEFFFF" transform="matrix(1.00, 0.00, -0.00, -1.00, 106.3, 249.6)">O</text><text xml:space="preserve" font-family="AvenirNext-Regular,Avenir Next" font-size="29.6" fill="#FEFFFF" transform="matrix(1.00, 0.00, -0.00, -1.00, 131.5, 249.6)">b</text><text xml:space="preserve" font-family="AvenirNext-Regular,Avenir Next" font-size="29.6" fill="#FEFFFF" transform="matrix(1.00, 0.00, -0.00, -1.00, 150.4, 249.6)">j</text><text xml:space="preserve" font-family="AvenirNext-Regular,Avenir Next" font-size="29.6" fill="#FEFFFF" transform="matrix(1.00, 0.00, -0.00, -1.00, 157.8, 249.6)">e</text><text xml:space="preserve" font-family="AvenirNext-Regular,Avenir Next" font-size="29.6" fill="#FEFFFF" transform="matrix(1.00, 0.00, -0.00, -1.00, 174.8, 249.6)">c</text><text xml:space="preserve" font-family="AvenirNext-Regular,Avenir Next" font-size="29.6" fill="#FEFFFF" transform="matrix(1.00, 0.00, -0.00, -1.00, 189.6, 249.6)">t</text><text xml:space="preserve" font-family="AvenirNext-Regular,Avenir Next" font-size="29.6" fill="#FEFFFF" transform="matrix(1.00, 0.00, -0.00, -1.00, 199.0, 249.6)">i</text><text xml:space="preserve" font-family="AvenirNext-Regular,Avenir Next" font-size="29.6" fill="#FEFFFF" transform="matrix(1.00, 0.00, -0.00, -1.00, 206.4, 249.6)">o</text><text xml:space="preserve" font-family="AvenirNext-Regular,Avenir Next" font-size="29.6" fill="#FEFFFF" transform="matrix(1.00, 0.00, -0.00, -1.00, 224.5, 249.6)">n</text><text xml:space="preserve" font-family="AvenirNext-Regular,Avenir Next" font-size="29.6" fill="#FEFFFF" transform="matrix(1.00, 0.00, -0.00, -1.00, 241.7, 249.6)">s</text><text xml:space="preserve" font-family="AvenirNext-Regular,Avenir Next" font-size="29.6" fill="#FEFFFF" transform="matrix(1.00, 0.00, -0.00, -1.00, 254.9, 249.6)">:</text><text xml:space="preserve" font-family="AvenirNext-Regular,Avenir Next" font-size="29.6" fill="#FEFFFF" transform="matrix(1.00, 0.00, -0.00, -1.00, 263.8, 249.6)"> </text><text xml:space="preserve" font-family="AvenirNext-Regular,Avenir Next" font-size="22.2" fill="#FEFFFF" transform="matrix(1.00, 0.00, -0.00, -1.00, 114.0, 178.6)">•</text><text xml:space="preserve" font-family="AvenirNext-Regular,Avenir Next" font-size="29.6" fill="#FEFFFF" transform="matrix(1.00, 0.00, -0.00, -1.00, 141.3, 175.8)">C</text><text xml:space="preserve" font-family="AvenirNext-Regular,Avenir Next" font-size="29.6" fill="#FEFFFF" transform="matrix(1.00, 0.00, -0.00, -1.00, 162.6, 175.8)">h</text><text xml:space="preserve" font-family="AvenirNext-Regular,Avenir Next" font-size="29.6" fill="#FEFFFF" transform="matrix(1.00, 0.00, -0.00, -1.00, 179.9, 175.8)">a</text><text xml:space="preserve" font-family="AvenirNext-Regular,Avenir Next" font-size="29.6" fill="#FEFFFF" transform="matrix(1.00, 0.00, -0.00, -1.00, 195.7, 175.8)">n</text><text xml:space="preserve" font-family="AvenirNext-Regular,Avenir Next" font-size="29.6" fill="#FEFFFF" transform="matrix(1.00, 0.00, -0.00, -1.00, 213.0, 175.8)">g</text><text xml:space="preserve" font-family="AvenirNext-Regular,Avenir Next" font-size="29.6" fill="#FEFFFF" transform="matrix(1.00, 0.00, -0.00, -1.00, 231.7, 175.8)">i</text><text xml:space="preserve" font-family="AvenirNext-Regular,Avenir Next" font-size="29.6" fill="#FEFFFF" transform="matrix(1.00, 0.00, -0.00, -1.00, 239.1, 175.8)">n</text><text xml:space="preserve" font-family="AvenirNext-Regular,Avenir Next" font-size="29.6" fill="#FEFFFF" transform="matrix(1.00, 0.00, -0.00, -1.00, 256.3, 175.8)">g</text><text xml:space="preserve" font-family="AvenirNext-Regular,Avenir Next" font-size="29.6" fill="#FEFFFF" transform="matrix(1.00, 0.00, -0.00, -1.00, 275.1, 175.8)"> </text><text xml:space="preserve" font-family="AvenirNext-Regular,Avenir Next" font-size="29.6" fill="#FEFFFF" transform="matrix(1.00, 0.00, -0.00, -1.00, 282.5, 175.8)">t</text><text xml:space="preserve" font-family="AvenirNext-Regular,Avenir Next" font-size="29.6" fill="#FEFFFF" transform="matrix(1.00, 0.00, -0.00, -1.00, 291.9, 175.8)">h</text><text xml:space="preserve" font-family="AvenirNext-Regular,Avenir Next" font-size="29.6" fill="#FEFFFF" transform="matrix(1.00, 0.00, -0.00, -1.00, 309.2, 175.8)">e</text><text xml:space="preserve" font-family="AvenirNext-Regular,Avenir Next" font-size="29.6" fill="#FEFFFF" transform="matrix(1.00, 0.00, -0.00, -1.00, 326.1, 175.8)"> </text><text xml:space="preserve" font-family="AvenirNext-Regular,Avenir Next" font-size="29.6" fill="#FEFFFF" transform="matrix(1.00, 0.00, -0.00, -1.00, 333.5, 175.8)">f</text><text xml:space="preserve" font-family="AvenirNext-Regular,Avenir Next" font-size="29.6" fill="#FEFFFF" transform="matrix(1.00, 0.00, -0.00, -1.00, 342.3, 175.8)">u</text><text xml:space="preserve" font-family="AvenirNext-Regular,Avenir Next" font-size="29.6" fill="#FEFFFF" transform="matrix(1.00, 0.00, -0.00, -1.00, 359.5, 175.8)">t</text><text xml:space="preserve" font-family="AvenirNext-Regular,Avenir Next" font-size="29.6" fill="#FEFFFF" transform="matrix(1.00, 0.00, -0.00, -1.00, 368.9, 175.8)">u</text><text xml:space="preserve" font-family="AvenirNext-Regular,Avenir Next" font-size="29.6" fill="#FEFFFF" transform="matrix(1.00, 0.00, -0.00, -1.00, 386.1, 175.8)">r</text><text xml:space="preserve" font-family="AvenirNext-Regular,Avenir Next" font-size="29.6" fill="#FEFFFF" transform="matrix(1.00, 0.00, -0.00, -1.00, 396.2, 175.8)">e</text><text xml:space="preserve" font-family="AvenirNext-Regular,Avenir Next" font-size="29.6" fill="#FEFFFF" transform="matrix(1.00, 0.00, -0.00, -1.00, 413.2, 175.8)"> </text><text xml:space="preserve" font-family="AvenirNext-Regular,Avenir Next" font-size="22.2" fill="#FEFFFF" transform="matrix(1.00, 0.00, -0.00, -1.00, 114.0, 104.8)">•</text><text xml:space="preserve" font-family="AvenirNext-Regular,Avenir Next" font-size="29.6" fill="#FEFFFF" transform="matrix(1.00, 0.00, -0.00, -1.00, 141.3, 102.0)">G</text><text xml:space="preserve" font-family="AvenirNext-Regular,Avenir Next" font-size="29.6" fill="#FEFFFF" transform="matrix(1.00, 0.00, -0.00, -1.00, 164.4, 102.0)">r</text><text xml:space="preserve" font-family="AvenirNext-Regular,Avenir Next" font-size="29.6" fill="#FEFFFF" transform="matrix(1.00, 0.00, -0.00, -1.00, 174.5, 102.0)">o</text><text xml:space="preserve" font-family="AvenirNext-Regular,Avenir Next" font-size="29.6" fill="#FEFFFF" transform="matrix(1.00, 0.00, -0.00, -1.00, 192.6, 102.0)">w</text><text xml:space="preserve" font-family="AvenirNext-Regular,Avenir Next" font-size="29.6" fill="#FEFFFF" transform="matrix(1.00, 0.00, -0.00, -1.00, 214.7, 102.0)">i</text><text xml:space="preserve" font-family="AvenirNext-Regular,Avenir Next" font-size="29.6" fill="#FEFFFF" transform="matrix(1.00, 0.00, -0.00, -1.00, 222.2, 102.0)">n</text><text xml:space="preserve" font-family="AvenirNext-Regular,Avenir Next" font-size="29.6" fill="#FEFFFF" transform="matrix(1.00, 0.00, -0.00, -1.00, 239.4, 102.0)">g</text><text xml:space="preserve" font-family="AvenirNext-Regular,Avenir Next" font-size="29.6" fill="#FEFFFF" transform="matrix(1.00, 0.00, -0.00, -1.00, 258.1, 102.0)"> </text><text xml:space="preserve" font-family="AvenirNext-Regular,Avenir Next" font-size="29.6" fill="#FEFFFF" transform="matrix(1.00, 0.00, -0.00, -1.00, 265.5, 102.0)">b</text><text xml:space="preserve" font-family="AvenirNext-Regular,Avenir Next" font-size="29.6" fill="#FEFFFF" transform="matrix(1.00, 0.00, -0.00, -1.00, 284.4, 102.0)">l</text><text xml:space="preserve" font-family="AvenirNext-Regular,Avenir Next" font-size="29.6" fill="#FEFFFF" transform="matrix(1.00, 0.00, -0.00, -1.00, 291.9, 102.0)">o</text><text xml:space="preserve" font-family="AvenirNext-Regular,Avenir Next" font-size="29.6" fill="#FEFFFF" transform="matrix(1.00, 0.00, -0.00, -1.00, 310.0, 102.0)">c</text><text xml:space="preserve" font-family="AvenirNext-Regular,Avenir Next" font-size="29.6" fill="#FEFFFF" transform="matrix(1.00, 0.00, -0.00, -1.00, 324.8, 102.0)">k</text><text xml:space="preserve" font-family="AvenirNext-Regular,Avenir Next" font-size="29.6" fill="#FEFFFF" transform="matrix(1.00, 0.00, -0.00, -1.00, 339.9, 102.0)"> </text><text xml:space="preserve" font-family="AvenirNext-Regular,Avenir Next" font-size="29.6" fill="#FEFFFF" transform="matrix(1.00, 0.00, -0.00, -1.00, 347.3, 102.0)">t</text><text xml:space="preserve" font-family="AvenirNext-Regular,Avenir Next" font-size="29.6" fill="#FEFFFF" transform="matrix(1.00, 0.00, -0.00, -1.00, 356.7, 102.0)">h</text><text xml:space="preserve" font-family="AvenirNext-Regular,Avenir Next" font-size="29.6" fill="#FEFFFF" transform="matrix(1.00, 0.00, -0.00, -1.00, 374.0, 102.0)">e</text><text xml:space="preserve" font-family="AvenirNext-Regular,Avenir Next" font-size="29.6" fill="#FEFFFF" transform="matrix(1.00, 0.00, -0.00, -1.00, 391.0, 102.0)">o</text><text xml:space="preserve" font-family="AvenirNext-Regular,Avenir Next" font-size="29.6" fill="#FEFFFF" transform="matrix(1.00, 0.00, -0.00, -1.00, 409.1, 102.0)">r</text><text xml:space="preserve" font-family="AvenirNext-Regular,Avenir Next" font-size="29.6" fill="#FEFFFF" transform="matrix(1.00, 0.00, -0.00, -1.00, 419.7, 102.0)">y</text><text xml:space="preserve" font-family="AvenirNext-Regular,Avenir Next" font-size="29.6" fill="#FEFFFF" transform="matrix(1.00, 0.00, -0.00, -1.00, 434.2, 102.0)"> </text><text xml:space="preserve" font-family="AvenirNext-Regular,Avenir Next" font-size="29.6" fill="#FEFFFF" transform="matrix(1.00, 0.00, -0.00, -1.00, 441.6, 102.0)">i</text><text xml:space="preserve" font-family="AvenirNext-Regular,Avenir Next" font-size="29.6" fill="#FEFFFF" transform="matrix(1.00, 0.00, -0.00, -1.00, 449.0, 102.0)">s</text><text xml:space="preserve" font-family="AvenirNext-Regular,Avenir Next" font-size="29.6" fill="#FEFFFF" transform="matrix(1.00, 0.00, -0.00, -1.00, 462.2, 102.0)"> </text><text xml:space="preserve" font-family="AvenirNext-Regular,Avenir Next" font-size="29.6" fill="#FEFFFF" transform="matrix(1.00, 0.00, -0.00, -1.00, 469.6, 102.0)">i</text><text xml:space="preserve" font-family="AvenirNext-Regular,Avenir Next" font-size="29.6" fill="#FEFFFF" transform="matrix(1.00, 0.00, -0.00, -1.00, 477.0, 102.0)">m</text><text xml:space="preserve" font-family="AvenirNext-Regular,Avenir Next" font-size="29.6" fill="#FEFFFF" transform="matrix(1.00, 0.00, -0.00, -1.00, 503.2, 102.0)">p</text><text xml:space="preserve" font-family="AvenirNext-Regular,Avenir Next" font-size="29.6" fill="#FEFFFF" transform="matrix(1.00, 0.00, -0.00, -1.00, 522.0, 102.0)">l</text><text xml:space="preserve" font-family="AvenirNext-Regular,Avenir Next" font-size="29.6" fill="#FEFFFF" transform="matrix(1.00, 0.00, -0.00, -1.00, 529.5, 102.0)">a</text><text xml:space="preserve" font-family="AvenirNext-Regular,Avenir Next" font-size="29.6" fill="#FEFFFF" transform="matrix(1.00, 0.00, -0.00, -1.00, 545.3, 102.0)">u</text><text xml:space="preserve" font-family="AvenirNext-Regular,Avenir Next" font-size="29.6" fill="#FEFFFF" transform="matrix(1.00, 0.00, -0.00, -1.00, 562.5, 102.0)">s</text><text xml:space="preserve" font-family="AvenirNext-Regular,Avenir Next" font-size="29.6" fill="#FEFFFF" transform="matrix(1.00, 0.00, -0.00, -1.00, 575.7, 102.0)">i</text><text xml:space="preserve" font-family="AvenirNext-Regular,Avenir Next" font-size="29.6" fill="#FEFFFF" transform="matrix(1.00, 0.00, -0.00, -1.00, 583.1, 102.0)">b</text><text xml:space="preserve" font-family="AvenirNext-Regular,Avenir Next" font-size="29.6" fill="#FEFFFF" transform="matrix(1.00, 0.00, -0.00, -1.00, 602.0, 102.0)">l</text><text xml:space="preserve" font-family="AvenirNext-Regular,Avenir Next" font-size="29.6" fill="#FEFFFF" transform="matrix(1.00, 0.00, -0.00, -1.00, 609.4, 102.0)">e</text><path d="M 0.0 0.0 L 44.0 0.0 " fill="none" stroke="#FEFFFE" stroke-width="2.00" transform="matrix(1.00, -0.00, -0.00, -1.00, 448.0, 315.2)"></path><path d="M 0.0 0.0 L 49.0 0.0 " fill="none" stroke="#FEFFFE" stroke-width="2.00" transform="matrix(0.00, 1.00, 1.00, -0.00, 746.4, 315.5)"></path><path d="M 0.0 0.0 L 254.0 0.0 " fill="none" stroke="#FEFFFE" stroke-width="2.00" transform="matrix(1.00, -0.00, -0.00, -1.00, 492.0, 364.2)"></path><path d="M 0.0 0.0 L 37.8 0.0 L 38.8 0.0 " fill="none" stroke="#FEFFFE" stroke-width="2.00" transform="matrix(-0.01, -1.00, -1.00, 0.01, 492.7, 365.5)"></path><path d="M 487.6 330.2 L 492.3 320.5 L 497.2 330.0 L 492.3 327.7 Z M 487.6 330.2 " fill="#FEFFFE"></path><text xml:space="preserve" font-family="AvenirNext-Regular,Avenir Next" font-size="24.0" fill="#FEFFFF" transform="matrix(1.00, 0.00, -0.00, -1.00, 710.5, 279.3)">d</text><text xml:space="preserve" font-family="AvenirNext-Regular,Avenir Next" font-size="24.0" fill="#FEFFFF" transform="matrix(1.00, 0.00, -0.00, -1.00, 725.8, 279.3)">e</text><text xml:space="preserve" font-family="AvenirNext-Regular,Avenir Next" font-size="24.0" fill="#FEFFFF" transform="matrix(1.00, 0.00, -0.00, -1.00, 739.5, 279.3)">p</text><text xml:space="preserve" font-family="AvenirNext-Regular,Avenir Next" font-size="24.0" fill="#FEFFFF" transform="matrix(1.00, 0.00, -0.00, -1.00, 754.7, 279.3)">a</text><text xml:space="preserve" font-family="AvenirNext-Regular,Avenir Next" font-size="24.0" fill="#FEFFFF" transform="matrix(1.00, 0.00, -0.00, -1.00, 767.6, 279.3)">r</text><text xml:space="preserve" font-family="AvenirNext-Regular,Avenir Next" font-size="24.0" fill="#FEFFFF" transform="matrix(1.00, 0.00, -0.00, -1.00, 775.9, 279.3)">t</text><text xml:space="preserve" font-family="AvenirNext-Regular,Avenir Next" font-size="24.0" fill="#FEFFFF" transform="matrix(1.00, 0.00, -0.00, -1.00, 462.2, 279.3)">a</text><text xml:space="preserve" font-family="AvenirNext-Regular,Avenir Next" font-size="24.0" fill="#FEFFFF" transform="matrix(1.00, 0.00, -0.00, -1.00, 475.0, 279.3)">r</text><text xml:space="preserve" font-family="AvenirNext-Regular,Avenir Next" font-size="24.0" fill="#FEFFFF" transform="matrix(1.00, 0.00, -0.00, -1.00, 483.7, 279.3)">r</text><text xml:space="preserve" font-family="AvenirNext-Regular,Avenir Next" font-size="24.0" fill="#FEFFFF" transform="matrix(1.00, 0.00, -0.00, -1.00, 492.3, 279.3)">i</text><text xml:space="preserve" font-family="AvenirNext-Regular,Avenir Next" font-size="24.0" fill="#FEFFFF" transform="matrix(1.00, 0.00, -0.00, -1.00, 498.3, 279.3)">v</text><text xml:space="preserve" font-family="AvenirNext-Regular,Avenir Next" font-size="24.0" fill="#FEFFFF" transform="matrix(1.00, 0.00, -0.00, -1.00, 510.0, 279.3)">e</text><path d="M 0.0 0.0 L 344.4 0.0 L 345.4 0.0 " fill="none" stroke="#FEFFFE" stroke-width="2.00" stroke-dasharray="4.0, 4.0" transform="matrix(1.00, 0.00, 0.00, -1.00, 493.0, 315.2)"></path><path d="M 837.4 310.9 L 847.0 315.7 L 837.4 320.5 Z M 837.4 310.9 " fill="#FEFFFE"></path><image xlink:href="FFDC91F77E71C7D7D768B27F773777B9.png" width="1102.00" height="54.00" transform="matrix(0.54, 0.00, -0.00, -0.56, 374.0, 536.0)"></image></g></svg>