<?xml version="1.0" encoding="utf-8"?>
<!-- Generator: Adobe Illustrator 16.0.0, SVG Export Plug-In . SVG Version: 6.00 Build 0)  -->
<!DOCTYPE svg PUBLIC "-//W3C//DTD SVG 1.1//EN" "http://www.w3.org/Graphics/SVG/1.1/DTD/svg11.dtd">
<svg version="1.1" id="Layer_1" xmlns="http://www.w3.org/2000/svg" xmlns:xlink="http://www.w3.org/1999/xlink" x="0px" y="0px"
	 width="360px" height="360px" viewBox="0 0 360 360" enable-background="new 0 0 360 360" xml:space="preserve">
<path fill="#263A80" d="M293.863,182.593c0,65.356-50.977,118.339-113.865,118.339c-62.884,0-113.863-52.982-113.863-118.339
	S117.114,64.252,179.998,64.252C242.887,64.252,293.863,117.236,293.863,182.593z"/>
<path fill="#FFFFFF" d="M237.073,233.486l-9.296-51.939l7.04-52.271l-16.804-2.264l-2.15-12.021l-37.399,6.688l-37.646-5.073
	l-0.787,5.825l-7.703,0.006l0.004,7.502l-9.823,1.755l9.288,51.921l-7.041,52.301l7.645,1.03l0.002,5.866l9.987-0.003l1.323,7.387
	l37.365-6.688l37.668,5.074l0.779-5.822l7.723-0.007l-0.002-7.511L237.073,233.486z M128.368,135.774l3.967-0.709l0.015,22.977
	L128.368,135.774z M130.436,231.587l1.951-14.515l0.01,14.78L130.436,231.587z M229.141,133.608l-1.457,10.815l-7.982-7.99
	l-0.754-4.202L229.141,133.608z M218.572,142.496l-11.467,0.009l-0.008-11.487L218.572,142.496z M211.783,120.85l0.975,5.454
	l-3.676-0.494l-3.793-3.796L211.783,120.85z M147.79,244.336l-0.271-1.534l8.871-0.003L147.79,244.336z M137.449,237.762
	l-0.07-110.276l64.672-0.047l0.012,20.115l20.077-0.012l0.056,90.165L137.449,237.762z M227.224,207.135l3.991,22.269l-3.977,0.712
	L227.224,207.135z M212.203,154.082l-64.053,0.037v5.052l64.053-0.04V154.082z M212.207,167.855l-64.055,0.04l0.006,5.049
	l64.049-0.04V167.855z M212.216,181.634l-64.054,0.043l0.004,5.05l64.054-0.041L212.216,181.634z M212.222,195.413l-64.051,0.037
	l0.004,5.049l64.054-0.036L212.222,195.413z M148.18,209.229l0.003,5.049l64.052-0.04l-0.002-5.05L148.18,209.229z"/>
</svg>
