<?xml version="1.0" encoding="utf-8"?>
<!-- Generator: Adobe Illustrator 16.0.0, SVG Export Plug-In . SVG Version: 6.00 Build 0)  -->
<!DOCTYPE svg PUBLIC "-//W3C//DTD SVG 1.1//EN" "http://www.w3.org/Graphics/SVG/1.1/DTD/svg11.dtd">
<svg version="1.1" id="Layer_1" xmlns="http://www.w3.org/2000/svg" xmlns:xlink="http://www.w3.org/1999/xlink" x="0px" y="0px"
	 width="360px" height="360px" viewBox="0 0 360 360" enable-background="new 0 0 360 360" xml:space="preserve">
<ellipse fill="#263A80" cx="180" cy="183.847" rx="113.865" ry="118.339"/>
<path fill="#FFFFFF" d="M254.94,167.734c-9.63-30.412-36.966-52.003-68.562-54.466c-1.297-2.023-3.563-3.366-6.138-3.366
	s-4.846,1.343-6.139,3.366c-32.35,2.506-59.894,24.727-69.071,56.074c-0.643,2.211,0.618,4.524,2.82,5.171
	c0.39,0.121,0.787,0.167,1.173,0.167c1.801,0,3.455-1.176,3.991-2.991c0.004-0.007,0.004-0.007,0.004-0.007
	c1.787-6.092,7.468-10.336,13.815-10.336c6.346,0,12.029,4.254,13.812,10.343c0.521,1.775,2.148,2.991,3.994,2.991
	c1.848,0,3.479-1.216,3.991-2.991c1.792-6.089,7.468-10.343,13.819-10.343c6.19,0,11.717,4.057,13.649,9.909v77.771
	c0,10.076,8.199,18.28,18.284,18.28c10.075,0,18.273-8.204,18.273-18.28c0-2.302-1.858-4.16-4.157-4.16
	c-2.296,0-4.164,1.858-4.164,4.16c0,5.484-4.472,9.955-9.952,9.955c-5.492,0-9.961-4.471-9.961-9.955v-77.771
	c1.929-5.853,7.457-9.909,13.645-9.909c6.354,0,12.035,4.254,13.816,10.343c0.52,1.775,2.145,2.991,3.995,2.991
	c1.849,0,3.476-1.216,3.993-2.991c1.785-6.089,7.468-10.343,13.815-10.343c5.972,0,11.237,3.588,13.408,9.161
	c0.82,2.088,3.152,3.148,5.266,2.412C254.473,172.172,255.62,169.876,254.94,167.734z M233.689,153.021
	c-7.05,0-13.577,3.323-17.809,8.638c-4.236-5.317-10.758-8.638-17.813-8.638c-7.045,0-13.579,3.323-17.808,8.638
	c-4.229-5.317-10.753-8.638-17.808-8.638c-7.05,0-13.577,3.323-17.811,8.638c-4.229-5.317-10.757-8.638-17.807-8.638
	c-1.955,0-3.864,0.255-5.695,0.73c12.078-18.988,32.864-31.384,56.147-32.337c1.183-0.051,2.228-0.589,2.954-1.409
	c0.724,0.82,1.772,1.358,2.948,1.409c23.106,0.953,43.938,13.354,56.065,32.285C237.461,153.251,235.602,153.021,233.689,153.021z"
	/>
</svg>
