<?xml version="1.0" encoding="utf-8"?>
<!-- Generator: Adobe Illustrator 16.0.0, SVG Export Plug-In . SVG Version: 6.00 Build 0)  -->
<!DOCTYPE svg PUBLIC "-//W3C//DTD SVG 1.1//EN" "http://www.w3.org/Graphics/SVG/1.1/DTD/svg11.dtd">
<svg version="1.1" id="Layer_1" xmlns="http://www.w3.org/2000/svg" xmlns:xlink="http://www.w3.org/1999/xlink" x="0px" y="0px"
	 width="360px" height="360px" viewBox="0 0 360 360" enable-background="new 0 0 360 360" xml:space="preserve">
<path fill="#263A80" d="M294.562,178.105c0,65.356-50.977,118.339-113.865,118.339c-62.884,0-113.864-52.982-113.864-118.339
	s50.98-118.341,113.864-118.341C243.586,59.765,294.562,112.749,294.562,178.105z"/>
<g>
	<path fill="#FFFFFF" d="M156.365,224.315l78.379-78.377c4.671-4.672,4.671-12.267,0.003-16.938c-4.671-4.668-12.27-4.668-16.941,0
		l-78.381,78.381c-4.608-0.124-9.262,1.559-12.775,5.07c-6.798,6.8-6.795,17.851,0,24.647c6.793,6.793,17.843,6.793,24.644-0.003
		C154.804,233.581,156.486,228.928,156.365,224.315z M131.118,232.628c-4.334-4.33-4.334-11.378-0.003-15.709
		c2.868-2.867,6.928-3.821,10.603-2.893l4.894-4.894l1.433-1.431l74.229-74.231c2.209-2.209,5.801-2.209,8.007-0.003
		c2.202,2.206,2.202,5.794-0.008,8.003l-4.093,4.093l-2.883-2.884c-1.076-1.078-2.83-1.078-3.913,0
		c-1.076,1.078-1.076,2.832,0.003,3.911l2.884,2.884l-3.886,3.885l-0.585,0.585l-2.884-2.883c-1.076-1.079-2.826-1.083-3.906-0.004
		c-1.079,1.081-1.077,2.831,0.003,3.907l2.882,2.884l-2.155,2.157l-2.23,2.229l-0.086,0.087l-2.885-2.884
		c-1.076-1.079-2.833-1.079-3.907-0.003c-1.082,1.08-1.079,2.834,0,3.91l2.884,2.884l-0.423,0.424l-2.234,2.233l-1.813,1.813
		l-2.883-2.884c-1.079-1.079-2.831-1.079-3.911,0c-1.079,1.079-1.075,2.831,0,3.91l2.884,2.883l-0.922,0.923l-3.548,3.548
		l-2.884-2.883c-1.079-1.079-2.83-1.079-3.907-0.004c-1.083,1.083-1.079,2.834,0,3.911l2.884,2.884l-32.719,32.719l-1.426,1.426
		l-4.898,4.896c0.936,3.673-0.024,7.729-2.892,10.596C142.491,236.959,135.446,236.959,131.118,232.628z"/>
	<path fill="#FFFFFF" d="M147.32,221.758l33.043-33.041l-5.312-5.312l-33.027,33.031c-3.209-1.198-6.955-0.51-9.532,2.066
		c-3.523,3.521-3.521,9.229,0,12.748c3.523,3.524,9.231,3.527,12.756,0.007C147.814,228.688,148.496,224.955,147.32,221.758z"/>
</g>
</svg>
