<?xml version="1.0" encoding="utf-8"?>
<!-- Generator: Adobe Illustrator 16.0.0, SVG Export Plug-In . SVG Version: 6.00 Build 0)  -->
<!DOCTYPE svg PUBLIC "-//W3C//DTD SVG 1.1//EN" "http://www.w3.org/Graphics/SVG/1.1/DTD/svg11.dtd">
<svg version="1.1" id="Layer_1" xmlns="http://www.w3.org/2000/svg" xmlns:xlink="http://www.w3.org/1999/xlink" x="0px" y="0px"
	 width="360px" height="360px" viewBox="0 0 360 360" enable-background="new 0 0 360 360" xml:space="preserve">
<ellipse fill="#263A80" cx="180" cy="182.593" rx="113.865" ry="118.339"/>
<path fill="#FFFFFF" d="M237.551,170.949c-0.639-4.561-8.938-8.478-12.099-10.779c-3.604-2.629-7.202-5.259-10.808-7.889
	c-1.736-1.262-3.656-3.244-5.65-4.09c3.705-4.978,7.672-9.763,11.786-14.41c2.546-2.871,12.282-11.331,3.452-12.86
	c-6.576,0-12.646,2.459-18.844,4.315c-7.027,2.099-14.17,1.986-21.336,0.626c4.278-6.621,2.885-16.229-4.214-20.279
	c-7.336-4.185-18.185-3.902-25.579-0.046c-17.166,8.954-15.068,29.67-2.944,41.775c-8.702,6.568-18.476,12.599-26.481,19.985
	c-3.379,3.113-2.418,7.84-2.418,12.078c0,7.843,0,15.686,0,23.529c0,5.355,0,10.717,0,16.075c0,3.97,4.135,5.996,6.943,8.046
	c12.094,8.824,24.182,17.649,36.279,26.474c3.65,2.667,7.301,5.326,10.952,7.993c4.104,2.997,7.647-0.575,10.846-2.91
	c12.022-8.774,24.048-17.551,36.072-26.328c3.832-2.792,7.659-5.59,11.491-8.383c3.459-2.528,2.625-7.016,2.625-10.788
	c0-13.541,0-27.078,0-40.619C237.625,171.945,237.618,171.475,237.551,170.949C237.534,170.826,237.592,171.236,237.551,170.949z
	 M151.263,117.694c2.763-4.229,7.114-6.911,12.096-7.635c4.261-0.622,11.726-0.516,14.631,3.202
	c2.479,3.174,1.429,8.282-1.71,10.611c-5.589,0-2.34,6.815-1.541,9.386c1.271,4.693,1.971,9.222,1.771,14.101
	c-0.099,2.537-0.308,5.067-0.626,7.583c-0.146,1.182-0.988,3.539-0.239,4.712c2.923,4.572,4.972-7.824,5.124-8.631
	c1.156-6.16,1.453-12.202,0.594-18.411c12.049,2.531,21.863,0.644,33.396-2.83c-8.01,9.116-15.564,18.794-21.699,29.286
	c-1.263,2.16-2.441,4.362-3.469,6.64c-0.711,1.577-1.197,5.339-2.426,6.462c-3.688,3.376-12.229,2.815-16.232,0.485
	c-2.908-1.694-3.115-2.8-3.252-5.96c-0.133-3.171-0.664-6.323-1.592-9.359c-1.606-5.24-4.432-10.196-8.49-13.927
	C150.456,136.851,145.32,126.789,151.263,117.694C155.507,111.198,143.94,128.906,151.263,117.694z M176.439,248.073
	c-13.43-9.797-26.863-19.595-40.295-29.389c-0.885-0.65-2.986-1.52-2.986-2.729c0-3.77,0-7.537,0-11.309c0-8.171,0-16.337,0-24.51
	c13.43,9.797,26.862,19.595,40.292,29.393c0.892,0.643,2.989,1.512,2.989,2.725c0,3.768,0,7.537,0,11.304
	C176.439,231.732,176.439,239.902,176.439,248.073z M180.021,205.455c-14.905-10.868-29.811-21.735-44.713-32.606
	c7.527-5.674,15.054-11.342,22.578-17.012c1.413,3.044,2.248,6.348,2.543,9.686c0.284,3.224-0.65,6.122,1.555,8.773
	c3.954,4.749,9.833,7.288,15.977,7.288c5.928,0,14.435-1.66,16.427-8.091c1.86-5.997,4.996-11.309,8.427-16.543
	c2.948,2.998,7.225,5.287,10.615,7.755c3.744,2.732,7.486,5.465,11.227,8.195C209.779,183.753,194.897,194.603,180.021,205.455z
	 M226.881,216.503c-14.429,10.523-28.852,21.046-43.28,31.57c0-8.171,0-16.341,0-24.508c0-3.769,0-7.543,0-11.311
	c0-1.209,2.101-2.082,2.989-2.728c13.433-9.801,26.858-19.603,40.291-29.406C226.881,192.246,226.881,204.372,226.881,216.503z"/>
</svg>
