<?xml version="1.0" encoding="utf-8"?>
<!-- Generator: Adobe Illustrator 16.0.0, SVG Export Plug-In . SVG Version: 6.00 Build 0)  -->
<!DOCTYPE svg PUBLIC "-//W3C//DTD SVG 1.1//EN" "http://www.w3.org/Graphics/SVG/1.1/DTD/svg11.dtd">
<svg version="1.1" id="Layer_1" xmlns="http://www.w3.org/2000/svg" xmlns:xlink="http://www.w3.org/1999/xlink" x="0px" y="0px"
	 width="360px" height="360px" viewBox="0 0 360 360" enable-background="new 0 0 360 360" xml:space="preserve">
<ellipse fill="#263A80" cx="184.281" cy="188.605" rx="113.865" ry="118.339"/>
<g>
	<path fill="#FFFFFF" d="M153.872,260.762c-0.046,0-0.092,0-0.142,0c-22.648-1.062-40.532-18.954-41.604-41.613
		c-0.037-0.837,0.278-1.663,0.876-2.26l99.56-99.558c0.594-0.601,1.426-0.899,2.269-0.882c22.651,1.07,40.538,18.959,41.605,41.611
		c0.034,0.84-0.28,1.666-0.875,2.264l-99.562,99.559C155.432,260.453,154.669,260.762,153.872,260.762z M118.215,220.18
		c1.501,18.475,16.02,33,34.489,34.494l97.644-97.642c-1.492-18.476-16.017-32.997-34.496-34.491L118.215,220.18z"/>
	<path fill="#FFFFFF" d="M180.113,215.773c-2.131,0-4.133-0.825-5.643-2.323l-15.026-15.031c-3.111-3.115-3.111-8.177,0-11.289
		l23.349-23.356c3.028-3.014,8.283-3.011,11.298,0l15.013,15.025c1.501,1.498,2.333,3.506,2.333,5.643
		c0,2.135-0.826,4.139-2.333,5.646l-23.345,23.354C184.253,214.945,182.248,215.773,180.113,215.773z M188.448,167.451
		c-0.532,0-1.033,0.207-1.405,0.576l-23.347,23.354c-0.765,0.771-0.765,2.018,0,2.791l15.019,15.02
		c0.733,0.723,2.058,0.733,2.794-0.006l23.345-23.355c0.368-0.367,0.568-0.862,0.568-1.394c0-0.532-0.2-1.02-0.564-1.387
		l-15.021-15.022C189.469,167.658,188.974,167.451,188.448,167.451z"/>
	<g>
		<circle fill="#FFFFFF" cx="220.812" cy="130.245" r="1.58"/>
		<circle fill="#FFFFFF" cx="213.203" cy="137.854" r="1.578"/>
		<circle fill="#FFFFFF" cx="205.602" cy="145.464" r="1.578"/>
		<circle fill="#FFFFFF" cx="197.989" cy="153.071" r="1.573"/>
	</g>
	<g>
		<circle fill="#FFFFFF" cx="242.643" cy="152.074" r="1.576"/>
		<circle fill="#FFFFFF" cx="235.028" cy="159.679" r="1.576"/>
		<path fill="#FFFFFF" d="M227.426,165.713c0.871,0,1.576,0.705,1.576,1.578c0,0.869-0.705,1.573-1.576,1.573
			c-0.87,0-1.579-0.704-1.579-1.573C225.847,166.418,226.556,165.713,227.426,165.713z"/>
		<path fill="#FFFFFF" d="M219.814,173.322c0.869,0,1.574,0.706,1.574,1.579c0,0.866-0.705,1.57-1.574,1.57s-1.578-0.704-1.578-1.57
			C218.236,174.028,218.945,173.322,219.814,173.322z"/>
	</g>
	<path fill="#FFFFFF" d="M229.662,145.449c-0.609,0.619-1.616,0.619-2.222,0c-0.615-0.612-0.615-1.608,0-2.227
		c0.605-0.613,1.612-0.613,2.222,0C230.283,143.841,230.283,144.837,229.662,145.449z"/>
	<path fill="#FFFFFF" d="M220.949,150.371c0.866,0,1.571,0.702,1.571,1.575c0,0.866-0.705,1.571-1.571,1.571
		c-0.871,0-1.577-0.705-1.577-1.571C219.372,151.073,220.078,150.371,220.949,150.371z"/>
	<circle fill="#FFFFFF" cx="213.339" cy="159.551" r="1.578"/>
	<g>
		<path fill="#FFFFFF" d="M149.381,200.108c0.866,0,1.572,0.706,1.572,1.577c0,0.87-0.706,1.575-1.572,1.575
			c-0.872,0-1.576-0.705-1.576-1.575C147.805,200.814,148.509,200.108,149.381,200.108z"/>
		<circle fill="#FFFFFF" cx="141.766" cy="209.291" r="1.576"/>
		<path fill="#FFFFFF" d="M135.268,218.014c-0.609,0.612-1.608,0.612-2.218,0c-0.623-0.615-0.623-1.614,0-2.225
			c0.609-0.621,1.608-0.621,2.218,0C135.896,216.399,135.896,217.398,135.268,218.014z"/>
		<circle fill="#FFFFFF" cx="126.55" cy="224.511" r="1.578"/>
	</g>
	<g>
		<circle fill="#FFFFFF" cx="171.203" cy="223.508" r="1.575"/>
		<path fill="#FFFFFF" d="M163.594,229.545c0.872,0,1.577,0.705,1.577,1.577c0,0.866-0.705,1.571-1.577,1.571
			c-0.867,0-1.575-0.705-1.575-1.571C162.019,230.25,162.727,229.545,163.594,229.545z"/>
		<ellipse fill="#FFFFFF" cx="155.991" cy="238.726" rx="1.576" ry="1.582"/>
		<path fill="#FFFFFF" d="M148.376,244.762c0.869,0,1.574,0.699,1.574,1.571c0,0.87-0.705,1.572-1.574,1.572
			c-0.866,0-1.571-0.702-1.571-1.572C146.805,245.461,147.51,244.762,148.376,244.762z"/>
	</g>
	<path fill="#FFFFFF" d="M158.223,216.889c-0.614,0.621-1.614,0.621-2.224,0c-0.619-0.616-0.619-1.609,0-2.226
		c0.618-0.619,1.614-0.619,2.224,0C158.844,215.279,158.844,216.272,158.223,216.889z"/>
	<path fill="#FFFFFF" d="M149.505,221.801c0.872,0,1.578,0.708,1.578,1.577c0,0.873-0.706,1.585-1.578,1.585
		c-0.869,0-1.577-0.712-1.577-1.585C147.928,222.509,148.636,221.801,149.505,221.801z"/>
	<path fill="#FFFFFF" d="M143.015,232.109c-0.619,0.612-1.618,0.612-2.233,0c-0.623-0.617-0.623-1.622,0-2.236
		c0.615-0.607,1.614-0.607,2.233,0C143.628,230.487,143.628,231.492,143.015,232.109z"/>
</g>
</svg>
