<?xml version="1.0" encoding="utf-8"?>
<!-- Generator: Adobe Illustrator 16.0.0, SVG Export Plug-In . SVG Version: 6.00 Build 0)  -->
<!DOCTYPE svg PUBLIC "-//W3C//DTD SVG 1.1//EN" "http://www.w3.org/Graphics/SVG/1.1/DTD/svg11.dtd">
<svg version="1.1" id="Layer_1" xmlns="http://www.w3.org/2000/svg" xmlns:xlink="http://www.w3.org/1999/xlink" x="0px" y="0px"
	 width="360px" height="360px" viewBox="0 0 360 360" enable-background="new 0 0 360 360" xml:space="preserve">
<ellipse fill="#263A80" cx="173.679" cy="180.002" rx="113.88" ry="118.354"/>
<g>
	<g>
		<path fill="#FFFFFF" d="M188.948,152.696l1.077-1.042l8.298-4.793l-12.033-3.125l0.322-1.556l-1.225-0.647l3.06-5.065
			l-79.769,21.424l-11.009,3.441c-1.2,0.16-6.525,1.082-9.112,5.12c-1.64,2.562-1.828,5.718-0.553,9.391
			c1.51,4.351,4.82,6.748,9.334,6.748c2.578,0,4.809-0.798,5.482-1.064l7.166-1.615l82.501-23.515L188.948,152.696z
			 M112.537,161.054l1.919-0.538c-0.322,2.769-0.025,7.317,3.354,12.834l-2.101,0.612
			C110.922,166.958,112.2,162.044,112.537,161.054z M118.901,159.257l1.819-0.512c-0.186,2.918,0.356,7.358,3.766,12.652
			l-2.58,0.758C116.906,164.72,118.726,159.689,118.901,159.257z M125,157.536l1.888-0.539c-0.301,2.788,0.059,7.281,3.372,12.701
			l-1.627,0.48C124.245,163.983,124.579,159.358,125,157.536z M101.755,177.567l-0.369,0.114c-0.021,0.013-1.902,0.808-4.05,0.808
			c-2.778,0-4.515-1.271-5.464-3.992c-0.832-2.413-0.792-4.368,0.133-5.819c1.767-2.784,6.253-3.286,6.29-3.289l3.292-1.019
			c-0.157,2.902,0.428,7.24,3.723,12.398L101.755,177.567z M109.582,175.763c-4.437-6.213-4.13-10.857-3.722-12.717l2.265-0.695
			c-0.297,2.818,0.083,7.357,3.478,12.815L109.582,175.763z M184.861,154.353l-50.514,14.152
			c-4.657-6.932-3.392-11.779-3.058-12.751l48.463-12.565l2.215,1.17l-0.494,2.363l6.139,1.591l-4.475,4.248L184.861,154.353z"/>
		<path fill="#FFFFFF" d="M246.813,207.555l-66.952-34.292l-1.681,1.838l-7.029-1.521l2.182,6.791l-2.231,1.618l3.329,3.831
			l-2.556,2.352l3.691,5.049l60.7,32.961l23.92,1.107L246.813,207.555z M254.149,222.688c-0.223,0.318-0.42,0.662-0.594,1.035
			l-14.325-0.878c-0.06-2.441,0.451-7.979,5.885-11.281L254.149,222.688z M177.343,188.708l2.791-2.564l-3.005-3.462l1.015-0.737
			l-0.919-2.855l2.396,0.518l1.08-1.176l60.684,30.724c-4.261,3.313-5.854,7.921-6.204,11.634l-56.801-30.672L177.343,188.708z"/>
		<ellipse fill="#FFFFFF" cx="204.282" cy="162.777" rx="1.637" ry="1.813"/>
		<path fill="#FFFFFF" d="M215.143,162.128c0.895,0,1.628,0.807,1.628,1.812s-0.733,1.811-1.628,1.811
			c-0.903,0-1.634-0.805-1.634-1.811S214.239,162.128,215.143,162.128z"/>
		<path fill="#FFFFFF" d="M207.692,175.447c0.9,0,1.634,0.813,1.634,1.816c0,1.005-0.733,1.819-1.634,1.819
			c-0.906,0-1.637-0.814-1.637-1.819C206.056,176.261,206.786,175.447,207.692,175.447z"/>
		<path fill="#FFFFFF" d="M182.417,164.513c0.903,0,1.634,0.814,1.634,1.82c0,1.005-0.73,1.815-1.634,1.815
			c-0.91,0-1.643-0.811-1.643-1.815C180.774,165.327,181.507,164.513,182.417,164.513z"/>
		<path fill="#FFFFFF" d="M211.278,140.015c1.133,0,2.045,0.916,2.045,2.045s-0.912,2.042-2.045,2.042
			c-1.123,0-2.042-0.913-2.042-2.042S210.155,140.015,211.278,140.015z"/>
		<path fill="#FFFFFF" d="M220.06,153.9c1.467,0,2.651,1.188,2.651,2.655c0,1.466-1.185,2.654-2.651,2.654
			c-1.47,0-2.658-1.188-2.658-2.654C217.401,155.089,218.59,153.9,220.06,153.9z"/>
		<path fill="#FFFFFF" d="M207.81,150.225c0.783,0,1.427,0.644,1.427,1.43c0,0.795-0.644,1.436-1.427,1.436
			c-0.792,0-1.433-0.641-1.433-1.436C206.377,150.868,207.018,150.225,207.81,150.225z"/>
	</g>
</g>
</svg>
