<?xml version="1.0" encoding="utf-8"?>
<!-- Generator: Adobe Illustrator 16.0.0, SVG Export Plug-In . SVG Version: 6.00 Build 0)  -->
<!DOCTYPE svg PUBLIC "-//W3C//DTD SVG 1.1//EN" "http://www.w3.org/Graphics/SVG/1.1/DTD/svg11.dtd">
<svg version="1.1" id="Layer_1" xmlns="http://www.w3.org/2000/svg" xmlns:xlink="http://www.w3.org/1999/xlink" x="0px" y="0px"
	 width="313.594px" height="145.492px" viewBox="0 0 313.594 145.492" enable-background="new 0 0 313.594 145.492"
	 xml:space="preserve">
<g>
	<g>
		<path fill="#FFFFFF" d="M68.741,43.033c0,1.285-0.416,2.296-1.246,3.031c-0.831,0.736-1.81,1.104-2.938,1.104
			s-2.108-0.368-2.938-1.104c-0.831-0.735-1.246-1.746-1.246-3.031c0-1.284,0.415-2.295,1.246-3.031
			c0.83-0.736,1.81-1.104,2.938-1.104s2.107,0.368,2.938,1.104C68.325,40.738,68.741,41.749,68.741,43.033z M68.083,74.899H61.08
			V50.177h7.003V74.899z"/>
		<path fill="#FFFFFF" d="M89.091,56.381c-0.627-0.156-1.363-0.32-2.209-0.493c-0.846-0.172-1.755-0.259-2.726-0.259
			c-0.439,0-0.963,0.04-1.574,0.118c-0.611,0.078-1.074,0.164-1.387,0.258v18.895h-7.003V51.493
			c1.253-0.438,2.733-0.854,4.441-1.245c1.708-0.392,3.611-0.588,5.71-0.588c0.376,0,0.83,0.023,1.363,0.07
			c0.532,0.047,1.064,0.11,1.598,0.188c0.533,0.078,1.065,0.172,1.598,0.281c0.532,0.11,0.987,0.243,1.363,0.4L89.091,56.381z"/>
		<path fill="#FFFFFF" d="M101.217,43.033c0,1.285-0.416,2.296-1.246,3.031c-0.831,0.736-1.81,1.104-2.938,1.104
			s-2.108-0.368-2.938-1.104c-0.831-0.735-1.246-1.746-1.246-3.031c0-1.284,0.415-2.295,1.246-3.031
			c0.83-0.736,1.81-1.104,2.938-1.104s2.107,0.368,2.938,1.104C100.801,40.738,101.217,41.749,101.217,43.033z M100.559,74.899
			h-7.003V50.177h7.003V74.899z"/>
		<path fill="#FFFFFF" d="M113.766,69.87c1.284,0,2.193-0.125,2.726-0.376c0.533-0.25,0.799-0.735,0.799-1.457
			c0-0.563-0.345-1.058-1.034-1.48c-0.689-0.423-1.739-0.9-3.149-1.434c-1.097-0.406-2.091-0.83-2.984-1.269
			s-1.653-0.964-2.28-1.575c-0.627-0.61-1.112-1.339-1.457-2.186c-0.345-0.846-0.517-1.863-0.517-3.055
			c0-2.318,0.861-4.151,2.585-5.499c1.723-1.347,4.089-2.021,7.097-2.021c1.504,0,2.945,0.133,4.324,0.399
			c1.378,0.267,2.475,0.557,3.29,0.869l-1.222,5.452c-0.815-0.282-1.7-0.532-2.655-0.752c-0.957-0.219-2.029-0.329-3.22-0.329
			c-2.193,0-3.29,0.611-3.29,1.833c0,0.282,0.047,0.533,0.141,0.752c0.094,0.22,0.282,0.431,0.564,0.635
			c0.282,0.204,0.666,0.424,1.151,0.661c0.485,0.236,1.104,0.497,1.856,0.781c1.535,0.568,2.804,1.13,3.807,1.683
			c1.002,0.553,1.793,1.149,2.374,1.79c0.58,0.641,0.987,1.353,1.222,2.134c0.235,0.781,0.353,1.688,0.353,2.72
			c0,2.438-0.917,4.283-2.75,5.534c-1.833,1.25-4.426,1.876-7.779,1.876c-2.193,0-4.019-0.188-5.476-0.564
			c-1.457-0.376-2.467-0.688-3.031-0.94l1.175-5.687c1.19,0.47,2.413,0.839,3.666,1.104C111.305,69.737,112.543,69.87,113.766,69.87
			z"/>
	</g>
</g>
<g>
	<g>
		<path fill="#FFFFFF" d="M143.425,49.677h5.678v25.223h-5.678V64.198h-9.536v10.701h-5.678V49.677h5.678v9.645h9.536V49.677z"/>
		<path fill="#FFFFFF" d="M154.052,74.899V49.677h15.396v3.021h-11.865v7.498h10.555v2.948h-10.555v8.735h12.775v3.021H154.052z"/>
		<path fill="#FFFFFF" d="M192.67,74.899c-0.413-1.092-0.801-2.166-1.165-3.221c-0.364-1.056-0.74-2.13-1.128-3.222h-11.429
			l-2.294,6.442h-3.676c0.971-2.669,1.88-5.138,2.729-7.407c0.85-2.269,1.681-4.422,2.494-6.46c0.812-2.038,1.619-3.985,2.42-5.842
			s1.638-3.694,2.512-5.514h3.239c0.873,1.819,1.71,3.657,2.511,5.514s1.607,3.804,2.421,5.842c0.812,2.038,1.644,4.191,2.493,6.46
			c0.849,2.27,1.759,4.738,2.729,7.407H192.67z M189.357,65.545c-0.777-2.11-1.547-4.154-2.312-6.133
			c-0.764-1.977-1.56-3.876-2.384-5.696c-0.85,1.82-1.656,3.72-2.42,5.696c-0.765,1.979-1.523,4.022-2.275,6.133H189.357z"/>
		<path fill="#FFFFFF" d="M215.49,71.842v3.058h-15.178V49.677h3.531v22.165H215.49z"/>
		<path fill="#FFFFFF" d="M232.233,49.677v3.057h-7.935v22.166h-3.531V52.733h-7.935v-3.057H232.233z"/>
		<path fill="#FFFFFF" d="M252.178,49.677h3.531v25.223h-3.531V63.252H239.84v11.647h-3.531V49.677h3.531v10.519h12.338V49.677z"/>
	</g>
</g>
<g>
	<g>
		<path fill="#FFFFFF" d="M60.846,101.075V86.21h2.801c3.907,0,4.937,1.658,4.937,7.433s-1.029,7.433-4.937,7.433H60.846z
			 M63.819,99.951c3.011,0,3.487-1.563,3.487-6.309s-0.476-6.309-3.487-6.309h-1.715v12.617H63.819z"/>
		<path fill="#FFFFFF" d="M71.766,101.075h-1.258V86.21h1.258V101.075z"/>
		<path fill="#FFFFFF" d="M76.416,101.247L73.29,86.21h1.277l2.802,13.912L80.17,86.21h1.277l-3.145,15.037H76.416z"/>
		<path fill="#FFFFFF" d="M84.229,101.075h-1.258V86.21h1.258V101.075z"/>
		<path fill="#FFFFFF" d="M92.119,97.226c0-2.077-0.61-2.592-2.535-3.145c-1.753-0.515-3.278-1.144-3.278-4.021
			c0-2.744,0.934-4.06,3.602-4.06c3.011,0,3.297,1.772,3.297,4.021l-1.239,0.172c0-1.811-0.152-3.068-2.077-3.068
			c-1.544,0-2.306,0.743-2.306,2.915c0,1.811,0.553,2.325,2.382,2.821c2.02,0.553,3.43,1.2,3.43,4.326
			c0,2.896-1.296,4.098-3.983,4.098c-2.878,0-3.488-1.62-3.488-4.136l1.239-0.172c0,2.039,0.286,3.183,2.268,3.183
			C91.319,100.16,92.119,99.398,92.119,97.226z"/>
		<path fill="#FFFFFF" d="M96.35,101.075h-1.258V86.21h1.258V101.075z"/>
		<path fill="#FFFFFF" d="M98.274,93.643c0-5.546,0.801-7.623,3.888-7.623s3.888,2.077,3.888,7.623s-0.8,7.623-3.888,7.623
			S98.274,99.188,98.274,93.643z M99.552,93.643c0,4.783,0.438,6.499,2.611,6.499c2.172,0,2.611-1.716,2.611-6.499
			c0-4.784-0.438-6.499-2.611-6.499C99.99,87.144,99.552,88.858,99.552,93.643z"/>
		<path fill="#FFFFFF" d="M112.778,95.129l1.391,3.888l-0.057-4.745V86.21h1.201v14.865h-1.544l-3.335-8.919l-1.391-3.889
			l0.057,4.746l0.019,8.062h-1.22V86.21h1.562L112.778,95.129z"/>
		<path fill="#FFFFFF" d="M120.324,93.643c0-5.546,0.801-7.623,3.888-7.623s3.888,2.077,3.888,7.623s-0.8,7.623-3.888,7.623
			S120.324,99.188,120.324,93.643z M121.602,93.643c0,4.783,0.438,6.499,2.611,6.499c2.172,0,2.611-1.716,2.611-6.499
			c0-4.784-0.438-6.499-2.611-6.499C122.04,87.144,121.602,88.858,121.602,93.643z"/>
		<path fill="#FFFFFF" d="M131.207,101.075h-1.258V86.21h5.946v1.124h-4.688v5.546h4.098v1.125h-4.098V101.075z"/>
		<path fill="#FFFFFF" d="M146.281,97.226c0-2.077-0.61-2.592-2.535-3.145c-1.753-0.515-3.278-1.144-3.278-4.021
			c0-2.744,0.934-4.06,3.602-4.06c3.011,0,3.297,1.772,3.297,4.021l-1.239,0.172c0-1.811-0.152-3.068-2.077-3.068
			c-1.544,0-2.306,0.743-2.306,2.915c0,1.811,0.553,2.325,2.382,2.821c2.02,0.553,3.43,1.2,3.43,4.326
			c0,2.896-1.296,4.098-3.983,4.098c-2.878,0-3.488-1.62-3.488-4.136l1.239-0.172c0,2.039,0.286,3.183,2.268,3.183
			C145.481,100.16,146.281,99.398,146.281,97.226z"/>
		<path fill="#FFFFFF" d="M152.513,101.075h-1.258V87.334h-2.82V86.21h6.899v1.124h-2.821V101.075z"/>
		<path fill="#FFFFFF" d="M156.592,97.358V86.21h1.277v11.11c0,1.887,0.248,2.84,2.458,2.84s2.458-0.953,2.458-2.84V86.21h1.277
			v11.148c0,2.555-0.629,3.927-3.735,3.927S156.592,99.913,156.592,97.358z"/>
		<path fill="#FFFFFF" d="M166.063,101.075V86.21h2.801c3.907,0,4.937,1.658,4.937,7.433s-1.029,7.433-4.937,7.433H166.063z
			 M169.037,99.951c3.011,0,3.487-1.563,3.487-6.309s-0.476-6.309-3.487-6.309h-1.715v12.617H169.037z"/>
		<path fill="#FFFFFF" d="M181.615,86.21v1.124h-4.708v5.546h4.079v1.125h-4.079v5.946h5.05v1.124h-6.308V86.21H181.615z"/>
		<path fill="#FFFFFF" d="M188.495,95.129l1.391,3.888l-0.057-4.745V86.21h1.201v14.865h-1.544l-3.335-8.919l-1.391-3.889
			l0.057,4.746l0.019,8.062h-1.22V86.21h1.562L188.495,95.129z"/>
		<path fill="#FFFFFF" d="M196.422,101.075h-1.258V87.334h-2.82V86.21h6.899v1.124h-2.821V101.075z"/>
		<path fill="#FFFFFF" d="M207.934,86.038l3.145,15.037h-1.277l-0.648-3.221h-4.307l-0.648,3.221h-1.277l3.125-15.037H207.934z
			 M205.056,96.749h3.869L207,87.163L205.056,96.749z"/>
		<path fill="#FFFFFF" d="M213.784,101.075h-1.258V86.21h5.946v1.124h-4.688v5.546h4.098v1.125h-4.098V101.075z"/>
		<path fill="#FFFFFF" d="M221.198,101.075h-1.258V86.21h5.946v1.124h-4.688v5.546h4.098v1.125h-4.098V101.075z"/>
		<path fill="#FFFFFF" d="M231.203,86.038l3.145,15.037h-1.277l-0.648-3.221h-4.307l-0.648,3.221h-1.277l3.125-15.037H231.203z
			 M228.325,96.749h3.869l-1.925-9.586L228.325,96.749z"/>
		<path fill="#FFFFFF" d="M237.13,101.075h-1.258V86.21h1.258V101.075z"/>
		<path fill="#FFFFFF" d="M240.522,101.075h-1.258V86.21h3.24c2.02,0,3.412,0.667,3.412,4.25c0,2.782-0.82,3.792-2.116,4.116
			l2.401,6.499h-1.41l-2.211-6.365h-2.058V101.075z M242.39,93.585c1.505,0,2.249-0.553,2.249-3.125
			c0-2.573-0.744-3.126-2.249-3.126h-1.868v6.251H242.39z"/>
		<path fill="#FFFFFF" d="M253.577,97.226c0-2.077-0.61-2.592-2.535-3.145c-1.753-0.515-3.278-1.144-3.278-4.021
			c0-2.744,0.934-4.06,3.602-4.06c3.011,0,3.297,1.772,3.297,4.021l-1.239,0.172c0-1.811-0.152-3.068-2.077-3.068
			c-1.544,0-2.306,0.743-2.306,2.915c0,1.811,0.553,2.325,2.382,2.821c2.02,0.553,3.43,1.2,3.43,4.326
			c0,2.896-1.296,4.098-3.983,4.098c-2.878,0-3.488-1.62-3.488-4.136l1.239-0.172c0,2.039,0.286,3.183,2.268,3.183
			C252.776,100.16,253.577,99.398,253.577,97.226z"/>
	</g>
</g>
</svg>
