<?xml version="1.0" encoding="utf-8"?>
<!-- Generator: Adobe Illustrator 16.0.0, SVG Export Plug-In . SVG Version: 6.00 Build 0)  -->
<!DOCTYPE svg PUBLIC "-//W3C//DTD SVG 1.1//EN" "http://www.w3.org/Graphics/SVG/1.1/DTD/svg11.dtd">
<svg version="1.1" id="Layer_1" xmlns="http://www.w3.org/2000/svg" xmlns:xlink="http://www.w3.org/1999/xlink" x="0px" y="0px"
	 width="313.594px" height="145.492px" viewBox="0 0 313.594 145.492" enable-background="new 0 0 313.594 145.492"
	 xml:space="preserve">
<rect x="25.609" y="85.929" fill="#FFFFFF" width="265.306" height="3.973"/>
<g>
	<path fill="#FFFFFF" d="M35.931,34.416c0,1.702-0.55,3.04-1.649,4.015c-1.1,0.976-2.396,1.463-3.89,1.463
		c-1.494,0-2.791-0.487-3.89-1.463c-1.1-0.975-1.649-2.312-1.649-4.015c0-1.701,0.549-3.039,1.649-4.015
		c1.099-0.975,2.396-1.463,3.89-1.463c1.494,0,2.791,0.488,3.89,1.463C35.38,31.377,35.931,32.715,35.931,34.416z M35.06,76.617
		h-9.274v-32.74h9.274V76.617z"/>
	<path fill="#FFFFFF" d="M60.392,52.094c-0.831-0.208-1.805-0.426-2.926-0.654c-1.12-0.228-2.324-0.342-3.609-0.342
		c-0.582,0-1.276,0.053-2.086,0.155c-0.809,0.104-1.422,0.218-1.836,0.343v25.021h-9.274V45.62c1.659-0.581,3.62-1.13,5.882-1.649
		c2.262-0.519,4.782-0.778,7.563-0.778c0.497,0,1.099,0.031,1.805,0.094c0.705,0.062,1.41,0.146,2.116,0.249
		c0.705,0.104,1.41,0.229,2.116,0.373c0.705,0.146,1.308,0.322,1.805,0.529L60.392,52.094z"/>
	<path fill="#FFFFFF" d="M76.45,34.416c0,1.702-0.55,3.04-1.649,4.015c-1.1,0.976-2.396,1.463-3.89,1.463s-2.791-0.487-3.891-1.463
		c-1.1-0.975-1.649-2.312-1.649-4.015c0-1.701,0.55-3.039,1.649-4.015c1.1-0.975,2.396-1.463,3.891-1.463s2.79,0.488,3.89,1.463
		C75.9,31.377,76.45,32.715,76.45,34.416z M75.579,76.617h-9.274v-32.74h9.274V76.617z"/>
	<path fill="#FFFFFF" d="M91.824,69.957c1.7,0,2.903-0.165,3.609-0.498c0.705-0.331,1.059-0.975,1.059-1.93
		c0-0.746-0.457-1.4-1.369-1.96c-0.913-0.561-2.304-1.192-4.171-1.898c-1.453-0.539-2.77-1.1-3.952-1.681s-2.189-1.276-3.019-2.085
		c-0.831-0.81-1.474-1.774-1.93-2.895c-0.457-1.12-0.685-2.469-0.685-4.046c0-3.07,1.141-5.498,3.423-7.282s5.415-2.677,9.399-2.677
		c1.991,0,3.899,0.177,5.726,0.529s3.278,0.737,4.357,1.151l-1.618,7.22c-1.08-0.373-2.252-0.705-3.517-0.995
		c-1.267-0.29-2.688-0.437-4.264-0.437c-2.905,0-4.357,0.81-4.357,2.428c0,0.374,0.062,0.706,0.187,0.996
		c0.125,0.291,0.374,0.571,0.747,0.84c0.374,0.271,0.881,0.562,1.525,0.876c0.643,0.313,1.463,0.659,2.458,1.034
		c2.033,0.754,3.714,1.497,5.042,2.229c1.327,0.732,2.375,1.523,3.144,2.371c0.768,0.849,1.307,1.791,1.618,2.826
		s0.467,2.236,0.467,3.602c0,3.229-1.214,5.673-3.642,7.329c-2.427,1.655-5.861,2.483-10.301,2.483
		c-2.905,0-5.322-0.249-7.251-0.747c-1.93-0.497-3.269-0.912-4.016-1.244l1.557-7.531c1.576,0.622,3.194,1.11,4.854,1.462
		C88.565,69.781,90.205,69.957,91.824,69.957z"/>
	<path fill="#FFFFFF" d="M136.14,33.482h9.71v43.135h-9.71v-18.3h-16.308v18.3h-9.71V33.482h9.71v16.495h16.308V33.482z"/>
	<path fill="#FFFFFF" d="M149.273,60.496c0-2.904,0.445-5.446,1.338-7.625c0.892-2.178,2.064-3.993,3.517-5.446
		c1.452-1.452,3.122-2.552,5.011-3.299c1.888-0.747,3.828-1.12,5.82-1.12c4.646,0,8.318,1.422,11.017,4.264
		c2.697,2.843,4.046,7.023,4.046,12.542c0,0.54-0.021,1.131-0.062,1.774c-0.042,0.644-0.083,1.213-0.124,1.711h-21.038
		c0.207,1.909,1.099,3.424,2.676,4.544s3.693,1.681,6.35,1.681c1.7,0,3.37-0.155,5.01-0.467c1.639-0.312,2.978-0.694,4.015-1.151
		l1.245,7.531c-0.498,0.249-1.162,0.498-1.991,0.747c-0.831,0.249-1.754,0.467-2.771,0.653s-2.106,0.343-3.268,0.467
		c-1.162,0.125-2.324,0.187-3.485,0.187c-2.947,0-5.509-0.436-7.688-1.307s-3.983-2.063-5.415-3.579
		c-1.432-1.515-2.489-3.309-3.174-5.384C149.615,65.144,149.273,62.903,149.273,60.496z M171.058,56.948
		c-0.042-0.788-0.177-1.556-0.404-2.303c-0.229-0.747-0.582-1.41-1.059-1.992c-0.478-0.58-1.079-1.058-1.805-1.432
		c-0.727-0.373-1.629-0.56-2.708-0.56c-1.037,0-1.93,0.177-2.677,0.528c-0.746,0.354-1.369,0.82-1.867,1.401
		s-0.882,1.255-1.151,2.022c-0.271,0.769-0.467,1.546-0.591,2.334H171.058z"/>
	<path fill="#FFFFFF" d="M195.831,43.006c2.739,0,5.021,0.312,6.847,0.934c1.825,0.622,3.288,1.516,4.389,2.677
		c1.099,1.162,1.877,2.573,2.334,4.232c0.456,1.66,0.685,3.507,0.685,5.539v19.296c-1.328,0.291-3.175,0.633-5.54,1.027
		c-2.365,0.394-5.229,0.591-8.589,0.591c-2.116,0-4.036-0.187-5.758-0.561c-1.723-0.373-3.206-0.984-4.45-1.836
		c-1.245-0.85-2.2-1.96-2.863-3.33c-0.664-1.369-0.996-3.05-0.996-5.041c0-1.908,0.383-3.526,1.151-4.855
		c0.768-1.327,1.795-2.386,3.081-3.174s2.76-1.359,4.419-1.712s3.382-0.529,5.167-0.529c1.203,0,2.271,0.053,3.205,0.155
		c0.934,0.104,1.69,0.239,2.272,0.405v-0.872c0-1.576-0.478-2.842-1.432-3.797c-0.955-0.954-2.614-1.432-4.979-1.432
		c-1.578,0-3.134,0.115-4.669,0.343c-1.535,0.229-2.863,0.551-3.983,0.965l-1.183-7.47c0.539-0.165,1.214-0.342,2.023-0.528
		c0.809-0.188,1.689-0.353,2.645-0.498c0.954-0.146,1.961-0.27,3.02-0.374C193.683,43.059,194.751,43.006,195.831,43.006z
		 M196.578,70.144c0.912,0,1.783-0.021,2.614-0.062c0.829-0.041,1.494-0.104,1.992-0.188v-7.033
		c-0.374-0.083-0.935-0.165-1.681-0.249c-0.747-0.082-1.432-0.124-2.055-0.124c-0.871,0-1.691,0.052-2.458,0.155
		c-0.769,0.104-1.442,0.302-2.023,0.592s-1.037,0.685-1.369,1.183c-0.333,0.497-0.498,1.12-0.498,1.867
		c0,1.453,0.487,2.458,1.463,3.019C193.538,69.864,194.875,70.144,196.578,70.144z"/>
	<path fill="#FFFFFF" d="M228.446,77.239c-2.698-0.041-4.887-0.332-6.567-0.871s-3.009-1.296-3.983-2.271
		c-0.976-0.975-1.64-2.157-1.991-3.548c-0.354-1.39-0.529-2.957-0.529-4.7V29.811l9.274-1.494v35.665
		c0,0.831,0.062,1.578,0.187,2.241c0.124,0.664,0.362,1.225,0.716,1.681c0.352,0.457,0.86,0.83,1.524,1.12
		c0.664,0.291,1.557,0.478,2.677,0.561L228.446,77.239z"/>
	<path fill="#FFFFFF" d="M232.865,35.724l9.273-1.494v9.647h11.142v7.719h-11.142V63.11c0,1.951,0.343,3.507,1.027,4.668
		c0.685,1.162,2.063,1.743,4.14,1.743c0.995,0,2.022-0.094,3.081-0.28c1.058-0.187,2.022-0.445,2.894-0.778l1.308,7.221
		c-1.12,0.457-2.365,0.851-3.734,1.183c-1.37,0.332-3.05,0.498-5.042,0.498c-2.531,0-4.627-0.343-6.286-1.027
		c-1.66-0.685-2.988-1.639-3.984-2.863c-0.995-1.224-1.691-2.707-2.085-4.45c-0.395-1.743-0.591-3.672-0.591-5.788V35.724z"/>
	<path fill="#FFFFFF" d="M258.944,76.617V29.811l9.274-1.494v15.686c0.622-0.207,1.421-0.404,2.396-0.592
		c0.974-0.187,1.918-0.28,2.832-0.28c2.654,0,4.864,0.364,6.629,1.09c1.763,0.727,3.174,1.753,4.232,3.081
		c1.058,1.328,1.805,2.905,2.24,4.73c0.436,1.826,0.653,3.859,0.653,6.1v18.486h-9.273V59.251c0-2.987-0.385-5.104-1.152-6.349
		s-2.188-1.867-4.263-1.867c-0.831,0-1.609,0.073-2.335,0.218c-0.727,0.146-1.38,0.302-1.96,0.467v24.897H258.944z"/>
</g>
<g>
	<path fill="#FFFFFF" d="M24.837,120.685v-20.162h3.8c5.299,0,6.695,2.249,6.695,10.081s-1.396,10.081-6.695,10.081H24.837z
		 M28.87,119.159c4.084,0,4.73-2.119,4.73-8.556s-0.646-8.556-4.73-8.556h-2.327v17.111H28.87z"/>
	<path fill="#FFFFFF" d="M39.645,120.685h-1.706v-20.162h1.706V120.685z"/>
	<path fill="#FFFFFF" d="M45.951,120.917l-4.239-20.395h1.731l3.8,18.87l3.8-18.87h1.732l-4.266,20.395H45.951z"/>
	<path fill="#FFFFFF" d="M56.544,120.685h-1.706v-20.162h1.706V120.685z"/>
	<path fill="#FFFFFF" d="M67.245,115.463c0-2.817-0.827-3.515-3.438-4.265c-2.379-0.698-4.446-1.551-4.446-5.454
		c0-3.722,1.267-5.506,4.886-5.506c4.084,0,4.472,2.404,4.472,5.454l-1.681,0.232c0-2.455-0.207-4.161-2.817-4.161
		c-2.094,0-3.128,1.008-3.128,3.955c0,2.455,0.75,3.153,3.231,3.825c2.74,0.75,4.652,1.628,4.652,5.867
		c0,3.93-1.758,5.558-5.402,5.558c-3.902,0-4.729-2.197-4.729-5.609l1.68-0.232c0,2.766,0.388,4.316,3.076,4.316
		C66.159,119.443,67.245,118.41,67.245,115.463z"/>
	<path fill="#FFFFFF" d="M72.979,120.685h-1.706v-20.162h1.706V120.685z"/>
	<path fill="#FFFFFF" d="M75.588,110.604c0-7.521,1.085-10.339,5.272-10.339s5.273,2.817,5.273,10.339
		c0,7.522-1.086,10.34-5.273,10.34S75.588,118.126,75.588,110.604z M77.32,110.604c0,6.488,0.595,8.814,3.541,8.814
		c2.947,0,3.542-2.326,3.542-8.814c0-6.487-0.595-8.814-3.542-8.814C77.915,101.789,77.32,104.116,77.32,110.604z"/>
	<path fill="#FFFFFF" d="M95.255,112.62l1.887,5.272l-0.077-6.436v-10.935h1.628v20.162h-2.094l-4.523-12.097l-1.887-5.273
		l0.077,6.437l0.026,10.934h-1.654v-20.162h2.119L95.255,112.62z"/>
	<path fill="#FFFFFF" d="M105.486,110.604c0-7.521,1.086-10.339,5.273-10.339s5.272,2.817,5.272,10.339
		c0,7.522-1.085,10.34-5.272,10.34S105.486,118.126,105.486,110.604z M107.218,110.604c0,6.488,0.594,8.814,3.541,8.814
		c2.946,0,3.541-2.326,3.541-8.814c0-6.487-0.595-8.814-3.541-8.814C107.812,101.789,107.218,104.116,107.218,110.604z"/>
	<path fill="#FFFFFF" d="M120.242,120.685h-1.706v-20.162h8.065v1.525h-6.359v7.521h5.558v1.525h-5.558V120.685z"/>
	<path fill="#FFFFFF" d="M140.684,115.463c0-2.817-0.827-3.515-3.438-4.265c-2.379-0.698-4.446-1.551-4.446-5.454
		c0-3.722,1.267-5.506,4.886-5.506c4.084,0,4.472,2.404,4.472,5.454l-1.681,0.232c0-2.455-0.207-4.161-2.817-4.161
		c-2.094,0-3.128,1.008-3.128,3.955c0,2.455,0.75,3.153,3.231,3.825c2.74,0.75,4.652,1.628,4.652,5.867
		c0,3.93-1.758,5.558-5.402,5.558c-3.902,0-4.729-2.197-4.729-5.609l1.68-0.232c0,2.766,0.388,4.316,3.076,4.316
		C139.598,119.443,140.684,118.41,140.684,115.463z"/>
	<path fill="#FFFFFF" d="M149.132,120.685h-1.706v-18.637h-3.825v-1.525h9.357v1.525h-3.826V120.685z"/>
	<path fill="#FFFFFF" d="M154.662,115.645v-15.122h1.731v15.07c0,2.559,0.336,3.851,3.335,3.851c2.998,0,3.334-1.292,3.334-3.851
		v-15.07h1.732v15.122c0,3.463-0.854,5.324-5.066,5.324C155.514,120.969,154.662,119.107,154.662,115.645z"/>
	<path fill="#FFFFFF" d="M167.504,120.685v-20.162h3.8c5.299,0,6.694,2.249,6.694,10.081s-1.396,10.081-6.694,10.081H167.504z
		 M171.537,119.159c4.084,0,4.73-2.119,4.73-8.556s-0.646-8.556-4.73-8.556h-2.326v17.111H171.537z"/>
	<path fill="#FFFFFF" d="M188.593,100.522v1.525h-6.385v7.521h5.531v1.525h-5.531v8.064h6.85v1.525h-8.556v-20.162H188.593z"/>
	<path fill="#FFFFFF" d="M197.921,112.62l1.887,5.272l-0.077-6.436v-10.935h1.628v20.162h-2.094l-4.523-12.097l-1.887-5.273
		l0.077,6.437l0.026,10.934h-1.654v-20.162h2.119L197.921,112.62z"/>
	<path fill="#FFFFFF" d="M208.67,120.685h-1.706v-18.637h-3.825v-1.525h9.356v1.525h-3.825V120.685z"/>
	<path fill="#FFFFFF" d="M224.279,100.29l4.265,20.395h-1.731l-0.879-4.368h-5.842l-0.879,4.368h-1.732l4.239-20.395H224.279z
		 M220.375,114.817h5.247l-2.61-13.002L220.375,114.817z"/>
	<path fill="#FFFFFF" d="M232.21,120.685h-1.706v-20.162h8.065v1.525h-6.359v7.521h5.558v1.525h-5.558V120.685z"/>
	<path fill="#FFFFFF" d="M242.262,120.685h-1.706v-20.162h8.065v1.525h-6.359v7.521h5.558v1.525h-5.558V120.685z"/>
	<path fill="#FFFFFF" d="M255.831,100.29l4.265,20.395h-1.731l-0.879-4.368h-5.842l-0.879,4.368h-1.732l4.239-20.395H255.831z
		 M251.927,114.817h5.247l-2.61-13.002L251.927,114.817z"/>
	<path fill="#FFFFFF" d="M263.866,120.685h-1.706v-20.162h1.706V120.685z"/>
	<path fill="#FFFFFF" d="M268.465,120.685h-1.706v-20.162h4.395c2.739,0,4.626,0.905,4.626,5.765c0,3.773-1.111,5.144-2.869,5.583
		l3.258,8.814h-1.913l-2.999-8.634h-2.791V120.685z M270.999,110.526c2.042,0,3.05-0.75,3.05-4.239s-1.008-4.239-3.05-4.239h-2.533
		v8.479H270.999z"/>
	<path fill="#FFFFFF" d="M286.167,115.463c0-2.817-0.827-3.515-3.438-4.265c-2.378-0.698-4.446-1.551-4.446-5.454
		c0-3.722,1.267-5.506,4.886-5.506c4.084,0,4.472,2.404,4.472,5.454l-1.68,0.232c0-2.455-0.207-4.161-2.817-4.161
		c-2.094,0-3.128,1.008-3.128,3.955c0,2.455,0.749,3.153,3.23,3.825c2.74,0.75,4.653,1.628,4.653,5.867
		c0,3.93-1.758,5.558-5.402,5.558c-3.903,0-4.73-2.197-4.73-5.609l1.681-0.232c0,2.766,0.388,4.316,3.075,4.316
		C285.083,119.443,286.167,118.41,286.167,115.463z"/>
</g>
</svg>
