<?xml version="1.0" encoding="UTF-8" standalone="no"?><svg xmlns="http://www.w3.org/2000/svg" xmlns:xlink="http://www.w3.org/1999/xlink" clip-rule="evenodd" stroke-miterlimit="10" viewBox="0 0 1024 768"><desc>SVG generated by Keynote</desc><defs></defs><g transform="matrix(1.00, 0.00, -0.00, -1.00, 0.0, 768.0)"><path d="M 0.0 768.0 L 1024.0 768.0 L 1024.0 0.0 L 0.0 0.0 Z M 0.0 768.0 " fill="#000000"></path><text xml:space="preserve" font-family="AvenirNext-Regular,Avenir Next" font-size="64.0" fill="#FEFFFF" transform="matrix(1.00, 0.00, -0.00, -1.00, 83.8, 642.4)">S</text><text xml:space="preserve" font-family="AvenirNext-Regular,Avenir Next" font-size="64.0" fill="#FEFFFF" transform="matrix(1.00, 0.00, -0.00, -1.00, 119.9, 642.4)">o</text><text xml:space="preserve" font-family="AvenirNext-Regular,Avenir Next" font-size="64.0" fill="#FEFFFF" transform="matrix(1.00, 0.00, -0.00, -1.00, 159.0, 642.4)">l</text><text xml:space="preserve" font-family="AvenirNext-Regular,Avenir Next" font-size="64.0" fill="#FEFFFF" transform="matrix(1.00, 0.00, -0.00, -1.00, 175.2, 642.4)">u</text><text xml:space="preserve" font-family="AvenirNext-Regular,Avenir Next" font-size="64.0" fill="#FEFFFF" transform="matrix(1.00, 0.00, -0.00, -1.00, 212.4, 642.4)">t</text><text xml:space="preserve" font-family="AvenirNext-Regular,Avenir Next" font-size="64.0" fill="#FEFFFF" transform="matrix(1.00, 0.00, -0.00, -1.00, 232.6, 642.4)">i</text><text xml:space="preserve" font-family="AvenirNext-Regular,Avenir Next" font-size="64.0" fill="#FEFFFF" transform="matrix(1.00, 0.00, -0.00, -1.00, 248.6, 642.4)">o</text><text xml:space="preserve" font-family="AvenirNext-Regular,Avenir Next" font-size="64.0" fill="#FEFFFF" transform="matrix(1.00, 0.00, -0.00, -1.00, 287.7, 642.4)">n</text><text xml:space="preserve" font-family="AvenirNext-Regular,Avenir Next" font-size="64.0" fill="#FEFFFF" transform="matrix(1.00, 0.00, -0.00, -1.00, 324.9, 642.4)">s</text><text xml:space="preserve" font-family="AvenirNext-Regular,Avenir Next" font-size="64.0" fill="#FEFFFF" transform="matrix(1.00, 0.00, -0.00, -1.00, 353.3, 642.4)">:</text><text xml:space="preserve" font-family="AvenirNext-Regular,Avenir Next" font-size="64.0" fill="#FEFFFF" transform="matrix(1.00, 0.00, -0.00, -1.00, 372.5, 642.4)"> </text><text xml:space="preserve" font-family="AvenirNext-Regular,Avenir Next" font-size="64.0" fill="#FEFFFF" transform="matrix(1.00, 0.00, -0.00, -1.00, 388.5, 642.4)">I</text><text xml:space="preserve" font-family="AvenirNext-Regular,Avenir Next" font-size="64.0" fill="#FEFFFF" transform="matrix(1.00, 0.00, -0.00, -1.00, 405.2, 642.4)">n</text><text xml:space="preserve" font-family="AvenirNext-Regular,Avenir Next" font-size="64.0" fill="#FEFFFF" transform="matrix(1.00, 0.00, -0.00, -1.00, 442.4, 642.4)">a</text><text xml:space="preserve" font-family="AvenirNext-Regular,Avenir Next" font-size="64.0" fill="#FEFFFF" transform="matrix(1.00, 0.00, -0.00, -1.00, 476.5, 642.4)">b</text><text xml:space="preserve" font-family="AvenirNext-Regular,Avenir Next" font-size="64.0" fill="#FEFFFF" transform="matrix(1.00, 0.00, -0.00, -1.00, 517.3, 642.4)">i</text><text xml:space="preserve" font-family="AvenirNext-Regular,Avenir Next" font-size="64.0" fill="#FEFFFF" transform="matrix(1.00, 0.00, -0.00, -1.00, 533.3, 642.4)">l</text><text xml:space="preserve" font-family="AvenirNext-Regular,Avenir Next" font-size="64.0" fill="#FEFFFF" transform="matrix(1.00, 0.00, -0.00, -1.00, 549.4, 642.4)">i</text><text xml:space="preserve" font-family="AvenirNext-Regular,Avenir Next" font-size="64.0" fill="#FEFFFF" transform="matrix(1.00, 0.00, -0.00, -1.00, 565.4, 642.4)">t</text><text xml:space="preserve" font-family="AvenirNext-Regular,Avenir Next" font-size="64.0" fill="#FEFFFF" transform="matrix(1.00, 0.00, -0.00, -1.00, 585.7, 642.4)">y</text><text xml:space="preserve" font-family="AvenirNext-Regular,Avenir Next" font-size="64.0" fill="#FEFFFF" transform="matrix(1.00, 0.00, -0.00, -1.00, 617.0, 642.4)"> </text><text xml:space="preserve" font-family="AvenirNext-Regular,Avenir Next" font-size="64.0" fill="#FEFFFF" transform="matrix(1.00, 0.00, -0.00, -1.00, 633.0, 642.4)">t</text><text xml:space="preserve" font-family="AvenirNext-Regular,Avenir Next" font-size="64.0" fill="#FEFFFF" transform="matrix(1.00, 0.00, -0.00, -1.00, 653.2, 642.4)">o</text><text xml:space="preserve" font-family="AvenirNext-Regular,Avenir Next" font-size="64.0" fill="#FEFFFF" transform="matrix(1.00, 0.00, -0.00, -1.00, 692.4, 642.4)"> </text><text xml:space="preserve" font-family="AvenirNext-Regular,Avenir Next" font-size="64.0" fill="#FEFFFF" transform="matrix(1.00, 0.00, -0.00, -1.00, 708.4, 642.4)">C</text><text xml:space="preserve" font-family="AvenirNext-Regular,Avenir Next" font-size="64.0" fill="#FEFFFF" transform="matrix(1.00, 0.00, -0.00, -1.00, 754.4, 642.4)">h</text><text xml:space="preserve" font-family="AvenirNext-Regular,Avenir Next" font-size="64.0" fill="#FEFFFF" transform="matrix(1.00, 0.00, -0.00, -1.00, 791.7, 642.4)">a</text><text xml:space="preserve" font-family="AvenirNext-Regular,Avenir Next" font-size="64.0" fill="#FEFFFF" transform="matrix(1.00, 0.00, -0.00, -1.00, 825.9, 642.4)">n</text><text xml:space="preserve" font-family="AvenirNext-Regular,Avenir Next" font-size="64.0" fill="#FEFFFF" transform="matrix(1.00, 0.00, -0.00, -1.00, 863.1, 642.4)">g</text><text xml:space="preserve" font-family="AvenirNext-Regular,Avenir Next" font-size="64.0" fill="#FEFFFF" transform="matrix(1.00, 0.00, -0.00, -1.00, 903.6, 642.4)">e</text><text xml:space="preserve" font-family="AvenirNext-Regular,Avenir Next" font-size="22.5" fill="#FEFFFF" transform="matrix(1.00, 0.00, -0.00, -1.00, 79.0, 532.2)">•</text><text xml:space="preserve" font-family="AvenirNext-Regular,Avenir Next" font-size="30.0" fill="#FEFFFF" transform="matrix(1.00, 0.00, -0.00, -1.00, 106.7, 530.0)">R</text><text xml:space="preserve" font-family="AvenirNext-Regular,Avenir Next" font-size="30.0" fill="#FEFFFF" transform="matrix(1.00, 0.00, -0.00, -1.00, 124.3, 530.0)">e</text><text xml:space="preserve" font-family="AvenirNext-Regular,Avenir Next" font-size="30.0" fill="#FEFFFF" transform="matrix(1.00, 0.00, -0.00, -1.00, 141.4, 530.0)">j</text><text xml:space="preserve" font-family="AvenirNext-Regular,Avenir Next" font-size="30.0" fill="#FEFFFF" transform="matrix(1.00, 0.00, -0.00, -1.00, 149.0, 530.0)">e</text><text xml:space="preserve" font-family="AvenirNext-Regular,Avenir Next" font-size="30.0" fill="#FEFFFF" transform="matrix(1.00, 0.00, -0.00, -1.00, 166.1, 530.0)">c</text><text xml:space="preserve" font-family="AvenirNext-Regular,Avenir Next" font-size="30.0" fill="#FEFFFF" transform="matrix(1.00, 0.00, -0.00, -1.00, 181.2, 530.0)">t</text><text xml:space="preserve" font-family="AvenirNext-Regular,Avenir Next" font-size="30.0" fill="#FEFFFF" transform="matrix(1.00, 0.00, -0.00, -1.00, 190.7, 530.0)"> </text><text xml:space="preserve" font-family="AvenirNext-Regular,Avenir Next" font-size="30.0" fill="#FEFFFF" transform="matrix(1.00, 0.00, -0.00, -1.00, 198.2, 530.0)">p</text><text xml:space="preserve" font-family="AvenirNext-Regular,Avenir Next" font-size="30.0" fill="#FEFFFF" transform="matrix(1.00, 0.00, -0.00, -1.00, 217.2, 530.0)">r</text><text xml:space="preserve" font-family="AvenirNext-Regular,Avenir Next" font-size="30.0" fill="#FEFFFF" transform="matrix(1.00, 0.00, -0.00, -1.00, 227.5, 530.0)">e</text><text xml:space="preserve" font-family="AvenirNext-Regular,Avenir Next" font-size="30.0" fill="#FEFFFF" transform="matrix(1.00, 0.00, -0.00, -1.00, 244.7, 530.0)">m</text><text xml:space="preserve" font-family="AvenirNext-Regular,Avenir Next" font-size="30.0" fill="#FEFFFF" transform="matrix(1.00, 0.00, -0.00, -1.00, 271.2, 530.0)">i</text><text xml:space="preserve" font-family="AvenirNext-Regular,Avenir Next" font-size="30.0" fill="#FEFFFF" transform="matrix(1.00, 0.00, -0.00, -1.00, 278.7, 530.0)">s</text><text xml:space="preserve" font-family="AvenirNext-Regular,Avenir Next" font-size="30.0" fill="#FEFFFF" transform="matrix(1.00, 0.00, -0.00, -1.00, 292.0, 530.0)">e</text><text xml:space="preserve" font-family="AvenirNext-Regular,Avenir Next" font-size="30.0" fill="#FEFFFF" transform="matrix(1.00, 0.00, -0.00, -1.00, 309.2, 530.0)"> </text><text xml:space="preserve" font-family="AvenirNext-Regular,Avenir Next" font-size="30.0" fill="#FEFFFF" transform="matrix(1.00, 0.00, -0.00, -1.00, 316.7, 530.0)">5</text><text xml:space="preserve" font-family="AvenirNext-Regular,Avenir Next" font-size="30.0" fill="#FEFFFF" transform="matrix(1.00, 0.00, -0.00, -1.00, 334.1, 530.0)"> </text><text xml:space="preserve" font-family="AvenirNext-Regular,Avenir Next" font-size="22.5" fill="#FEFFFF" transform="matrix(1.00, 0.00, -0.00, -1.00, 79.0, 458.1)">•</text><text xml:space="preserve" font-family="AvenirNext-Regular,Avenir Next" font-size="30.0" fill="#FEFFFF" transform="matrix(1.00, 0.00, -0.00, -1.00, 106.7, 455.8)">P</text><text xml:space="preserve" font-family="AvenirNext-Regular,Avenir Next" font-size="30.0" fill="#FEFFFF" transform="matrix(1.00, 0.00, -0.00, -1.00, 122.6, 455.8)">r</text><text xml:space="preserve" font-family="AvenirNext-Regular,Avenir Next" font-size="30.0" fill="#FEFFFF" transform="matrix(1.00, 0.00, -0.00, -1.00, 133.4, 455.8)">i</text><text xml:space="preserve" font-family="AvenirNext-Regular,Avenir Next" font-size="30.0" fill="#FEFFFF" transform="matrix(1.00, 0.00, -0.00, -1.00, 140.9, 455.8)">n</text><text xml:space="preserve" font-family="AvenirNext-Regular,Avenir Next" font-size="30.0" fill="#FEFFFF" transform="matrix(1.00, 0.00, -0.00, -1.00, 158.4, 455.8)">c</text><text xml:space="preserve" font-family="AvenirNext-Regular,Avenir Next" font-size="30.0" fill="#FEFFFF" transform="matrix(1.00, 0.00, -0.00, -1.00, 173.4, 455.8)">i</text><text xml:space="preserve" font-family="AvenirNext-Regular,Avenir Next" font-size="30.0" fill="#FEFFFF" transform="matrix(1.00, 0.00, -0.00, -1.00, 180.9, 455.8)">p</text><text xml:space="preserve" font-family="AvenirNext-Regular,Avenir Next" font-size="30.0" fill="#FEFFFF" transform="matrix(1.00, 0.00, -0.00, -1.00, 200.0, 455.8)">l</text><text xml:space="preserve" font-family="AvenirNext-Regular,Avenir Next" font-size="30.0" fill="#FEFFFF" transform="matrix(1.00, 0.00, -0.00, -1.00, 207.5, 455.8)">e</text><text xml:space="preserve" font-family="AvenirNext-Regular,Avenir Next" font-size="30.0" fill="#FEFFFF" transform="matrix(1.00, 0.00, -0.00, -1.00, 224.7, 455.8)">d</text><text xml:space="preserve" font-family="AvenirNext-Regular,Avenir Next" font-size="30.0" fill="#FEFFFF" transform="matrix(1.00, 0.00, -0.00, -1.00, 243.8, 455.8)"> </text><text xml:space="preserve" font-family="AvenirNext-Regular,Avenir Next" font-size="22.5" fill="#FEFFFF" transform="matrix(1.00, 0.00, -0.00, -1.00, 79.0, 383.9)">•</text><text xml:space="preserve" font-family="AvenirNext-Regular,Avenir Next" font-size="30.0" fill="#FEFFFF" transform="matrix(1.00, 0.00, -0.00, -1.00, 106.7, 381.6)">N</text><text xml:space="preserve" font-family="AvenirNext-Regular,Avenir Next" font-size="30.0" fill="#FEFFFF" transform="matrix(1.00, 0.00, -0.00, -1.00, 129.6, 381.6)">o</text><text xml:space="preserve" font-family="AvenirNext-Regular,Avenir Next" font-size="30.0" fill="#FEFFFF" transform="matrix(1.00, 0.00, -0.00, -1.00, 147.9, 381.6)"> </text><text xml:space="preserve" font-family="AvenirNext-Regular,Avenir Next" font-size="30.0" fill="#FEFFFF" transform="matrix(1.00, 0.00, -0.00, -1.00, 155.4, 381.6)">f</text><text xml:space="preserve" font-family="AvenirNext-Regular,Avenir Next" font-size="30.0" fill="#FEFFFF" transform="matrix(1.00, 0.00, -0.00, -1.00, 164.3, 381.6)">r</text><text xml:space="preserve" font-family="AvenirNext-Regular,Avenir Next" font-size="30.0" fill="#FEFFFF" transform="matrix(1.00, 0.00, -0.00, -1.00, 174.6, 381.6)">e</text><text xml:space="preserve" font-family="AvenirNext-Regular,Avenir Next" font-size="30.0" fill="#FEFFFF" transform="matrix(1.00, 0.00, -0.00, -1.00, 191.7, 381.6)">e</text><text xml:space="preserve" font-family="AvenirNext-Regular,Avenir Next" font-size="30.0" fill="#FEFFFF" transform="matrix(1.00, 0.00, -0.00, -1.00, 208.9, 381.6)"> </text><text xml:space="preserve" font-family="AvenirNext-Regular,Avenir Next" font-size="30.0" fill="#FEFFFF" transform="matrix(1.00, 0.00, -0.00, -1.00, 216.4, 381.6)">w</text><text xml:space="preserve" font-family="AvenirNext-Regular,Avenir Next" font-size="30.0" fill="#FEFFFF" transform="matrix(1.00, 0.00, -0.00, -1.00, 238.8, 381.6)">i</text><text xml:space="preserve" font-family="AvenirNext-Regular,Avenir Next" font-size="30.0" fill="#FEFFFF" transform="matrix(1.00, 0.00, -0.00, -1.00, 246.3, 381.6)">l</text><text xml:space="preserve" font-family="AvenirNext-Regular,Avenir Next" font-size="30.0" fill="#FEFFFF" transform="matrix(1.00, 0.00, -0.00, -1.00, 253.9, 381.6)">l</text><text xml:space="preserve" font-family="AvenirNext-Regular,Avenir Next" font-size="30.0" fill="#FEFFFF" transform="matrix(1.00, 0.00, -0.00, -1.00, 261.4, 381.6)"> </text><text xml:space="preserve" font-family="AvenirNext-Regular,Avenir Next" font-size="30.0" fill="#FEFFFF" transform="matrix(1.00, 0.00, -0.00, -1.00, 268.9, 381.6)">d</text><text xml:space="preserve" font-family="AvenirNext-Regular,Avenir Next" font-size="30.0" fill="#FEFFFF" transform="matrix(1.00, 0.00, -0.00, -1.00, 288.1, 381.6)">u</text><text xml:space="preserve" font-family="AvenirNext-Regular,Avenir Next" font-size="30.0" fill="#FEFFFF" transform="matrix(1.00, 0.00, -0.00, -1.00, 305.5, 381.6)">r</text><text xml:space="preserve" font-family="AvenirNext-Regular,Avenir Next" font-size="30.0" fill="#FEFFFF" transform="matrix(1.00, 0.00, -0.00, -1.00, 316.3, 381.6)">i</text><text xml:space="preserve" font-family="AvenirNext-Regular,Avenir Next" font-size="30.0" fill="#FEFFFF" transform="matrix(1.00, 0.00, -0.00, -1.00, 323.8, 381.6)">n</text><text xml:space="preserve" font-family="AvenirNext-Regular,Avenir Next" font-size="30.0" fill="#FEFFFF" transform="matrix(1.00, 0.00, -0.00, -1.00, 341.3, 381.6)">g</text><text xml:space="preserve" font-family="AvenirNext-Regular,Avenir Next" font-size="30.0" fill="#FEFFFF" transform="matrix(1.00, 0.00, -0.00, -1.00, 360.2, 381.6)"> </text><text xml:space="preserve" font-family="AvenirNext-Regular,Avenir Next" font-size="30.0" fill="#FEFFFF" transform="matrix(1.00, 0.00, -0.00, -1.00, 367.7, 381.6)">j</text><text xml:space="preserve" font-family="AvenirNext-Regular,Avenir Next" font-size="30.0" fill="#FEFFFF" transform="matrix(1.00, 0.00, -0.00, -1.00, 375.3, 381.6)">o</text><text xml:space="preserve" font-family="AvenirNext-Regular,Avenir Next" font-size="30.0" fill="#FEFFFF" transform="matrix(1.00, 0.00, -0.00, -1.00, 393.6, 381.6)">u</text><text xml:space="preserve" font-family="AvenirNext-Regular,Avenir Next" font-size="30.0" fill="#FEFFFF" transform="matrix(1.00, 0.00, -0.00, -1.00, 411.1, 381.6)">r</text><text xml:space="preserve" font-family="AvenirNext-Regular,Avenir Next" font-size="30.0" fill="#FEFFFF" transform="matrix(1.00, 0.00, -0.00, -1.00, 421.9, 381.6)">n</text><text xml:space="preserve" font-family="AvenirNext-Regular,Avenir Next" font-size="30.0" fill="#FEFFFF" transform="matrix(1.00, 0.00, -0.00, -1.00, 439.3, 381.6)">e</text><text xml:space="preserve" font-family="AvenirNext-Regular,Avenir Next" font-size="30.0" fill="#FEFFFF" transform="matrix(1.00, 0.00, -0.00, -1.00, 456.5, 381.6)">y</text><text xml:space="preserve" font-family="AvenirNext-Regular,Avenir Next" font-size="30.0" fill="#FEFFFF" transform="matrix(1.00, 0.00, -0.00, -1.00, 471.1, 381.6)"> </text><text xml:space="preserve" font-family="AvenirNext-Regular,Avenir Next" font-size="22.5" fill="#FEFFFF" transform="matrix(1.00, 0.00, -0.00, -1.00, 79.0, 309.7)">•</text><text xml:space="preserve" font-family="AvenirNext-Regular,Avenir Next" font-size="30.0" fill="#FEFFFF" transform="matrix(1.00, 0.00, -0.00, -1.00, 106.7, 307.4)">O</text><text xml:space="preserve" font-family="AvenirNext-Regular,Avenir Next" font-size="30.0" fill="#FEFFFF" transform="matrix(1.00, 0.00, -0.00, -1.00, 132.2, 307.4)">b</text><text xml:space="preserve" font-family="AvenirNext-Regular,Avenir Next" font-size="30.0" fill="#FEFFFF" transform="matrix(1.00, 0.00, -0.00, -1.00, 151.3, 307.4)">j</text><text xml:space="preserve" font-family="AvenirNext-Regular,Avenir Next" font-size="30.0" fill="#FEFFFF" transform="matrix(1.00, 0.00, -0.00, -1.00, 158.8, 307.4)">e</text><text xml:space="preserve" font-family="AvenirNext-Regular,Avenir Next" font-size="30.0" fill="#FEFFFF" transform="matrix(1.00, 0.00, -0.00, -1.00, 176.0, 307.4)">c</text><text xml:space="preserve" font-family="AvenirNext-Regular,Avenir Next" font-size="30.0" fill="#FEFFFF" transform="matrix(1.00, 0.00, -0.00, -1.00, 191.0, 307.4)">t</text><text xml:space="preserve" font-family="AvenirNext-Regular,Avenir Next" font-size="30.0" fill="#FEFFFF" transform="matrix(1.00, 0.00, -0.00, -1.00, 200.5, 307.4)">i</text><text xml:space="preserve" font-family="AvenirNext-Regular,Avenir Next" font-size="30.0" fill="#FEFFFF" transform="matrix(1.00, 0.00, -0.00, -1.00, 208.0, 307.4)">o</text><text xml:space="preserve" font-family="AvenirNext-Regular,Avenir Next" font-size="30.0" fill="#FEFFFF" transform="matrix(1.00, 0.00, -0.00, -1.00, 226.4, 307.4)">n</text><text xml:space="preserve" font-family="AvenirNext-Regular,Avenir Next" font-size="30.0" fill="#FEFFFF" transform="matrix(1.00, 0.00, -0.00, -1.00, 243.8, 307.4)">s</text><text xml:space="preserve" font-family="AvenirNext-Regular,Avenir Next" font-size="30.0" fill="#FEFFFF" transform="matrix(1.00, 0.00, -0.00, -1.00, 257.1, 307.4)">:</text><text xml:space="preserve" font-family="AvenirNext-Regular,Avenir Next" font-size="30.0" fill="#FEFFFF" transform="matrix(1.00, 0.00, -0.00, -1.00, 266.1, 307.4)"> </text><text xml:space="preserve" font-family="AvenirNext-Regular,Avenir Next" font-size="22.5" fill="#FEFFFF" transform="matrix(1.00, 0.00, -0.00, -1.00, 114.0, 235.5)">•</text><text xml:space="preserve" font-family="AvenirNext-Regular,Avenir Next" font-size="30.0" fill="#FEFFFF" transform="matrix(1.00, 0.00, -0.00, -1.00, 141.7, 233.3)">P</text><text xml:space="preserve" font-family="AvenirNext-Regular,Avenir Next" font-size="30.0" fill="#FEFFFF" transform="matrix(1.00, 0.00, -0.00, -1.00, 157.6, 233.3)">r</text><text xml:space="preserve" font-family="AvenirNext-Regular,Avenir Next" font-size="30.0" fill="#FEFFFF" transform="matrix(1.00, 0.00, -0.00, -1.00, 167.9, 233.3)">e</text><text xml:space="preserve" font-family="AvenirNext-Regular,Avenir Next" font-size="30.0" fill="#FEFFFF" transform="matrix(1.00, 0.00, -0.00, -1.00, 185.1, 233.3)">s</text><text xml:space="preserve" font-family="AvenirNext-Regular,Avenir Next" font-size="30.0" fill="#FEFFFF" transform="matrix(1.00, 0.00, -0.00, -1.00, 198.4, 233.3)">e</text><text xml:space="preserve" font-family="AvenirNext-Regular,Avenir Next" font-size="30.0" fill="#FEFFFF" transform="matrix(1.00, 0.00, -0.00, -1.00, 215.6, 233.3)">n</text><text xml:space="preserve" font-family="AvenirNext-Regular,Avenir Next" font-size="30.0" fill="#FEFFFF" transform="matrix(1.00, 0.00, -0.00, -1.00, 233.0, 233.3)">c</text><text xml:space="preserve" font-family="AvenirNext-Regular,Avenir Next" font-size="30.0" fill="#FEFFFF" transform="matrix(1.00, 0.00, -0.00, -1.00, 248.0, 233.3)">e</text><text xml:space="preserve" font-family="AvenirNext-Regular,Avenir Next" font-size="30.0" fill="#FEFFFF" transform="matrix(1.00, 0.00, -0.00, -1.00, 265.2, 233.3)"> </text><text xml:space="preserve" font-family="AvenirNext-Regular,Avenir Next" font-size="30.0" fill="#FEFFFF" transform="matrix(1.00, 0.00, -0.00, -1.00, 272.7, 233.3)">a</text><text xml:space="preserve" font-family="AvenirNext-Regular,Avenir Next" font-size="30.0" fill="#FEFFFF" transform="matrix(1.00, 0.00, -0.00, -1.00, 288.7, 233.3)">l</text><text xml:space="preserve" font-family="AvenirNext-Regular,Avenir Next" font-size="30.0" fill="#FEFFFF" transform="matrix(1.00, 0.00, -0.00, -1.00, 296.3, 233.3)">o</text><text xml:space="preserve" font-family="AvenirNext-Regular,Avenir Next" font-size="30.0" fill="#FEFFFF" transform="matrix(1.00, 0.00, -0.00, -1.00, 314.6, 233.3)">n</text><text xml:space="preserve" font-family="AvenirNext-Regular,Avenir Next" font-size="30.0" fill="#FEFFFF" transform="matrix(1.00, 0.00, -0.00, -1.00, 332.1, 233.3)">e</text><text xml:space="preserve" font-family="AvenirNext-Regular,Avenir Next" font-size="30.0" fill="#FEFFFF" transform="matrix(1.00, 0.00, -0.00, -1.00, 349.2, 233.3)"> </text><text xml:space="preserve" font-family="AvenirNext-Regular,Avenir Next" font-size="30.0" fill="#FEFFFF" transform="matrix(1.00, 0.00, -0.00, -1.00, 356.7, 233.3)">a</text><text xml:space="preserve" font-family="AvenirNext-Regular,Avenir Next" font-size="30.0" fill="#FEFFFF" transform="matrix(1.00, 0.00, -0.00, -1.00, 372.8, 233.3)">l</text><text xml:space="preserve" font-family="AvenirNext-Regular,Avenir Next" font-size="30.0" fill="#FEFFFF" transform="matrix(1.00, 0.00, -0.00, -1.00, 380.3, 233.3)">t</text><text xml:space="preserve" font-family="AvenirNext-Regular,Avenir Next" font-size="30.0" fill="#FEFFFF" transform="matrix(1.00, 0.00, -0.00, -1.00, 389.9, 233.3)">e</text><text xml:space="preserve" font-family="AvenirNext-Regular,Avenir Next" font-size="30.0" fill="#FEFFFF" transform="matrix(1.00, 0.00, -0.00, -1.00, 407.0, 233.3)">r</text><text xml:space="preserve" font-family="AvenirNext-Regular,Avenir Next" font-size="30.0" fill="#FEFFFF" transform="matrix(1.00, 0.00, -0.00, -1.00, 417.8, 233.3)">s</text><text xml:space="preserve" font-family="AvenirNext-Regular,Avenir Next" font-size="30.0" fill="#FEFFFF" transform="matrix(1.00, 0.00, -0.00, -1.00, 431.2, 233.3)"> </text><text xml:space="preserve" font-family="AvenirNext-Regular,Avenir Next" font-size="30.0" fill="#FEFFFF" transform="matrix(1.00, 0.00, -0.00, -1.00, 438.7, 233.3)">h</text><text xml:space="preserve" font-family="AvenirNext-Regular,Avenir Next" font-size="30.0" fill="#FEFFFF" transform="matrix(1.00, 0.00, -0.00, -1.00, 456.2, 233.3)">i</text><text xml:space="preserve" font-family="AvenirNext-Regular,Avenir Next" font-size="30.0" fill="#FEFFFF" transform="matrix(1.00, 0.00, -0.00, -1.00, 463.7, 233.3)">s</text><text xml:space="preserve" font-family="AvenirNext-Regular,Avenir Next" font-size="30.0" fill="#FEFFFF" transform="matrix(1.00, 0.00, -0.00, -1.00, 477.0, 233.3)">t</text><text xml:space="preserve" font-family="AvenirNext-Regular,Avenir Next" font-size="30.0" fill="#FEFFFF" transform="matrix(1.00, 0.00, -0.00, -1.00, 486.5, 233.3)">o</text><text xml:space="preserve" font-family="AvenirNext-Regular,Avenir Next" font-size="30.0" fill="#FEFFFF" transform="matrix(1.00, 0.00, -0.00, -1.00, 504.9, 233.3)">r</text><text xml:space="preserve" font-family="AvenirNext-Regular,Avenir Next" font-size="30.0" fill="#FEFFFF" transform="matrix(1.00, 0.00, -0.00, -1.00, 515.7, 233.3)">y</text><text xml:space="preserve" font-family="AvenirNext-Regular,Avenir Next" font-size="30.0" fill="#FEFFFF" transform="matrix(1.00, 0.00, -0.00, -1.00, 530.3, 233.3)"> </text><text xml:space="preserve" font-family="AvenirNext-Regular,Avenir Next" font-size="22.5" fill="#FEFFFF" transform="matrix(1.00, 0.00, -0.00, -1.00, 114.0, 161.3)">•</text><text xml:space="preserve" font-family="AvenirNext-Regular,Avenir Next" font-size="30.0" fill="#FEFFFF" transform="matrix(1.00, 0.00, -0.00, -1.00, 141.7, 159.1)">H</text><text xml:space="preserve" font-family="AvenirNext-Regular,Avenir Next" font-size="30.0" fill="#FEFFFF" transform="matrix(1.00, 0.00, -0.00, -1.00, 163.2, 159.1)">i</text><text xml:space="preserve" font-family="AvenirNext-Regular,Avenir Next" font-size="30.0" fill="#FEFFFF" transform="matrix(1.00, 0.00, -0.00, -1.00, 170.7, 159.1)">s</text><text xml:space="preserve" font-family="AvenirNext-Regular,Avenir Next" font-size="30.0" fill="#FEFFFF" transform="matrix(1.00, 0.00, -0.00, -1.00, 184.0, 159.1)">t</text><text xml:space="preserve" font-family="AvenirNext-Regular,Avenir Next" font-size="30.0" fill="#FEFFFF" transform="matrix(1.00, 0.00, -0.00, -1.00, 193.6, 159.1)">o</text><text xml:space="preserve" font-family="AvenirNext-Regular,Avenir Next" font-size="30.0" fill="#FEFFFF" transform="matrix(1.00, 0.00, -0.00, -1.00, 211.9, 159.1)">r</text><text xml:space="preserve" font-family="AvenirNext-Regular,Avenir Next" font-size="30.0" fill="#FEFFFF" transform="matrix(1.00, 0.00, -0.00, -1.00, 222.7, 159.1)">y</text><text xml:space="preserve" font-family="AvenirNext-Regular,Avenir Next" font-size="30.0" fill="#FEFFFF" transform="matrix(1.00, 0.00, -0.00, -1.00, 237.4, 159.1)"> </text><text xml:space="preserve" font-family="AvenirNext-Regular,Avenir Next" font-size="30.0" fill="#FEFFFF" transform="matrix(1.00, 0.00, -0.00, -1.00, 244.9, 159.1)">a</text><text xml:space="preserve" font-family="AvenirNext-Regular,Avenir Next" font-size="30.0" fill="#FEFFFF" transform="matrix(1.00, 0.00, -0.00, -1.00, 260.9, 159.1)">l</text><text xml:space="preserve" font-family="AvenirNext-Regular,Avenir Next" font-size="30.0" fill="#FEFFFF" transform="matrix(1.00, 0.00, -0.00, -1.00, 268.5, 159.1)">r</text><text xml:space="preserve" font-family="AvenirNext-Regular,Avenir Next" font-size="30.0" fill="#FEFFFF" transform="matrix(1.00, 0.00, -0.00, -1.00, 278.7, 159.1)">e</text><text xml:space="preserve" font-family="AvenirNext-Regular,Avenir Next" font-size="30.0" fill="#FEFFFF" transform="matrix(1.00, 0.00, -0.00, -1.00, 295.7, 159.1)">a</text><text xml:space="preserve" font-family="AvenirNext-Regular,Avenir Next" font-size="30.0" fill="#FEFFFF" transform="matrix(1.00, 0.00, -0.00, -1.00, 311.7, 159.1)">d</text><text xml:space="preserve" font-family="AvenirNext-Regular,Avenir Next" font-size="30.0" fill="#FEFFFF" transform="matrix(1.00, 0.00, -0.00, -1.00, 330.9, 159.1)">y</text><text xml:space="preserve" font-family="AvenirNext-Regular,Avenir Next" font-size="30.0" fill="#FEFFFF" transform="matrix(1.00, 0.00, -0.00, -1.00, 345.5, 159.1)"> </text><text xml:space="preserve" font-family="AvenirNext-Regular,Avenir Next" font-size="30.0" fill="#FEFFFF" transform="matrix(1.00, 0.00, -0.00, -1.00, 353.0, 159.1)">i</text><text xml:space="preserve" font-family="AvenirNext-Regular,Avenir Next" font-size="30.0" fill="#FEFFFF" transform="matrix(1.00, 0.00, -0.00, -1.00, 360.5, 159.1)">n</text><text xml:space="preserve" font-family="AvenirNext-Regular,Avenir Next" font-size="30.0" fill="#FEFFFF" transform="matrix(1.00, 0.00, -0.00, -1.00, 378.0, 159.1)">c</text><text xml:space="preserve" font-family="AvenirNext-Regular,Avenir Next" font-size="30.0" fill="#FEFFFF" transform="matrix(1.00, 0.00, -0.00, -1.00, 393.0, 159.1)">l</text><text xml:space="preserve" font-family="AvenirNext-Regular,Avenir Next" font-size="30.0" fill="#FEFFFF" transform="matrix(1.00, 0.00, -0.00, -1.00, 400.5, 159.1)">u</text><text xml:space="preserve" font-family="AvenirNext-Regular,Avenir Next" font-size="30.0" fill="#FEFFFF" transform="matrix(1.00, 0.00, -0.00, -1.00, 418.0, 159.1)">d</text><text xml:space="preserve" font-family="AvenirNext-Regular,Avenir Next" font-size="30.0" fill="#FEFFFF" transform="matrix(1.00, 0.00, -0.00, -1.00, 437.1, 159.1)">e</text><text xml:space="preserve" font-family="AvenirNext-Regular,Avenir Next" font-size="30.0" fill="#FEFFFF" transform="matrix(1.00, 0.00, -0.00, -1.00, 454.3, 159.1)">s</text><text xml:space="preserve" font-family="AvenirNext-Regular,Avenir Next" font-size="30.0" fill="#FEFFFF" transform="matrix(1.00, 0.00, -0.00, -1.00, 467.6, 159.1)"> </text><text xml:space="preserve" font-family="AvenirNext-Regular,Avenir Next" font-size="30.0" fill="#FEFFFF" transform="matrix(1.00, 0.00, -0.00, -1.00, 475.1, 159.1)">e</text><text xml:space="preserve" font-family="AvenirNext-Regular,Avenir Next" font-size="30.0" fill="#FEFFFF" transform="matrix(1.00, 0.00, -0.00, -1.00, 492.3, 159.1)">v</text><text xml:space="preserve" font-family="AvenirNext-Regular,Avenir Next" font-size="30.0" fill="#FEFFFF" transform="matrix(1.00, 0.00, -0.00, -1.00, 506.9, 159.1)">e</text><text xml:space="preserve" font-family="AvenirNext-Regular,Avenir Next" font-size="30.0" fill="#FEFFFF" transform="matrix(1.00, 0.00, -0.00, -1.00, 524.1, 159.1)">r</text><text xml:space="preserve" font-family="AvenirNext-Regular,Avenir Next" font-size="30.0" fill="#FEFFFF" transform="matrix(1.00, 0.00, -0.00, -1.00, 534.9, 159.1)">y</text><text xml:space="preserve" font-family="AvenirNext-Regular,Avenir Next" font-size="30.0" fill="#FEFFFF" transform="matrix(1.00, 0.00, -0.00, -1.00, 549.6, 159.1)"> </text><text xml:space="preserve" font-family="AvenirNext-Regular,Avenir Next" font-size="30.0" fill="#FEFFFF" transform="matrix(1.00, 0.00, -0.00, -1.00, 557.1, 159.1)">a</text><text xml:space="preserve" font-family="AvenirNext-Regular,Avenir Next" font-size="30.0" fill="#FEFFFF" transform="matrix(1.00, 0.00, -0.00, -1.00, 572.8, 159.1)">t</text><text xml:space="preserve" font-family="AvenirNext-Regular,Avenir Next" font-size="30.0" fill="#FEFFFF" transform="matrix(1.00, 0.00, -0.00, -1.00, 582.0, 159.1)">t</text><text xml:space="preserve" font-family="AvenirNext-Regular,Avenir Next" font-size="30.0" fill="#FEFFFF" transform="matrix(1.00, 0.00, -0.00, -1.00, 591.5, 159.1)">e</text><text xml:space="preserve" font-family="AvenirNext-Regular,Avenir Next" font-size="30.0" fill="#FEFFFF" transform="matrix(1.00, 0.00, -0.00, -1.00, 608.6, 159.1)">m</text><text xml:space="preserve" font-family="AvenirNext-Regular,Avenir Next" font-size="30.0" fill="#FEFFFF" transform="matrix(1.00, 0.00, -0.00, -1.00, 635.1, 159.1)">p</text><text xml:space="preserve" font-family="AvenirNext-Regular,Avenir Next" font-size="30.0" fill="#FEFFFF" transform="matrix(1.00, 0.00, -0.00, -1.00, 654.2, 159.1)">t</text><text xml:space="preserve" font-family="AvenirNext-Regular,Avenir Next" font-size="30.0" fill="#FEFFFF" transform="matrix(1.00, 0.00, -0.00, -1.00, 663.7, 159.1)"> </text><text xml:space="preserve" font-family="AvenirNext-Regular,Avenir Next" font-size="30.0" fill="#FEFFFF" transform="matrix(1.00, 0.00, -0.00, -1.00, 671.2, 159.1)">a</text><text xml:space="preserve" font-family="AvenirNext-Regular,Avenir Next" font-size="30.0" fill="#FEFFFF" transform="matrix(1.00, 0.00, -0.00, -1.00, 687.0, 159.1)">t</text><text xml:space="preserve" font-family="AvenirNext-Regular,Avenir Next" font-size="30.0" fill="#FEFFFF" transform="matrix(1.00, 0.00, -0.00, -1.00, 696.5, 159.1)"> </text><text xml:space="preserve" font-family="AvenirNext-Regular,Avenir Next" font-size="30.0" fill="#FEFFFF" transform="matrix(1.00, 0.00, -0.00, -1.00, 704.0, 159.1)">t</text><text xml:space="preserve" font-family="AvenirNext-Regular,Avenir Next" font-size="30.0" fill="#FEFFFF" transform="matrix(1.00, 0.00, -0.00, -1.00, 713.5, 159.1)">i</text><text xml:space="preserve" font-family="AvenirNext-Regular,Avenir Next" font-size="30.0" fill="#FEFFFF" transform="matrix(1.00, 0.00, -0.00, -1.00, 721.0, 159.1)">m</text><text xml:space="preserve" font-family="AvenirNext-Regular,Avenir Next" font-size="30.0" fill="#FEFFFF" transform="matrix(1.00, 0.00, -0.00, -1.00, 747.5, 159.1)">e</text><text xml:space="preserve" font-family="AvenirNext-Regular,Avenir Next" font-size="30.0" fill="#FEFFFF" transform="matrix(1.00, 0.00, -0.00, -1.00, 764.7, 159.1)"> </text><text xml:space="preserve" font-family="AvenirNext-Regular,Avenir Next" font-size="30.0" fill="#FEFFFF" transform="matrix(1.00, 0.00, -0.00, -1.00, 772.2, 159.1)">t</text><text xml:space="preserve" font-family="AvenirNext-Regular,Avenir Next" font-size="30.0" fill="#FEFFFF" transform="matrix(1.00, 0.00, -0.00, -1.00, 781.7, 159.1)">r</text><text xml:space="preserve" font-family="AvenirNext-Regular,Avenir Next" font-size="30.0" fill="#FEFFFF" transform="matrix(1.00, 0.00, -0.00, -1.00, 792.2, 159.1)">a</text><text xml:space="preserve" font-family="AvenirNext-Regular,Avenir Next" font-size="30.0" fill="#FEFFFF" transform="matrix(1.00, 0.00, -0.00, -1.00, 808.2, 159.1)">v</text><text xml:space="preserve" font-family="AvenirNext-Regular,Avenir Next" font-size="30.0" fill="#FEFFFF" transform="matrix(1.00, 0.00, -0.00, -1.00, 822.8, 159.1)">e</text><text xml:space="preserve" font-family="AvenirNext-Regular,Avenir Next" font-size="30.0" fill="#FEFFFF" transform="matrix(1.00, 0.00, -0.00, -1.00, 840.0, 159.1)">l</text><text xml:space="preserve" font-family="AvenirNext-Regular,Avenir Next" font-size="30.0" fill="#FEFFFF" transform="matrix(1.00, 0.00, -0.00, -1.00, 847.6, 159.1)"> </text><text xml:space="preserve" font-family="AvenirNext-Regular,Avenir Next" font-size="22.5" fill="#FEFFFF" transform="matrix(1.00, 0.00, -0.00, -1.00, 114.0, 87.2)">•</text><text xml:space="preserve" font-family="AvenirNext-Regular,Avenir Next" font-size="30.0" fill="#FEFFFF" transform="matrix(1.00, 0.00, -0.00, -1.00, 141.7, 84.9)">T</text><text xml:space="preserve" font-family="AvenirNext-Regular,Avenir Next" font-size="30.0" fill="#FEFFFF" transform="matrix(1.00, 0.00, -0.00, -1.00, 158.2, 84.9)">h</text><text xml:space="preserve" font-family="AvenirNext-Regular,Avenir Next" font-size="30.0" fill="#FEFFFF" transform="matrix(1.00, 0.00, -0.00, -1.00, 175.7, 84.9)">i</text><text xml:space="preserve" font-family="AvenirNext-Regular,Avenir Next" font-size="30.0" fill="#FEFFFF" transform="matrix(1.00, 0.00, -0.00, -1.00, 183.2, 84.9)">s</text><text xml:space="preserve" font-family="AvenirNext-Regular,Avenir Next" font-size="30.0" fill="#FEFFFF" transform="matrix(1.00, 0.00, -0.00, -1.00, 196.6, 84.9)"> </text><text xml:space="preserve" font-family="AvenirNext-Regular,Avenir Next" font-size="30.0" fill="#FEFFFF" transform="matrix(1.00, 0.00, -0.00, -1.00, 204.1, 84.9)">a</text><text xml:space="preserve" font-family="AvenirNext-Regular,Avenir Next" font-size="30.0" fill="#FEFFFF" transform="matrix(1.00, 0.00, -0.00, -1.00, 220.1, 84.9)">l</text><text xml:space="preserve" font-family="AvenirNext-Regular,Avenir Next" font-size="30.0" fill="#FEFFFF" transform="matrix(1.00, 0.00, -0.00, -1.00, 227.7, 84.9)">l</text><text xml:space="preserve" font-family="AvenirNext-Regular,Avenir Next" font-size="30.0" fill="#FEFFFF" transform="matrix(1.00, 0.00, -0.00, -1.00, 235.2, 84.9)">o</text><text xml:space="preserve" font-family="AvenirNext-Regular,Avenir Next" font-size="30.0" fill="#FEFFFF" transform="matrix(1.00, 0.00, -0.00, -1.00, 253.6, 84.9)">w</text><text xml:space="preserve" font-family="AvenirNext-Regular,Avenir Next" font-size="30.0" fill="#FEFFFF" transform="matrix(1.00, 0.00, -0.00, -1.00, 276.0, 84.9)">s</text><text xml:space="preserve" font-family="AvenirNext-Regular,Avenir Next" font-size="30.0" fill="#FEFFFF" transform="matrix(1.00, 0.00, -0.00, -1.00, 289.3, 84.9)"> </text><text xml:space="preserve" font-family="AvenirNext-Regular,Avenir Next" font-size="30.0" fill="#FEFFFF" transform="matrix(1.00, 0.00, -0.00, -1.00, 296.8, 84.9)">f</text><text xml:space="preserve" font-family="AvenirNext-Regular,Avenir Next" font-size="30.0" fill="#FEFFFF" transform="matrix(1.00, 0.00, -0.00, -1.00, 305.6, 84.9)">o</text><text xml:space="preserve" font-family="AvenirNext-Regular,Avenir Next" font-size="30.0" fill="#FEFFFF" transform="matrix(1.00, 0.00, -0.00, -1.00, 324.0, 84.9)">r</text><text xml:space="preserve" font-family="AvenirNext-Regular,Avenir Next" font-size="30.0" fill="#FEFFFF" transform="matrix(1.00, 0.00, -0.00, -1.00, 334.8, 84.9)"> </text><text xml:space="preserve" font-family="AvenirNext-Regular,Avenir Next" font-size="30.0" fill="#FEFFFF" transform="matrix(1.00, 0.00, -0.00, -1.00, 342.3, 84.9)">t</text><text xml:space="preserve" font-family="AvenirNext-Regular,Avenir Next" font-size="30.0" fill="#FEFFFF" transform="matrix(1.00, 0.00, -0.00, -1.00, 351.8, 84.9)">h</text><text xml:space="preserve" font-family="AvenirNext-Regular,Avenir Next" font-size="30.0" fill="#FEFFFF" transform="matrix(1.00, 0.00, -0.00, -1.00, 369.3, 84.9)">e</text><text xml:space="preserve" font-family="AvenirNext-Regular,Avenir Next" font-size="30.0" fill="#FEFFFF" transform="matrix(1.00, 0.00, -0.00, -1.00, 386.5, 84.9)"> </text><text xml:space="preserve" font-family="AvenirNext-Regular,Avenir Next" font-size="30.0" fill="#FEFFFF" transform="matrix(1.00, 0.00, -0.00, -1.00, 394.0, 84.9)">p</text><text xml:space="preserve" font-family="AvenirNext-Regular,Avenir Next" font-size="30.0" fill="#FEFFFF" transform="matrix(1.00, 0.00, -0.00, -1.00, 413.1, 84.9)">o</text><text xml:space="preserve" font-family="AvenirNext-Regular,Avenir Next" font-size="30.0" fill="#FEFFFF" transform="matrix(1.00, 0.00, -0.00, -1.00, 431.4, 84.9)">s</text><text xml:space="preserve" font-family="AvenirNext-Regular,Avenir Next" font-size="30.0" fill="#FEFFFF" transform="matrix(1.00, 0.00, -0.00, -1.00, 444.7, 84.9)">s</text><text xml:space="preserve" font-family="AvenirNext-Regular,Avenir Next" font-size="30.0" fill="#FEFFFF" transform="matrix(1.00, 0.00, -0.00, -1.00, 458.1, 84.9)">i</text><text xml:space="preserve" font-family="AvenirNext-Regular,Avenir Next" font-size="30.0" fill="#FEFFFF" transform="matrix(1.00, 0.00, -0.00, -1.00, 465.6, 84.9)">b</text><text xml:space="preserve" font-family="AvenirNext-Regular,Avenir Next" font-size="30.0" fill="#FEFFFF" transform="matrix(1.00, 0.00, -0.00, -1.00, 484.7, 84.9)">i</text><text xml:space="preserve" font-family="AvenirNext-Regular,Avenir Next" font-size="30.0" fill="#FEFFFF" transform="matrix(1.00, 0.00, -0.00, -1.00, 492.2, 84.9)">l</text><text xml:space="preserve" font-family="AvenirNext-Regular,Avenir Next" font-size="30.0" fill="#FEFFFF" transform="matrix(1.00, 0.00, -0.00, -1.00, 499.8, 84.9)">i</text><text xml:space="preserve" font-family="AvenirNext-Regular,Avenir Next" font-size="30.0" fill="#FEFFFF" transform="matrix(1.00, 0.00, -0.00, -1.00, 507.3, 84.9)">t</text><text xml:space="preserve" font-family="AvenirNext-Regular,Avenir Next" font-size="30.0" fill="#FEFFFF" transform="matrix(1.00, 0.00, -0.00, -1.00, 516.8, 84.9)">y</text><text xml:space="preserve" font-family="AvenirNext-Regular,Avenir Next" font-size="30.0" fill="#FEFFFF" transform="matrix(1.00, 0.00, -0.00, -1.00, 531.4, 84.9)"> </text><text xml:space="preserve" font-family="AvenirNext-Regular,Avenir Next" font-size="30.0" fill="#FEFFFF" transform="matrix(1.00, 0.00, -0.00, -1.00, 538.9, 84.9)">t</text><text xml:space="preserve" font-family="AvenirNext-Regular,Avenir Next" font-size="30.0" fill="#FEFFFF" transform="matrix(1.00, 0.00, -0.00, -1.00, 548.5, 84.9)">h</text><text xml:space="preserve" font-family="AvenirNext-Regular,Avenir Next" font-size="30.0" fill="#FEFFFF" transform="matrix(1.00, 0.00, -0.00, -1.00, 566.0, 84.9)">a</text><text xml:space="preserve" font-family="AvenirNext-Regular,Avenir Next" font-size="30.0" fill="#FEFFFF" transform="matrix(1.00, 0.00, -0.00, -1.00, 581.7, 84.9)">t</text><text xml:space="preserve" font-family="AvenirNext-Regular,Avenir Next" font-size="30.0" fill="#FEFFFF" transform="matrix(1.00, 0.00, -0.00, -1.00, 591.2, 84.9)"> </text><text xml:space="preserve" font-family="AvenirNext-Regular,Avenir Next" font-size="30.0" fill="#FEFFFF" transform="matrix(1.00, 0.00, -0.00, -1.00, 598.7, 84.9)">h</text><text xml:space="preserve" font-family="AvenirNext-Regular,Avenir Next" font-size="30.0" fill="#FEFFFF" transform="matrix(1.00, 0.00, -0.00, -1.00, 616.2, 84.9)">i</text><text xml:space="preserve" font-family="AvenirNext-Regular,Avenir Next" font-size="30.0" fill="#FEFFFF" transform="matrix(1.00, 0.00, -0.00, -1.00, 623.7, 84.9)">s</text><text xml:space="preserve" font-family="AvenirNext-Regular,Avenir Next" font-size="30.0" fill="#FEFFFF" transform="matrix(1.00, 0.00, -0.00, -1.00, 637.0, 84.9)">t</text><text xml:space="preserve" font-family="AvenirNext-Regular,Avenir Next" font-size="30.0" fill="#FEFFFF" transform="matrix(1.00, 0.00, -0.00, -1.00, 646.6, 84.9)">o</text><text xml:space="preserve" font-family="AvenirNext-Regular,Avenir Next" font-size="30.0" fill="#FEFFFF" transform="matrix(1.00, 0.00, -0.00, -1.00, 664.9, 84.9)">r</text><text xml:space="preserve" font-family="AvenirNext-Regular,Avenir Next" font-size="30.0" fill="#FEFFFF" transform="matrix(1.00, 0.00, -0.00, -1.00, 675.7, 84.9)">y</text><text xml:space="preserve" font-family="AvenirNext-Regular,Avenir Next" font-size="30.0" fill="#FEFFFF" transform="matrix(1.00, 0.00, -0.00, -1.00, 690.4, 84.9)"> </text><text xml:space="preserve" font-family="AvenirNext-Regular,Avenir Next" font-size="30.0" fill="#FEFFFF" transform="matrix(1.00, 0.00, -0.00, -1.00, 697.9, 84.9)">w</text><text xml:space="preserve" font-family="AvenirNext-Regular,Avenir Next" font-size="30.0" fill="#FEFFFF" transform="matrix(1.00, 0.00, -0.00, -1.00, 720.3, 84.9)">a</text><text xml:space="preserve" font-family="AvenirNext-Regular,Avenir Next" font-size="30.0" fill="#FEFFFF" transform="matrix(1.00, 0.00, -0.00, -1.00, 736.3, 84.9)">s</text><text xml:space="preserve" font-family="AvenirNext-Regular,Avenir Next" font-size="30.0" fill="#FEFFFF" transform="matrix(1.00, 0.00, -0.00, -1.00, 749.6, 84.9)"> </text><text xml:space="preserve" font-family="AvenirNext-Regular,Avenir Next" font-size="30.0" fill="#FEFFFF" transform="matrix(1.00, 0.00, -0.00, -1.00, 757.1, 84.9)">c</text><text xml:space="preserve" font-family="AvenirNext-Regular,Avenir Next" font-size="30.0" fill="#FEFFFF" transform="matrix(1.00, 0.00, -0.00, -1.00, 772.1, 84.9)">h</text><text xml:space="preserve" font-family="AvenirNext-Regular,Avenir Next" font-size="30.0" fill="#FEFFFF" transform="matrix(1.00, 0.00, -0.00, -1.00, 789.6, 84.9)">a</text><text xml:space="preserve" font-family="AvenirNext-Regular,Avenir Next" font-size="30.0" fill="#FEFFFF" transform="matrix(1.00, 0.00, -0.00, -1.00, 805.7, 84.9)">n</text><text xml:space="preserve" font-family="AvenirNext-Regular,Avenir Next" font-size="30.0" fill="#FEFFFF" transform="matrix(1.00, 0.00, -0.00, -1.00, 823.1, 84.9)">g</text><text xml:space="preserve" font-family="AvenirNext-Regular,Avenir Next" font-size="30.0" fill="#FEFFFF" transform="matrix(1.00, 0.00, -0.00, -1.00, 842.1, 84.9)">e</text><text xml:space="preserve" font-family="AvenirNext-Regular,Avenir Next" font-size="30.0" fill="#FEFFFF" transform="matrix(1.00, 0.00, -0.00, -1.00, 859.2, 84.9)">d</text><image xlink:href="../../24D16EBD-6BD9-4C96-BC0E-F1D401C6F5BE/assets/39627F67AED309EB1F876BBDD71B2E85.png" width="686.00" height="114.00" transform="matrix(0.58, 0.00, -0.00, -0.58, 387.0, 571.0)"></image></g></svg>