<?xml version="1.0" encoding="UTF-8" standalone="no"?><svg xmlns="http://www.w3.org/2000/svg" xmlns:xlink="http://www.w3.org/1999/xlink" clip-rule="evenodd" stroke-miterlimit="10" viewBox="0 0 1024 768"><desc>SVG generated by Keynote</desc><defs></defs><g transform="matrix(1.00, 0.00, -0.00, -1.00, 0.0, 768.0)"><path d="M 0.0 768.0 L 1024.0 768.0 L 1024.0 0.0 L 0.0 0.0 Z M 0.0 768.0 " fill="#000000"></path><text xml:space="preserve" font-family="AvenirNext-Regular,Avenir Next" font-size="80.0" fill="#FEFFFF" transform="matrix(1.00, 0.00, -0.00, -1.00, 375.9, 637.3)">O</text><text xml:space="preserve" font-family="AvenirNext-Regular,Avenir Next" font-size="80.0" fill="#FEFFFF" transform="matrix(1.00, 0.00, -0.00, -1.00, 443.9, 637.3)">u</text><text xml:space="preserve" font-family="AvenirNext-Regular,Avenir Next" font-size="80.0" fill="#FEFFFF" transform="matrix(1.00, 0.00, -0.00, -1.00, 490.4, 637.3)">t</text><text xml:space="preserve" font-family="AvenirNext-Regular,Avenir Next" font-size="80.0" fill="#FEFFFF" transform="matrix(1.00, 0.00, -0.00, -1.00, 515.7, 637.3)">l</text><text xml:space="preserve" font-family="AvenirNext-Regular,Avenir Next" font-size="80.0" fill="#FEFFFF" transform="matrix(1.00, 0.00, -0.00, -1.00, 535.9, 637.3)">i</text><text xml:space="preserve" font-family="AvenirNext-Regular,Avenir Next" font-size="80.0" fill="#FEFFFF" transform="matrix(1.00, 0.00, -0.00, -1.00, 555.9, 637.3)">n</text><text xml:space="preserve" font-family="AvenirNext-Regular,Avenir Next" font-size="80.0" fill="#FEFFFF" transform="matrix(1.00, 0.00, -0.00, -1.00, 602.4, 637.3)">e</text><text xml:space="preserve" font-family="AvenirNext-Regular,Avenir Next" font-size="28.5" fill="#FEFFFF" transform="matrix(1.00, 0.00, -0.00, -1.00, 79.0, 524.9)">•</text><text xml:space="preserve" font-family="AvenirNext-Regular,Avenir Next" font-size="38.0" fill="#FEFFFF" transform="matrix(1.00, 0.00, -0.00, -1.00, 114.0, 521.9)">S</text><text xml:space="preserve" font-family="AvenirNext-Regular,Avenir Next" font-size="38.0" fill="#FEFFFF" transform="matrix(1.00, 0.00, -0.00, -1.00, 135.4, 521.9)">e</text><text xml:space="preserve" font-family="AvenirNext-Regular,Avenir Next" font-size="38.0" fill="#FEFFFF" transform="matrix(1.00, 0.00, -0.00, -1.00, 157.2, 521.9)">t</text><text xml:space="preserve" font-family="AvenirNext-Regular,Avenir Next" font-size="38.0" fill="#FEFFFF" transform="matrix(1.00, 0.00, -0.00, -1.00, 169.2, 521.9)">u</text><text xml:space="preserve" font-family="AvenirNext-Regular,Avenir Next" font-size="38.0" fill="#FEFFFF" transform="matrix(1.00, 0.00, -0.00, -1.00, 191.3, 521.9)">p</text><text xml:space="preserve" font-family="AvenirNext-Regular,Avenir Next" font-size="38.0" fill="#FEFFFF" transform="matrix(1.00, 0.00, -0.00, -1.00, 215.4, 521.9)"> </text><text xml:space="preserve" font-family="AvenirNext-Regular,Avenir Next" font-size="28.5" fill="#FEFFFF" transform="matrix(1.00, 0.00, -0.00, -1.00, 79.0, 430.9)">•</text><text xml:space="preserve" font-family="AvenirNext-Regular,Avenir Next" font-size="38.0" fill="#FEFFFF" transform="matrix(1.00, 0.00, -0.00, -1.00, 114.0, 427.9)">F</text><text xml:space="preserve" font-family="AvenirNext-Regular,Avenir Next" font-size="38.0" fill="#FEFFFF" transform="matrix(1.00, 0.00, -0.00, -1.00, 133.5, 427.9)">o</text><text xml:space="preserve" font-family="AvenirNext-Regular,Avenir Next" font-size="38.0" fill="#FEFFFF" transform="matrix(1.00, 0.00, -0.00, -1.00, 156.8, 427.9)">r</text><text xml:space="preserve" font-family="AvenirNext-Regular,Avenir Next" font-size="38.0" fill="#FEFFFF" transform="matrix(1.00, 0.00, -0.00, -1.00, 170.4, 427.9)">m</text><text xml:space="preserve" font-family="AvenirNext-Regular,Avenir Next" font-size="38.0" fill="#FEFFFF" transform="matrix(1.00, 0.00, -0.00, -1.00, 204.0, 427.9)">a</text><text xml:space="preserve" font-family="AvenirNext-Regular,Avenir Next" font-size="38.0" fill="#FEFFFF" transform="matrix(1.00, 0.00, -0.00, -1.00, 224.3, 427.9)">l</text><text xml:space="preserve" font-family="AvenirNext-Regular,Avenir Next" font-size="38.0" fill="#FEFFFF" transform="matrix(1.00, 0.00, -0.00, -1.00, 233.9, 427.9)">i</text><text xml:space="preserve" font-family="AvenirNext-Regular,Avenir Next" font-size="38.0" fill="#FEFFFF" transform="matrix(1.00, 0.00, -0.00, -1.00, 243.4, 427.9)">z</text><text xml:space="preserve" font-family="AvenirNext-Regular,Avenir Next" font-size="38.0" fill="#FEFFFF" transform="matrix(1.00, 0.00, -0.00, -1.00, 260.1, 427.9)">a</text><text xml:space="preserve" font-family="AvenirNext-Regular,Avenir Next" font-size="38.0" fill="#FEFFFF" transform="matrix(1.00, 0.00, -0.00, -1.00, 280.1, 427.9)">t</text><text xml:space="preserve" font-family="AvenirNext-Regular,Avenir Next" font-size="38.0" fill="#FEFFFF" transform="matrix(1.00, 0.00, -0.00, -1.00, 292.1, 427.9)">i</text><text xml:space="preserve" font-family="AvenirNext-Regular,Avenir Next" font-size="38.0" fill="#FEFFFF" transform="matrix(1.00, 0.00, -0.00, -1.00, 301.6, 427.9)">o</text><text xml:space="preserve" font-family="AvenirNext-Regular,Avenir Next" font-size="38.0" fill="#FEFFFF" transform="matrix(1.00, 0.00, -0.00, -1.00, 324.8, 427.9)">n</text><text xml:space="preserve" font-family="AvenirNext-Regular,Avenir Next" font-size="38.0" fill="#FEFFFF" transform="matrix(1.00, 0.00, -0.00, -1.00, 346.9, 427.9)"> </text><text xml:space="preserve" font-family="AvenirNext-Regular,Avenir Next" font-size="28.5" fill="#FEFFFF" transform="matrix(1.00, 0.00, -0.00, -1.00, 79.0, 336.9)">•</text><text xml:space="preserve" font-family="AvenirNext-Regular,Avenir Next" font-size="38.0" fill="#FEFFFF" transform="matrix(1.00, 0.00, -0.00, -1.00, 114.0, 333.9)">P</text><text xml:space="preserve" font-family="AvenirNext-Regular,Avenir Next" font-size="38.0" fill="#FEFFFF" transform="matrix(1.00, 0.00, -0.00, -1.00, 133.3, 333.9)">o</text><text xml:space="preserve" font-family="AvenirNext-Regular,Avenir Next" font-size="38.0" fill="#FEFFFF" transform="matrix(1.00, 0.00, -0.00, -1.00, 156.5, 333.9)">s</text><text xml:space="preserve" font-family="AvenirNext-Regular,Avenir Next" font-size="38.0" fill="#FEFFFF" transform="matrix(1.00, 0.00, -0.00, -1.00, 173.4, 333.9)">s</text><text xml:space="preserve" font-family="AvenirNext-Regular,Avenir Next" font-size="38.0" fill="#FEFFFF" transform="matrix(1.00, 0.00, -0.00, -1.00, 190.3, 333.9)">i</text><text xml:space="preserve" font-family="AvenirNext-Regular,Avenir Next" font-size="38.0" fill="#FEFFFF" transform="matrix(1.00, 0.00, -0.00, -1.00, 199.8, 333.9)">b</text><text xml:space="preserve" font-family="AvenirNext-Regular,Avenir Next" font-size="38.0" fill="#FEFFFF" transform="matrix(1.00, 0.00, -0.00, -1.00, 224.0, 333.9)">l</text><text xml:space="preserve" font-family="AvenirNext-Regular,Avenir Next" font-size="38.0" fill="#FEFFFF" transform="matrix(1.00, 0.00, -0.00, -1.00, 233.5, 333.9)">e</text><text xml:space="preserve" font-family="AvenirNext-Regular,Avenir Next" font-size="38.0" fill="#FEFFFF" transform="matrix(1.00, 0.00, -0.00, -1.00, 255.3, 333.9)"> </text><text xml:space="preserve" font-family="AvenirNext-Regular,Avenir Next" font-size="38.0" fill="#FEFFFF" transform="matrix(1.00, 0.00, -0.00, -1.00, 264.8, 333.9)">S</text><text xml:space="preserve" font-family="AvenirNext-Regular,Avenir Next" font-size="38.0" fill="#FEFFFF" transform="matrix(1.00, 0.00, -0.00, -1.00, 286.2, 333.9)">o</text><text xml:space="preserve" font-family="AvenirNext-Regular,Avenir Next" font-size="38.0" fill="#FEFFFF" transform="matrix(1.00, 0.00, -0.00, -1.00, 309.4, 333.9)">l</text><text xml:space="preserve" font-family="AvenirNext-Regular,Avenir Next" font-size="38.0" fill="#FEFFFF" transform="matrix(1.00, 0.00, -0.00, -1.00, 319.0, 333.9)">u</text><text xml:space="preserve" font-family="AvenirNext-Regular,Avenir Next" font-size="38.0" fill="#FEFFFF" transform="matrix(1.00, 0.00, -0.00, -1.00, 341.1, 333.9)">t</text><text xml:space="preserve" font-family="AvenirNext-Regular,Avenir Next" font-size="38.0" fill="#FEFFFF" transform="matrix(1.00, 0.00, -0.00, -1.00, 353.1, 333.9)">i</text><text xml:space="preserve" font-family="AvenirNext-Regular,Avenir Next" font-size="38.0" fill="#FEFFFF" transform="matrix(1.00, 0.00, -0.00, -1.00, 362.6, 333.9)">o</text><text xml:space="preserve" font-family="AvenirNext-Regular,Avenir Next" font-size="38.0" fill="#FEFFFF" transform="matrix(1.00, 0.00, -0.00, -1.00, 385.9, 333.9)">n</text><text xml:space="preserve" font-family="AvenirNext-Regular,Avenir Next" font-size="38.0" fill="#FEFFFF" transform="matrix(1.00, 0.00, -0.00, -1.00, 407.9, 333.9)">s</text></g></svg>