<?xml version="1.0" standalone="no"?>
<!DOCTYPE svg PUBLIC "-//W3C//DTD SVG 1.1//EN" "http://www.w3.org/Graphics/SVG/1.1/DTD/svg11.dtd" >
<svg>
<metadata>
Created by FontForge 20110222 at Wed Jan  8 18:58:21 2014
 By Orthosie Webhosting
(c) 1997, 2000 Adobe Systems Incorporated. All rights reserved.
</metadata>
<defs>
<font id="ChaparralProSemibold" horiz-adv-x="359" >
  <font-face 
    font-family="ChaparralProSemibold"
    font-weight="600"
    font-stretch="normal"
    units-per-em="1000"
    panose-1="2 6 6 3 4 5 5 2 2 3"
    ascent="740"
    descent="-260"
    x-height="428"
    cap-height="650"
    bbox="-166 -316 1128 885"
    underline-thickness="54"
    underline-position="-46"
    unicode-range="U+0020-FB04"
  />
<missing-glyph horiz-adv-x="500" 
d="M0 0v700h500v-700h-500zM250 395l170 255h-340zM280 350l170 -255v510zM80 50h340l-170 255zM50 605v-510l170 255z" />
    <glyph glyph-name="T_h" unicode="Th" horiz-adv-x="1056" 
d="M355 582l-2 -515l83 -3q1 -22 -1 -64q-18 0 -66 0.5t-72 0.5q-22 0 -70 -0.5t-71 -0.5q0 43 1 63l75 3q4 0 4 4v513q-72 0 -104 -5q-20 -2 -23 -19l-17 -96q-10 1 -37 3t-40 3q2 30 5.5 90t5.5 91q8 0 40 -0.5t53 -0.5h182q188 0 213 1q151 0 172 1q0 -127 -3 -268l5 -1
q73 37 101 46.5t59 9.5q33 0 64 -22.5t50 -53.5q14 -24 14 -74q0 -77 -2 -225l60 -2q0 -9 -0.5 -30t-0.5 -30h-111q-19 0 -57.5 -0.5t-55.5 -0.5q0 40 1 60l49 3q3 0 3 4v167q0 74 -12 94q-17 27 -53 27q-50 0 -112 -44q-2 -142 -2 -248l64 -2q0 -22 -2 -60h-122
q-15 0 -55 -0.5t-55 -0.5q0 41 1 60l53 3q4 0 4 4q1 155 1 492q0 20 -28 21q-38 2 -189 2z" />
    <glyph glyph-name="Tcaron_h" unicode="&#x164;h" horiz-adv-x="1056" 
d="M355 582l-2 -515l83 -3q1 -22 -1 -64q-18 0 -66 0.5t-72 0.5q-22 0 -70 -0.5t-71 -0.5q0 43 1 63l75 3q4 0 4 4v513q-72 0 -104 -5q-20 -2 -23 -19l-17 -96q-10 1 -37 3t-40 3q2 30 5.5 90t5.5 91q8 0 40 -0.5t53 -0.5h182q188 0 213 1q151 0 172 1q0 -127 -3 -268l5 -1
q73 37 101 46.5t59 9.5q33 0 64 -22.5t50 -53.5q14 -24 14 -74q0 -77 -2 -225l60 -2q0 -9 -0.5 -30t-0.5 -30h-111q-19 0 -57.5 -0.5t-55.5 -0.5q0 40 1 60l49 3q3 0 3 4v167q0 74 -12 94q-17 27 -53 27q-50 0 -112 -44q-2 -142 -2 -248l64 -2q0 -22 -2 -60h-122
q-15 0 -55 -0.5t-55 -0.5q0 41 1 60l53 3q4 0 4 4q1 155 1 492q0 20 -28 21q-38 2 -189 2zM347 783q58 38 116 74q18 -16 32 -40q-16 -13 -61.5 -50t-68.5 -55h-11.5h-14.5h-12q-70 58 -128 105q16 23 31 39q15 -9 55.5 -34.5t61.5 -38.5z" />
    <glyph glyph-name="Tcommaaccent_h" unicode="&#x162;h" horiz-adv-x="1056" 
d="M355 582l-2 -515l83 -3q1 -22 -1 -64q-18 0 -66 0.5t-72 0.5q-22 0 -70 -0.5t-71 -0.5q0 43 1 63l75 3q4 0 4 4v513q-72 0 -104 -5q-20 -2 -23 -19l-17 -96q-10 1 -37 3t-40 3q2 30 5.5 90t5.5 91q8 0 40 -0.5t53 -0.5h182q188 0 213 1q151 0 172 1q0 -127 -3 -268l5 -1
q73 37 101 46.5t59 9.5q33 0 64 -22.5t50 -53.5q14 -24 14 -74q0 -77 -2 -225l60 -2q0 -9 -0.5 -30t-0.5 -30h-111q-19 0 -57.5 -0.5t-55.5 -0.5q0 40 1 60l49 3q3 0 3 4v167q0 74 -12 94q-17 27 -53 27q-50 0 -112 -44q-2 -142 -2 -248l64 -2q0 -22 -2 -60h-122
q-15 0 -55 -0.5t-55 -0.5q0 41 1 60l53 3q4 0 4 4q1 155 1 492q0 20 -28 21q-38 2 -189 2zM303 -39q26 0 47 -24.5t21 -56.5q0 -50 -29 -93t-78 -70q-2 2 -13 15t-16 20q60 42 60 89q0 33 -45 45q-4 32 12 53.5t41 21.5z" />
    <glyph glyph-name="f_f_j" unicode="ffj" horiz-adv-x="887" 
d="M37 60l54 3q4 0 4 5q0 195 -1 289h-72q0 46 1 66q26 0 64 2q6 0 6 6q1 115 58 174q70 75 166 75q54 0 90 -17q0 -17 -14 -45.5t-26 -36.5q-47 22 -80 22q-39 0 -55 -28q-27 -39 -26 -150h194q5 0 5 7q0 74 14 111t50 73q71 70 170 70q89 0 143 -28q0 -19 -16 -48.5
t-31 -39.5q-68 39 -130 39q-40 0 -59 -25q-16 -21 -22.5 -51.5t-5.5 -107.5q18 0 57 0.5t67 0.5q29 0 72 2.5t74.5 5t33.5 2.5t2 -3q0 -52 -0.5 -176t-0.5 -178q0 -59 -7 -96t-28 -77q-52 -109 -127 -149q-18 0 -44.5 21t-29.5 38q71 33 93 74q33 57 33 181l-1 285
q-28 1 -84 1h-110q-1 -82 -1 -294l73 -2q0 -40 -1 -60h-128q-17 0 -56 -0.5t-57 -0.5q0 40 1 60l54 3q4 0 4 4q0 196 -1 290h-200q0 -40 -0.5 -143.5t-0.5 -150.5l77 -2q0 -40 -1 -60h-132q-18 0 -57 -0.5t-56 -0.5q0 40 1 60z" />
    <glyph glyph-name="f_j" unicode="fj" horiz-adv-x="578" 
d="M329 686q84 0 142 -28q0 -19 -15.5 -48.5t-30.5 -39.5q-75 39 -131 39q-40 0 -58 -25q-17 -20 -23 -50.5t-5 -108.5q20 0 124 2q28 0 72.5 2.5t75.5 4.5t34 2q1 0 1 -3q0 -52 -0.5 -176t-0.5 -178q0 -59 -7 -96t-28 -77q-51 -108 -127 -149q-18 0 -44.5 21t-29.5 38
q70 32 93 74q33 57 32 181l-2 285q-52 2 -80 2q-79 0 -113 -1q0 -39 -0.5 -143t-0.5 -151l72 -2q0 -10 -0.5 -30t-0.5 -30h-128q-18 0 -57 -0.5t-56 -0.5q0 40 1 60l54 3q4 0 4 4q0 196 -1 290h-73q0 26 2 66q42 2 65 2q5 0 5 7q0 74 14 111t50 73q71 70 171 70z" />
    <glyph glyph-name="f_f" unicode="ff" horiz-adv-x="667" 
d="M318 680q55 0 89 -16q0 -20 -13.5 -47t-26.5 -35q-49 21 -79 21q-38 0 -55 -28q-26 -40 -25 -150h192q6 0 6 7q0 73 11.5 110t43.5 71q69 73 161 73q47 0 83 -14q0 -19 -13.5 -48t-25.5 -38q-60 20 -76 20q-34 0 -49 -25q-13 -20 -17 -48.5t-3 -107.5q23 0 69.5 0.5
t68.5 0.5q0 -38 -3 -69h-136q0 -39 -0.5 -143t-0.5 -151l94 -2q0 -40 -1 -60h-150q-18 0 -57 -0.5t-56 -0.5q0 10 0.5 30t0.5 30l54 3q4 0 4 5q0 196 -1 289h-199q0 -39 -0.5 -143t-0.5 -151l75 -2q0 -40 -1 -60h-131q-18 0 -57 -0.5t-56 -0.5q0 40 1 60l54 3q4 0 4 5
q0 195 -1 289h-73q0 26 2 66q10 0 32 0.5t32 1.5q6 0 6 6q1 61 13.5 101t43.5 74q72 74 167 74z" />
    <glyph glyph-name="f_f_i" unicode="ffi" horiz-adv-x="905" 
d="M37 60l54 3q4 0 4 5q0 195 -1 289h-72q0 46 1 66q26 0 64 2q6 0 6 6q1 115 58 174q70 75 166 75q54 0 90 -17q0 -17 -14 -45.5t-26 -36.5q-47 22 -80 22q-39 0 -55 -28q-27 -39 -26 -150h194q5 0 5 7q0 74 14 111t50 73q71 70 170 70q88 0 142 -28q0 -19 -15.5 -48.5
t-30.5 -39.5q-72 39 -130 39q-40 0 -59 -25q-16 -21 -22.5 -51.5t-5.5 -107.5q18 0 57 0.5t66 0.5q29 0 72 2.5t75 5t34 2.5t2 -3q-2 -220 -2 -370l64 -2q0 -41 -1 -60h-121q-18 0 -55 -0.5t-55 -0.5v60l56 3q3 0 3 4v289q-24 1 -85 1h-110q-1 -82 -1 -294l73 -2
q0 -40 -1 -60h-128q-17 0 -56 -0.5t-57 -0.5q0 40 1 60l54 3q4 0 4 4q0 196 -1 290h-200q0 -40 -0.5 -143.5t-0.5 -150.5l77 -2q0 -40 -1 -60h-132q-18 0 -57 -0.5t-56 -0.5q0 40 1 60z" />
    <glyph glyph-name="f_f_l" unicode="ffl" horiz-adv-x="909" 
d="M648 686q103 0 178 -25q3 -1 3 -7q0 -69 -1.5 -279t-2.5 -312l70 -2q0 -10 -0.5 -30.5t-0.5 -29.5h-124q-19 0 -59 -0.5t-55 -0.5q0 41 1 60l57 3q3 0 3 5q1 89 1 289h-202q0 -39 -0.5 -143t-0.5 -151l76 -2q0 -10 -0.5 -30t-0.5 -30h-129q-18 0 -57 -0.5t-56 -0.5
q0 40 1 60l54 3q4 0 4 4q0 197 -1 290h-200q-1 -81 -1 -294l77 -2q0 -40 -1 -60h-132q-18 0 -57 -0.5t-56 -0.5q0 40 1 60l54 3q4 0 4 5q0 195 -1 289h-73q0 26 2 66q10 0 32 0.5t32 1.5q6 0 6 6q1 115 58 175q70 74 165 74q57 0 91 -16q0 -18 -14.5 -46t-26.5 -36
q-45 21 -80 21q-38 0 -55 -27q-26 -36 -25 -151h194q5 0 5 8q0 76 12 113t47 71q43 41 84.5 55t99.5 14zM611 617q-50 0 -72 -32q-15 -19 -19.5 -50t-3.5 -112q30 0 99 0.5t103 0.5v179q-37 14 -107 14z" />
    <glyph glyph-name="f_i" unicode="fi" horiz-adv-x="596" 
d="M329 686q83 0 142 -28q0 -19 -15.5 -48.5t-30.5 -39.5q-78 39 -131 39q-40 0 -59 -25q-16 -20 -22 -51t-5 -108q20 0 124 2q28 0 72.5 2.5t75.5 4.5t34 2q2 0 2 -3q-2 -220 -2 -370l64 -2q0 -41 -1 -60h-122q-18 0 -56.5 -0.5t-55.5 -0.5q0 41 1 60l55 3q3 0 3 4v289
q-44 2 -82 2q-77 0 -112 -1q0 -39 -0.5 -143t-0.5 -151l71 -2v-60h-128q-18 0 -57 -0.5t-56 -0.5q0 40 1 60l54 3q4 0 4 4q0 196 -1 290h-73q0 26 2 66q42 2 65 2q5 0 5 7q0 74 14 111t50 73q71 70 171 70z" />
    <glyph glyph-name="f_l" unicode="fl" horiz-adv-x="601" 
d="M205 63l74 -2v-60h-129q-79 0 -113 -1q0 40 1 60l54 3q4 0 4 4q0 196 -1 290h-73q0 26 2 66q10 1 32.5 1t32.5 1q5 0 5 8q0 76 12 112.5t48 71.5q43 41 82.5 55t94.5 14q113 0 185 -27q4 -3 4 -7q0 -67 -1.5 -277t-2.5 -312l70 -2q0 -10 -0.5 -30.5t-0.5 -29.5h-126
q-82 0 -114 -1q0 9 0.5 30t0.5 30l57 3q3 0 3 5q1 89 1 289h-201q0 -40 -0.5 -143.5t-0.5 -150.5zM301 616q-50 0 -73 -29q-14 -18 -18.5 -50t-3.5 -113q30 0 98.5 0.5t102.5 0.5v59v65.5v52.5q-39 14 -106 14z" />
    <glyph glyph-name="uni021A_h" unicode="&#x21a;h" horiz-adv-x="1056" 
d="M355 582l-2 -515l83 -3q1 -22 -1 -64q-18 0 -66 0.5t-72 0.5q-22 0 -70 -0.5t-71 -0.5q0 43 1 63l75 3q4 0 4 4v513q-72 0 -104 -5q-20 -2 -23 -19l-17 -96q-10 1 -37 3t-40 3q2 30 5.5 90t5.5 91q8 0 40 -0.5t53 -0.5h182q188 0 213 1q151 0 172 1q0 -127 -3 -268l5 -1
q73 37 101 46.5t59 9.5q33 0 64 -22.5t50 -53.5q14 -24 14 -74q0 -77 -2 -225l60 -2q0 -9 -0.5 -30t-0.5 -30h-111q-19 0 -57.5 -0.5t-55.5 -0.5q0 40 1 60l49 3q3 0 3 4v167q0 74 -12 94q-17 27 -53 27q-50 0 -112 -44q-2 -142 -2 -248l64 -2q0 -22 -2 -60h-122
q-15 0 -55 -0.5t-55 -0.5q0 41 1 60l53 3q4 0 4 4q1 155 1 492q0 20 -28 21q-38 2 -189 2zM302 -39q27 0 48 -24.5t21 -56.5q0 -49 -29.5 -92.5t-77.5 -70.5q-16 17 -29 35q60 42 60 89q0 33 -45 45q-4 31 12 53t40 22z" />
    <glyph glyph-name=".notdef" horiz-adv-x="500" 
d="M0 0v700h500v-700h-500zM250 395l170 255h-340zM280 350l170 -255v510zM80 50h340l-170 255zM50 605v-510l170 255z" />
    <glyph glyph-name=".null" horiz-adv-x="0" 
 />
    <glyph glyph-name="nonmarkingreturn" horiz-adv-x="333" 
 />
    <glyph glyph-name="space" unicode=" " horiz-adv-x="222" 
 />
    <glyph glyph-name="exclam" unicode="!" horiz-adv-x="290" 
d="M213 656v-2q-3 -40 -15 -217t-16 -246q-21 -6 -72 -10q-1 22 -8 107t-8 107q-10 141 -21 239q21 6 72.5 14t67.5 8zM148 117q29 0 46.5 -19.5t17.5 -45.5t-18.5 -44t-47.5 -18q-28 0 -47 17t-19 44t19 46.5t49 19.5z" />
    <glyph glyph-name="quotedbl" unicode="&#x22;" horiz-adv-x="373" 
d="M155 698q-12 -182 -15 -262q-32 -8 -58 -8q-13 162 -24 255q49 15 97 15zM319 698q-12 -182 -15 -262q-32 -8 -58 -8q-13 167 -24 255q42 15 97 15z" />
    <glyph glyph-name="numbersign" unicode="#" horiz-adv-x="541" 
d="M243 473l103 1q6 33 16 92.5t13 78.5q34 2 70 0q-4 -26 -14.5 -85t-15.5 -86q17 0 50 0.5t48 0.5q0 -25 -4 -63q-68 0 -106 1q-7 -38 -22 -137h105q0 -30 -3 -60q-15 0 -53.5 -0.5t-59.5 -0.5q-5 -30 -16.5 -94.5t-16.5 -92.5q-43 -2 -63 -1q3 17 31 188
q-18 0 -53.5 -0.5t-52.5 -0.5q-7 -37 -18 -102t-15 -84q-25 -3 -63 -1q2 16 13.5 83.5t16.5 103.5q-18 0 -52.5 -0.5t-47.5 -0.5q0 37 3 64h108q14 90 21 136h-107q0 32 3 59q19 0 57 0.5t57 0.5q23 138 29 172q23 2 70 2q-22 -118 -31 -174zM336 413h-105q-14 -92 -21 -136
q32 -1 105 -1q3 23 10 68.5t11 68.5z" />
    <glyph glyph-name="dollar" unicode="$" horiz-adv-x="541" 
d="M68 448q0 35 19.5 67.5t50.5 53.5q51 36 124 41q0 17 0.5 49t1.5 49q25 6 63 8q-2 -58 -3 -104q83 1 138 -29q0 -16 -13 -42.5t-27 -35.5q-57 37 -101 43q0 -28 -1.5 -87t-2.5 -91q81 -25 121.5 -61.5t40.5 -99.5q0 -79 -55 -126q-54 -47 -138 -53q-1 -17 -1.5 -49.5
t-0.5 -49.5q-40 -4 -59 -4q2 66 2 101q-46 -1 -96 9.5t-83 28.5q3 16 17.5 41t27.5 35q80 -47 136 -52q3 186 3 194q-43 16 -65.5 26.5t-49 29.5t-38 45.5t-11.5 62.5zM164 463q0 -31 21 -47.5t73 -32.5q0 18 1 52.5t1.5 62t0.5 50.5q-42 -2 -68 -23q-29 -24 -29 -62z
M385 182q0 35 -22 54.5t-72 33.5q-1 -31 -2.5 -91t-1.5 -88q44 3 70 25q28 23 28 66z" />
    <glyph glyph-name="percent" unicode="%" horiz-adv-x="800" 
d="M527 604l-4 3q-59 -1 -212 -1q19 -16 31.5 -47.5t12.5 -69.5q0 -93 -60 -146q-42 -37 -101 -37q-57 0 -94 30q-60 47 -60 143q0 88 59 137q43 36 111 36q235 0 378 11q9 -11 27 -40q-12 -20 -189 -319q-118 -202 -196 -334q-36 16 -54 28q23 39 196 335q126 219 155 271z
M199 603q-27 0 -42 -18q-28 -31 -28 -105q0 -78 26 -106q19 -19 43 -19q25 0 40 15q28 30 28 111q0 72 -24 103q-12 19 -43 19zM610 336q62 0 98 -33q51 -47 51 -135q0 -93 -57 -143q-39 -36 -100 -36q-60 0 -95 28q-26 19 -43.5 56t-17.5 83q0 42 16.5 81.5t44.5 61.5
q43 37 103 37zM604 287q-25 0 -43 -19q-26 -29 -26 -109q0 -79 24 -103q18 -18 44 -18t42 16q26 28 26 109q0 74 -23 104q-14 20 -44 20z" />
    <glyph glyph-name="ampersand" unicode="&#x26;" horiz-adv-x="736" 
d="M334 360l-1 -5q84 -60 175 -163q19 23 35.5 65.5t18.5 74.5q0 8 -5 8l-51 3q0 40 1 57h112q16 0 48.5 0.5t47.5 0.5q2 -29 0 -59l-56 -2q-38 -126 -104 -198q23 -23 63 -68q13 -13 27 -13l72 -2q0 -39 -2 -59q-103 -6 -170 -7q-11 12 -32.5 38.5t-33.5 39.5
q-95 -81 -224 -81q-87 0 -144 34q-82 52 -82 141q0 58 37 107.5t103 82.5v4q-81 61 -81 136q0 66 52 111q56 49 144 49q78 0 123 -36q49 -40 49 -99q0 -100 -122 -160zM193 509q0 -34 21 -60t65 -55q79 46 79 114q0 41 -24 65q-21 22 -58 22t-58 -23q-25 -24 -25 -63z
M291 60q81 0 144 59q-114 130 -211 196q-78 -47 -78 -128q0 -59 44 -96q39 -31 101 -31z" />
    <glyph glyph-name="quotesingle" unicode="'" horiz-adv-x="206" 
d="M153 698q-12 -182 -15 -262q-32 -8 -58 -8q-13 162 -24 255q43 15 97 15z" />
    <glyph glyph-name="parenleft" unicode="(" horiz-adv-x="361" 
d="M75 274q0 144 70 262.5t170 180.5q20 -24 31 -42q-72 -59 -119.5 -162t-47.5 -232q0 -139 45.5 -233.5t120.5 -170.5q-21 -23 -39 -37q-48 37 -82.5 72.5t-71.5 88.5t-57 122.5t-20 150.5z" />
    <glyph glyph-name="parenright" unicode=")" horiz-adv-x="361" 
d="M285 287q0 -272 -236 -447q-14 14 -36 40q168 154 168 401q0 250 -164 397q16 19 34 37q99 -63 166.5 -174.5t67.5 -253.5z" />
    <glyph glyph-name="asterisk" unicode="*" horiz-adv-x="378" 
d="M212 489q2 -43 4 -131q-27 -2 -55 0q4 88 6 131q-20 -14 -56 -40.5t-50 -36.5q-15 21 -30 46q10 6 52.5 32t65.5 39q-105 63 -118 71q16 27 30 45q57 -39 106 -76l-6 129q4 0 14 0.5t15 0.5t14 -0.5t13 -0.5l-6 -129q72 52 107 77q20 -28 29 -45q-38 -24 -116 -72
q102 -62 116 -72q-12 -23 -31 -45q-54 41 -104 77z" />
    <glyph glyph-name="plus" unicode="+" horiz-adv-x="541" 
d="M476 202h-169q0 -36 -0.5 -101.5t-0.5 -91.5q-33 -3 -71 -3v196h-172q0 24 2 68q108 0 170 1v185q72 3 75 3q-1 -28 -1.5 -91.5t-0.5 -95.5q29 0 87 0.5t84 1.5q1 -26 -3 -72z" />
    <glyph glyph-name="comma" unicode="," horiz-adv-x="267" 
d="M122 124q33 0 59 -29.5t26 -67.5q0 -59 -36.5 -111.5t-95.5 -84.5q-14 15 -36 43q74 50 74 106q0 38 -56 54q-4 38 15.5 64t49.5 26z" />
    <glyph glyph-name="hyphen" unicode="-" horiz-adv-x="340" 
d="M151 207h-117q0 11 0.5 34t1.5 34q21 0 61 0.5t60 0.5q25 0 75 0.5t74 1.5q0 -38 -3 -71h-152z" />
    <glyph glyph-name="period" unicode="." horiz-adv-x="267" 
d="M137 125q31 0 48 -20.5t17 -46.5q0 -29 -19 -48.5t-49 -19.5q-28 0 -48 18.5t-20 47.5q0 27 19 48t52 21z" />
    <glyph glyph-name="slash" unicode="/" horiz-adv-x="398" 
d="M72 -60q-27 6 -66 20q48 111 165 386q25 58 75.5 179t71.5 169q24 -5 74 -21q-23 -51 -77.5 -177t-75.5 -173q-68 -158 -167 -383z" />
    <glyph glyph-name="zero" unicode="0" horiz-adv-x="541" 
d="M498 328q0 -191 -94 -285q-54 -53 -143 -53q-80 0 -132 49q-87 82 -87 260q0 205 96 299q58 57 146 57q86 0 137 -56q77 -81 77 -271zM273 595q-38 0 -64 -35q-20 -26 -33 -96.5t-13 -157.5q0 -160 36 -215q28 -42 71 -42q40 0 64 33q44 56 44 228q0 190 -36 244
q-28 41 -69 41z" />
    <glyph glyph-name="one" unicode="1" horiz-adv-x="541" 
d="M341 65l148 -3q1 -21 -1 -62q-35 0 -105.5 0.5t-101.5 0.5t-101 -0.5t-110 -0.5q-1 20 1 62l153 3q5 0 5 5v457q-23 -5 -76.5 -17t-88.5 -19q-1 7 -4 19t-5 22t-3 19q49 16 120.5 43t118.5 45.5t50 18.5t3 -5q0 -21 -3 -588z" />
    <glyph glyph-name="two" unicode="2" horiz-adv-x="541" 
d="M480 468q0 -46 -19 -92.5t-53.5 -88t-58.5 -65.5t-58 -54q-38 -34 -100 -84v-4q67 0 298 6l3 -2q0 -42 -5 -85q-17 0 -133.5 0.5t-158.5 0.5h-136q-15 40 -20 61q101 78 164 139q71 68 113 129.5t42 129.5q0 59 -30 93q-28 33 -83 33q-53 0 -85 -25q-4 -4 -5 -11l-22 -98
q-13 1 -38.5 3.5t-35.5 3.5q4 67 11 159q78 38 184 38q108 0 164 -47q62 -52 62 -140z" />
    <glyph glyph-name="three" unicode="3" horiz-adv-x="541" 
d="M154 558l-18 -93q-52 4 -74 8q1 16 3 46.5t3.5 55t2.5 45.5q79 35 185 35q102 0 156 -38q25 -18 42 -47.5t17 -61.5q0 -58 -38 -99t-98 -58v-7q73 -11 113 -55.5t40 -99.5q0 -87 -82 -149q-66 -50 -209 -50q-80 0 -133 14q-11 66 -21 153q35 8 75 14l24 -93q2 -6 8 -10
q27 -12 66 -12q69 0 108 32q40 34 40 90t-43.5 88t-110.5 32h-64q-2 44 -2 68q107 -1 158 34t51 93q0 42 -26 68q-28 28 -89 28q-48 0 -78 -21q-5 -3 -6 -10z" />
    <glyph glyph-name="four" unicode="4" horiz-adv-x="541" 
d="M412 61l70 -2q0 -39 -1 -58h-131q-24 0 -73.5 -0.5t-73.5 -0.5q0 20 2 58l97 3q4 0 4 5v101q-30 -1 -258 -1q-18 36 -31 78q58 86 136 192q111 151 160 213q37 1 102 -3q0 -61 -1 -199t-1 -206q82 0 105 1q0 -38 -3 -72h-102q-1 -35 -1 -109zM307 528h-5l-99 -144
q-19 -27 -89 -135q-4 -7 2 -7q94 -2 190 -2z" />
    <glyph glyph-name="five" unicode="5" horiz-adv-x="541" 
d="M483 224q0 -58 -24.5 -105t-62.5 -74q-76 -55 -202 -55q-77 0 -124 11q-7 43 -22 151q36 9 73 14l25 -90q2 -7 8 -11q21 -10 56 -10q71 0 113 36q43 37 43 103q0 68 -46.5 104.5t-131.5 36.5q-45 0 -99 -6l-12 12q18 171 38 303h174q119 0 182 1q0 -34 -6 -88
q-122 0 -276 2q-5 -26 -13 -76.5t-11 -66.5q28 4 79 4q114 0 176.5 -56.5t62.5 -139.5z" />
    <glyph glyph-name="six" unicode="6" horiz-adv-x="541" 
d="M163 347h5q66 55 147 55q79 0 124 -45q26 -24 43 -63t17 -78q0 -110 -80 -180q-56 -46 -146 -46q-88 0 -142 49q-85 79 -85 231q0 184 88 291q77 94 213 94q57 0 95 -13q7 -48 17 -141q-22 -5 -72 -13l-20 81q-2 8 -5 10q-17 10 -45 10q-64 0 -103 -60q-43 -71 -51 -182z
M284 48q42 0 69 33q31 37 31 110q0 72 -35 109q-24 29 -68 29q-30 0 -63 -17t-51 -47q-3 -118 37 -174q29 -43 80 -43z" />
    <glyph glyph-name="seven" unicode="7" horiz-adv-x="541" 
d="M408 550l-2 4q-224 1 -242 -1q-17 -1 -24 -21l-23 -78q-59 10 -71 13q13 99 27 179q22 0 90 -2h328q13 -30 25 -80q-161 -259 -214 -442q-12 -41 -12 -120q-32 -5 -115 -5q-1 79 18 130q39 102 215 423z" />
    <glyph glyph-name="eight" unicode="8" horiz-adv-x="541" 
d="M371 354v-5q63 -27 97.5 -70.5t34.5 -95.5q0 -92 -79 -150q-62 -43 -166 -43q-95 0 -153 38q-68 47 -68 127q0 54 36 99.5t96 75.5v5q-101 53 -101 150q0 39 20 72.5t48 53.5q64 44 151 44q90 0 139 -41q51 -43 51 -105q0 -98 -106 -155zM175 498q0 -41 28.5 -67
t99.5 -51q72 44 72 118q0 42 -23 68q-26 29 -72 29t-74 -24q-31 -28 -31 -73zM391 161q0 48 -36 79.5t-119 60.5q-38 -22 -61.5 -58.5t-23.5 -76.5q0 -52 31 -83q31 -33 87 -33q55 0 85 26q37 31 37 85z" />
    <glyph glyph-name="nine" unicode="9" horiz-adv-x="541" 
d="M378 297h-5q-68 -50 -142 -50q-78 0 -128 48q-59 57 -59 139q0 105 80 172q60 49 148 49q87 0 141 -52q81 -81 81 -239q0 -194 -88 -291q-73 -83 -206 -83q-61 0 -105 10q-4 22 -12 68.5t-12 68.5q27 8 70 16l26 -82q2 -8 8 -10q17 -10 52 -10q32 0 60.5 16.5t43.5 40.5
q43 66 47 189zM261 597q-42 0 -69 -31q-33 -39 -33 -116q0 -68 30 -104q27 -31 74 -31q30 0 60.5 15t50.5 41q1 58 -9.5 108.5t-25.5 73.5q-27 44 -78 44z" />
    <glyph glyph-name="colon" unicode=":" horiz-adv-x="267" 
d="M137 430q31 0 48 -20t17 -46q0 -29 -18.5 -48t-48.5 -19q-28 0 -48 18t-20 47q0 27 19 47.5t51 20.5zM137 124q32 0 48.5 -19.5t16.5 -46.5q0 -29 -18.5 -48t-48.5 -19q-28 0 -48 18.5t-20 47.5q0 27 19 47t51 20z" />
    <glyph glyph-name="semicolon" unicode=";" horiz-adv-x="267" 
d="M137 430q31 0 48 -20t17 -47q0 -28 -18.5 -47t-48.5 -19q-28 0 -48 18t-20 47q0 27 19 47.5t51 20.5zM122 124q33 0 59 -29.5t26 -67.5q0 -59 -36.5 -111.5t-95.5 -84.5q-14 15 -36 43q74 50 74 106q0 38 -56 54q-4 37 15.5 63.5t49.5 26.5z" />
    <glyph glyph-name="less" unicode="&#x3c;" horiz-adv-x="541" 
d="M193 241q81 -69 233 -193q-20 -31 -40 -51q-6 5 -281 213q-2 19 -2 59q200 145 285 205q21 -25 37 -53q-138 -105 -232 -180z" />
    <glyph glyph-name="equal" unicode="=" horiz-adv-x="541" 
d="M62 286q0 25 2 69q41 0 416 3q0 -39 -3 -72h-415zM62 117q-1 16 2 72h415q0 -23 -2 -69q-49 0 -415 -3z" />
    <glyph glyph-name="greater" unicode="&#x3e;" horiz-adv-x="541" 
d="M329 238q-79 65 -231 186q20 32 38 52q75 -54 282 -207q1 -18 1 -60q-8 -6 -284 -210q-17 18 -40 51q148 118 234 188z" />
    <glyph glyph-name="question" unicode="?" horiz-adv-x="453" 
d="M415 504q0 -63 -40 -111.5t-122 -100.5q-23 -15 -23 -28q0 -20 13 -72q-28 -12 -74 -18q-13 18 -27.5 56t-15.5 64q91 64 126.5 104.5t35.5 96.5q0 42 -24.5 67.5t-64.5 25.5q-37 0 -60 -17q-6 -4 -7 -12l-20 -84q-43 3 -76 9q4 59 11 143q66 33 175 33q91 0 142 -44
t51 -112zM205 114q28 0 46 -19t18 -45q0 -25 -18.5 -42.5t-47.5 -17.5q-27 0 -46.5 17t-19.5 42q0 26 19 45.5t49 19.5z" />
    <glyph glyph-name="at" unicode="@" horiz-adv-x="654" 
d="M404 353h4l16 29q30 -5 65 -15q-7 -26 -16.5 -66t-21 -88t-15.5 -66q-2 -6 6 -6q36 0 69 29q44 44 44 114q0 81 -52.5 137t-153.5 56q-103 0 -176 -78t-73 -202q0 -102 59.5 -152t142.5 -50q73 0 128 35q14 -17 20 -35q-64 -42 -166 -42q-99 0 -170.5 62t-71.5 177
q0 143 93.5 234.5t227.5 91.5q110 0 179 -62.5t69 -160.5q0 -52 -20 -93t-49 -64q-57 -45 -153 -45q-7 0 -18 6t-15 13q2 22 9 48l-6 3q-27 -27 -62 -48.5t-59 -21.5q-13 0 -36.5 14t-31.5 29q-2 12 -2 22q0 38 15 88q17 51 56 93t89 42q45 0 76 -28zM255 175q0 -20 19 -20
t53.5 29t43.5 52q4 9 20 71q-18 23 -51 23q-21 0 -38.5 -20.5t-28.5 -49.5q-18 -45 -18 -85z" />
    <glyph glyph-name="A" unicode="A" horiz-adv-x="619" 
d="M-11 62l51 3q5 2 6 5q26 68 222 586q28 2 90 2q35 -96 108.5 -308.5t98.5 -283.5l57 -3q0 -42 -1 -62h-105q-25 0 -74.5 -0.5t-69.5 -0.5q0 42 1 63l66 3q5 0 2 5q-33 97 -38 109q-1 4 -6 4l-217 -1q-34 -104 -38 -118l75 -2q0 -42 -1 -62h-136q-16 0 -47 -0.5t-45 -0.5
q0 42 1 62zM296 514h-5q-14 -41 -45 -131t-45 -130q-1 -6 2 -6h181q-30 90 -88 267z" />
    <glyph glyph-name="B" unicode="B" horiz-adv-x="601" 
d="M48 61l63 3q5 0 5 5v516l-68 2q0 11 0.5 31.5t0.5 30.5q94 2 188 2q149 0 206 -27q35 -16 58.5 -50t23.5 -72q0 -50 -33.5 -89.5t-84.5 -58.5v-7q66 -9 111 -54t45 -106q0 -83 -70.5 -135.5t-188.5 -52.5q-15 0 -68.5 0.5t-61.5 0.5h-127q0 10 0.5 31t0.5 30zM232 588
l-1 -221q4 -2 38 -2q60 0 100.5 32t40.5 83q0 48 -34.5 79.5t-95.5 31.5q-36 0 -48 -3zM231 303l-2 -211q0 -19 15.5 -26t52.5 -7q60 0 102 30.5t42 90.5q0 50 -42 87.5t-123 37.5q-40 0 -45 -2z" />
    <glyph glyph-name="C" unicode="C" horiz-adv-x="596" 
d="M46 288q0 186 135 295q95 77 235 77q86 0 129 -18q7 -90 12 -184q-22 -4 -77 -10l-19 106q-3 12 -8 14q-25 16 -67 16q-78 0 -132 -54q-80 -83 -80 -215q0 -125 60 -188q54 -57 146 -57q86 0 168 36q9 -32 14 -69q-118 -47 -205 -47q-121 0 -201 60q-50 37 -80 99.5
t-30 138.5z" />
    <glyph glyph-name="D" unicode="D" horiz-adv-x="699" 
d="M49 61l62 3q4 0 4 4v516l-67 2q0 42 1 63q124 2 222 2q153 0 239 -49q64 -36 103.5 -104.5t39.5 -149.5q0 -94 -35.5 -169t-98.5 -120q-85 -59 -228 -59h-118h-125q0 42 1 61zM234 586l-2 -496q0 -17 11 -23.5t44 -6.5q106 0 167 55q34 32 53.5 86.5t19.5 112.5
q0 80 -19.5 131t-64.5 92q-59 53 -161 53q-36 0 -48 -4z" />
    <glyph glyph-name="E" unicode="E" horiz-adv-x="566" 
d="M51 62l61 3q4 0 4 4v515l-67 3q0 23 2 63q17 0 59 -0.5t63 -0.5q16 0 115.5 0.5t110.5 0.5h92q6 -78 9 -162q-36 -5 -72 -8l-16 82q-3 16 -21 18q-52 5 -136 5h-21l-1 -222q22 0 63.5 0.5t63.5 1.5q17 0 19 19l5 44q48 0 69 -1q0 -15 -0.5 -48.5t-0.5 -50.5t-0.5 -49.5
t-0.5 -45.5q-42 -2 -69 -2l-4 47q-1 20 -20 20q-77 2 -125 1l-1 -213q0 -14 8.5 -17.5t45.5 -3.5q95 0 123 7q12 3 18 19l31 86q33 -4 71 -13q-19 -92 -36 -165q-13 0 -125.5 0.5t-191.5 0.5q-23 0 -65.5 -0.5t-60.5 -0.5q0 43 1 63z" />
    <glyph glyph-name="F" unicode="F" horiz-adv-x="541" 
d="M116 584l-67 3q0 21 2 63q17 0 58.5 -0.5t62.5 -0.5q16 0 116 0.5t111 0.5q23 0 53 0.5t40 0.5l12 -171q-15 -2 -73 -9l-19 91q-3 16 -21 17q-44 6 -142 6q-11 0 -15 -1l-1 -241q22 0 65 0.5t64 1.5q23 0 24 19l7 46q24 1 69 -1q-2 -66 -2 -103q0 -17 -0.5 -50t-0.5 -46
q-44 -2 -69 -2l-4 50q-2 11 -7 15t-18 4q-55 1 -128 3l-1 -214l112 -2q1 -22 -1 -64q-22 0 -79.5 0.5t-86.5 0.5q-23 0 -65.5 -0.5t-61.5 -0.5q0 10 0.5 31.5t0.5 30.5l61 3q4 2 4 4v515z" />
    <glyph glyph-name="G" unicode="G" horiz-adv-x="671" 
d="M506 447l-16 102q-4 13 -8 16q-30 24 -85 24q-81 0 -138 -54q-82 -77 -82 -217q0 -130 64 -197q61 -67 161 -67q26 0 44 6t19 13v155l-95 2q0 45 1 65h151h112q1 -21 -1 -65l-47 -2q-4 0 -4 -4l-3 -200q-56 -34 -184 -34q-153 0 -238 68q-110 92 -110 246q0 95 40 169
t107 121q91 66 230 66q97 0 151 -26q6 -87 9 -180q-21 -3 -78 -7z" />
    <glyph glyph-name="H" unicode="H" horiz-adv-x="742" 
d="M52 63l59 3q4 0 4 4v514l-64 3q0 43 1 63h127h131q0 -43 -1 -63l-72 -3q-2 0 -2 -4l-1 -207q0 -3 3 -3l273 -1v215l-75 3q0 43 1 63h136h119q0 -43 -1 -63l-58 -3q-2 0 -2 -3l-3 -514l66 -4q0 -42 -1 -63q-18 0 -61 0.5t-63 0.5q-23 0 -69.5 -0.5t-65.5 -0.5q0 43 1 63
l72 3q4 0 4 4v228q0 4 -4 4l-273 -2l-1 -233l78 -4q0 -42 -1 -63q-17 0 -63.5 0.5t-70.5 0.5q-20 0 -63 -0.5t-61 -0.5q0 42 1 63z" />
    <glyph glyph-name="I" unicode="I" horiz-adv-x="348" 
d="M116 584l-71 3q0 43 1 63h135h130q0 -43 -1 -63l-72 -3q-2 0 -2 -4l-3 -513l77 -3q1 -22 -1 -64q-18 0 -63.5 0.5t-68.5 0.5q-21 0 -66.5 -0.5t-65.5 -0.5q0 43 1 63l67 3q3 0 3 4v514z" />
    <glyph glyph-name="J" unicode="J" horiz-adv-x="514" 
d="M483 589l-63 -2q-3 -1 -3 -4q0 -279 -1 -335q-1 -67 -12.5 -110.5t-41.5 -79.5q-66 -80 -199 -80q-68 0 -120 12q-17 142 -21 170q28 8 72 15l25 -102q1 -6 8 -11q21 -13 59 -13q62 0 90 43q11 17 16.5 41.5t6.5 43.5t1 58q0 117 -2 351l-117 3q0 42 1 61q26 0 89 -0.5
t91 -0.5q22 0 64 0.5t58 0.5q0 -41 -1 -61z" />
    <glyph glyph-name="K" unicode="K" horiz-adv-x="650" 
d="M115 584l-64 3q0 43 1 63q18 0 62 -0.5t66 -0.5q21 0 62.5 0.5t57.5 0.5q1 -22 -1 -63l-61 -3q-3 0 -3 -5l-2 -219q27 0 60 6q58 58 174 212q5 5 -2 5l-59 3q0 43 1 63h138q16 0 45.5 0.5t41.5 0.5q0 -43 -1 -63l-46 -3q-112 -128 -203 -225v-6q57 -42 107 -134
q57 -100 74 -125q14 -25 34 -26l62 -4q0 -43 -1 -62q-52 -2 -92 -2q-22 -1 -83 -1q-14 19 -93 162q-73 139 -106 139q-27 0 -51 -2l-1 -231l70 -3q1 -22 -1 -64q-16 0 -59.5 0.5t-66.5 0.5q-20 0 -63.5 -0.5t-61.5 -0.5q0 43 1 63l60 3q4 2 4 4v514z" />
    <glyph glyph-name="L" unicode="L" horiz-adv-x="537" 
d="M116 584l-66 2q0 23 2 63h127h137q0 -23 -2 -63l-77 -3q-3 0 -3 -3l-2 -496q0 -14 6.5 -17.5t37.5 -3.5q96 0 126 6q13 5 17 20l36 104q41 -7 72 -15q-14 -71 -40 -179q-13 0 -122.5 0.5t-188.5 0.5q-23 0 -66 -0.5t-61 -0.5q0 23 2 63l61 3q4 0 4 4v515z" />
    <glyph glyph-name="M" unicode="M" horiz-adv-x="871" 
d="M113 582l-64 2q0 24 2 66q29 0 101.5 -0.5t105.5 -0.5q27 -68 93 -243.5t87 -229.5h6q24 61 88 229t94 244q31 0 98.5 0.5t95.5 0.5q0 -44 -1 -65l-58 -3q-3 0 -3 -5q0 -182 2 -512l63 -2q1 -21 -1 -63q-15 0 -54.5 0.5t-58.5 0.5q-22 0 -66 -0.5t-62 -0.5q0 10 0.5 31.5
t0.5 30.5l68 3q4 1 4 4q-1 77 -2 240t-1 193h-7q-93 -251 -191 -468q-4 0 -26.5 -0.5t-36.5 -0.5q-91 209 -189 477h-7q-6 -432 -6 -444l80 -3q1 -22 -1 -63q-17 0 -60.5 0.5t-64.5 0.5q-18 0 -50.5 -0.5t-46.5 -0.5v63l60 3q4 0 4 3q1 80 2.5 258.5t1.5 254.5z" />
    <glyph glyph-name="N" unicode="N" horiz-adv-x="716" 
d="M44 63l58 3q4 0 4 4l-1 515l-67 3q0 43 1 62h165q165 -240 328 -496l6 1q-2 290 -4 431l-85 1q0 10 0.5 31.5t0.5 31.5h127q18 0 52.5 0.5t47.5 0.5v-62l-54 -3q-3 0 -3 -5l-4 -575q-32 -14 -82 -14q-173 229 -339 479h-7q0 -69 -0.5 -203.5t-0.5 -201.5l89 -2
q0 -10 -0.5 -31.5t-0.5 -31.5h-137q-17 0 -49.5 -0.5t-45.5 -0.5q0 43 1 63z" />
    <glyph glyph-name="O" unicode="O" horiz-adv-x="725" 
d="M347 -10q-130 0 -211 83q-90 92 -90 246q0 93 40.5 169t102.5 117q84 55 194 55q97 0 171 -49q56 -38 90 -110t34 -158q0 -78 -26.5 -149.5t-77.5 -120.5q-86 -83 -227 -83zM366 55q76 0 121 53q62 75 62 213t-58 214q-45 60 -122 60q-73 0 -120 -48q-73 -73 -73 -219
q0 -148 63 -218q49 -55 127 -55z" />
    <glyph glyph-name="P" unicode="P" horiz-adv-x="573" 
d="M116 584l-63 2q0 11 0.5 32t0.5 31q114 2 197 2q100 0 156 -17q60 -18 95.5 -68.5t35.5 -109.5q0 -62 -34.5 -113.5t-87.5 -74.5q-56 -28 -141 -28q-36 0 -44 1l-1 -176l103 -2q0 -42 -1 -63q-22 0 -78 0.5t-84 0.5q-19 0 -58.5 -0.5t-57.5 -0.5q0 42 1 62l57 3q4 0 4 4
v515zM233 586l-2 -273q3 -9 46 -9q55 0 90 26q53 36 53 116q0 66 -39.5 105t-104.5 39q-35 0 -43 -4z" />
    <glyph glyph-name="Q" unicode="Q" horiz-adv-x="725" 
d="M46 318q0 94 40.5 170t105.5 119q80 53 191 53q95 0 164 -44q62 -40 97 -113.5t35 -161.5q0 -84 -28.5 -154t-76.5 -115q-50 -45 -101 -63v-4q64 -41 131 -69q34 -14 81 -14q41 0 80 11q6 -34 8 -68q-89 -31 -143 -31q-36 0 -72 19q-79 41 -191 138q-5 -1 -18 -1
q-131 0 -216 85q-87 88 -87 243zM176 324q0 -145 65 -216q50 -53 125 -53q78 0 121 53q63 75 63 207q0 150 -62 224q-46 56 -116 56q-75 0 -124 -49q-31 -30 -51.5 -89.5t-20.5 -132.5z" />
    <glyph glyph-name="R" unicode="R" horiz-adv-x="615" 
d="M116 584l-63 3q1 10 1.5 31t0.5 31q122 2 208 2q85 0 142 -15q56 -13 93.5 -58.5t37.5 -96.5q0 -62 -36.5 -108t-94.5 -69v-5q9 -4 17 -10t14 -12t14 -17.5t13 -19t14 -24.5t14 -26t16 -31.5t17 -33.5q18 -35 26.5 -46t17.5 -12l56 -4q0 -10 -0.5 -30.5t-0.5 -31.5h-70
q-10 0 -46 -1t-44 -1q-18 27 -61.5 117t-51.5 105q-14 25 -31.5 35t-45.5 10q-35 0 -43 -2l-1 -199l72 -3q0 -10 -0.5 -30.5t-0.5 -30.5h-130q-21 0 -60.5 -0.5t-56.5 -0.5q1 21 1 62l58 3q4 0 4 4v515zM232 586l-2 -257q5 -2 41 -2q71 0 108 38t37 90q0 62 -38 98.5
t-99 36.5q-39 0 -47 -4z" />
    <glyph glyph-name="S" unicode="S" horiz-adv-x="511" 
d="M115 194l22 -102q1 -7 7 -11q31 -21 82 -21q64 0 95 31q28 28 28 70q0 26 -5.5 42.5t-26 31.5t-35 22t-59.5 26q-78 33 -120.5 76t-42.5 107q0 85 67 140q64 54 183 54q85 0 127 -21q2 -20 13 -162q-59 -8 -75 -9l-20 93q-3 8 -6 10q-21 18 -64 18q-48 0 -79 -25
q-33 -27 -33 -72q0 -43 23.5 -63t103.5 -52q83 -33 122.5 -75t39.5 -108q0 -92 -65 -148q-67 -56 -193 -56q-90 0 -150 22q-4 34 -16 170q31 7 77 12z" />
    <glyph glyph-name="T" unicode="T" horiz-adv-x="588" 
d="M157 63l75 3q4 0 4 4v513q-66 0 -104 -4q-20 -2 -23 -20l-17 -96q-10 1 -37 3t-40 3q2 29 5.5 89.5t5.5 91.5q8 0 40 -0.5t53 -0.5h182h176q41 1 90 1q6 -86 9 -179q-42 -5 -78 -8l-15 97q-3 17 -23 18q-27 4 -105 4l-2 -515l83 -4q0 -42 -1 -63q-18 0 -66 0.5t-72 0.5
q-22 0 -70 -0.5t-71 -0.5q0 43 1 63z" />
    <glyph glyph-name="U" unicode="U" horiz-adv-x="672" 
d="M214 584l-2 -317q-1 -108 39 -159q36 -44 103 -44q59 0 99 42q42 44 42 163q0 218 -1 312q0 3 -4 3l-78 3q0 10 0.5 31t0.5 31h124q20 0 57 0.5t53 0.5q0 -42 -1 -63l-57 -3l-2 -308q-1 -150 -72 -221q-63 -65 -171 -65q-120 0 -183 60q-68 63 -68 211v318q0 6 -5 6
l-54 2q0 43 1 63q17 0 59 -0.5t62 -0.5q25 0 72 0.5t67 0.5q0 -43 -1 -63z" />
    <glyph glyph-name="V" unicode="V" horiz-adv-x="642" 
d="M645 587l-54 -3q-79 -207 -101 -263q-100 -257 -131 -329q-9 -2 -92 -2q-66 173 -123 340q-57 171 -83 251q0 2 -5 4l-54 2q0 11 0.5 32t0.5 31h116h165q0 -10 -0.5 -31.5t-0.5 -31.5l-86 -3q28 -106 58 -206q9 -29 35.5 -117t42.5 -137h7q61 172 76 216q66 204 74 239
q2 5 -3 5l-75 2q0 44 1 63h138q16 0 48.5 0.5t46.5 0.5q0 -42 -1 -63z" />
    <glyph glyph-name="W" unicode="W" horiz-adv-x="889" 
d="M892 587l-52 -3q-11 -41 -34.5 -129t-35.5 -134q-38 -146 -95 -330q-13 -1 -94 -1q-74 230 -131 434h-5q-58 -175 -151 -433q-15 -1 -93 -1q-35 143 -81 341q-8 36 -17 77.5t-20 92.5t-17 79q0 4 -5 4l-54 3q0 42 1 62h111h162q0 -10 -0.5 -31t-0.5 -32l-85 -2
q12 -99 31 -202q38 -222 43 -251h7q22 68 79.5 259t68.5 226q12 2 87 2q5 -18 131 -489h8q11 47 28 129.5t20 95.5q34 171 42 224q1 5 -3 5l-78 2q0 44 1 63q21 0 69 0.5t71 0.5h93q0 -42 -1 -62z" />
    <glyph glyph-name="X" unicode="X" horiz-adv-x="619" 
d="M-8 63l53 3q5 0 8 4q39 48 106.5 135.5t87.5 113.5v7q-46 65 -175 255q-2 3 -6 3l-57 3q0 43 1 62h118q55 1 157 1q0 -43 -1 -63l-74 -3q58 -99 116 -185h6q63 84 115 180q2 5 -3 5l-67 2q0 44 1 63h137q16 0 48 0.5t45 0.5q0 -42 -1 -63l-52 -3q-101 -135 -183 -239v-6
q21 -28 193 -273l57 -3q0 -42 -1 -63q-16 0 -55.5 0.5t-59.5 0.5q-28 0 -81.5 -0.5t-76.5 -0.5q0 43 1 63l68 3q7 2 4 6q-95 150 -126 191h-6q-51 -69 -133 -196l73 -4q0 -42 -1 -63q-19 0 -66 0.5t-74 0.5q-16 0 -49 -0.5t-48 -0.5q0 42 1 63z" />
    <glyph glyph-name="Y" unicode="Y" horiz-adv-x="588" 
d="M157 63l72 3q5 0 5 5v176q-44 78 -182 333q-2 4 -5 4l-47 3q0 43 1 63q15 0 53 -0.5t57 -0.5q28 0 81.5 0.5t74.5 0.5q0 -43 -1 -63l-77 -4q43 -96 128 -261h5q87 159 129 257q1 3 -3 5l-70 2q0 43 1 63h132q15 0 45 0.5t42 0.5q0 -43 -1 -63l-48 -3q-18 -30 -90 -154
t-107 -181l-1 -182l84 -3q0 -43 -1 -64q-18 0 -67 0.5t-73 0.5q-21 0 -68.5 -0.5t-69.5 -0.5q0 43 1 63z" />
    <glyph glyph-name="Z" unicode="Z" horiz-adv-x="592" 
d="M168 76l1 -4q214 0 254 10q21 6 29 28l32 96q50 -8 78 -15q-26 -119 -45 -192q-4 0 -50.5 0.5t-116.5 0.5h-131h-168q-9 17 -24 59q114 148 382 515l-2 4h-123q-83 0 -100 -4q-15 -5 -21 -24l-33 -103q-42 7 -77 14q15 87 35 191q24 -2 97 -2l338 -1q15 -40 24 -79
q-225 -305 -379 -494z" />
    <glyph glyph-name="bracketleft" unicode="[" 
d="M113 -145v847q35 1 105.5 2.5t104.5 1.5q2 -31 -1 -56l-107 -4q-7 0 -7 -9l-3 -725l119 -4q0 -20 -2 -56q-34 0 -104.5 1t-104.5 2z" />
    <glyph glyph-name="backslash" unicode="\" horiz-adv-x="398" 
d="M323 -58q-120 279 -165 386q-106 246 -150 345q50 24 73 31q84 -201 146 -352q49 -114 162 -381q-49 -23 -66 -29z" />
    <glyph glyph-name="bracketright" unicode="]" 
d="M247 702l-3 -847q-34 -1 -104 -2.5t-104 -1.5q-2 36 -2 57l118 4v725q0 9 -7 9l-107 4q-3 25 -1 56q35 -1 105.5 -2.5t104.5 -1.5z" />
    <glyph glyph-name="asciicircum" unicode="^" horiz-adv-x="541" 
d="M247 633q16 1 54 1q32 -49 97.5 -148t93.5 -142q-23 -19 -54 -40q-79 110 -166 230q-140 -199 -162 -229q-36 23 -55 40q23 35 63.5 95.5t71.5 107.5t57 85z" />
    <glyph glyph-name="underscore" unicode="_" horiz-adv-x="500" 
d="M0 -73h500v-54h-500v54z" />
    <glyph glyph-name="grave" unicode="`" horiz-adv-x="382" 
d="M143 663q22 -22 70.5 -71t69.5 -70q-15 -19 -36 -40q-146 116 -157 124q23 28 53 57z" />
    <glyph glyph-name="a" unicode="a" horiz-adv-x="483" 
d="M297 35h-5q-87 -45 -146 -45q-41 0 -80.5 31.5t-39.5 74.5q0 50 54.5 95.5t152.5 45.5h61q2 62 -16 90.5t-58 28.5q-53 0 -123 -62q-20 21 -42 52q103 92 205 92q60 0 101.5 -42.5t41.5 -114.5q0 -29 -1 -108t-1 -98q0 -7 1.5 -10t5.5 -2l61 2v-59q-48 -16 -137 -16
q-9 9 -35 45zM140 108q0 -21 17 -34t41 -13q45 0 93 33q2 2 2 7v79q-1 0 -15 0.5t-26 0.5q-56 0 -84 -20.5t-28 -52.5z" />
    <glyph glyph-name="b" unicode="b" horiz-adv-x="530" 
d="M180 391l5 -2q68 32 94.5 40.5t57.5 8.5q64 0 110.5 -57.5t46.5 -127.5q0 -75 -26 -134q-23 -58 -80 -98q-44 -31 -122 -31q-57 0 -110 29l-28 -36q-26 3 -65 11q6 78 6 119v499l-70 3q0 42 1 60q21 2 65 8.5t78 11.5t38 5q3 0 3 -3q0 -100 -4 -306zM374 214
q0 68 -21 104q-24 39 -65 39q-52 0 -106 -39q-2 -136 -2 -218q0 -18 27 -32.5t57 -14.5q46 0 74 33q36 44 36 128z" />
    <glyph glyph-name="c" unicode="c" horiz-adv-x="419" 
d="M36 187q0 108 73 179.5t189 71.5q62 0 100 -22q0 -17 -14.5 -46.5t-26.5 -36.5q-1 0 -9.5 4t-17 7.5t-20 7t-24.5 6t-24 2.5q-46 0 -73 -34q-35 -46 -35 -119q0 -71 34 -111q26 -31 81 -31q45 0 120 28q11 -39 14 -59q-87 -44 -170 -44q-84 0 -140.5 53t-56.5 144z" />
    <glyph glyph-name="d" unicode="d" horiz-adv-x="541" 
d="M359 35h-6q-60 -29 -86.5 -37t-51.5 -8q-72 0 -120 48q-59 59 -59 153q0 108 71 185q56 62 144 62q44 0 94 -16l5 3q0 61 -2 187l-80 2q0 41 1 60q23 3 69.5 9.5t82 11.5t40.5 5q2 0 2 -3q0 -83 -1.5 -301.5t-1.5 -315.5q0 -16 9 -16l61 3v-59q-13 -5 -58 -11.5t-80 -6.5
q-18 13 -33 45zM348 110v236q-40 21 -82 21q-52 0 -79 -39q-31 -45 -31 -124q0 -67 27 -105q25 -35 68 -35q45 0 92 30q5 4 5 16z" />
    <glyph glyph-name="e" unicode="e" horiz-adv-x="468" 
d="M36 194q0 103 63.5 173.5t165.5 70.5q83 0 125 -52q44 -53 44 -140q-2 -10 -18.5 -27.5t-24.5 -18.5q-44 -3 -238 -3q0 -66 30 -99q31 -33 92 -33q59 0 135 30q11 -34 15 -61q-93 -44 -174 -44q-99 0 -157 54.5t-58 149.5zM250 376q-40 0 -63 -29q-31 -40 -32 -90
q92 0 161 3q11 0 11 11q0 44 -20 75q-22 30 -57 30z" />
    <glyph glyph-name="f" unicode="f" horiz-adv-x="355" 
d="M207 63l94 -2q0 -40 -1 -60h-150q-18 0 -57 -0.5t-56 -0.5q0 40 1 60l54 3q4 0 4 5q0 195 -1 289h-73q0 26 2 66q10 0 32 0.5t32 1.5q6 0 6 7q0 73 12 110t44 71q68 73 160 73q47 0 83 -14q0 -19 -13 -48t-26 -38q-53 20 -76 20q-35 0 -49 -24q-13 -20 -17 -50t-3 -107
q23 0 69.5 0.5t67.5 0.5q0 -4 -3 -70h-135q0 -39 -0.5 -143t-0.5 -150z" />
    <glyph glyph-name="g" unicode="g" horiz-adv-x="496" 
d="M138 115v6q-40 19 -69.5 55t-29.5 88q0 72 59.5 123t150.5 51q51 0 80 -8q15 -3 22 -3q105 5 139 7q3 -29 1 -67q-21 -1 -89 -1l-1 -3q29 -32 29 -85q0 -65 -45 -113q-60 -62 -180 -57q-37 -30 -37 -44q0 -18 22 -23t95 -7q71 -3 103.5 -8.5t55.5 -21.5
q25 -18 35.5 -35.5t10.5 -49.5q0 -45 -30 -82.5t-86 -59.5q-71 -27 -160 -27q-97 0 -151.5 30.5t-54.5 86.5q0 22 21 39q18 13 47 32.5t42 29.5v6q-66 22 -66 77q0 8 12.5 17.5t73.5 46.5zM154 271q0 -109 81 -109q37 0 59.5 30t22.5 87q0 51 -20 78q-18 26 -58 26
q-39 0 -62 -29.5t-23 -82.5zM379 -104q0 28 -18.5 37.5t-76.5 14.5q-25 2 -59.5 4.5t-44.5 2.5q-21 -21 -30 -30.5t-17.5 -24.5t-8.5 -29q0 -31 33 -47t77 -16q64 0 102 21q43 25 43 67z" />
    <glyph glyph-name="h" unicode="h" horiz-adv-x="567" 
d="M194 383l5 -1q73 37 101 46.5t59 9.5q33 0 64 -22.5t50 -53.5q14 -24 14 -74q0 -77 -2 -225l60 -2q0 -9 -0.5 -30t-0.5 -30h-111q-19 0 -57.5 -0.5t-55.5 -0.5q0 40 1 60l49 3q3 0 3 4v167q0 74 -12 94q-17 27 -53 27q-50 0 -112 -44q-2 -142 -2 -248l63 -2q0 -41 -1 -60
h-122q-18 0 -55.5 -0.5t-54.5 -0.5v60l54 3q4 0 4 4v547l-71 1q0 42 1 60q20 2 64.5 8.5t79.5 11.5t39 5q3 0 3 -4q0 -101 -4 -313z" />
    <glyph glyph-name="i" unicode="i" horiz-adv-x="288" 
d="M145 652q32 0 49 -19.5t17 -44.5q0 -30 -20 -49.5t-50 -19.5q-27 0 -47.5 19.5t-20.5 47.5q0 27 20 46.5t52 19.5zM95 349l-71 3v18.5v23v18.5q20 2 64.5 8.5t79.5 12t39 5.5q1 0 1 -3q0 -55 -1 -188t-1 -184l64 -2q0 -41 -1 -60h-122q-19 0 -59 -0.5t-59 -0.5q0 41 1 60
l61 3q4 0 4 4v282z" />
    <glyph glyph-name="j" unicode="j" horiz-adv-x="266" 
d="M132 654q32 0 49 -20t17 -45q0 -30 -19.5 -50t-50.5 -20q-27 0 -47.5 20t-20.5 48q0 26 20 46.5t52 20.5zM88 348l-79 1q0 23 2 61q176 28 189 28q2 0 2 -3q0 -53 -0.5 -178t-0.5 -179q0 -59 -7 -96t-28 -77q-51 -107 -126 -148q-17 0 -44.5 21t-30.5 37q71 35 94 74
q32 58 31 181z" />
    <glyph glyph-name="k" unicode="k" horiz-adv-x="529" 
d="M82 613l-71 1q0 10 0.5 30.5t0.5 29.5q18 2 63.5 9t80.5 12t39 5q3 0 3 -4q0 -72 -1.5 -239.5t-1.5 -193.5q33 0 59 3q52 47 92 93q4 4 -2 4l-43 2q0 43 1 62h116q14 0 42.5 0.5t41.5 0.5q0 -42 -1 -61l-42 -3q-67 -61 -124 -111v-6q46 -37 78 -99q35 -63 44 -75
q6 -9 17 -9l55 -2q0 -41 -1 -60q-74 -2 -161 -2q-23 36 -56 112q-39 83 -69 92q-34 0 -47 -1q0 -21 -0.5 -70t-0.5 -70l52 -2q0 -41 -1 -60h-111q-19 0 -57.5 -0.5t-55.5 -0.5q0 41 1 60l57 3q3 0 3 4v546z" />
    <glyph glyph-name="l" unicode="l" horiz-adv-x="279" 
d="M83 613l-75 2q0 22 2 60q20 2 65.5 8.5t81 11.5t39.5 5q3 0 3 -4q0 -69 -1.5 -297t-2.5 -336l69 -2v-60h-126q-20 0 -61.5 -0.5t-59.5 -0.5q0 9 0.5 30t0.5 30l61 3q4 0 4 4v546z" />
    <glyph glyph-name="m" unicode="m" horiz-adv-x="833" 
d="M95 350l-69 2q0 10 0.5 29.5t0.5 28.5q17 2 58 9t72.5 12.5t34.5 5.5t3 -3q5 -31 8 -55l4 -1q66 40 93.5 50t56.5 10q36 0 63.5 -21.5t41.5 -44.5h4q69 42 97.5 53t60.5 11q61 0 105 -61q25 -38 25 -81q0 -17 -3 -230l59 -2q0 -22 -2 -62h-111h-107q0 42 1 60l47 3
q3 1 3 5q1 60 1 186q0 48 -10 68q-15 32 -55 32q-41 0 -99 -40q1 -41 0 -134t-1 -116l56 -3q0 -41 -1 -61h-117h-97q0 41 1 61l47 3q4 0 4 4v194q0 49 -10 66q-15 28 -51 28q-46 0 -102 -43q-2 -148 -2 -249l58 -3q0 -41 -1 -61h-118h-108q0 42 1 61l55 3q3 0 3 4v282z" />
    <glyph glyph-name="n" unicode="n" horiz-adv-x="580" 
d="M95 350l-71 2q0 10 0.5 29.5t0.5 27.5q19 3 59.5 10t72 12.5t33.5 5.5t2 -3q1 -7 4 -19.5t5 -22.5t3 -18l5 -1q71 43 100.5 54t64.5 11q33 0 61 -20.5t45 -49.5q20 -34 20 -79q0 -16 -3 -226l58 -2q0 -41 -1 -60h-115q-19 0 -56 -0.5t-52 -0.5v60l51 3q2 0 4 4v161
q0 75 -11 94q-17 31 -56 31q-22 0 -53 -14t-56 -34q-3 -104 -3 -242l60 -2q0 -10 -0.5 -30.5t-0.5 -29.5h-118q-18 0 -56.5 -0.5t-55.5 -0.5q0 41 1 60l55 3q3 0 3 4v283z" />
    <glyph glyph-name="o" unicode="o" horiz-adv-x="522" 
d="M252 -10q-94 0 -146 48q-70 61 -70 166q0 117 89 188q61 46 148 46q77 0 130 -37q83 -60 83 -178q0 -60 -26 -111t-69 -82q-56 -40 -139 -40zM262 49q42 0 66 29q36 41 36 141q0 85 -31 126q-25 34 -69 34q-42 0 -67 -30q-38 -44 -38 -134q0 -95 37 -136q24 -30 66 -30z
" />
    <glyph glyph-name="p" unicode="p" horiz-adv-x="543" 
d="M189 383l6 -1q72 38 97 47t57 9q68 1 113.5 -59t44.5 -134q0 -68 -27 -128q-26 -59 -78 -97q-42 -30 -109 -30q-55 0 -96 19l-5 -2v-174l88 -2q0 -41 -1 -60q-95 0 -143 -1q-79 0 -113 -1q0 40 1 59l54 4q3 0 3 6l1 512l-71 1q0 22 2 58q18 3 58.5 10.5t72.5 13.5t34 6
t2 -3q1 -9 4 -27t5 -26zM387 215q0 65 -19 98q-23 41 -66 41q-52 0 -106 -39q-2 -134 -2 -215q0 -15 28 -29.5t56 -14.5q46 0 72 31q37 42 37 128z" />
    <glyph glyph-name="q" unicode="q" horiz-adv-x="528" 
d="M350 31h-7q-53 -27 -77 -34t-49 -7q-72 0 -121 48q-60 57 -60 153q0 106 70 184q57 63 152 63q48 0 110 -22l39 32q36 -6 60 -12q-5 -45 -5 -98q-3 -480 -3 -503l59 -2q0 -41 -2 -60q-74 0 -116 -1q-19 0 -41.5 -0.5t-51.5 -1.5t-44 -1q0 40 1 60l81 5q4 0 4 5zM266 367
q-51 0 -78 -39q-31 -43 -31 -123q0 -69 28 -107q26 -34 69 -34q38 0 89 31q5 3 5 16v234q-36 22 -82 22z" />
    <glyph glyph-name="r" unicode="r" horiz-adv-x="409" 
d="M95 352l-67 2q0 39 1 58q18 3 58.5 9.5t72 11.5t33.5 5t2 -3q2 -33 6 -131l6 -1q42 83 70.5 109.5t64.5 26.5t65 -12q0 -23 -12.5 -58.5t-23.5 -45.5q-40 9 -57 9t-31 -12q-27 -22 -60 -84q-16 -31 -16 -88q-1 -27 -1 -85l89 -3q0 -40 -1 -59h-138q-19 0 -60 -0.5
t-59 -0.5q0 41 1 59l53 3q4 0 4 4v286z" />
    <glyph glyph-name="s" unicode="s" horiz-adv-x="421" 
d="M99 144l15 -61q3 -8 8 -12q26 -18 63 -18q40 0 59 12q26 15 26 45q0 28 -18 39.5t-80 29.5q-64 19 -93 48t-29 73q0 37 21 66t52 45q51 27 128 27q72 0 107 -16q8 -60 12 -120q-64 -10 -67 -10l-15 59q-2 7 -6 11q-19 13 -51 13t-51 -14q-22 -15 -22 -45q0 -23 17 -33.5
t79 -28.5q63 -17 94 -43t31 -80q0 -75 -74 -116q-45 -25 -133 -25q-76 0 -125 18q-3 20 -8 61.5t-7 62.5q28 7 67 12z" />
    <glyph glyph-name="t" unicode="t" horiz-adv-x="386" 
d="M197 -10q-46 0 -76 28q-20 17 -25.5 34t-5.5 44q0 31 0.5 82t0.5 57q0 15 0.5 64.5t0.5 57.5h-69q0 44 2 64q11 1 32.5 2.5t31.5 1.5q7 0 7 7q1 42 5 89q16 9 41.5 19.5t43 16.5t19.5 6t2 -3q0 -63 -2 -135q107 0 156 1q0 -4 -3 -70q-22 0 -74.5 0.5t-79.5 0.5v-100
q-1 -41 -1 -138q0 -26 16.5 -40t40.5 -14q42 0 101 16q5 -27 9 -61q-80 -30 -173 -30z" />
    <glyph glyph-name="u" unicode="u" horiz-adv-x="545" 
d="M358 42h-5q-61 -35 -87 -43.5t-59 -8.5q-48 0 -90 44.5t-42 93.5q0 43 0.5 121.5t0.5 111.5l-54 2q0 21 2 61q15 0 54.5 1.5t71.5 2.5t37 1q3 0 3 -3q-3 -222 -3 -236q0 -70 14 -91q19 -30 56 -30q43 0 94 38v254l-58 2q0 11 0.5 32t0.5 31q111 3 170 3q1 0 1 -4
q0 -54 -1 -172.5t-1 -177.5q0 -11 6 -11l62 2q0 -40 -1 -59q-10 -4 -54 -10.5t-80 -6.5q-17 14 -38 52z" />
    <glyph glyph-name="v" unicode="v" horiz-adv-x="492" 
d="M493 367l-44 -2q-2 -5 -79 -182q-35 -79 -89 -192q-20 -1 -94 -1q-47 121 -81 221q-10 28 -21.5 62t-18.5 53t-12 35q-2 3 -5 3l-46 3q0 42 1 61h106h125q0 -42 -1 -61l-57 -3q27 -98 35 -126q6 -19 21.5 -68.5t22.5 -71.5h6q44 116 49 129q33 93 44 133q0 4 -3 4l-47 2
q0 43 1 61q16 0 52.5 0.5t54.5 0.5h81q0 -41 -1 -61z" />
    <glyph glyph-name="w" unicode="w" horiz-adv-x="706" 
d="M708 368l-42 -3q-22 -69 -59 -179q-21 -62 -69 -195q-22 -1 -97 -1q-56 170 -83 266h-6q-43 -117 -108 -265q-10 0 -42 -0.5t-50 -0.5q-30 102 -57 208q-9 36 -23 89t-19 73q0 4 -5 4l-42 3q0 42 1 61q13 0 46 -0.5t52 -0.5q21 0 65 0.5t64 0.5q0 -41 -1 -60l-64 -2
q2 -14 22 -127q13 -67 28 -140l6 -1q47 139 106 297q22 2 90 2q54 -198 85 -301h6q7 26 17.5 68t17.5 67q20 79 29 129q1 4 -3 4l-53 2q0 10 0.5 30.5t1.5 30.5h113q13 0 38.5 0.5t35.5 0.5q1 -21 -1 -60z" />
    <glyph glyph-name="x" unicode="x" horiz-adv-x="500" 
d="M2 61l39 3q6 0 11 5q9 9 58 60t78 80v8q-21 25 -62 75t-57 69l-6 3l-43 3q0 42 1 60h103q21 0 64 0.5t61 0.5q0 -42 -1 -61l-49 -3q72 -95 73 -96h6q39 45 72 92q2 4 -2 4l-40 2q0 10 0.5 31t0.5 30h100q14 0 41 0.5t37 0.5q0 -41 -1 -61l-39 -2q-15 -16 -59 -63.5
t-71 -76.5v-5q19 -23 63 -78.5t63 -77.5l48 -2q0 -42 -1 -62q-14 0 -48 0.5t-53 0.5q-21 0 -64.5 -0.5t-62.5 -0.5q0 43 1 61l42 3q8 0 4 6q-20 29 -74 96h-7q-22 -26 -83 -102l45 -2q0 -42 -1 -62q-15 0 -50.5 0.5t-52.5 0.5q-14 0 -43 -0.5t-42 -0.5q0 42 1 61z" />
    <glyph glyph-name="y" unicode="y" horiz-adv-x="484" 
d="M486 367l-41 -2q-31 -83 -83 -206q-89 -216 -153 -313q-51 -77 -82 -96q-18 0 -52.5 24t-34.5 37q46 30 83 68q54 59 74 109q-58 142 -85 214q-50 134 -60 159q0 3 -5 3l-45 3q0 10 0.5 30.5t1.5 30.5h100h130q0 -41 -1 -61l-60 -3q13 -45 40 -123q10 -33 49 -141h6
q25 66 44 125q24 73 40 134q0 5 -4 5l-49 2q0 43 1 61q15 0 52 0.5t55 0.5h80q0 -41 -1 -61z" />
    <glyph glyph-name="z" unicode="z" horiz-adv-x="466" 
d="M160 66l1 -4q105 0 151 3q28 2 33 19l30 79q23 -4 67 -15q-11 -49 -37 -149l-55 1h-98h-121h-88q-10 22 -19 54q110 124 274 307l-1 5q-107 0 -135 -1q-21 0 -27 -15l-27 -79q-20 3 -70 12q5 27 16 76.5t15 69.5q2 0 35.5 -1t64.5 -1h238q11 -33 20 -74q-18 -22 -71 -79
t-115 -122t-81 -86z" />
    <glyph glyph-name="braceleft" unicode="{" horiz-adv-x="365" 
d="M154 288v-7q34 -8 55 -34.5t21 -61.5q0 -33 -10.5 -91.5t-10.5 -94.5q0 -106 119 -105q2 -35 1 -55q-97 0 -156 44.5t-59 119.5q0 39 13.5 99t13.5 84q0 34 -16.5 51t-69.5 16q-1 17 -1 56q52 0 69 16t18 46q0 22 -12.5 76t-13.5 91q0 82 56 127.5t161 45.5q2 -30 -1 -55
q-67 0 -93.5 -28t-26.5 -80q0 -34 10 -88t10 -81q0 -36 -20.5 -59t-56.5 -32z" />
    <glyph glyph-name="bar" unicode="|" horiz-adv-x="541" 
d="M236 750h70v-1000h-70v1000z" />
    <glyph glyph-name="braceright" unicode="}" horiz-adv-x="365" 
d="M211 280v7q-76 20 -76 90q0 27 11 82t11 89q-1 54 -27 80.5t-93 26.5q-3 25 -1 55q106 0 161 -44t55 -128q0 -38 -13.5 -92t-13.5 -75q0 -30 17.5 -46t68.5 -16q0 -39 -1 -56q-51 1 -68.5 -16.5t-17.5 -50.5q0 -25 13.5 -84.5t13.5 -98.5q0 -75 -59.5 -119.5
t-156.5 -44.5q-1 20 1 55q61 0 90.5 28t29.5 76q0 37 -10.5 95.5t-10.5 91.5q0 35 21.5 61t54.5 34z" />
    <glyph glyph-name="asciitilde" unicode="~" horiz-adv-x="541" 
d="M182 310q41 0 101 -34q4 -2 19.5 -10.5t22.5 -12t19 -7t22 -3.5q20 0 34 19.5t16 49.5q22 2 62 0q-1 -60 -33 -104t-81 -44q-11 0 -22 2t-23.5 7t-18.5 7.5t-20.5 10t-16.5 8.5q-3 2 -18.5 10.5t-22 11.5t-19 7t-23.5 4q-22 0 -37 -18.5t-19 -49.5h-61q4 62 37.5 104
t81.5 42z" />
    <glyph glyph-name="uni00A0" unicode="&#xa0;" horiz-adv-x="222" 
 />
    <glyph glyph-name="exclamdown" unicode="&#xa1;" horiz-adv-x="290" 
d="M77 -225q-1 1 -1 2q3 44 15 218.5t16 242.5q16 5 72 9q1 -22 8 -107t8 -107q10 -145 21 -236q-21 -6 -72.5 -14t-66.5 -8zM141 312q-30 0 -47 19t-17 44q0 26 19.5 44.5t47.5 18.5q27 0 46 -17.5t19 -43.5q0 -27 -19 -46t-49 -19z" />
    <glyph glyph-name="cent" unicode="&#xa2;" horiz-adv-x="541" 
d="M66 297q0 91 58.5 158.5t160.5 83.5v102q35 7 65 8q0 -16 -0.5 -51.5t-0.5 -54.5q3 1 13 1q62 0 115 -24q0 -17 -12 -45t-24 -35q-62 31 -95 32q-4 -184 -5 -295q54 1 124 30q10 -36 15 -56q-76 -34 -139 -41q0 -20 -0.5 -57.5t-0.5 -53.5q-10 -1 -30.5 -3t-30.5 -3
q0 73 1 113q-87 2 -150.5 49.5t-63.5 141.5zM174 316q0 -64 32 -101q27 -30 74 -38q0 44 1 144t2 150q-48 -9 -78.5 -54t-30.5 -101z" />
    <glyph glyph-name="sterling" unicode="&#xa3;" horiz-adv-x="541" 
d="M352 654q57 0 101 -16q8 -87 11 -158q-10 -1 -22 -2.5t-27 -3.5t-23 -3l-19 96q-2 11 -8 13q-18 6 -44 6q-38 0 -64 -27q-26 -29 -26 -91q0 -24 13 -126q55 0 171 2q2 -31 -2 -68h-158q0 -6 0.5 -18t0.5 -17q0 -93 -65 -165q-10 -10 6 -10q169 0 194 7q12 3 20 21l32 98
q32 -5 72 -16q-6 -29 -19.5 -88.5t-20.5 -88.5q-8 0 -122 0.5t-201 0.5q-22 0 -68.5 -0.5t-70.5 -0.5q0 22 2 66l72 3q10 0 15 5q44 47 44 146q0 32 -4 57h-99q0 23 2 63q54 0 81 1q4 0 3 4q-14 82 -14 116q0 90 68 143q66 51 169 51z" />
    <glyph glyph-name="currency" unicode="&#xa4;" horiz-adv-x="541" 
d="M281 507q58 0 95 -23q40 48 72 87q31 -26 50 -47q-9 -10 -20.5 -23t-26 -30t-23.5 -28q45 -47 45 -123q0 -90 -56 -138q56 -64 80 -92q-28 -26 -49 -41q-41 48 -81 92q-38 -25 -101 -25q-56 0 -94 21q-41 -47 -81 -90q-27 22 -47 42l42 48t34 40q-49 46 -49 127
q0 78 53 133q-25 29 -74 85q30 30 51 46q36 -42 74 -89q43 28 106 28zM273 445q-48 0 -78 -27q-45 -45 -45 -108q0 -67 40 -105q30 -27 80 -27q49 0 78 25q46 36 46 113q0 68 -45 106q-27 23 -76 23z" />
    <glyph glyph-name="yen" unicode="&#xa5;" horiz-adv-x="541" 
d="M220 70v71q-22 0 -74.5 -0.5t-75.5 -0.5q0 22 2 54q22 0 71.5 -0.5t76.5 -0.5v57h-150q0 19 2 51q40 1 131 1q-98 178 -146 265q-3 5 -9 6l-36 2q0 42 1 60h94q28 0 77.5 0.5t67.5 0.5q0 -42 -1 -61l-74 -3l117 -246h5q60 120 114 240q2 6 -5 6l-67 2q0 41 1 61h120
q14 0 40 0.5t35 0.5q0 -42 -1 -61l-39 -3q-73 -136 -149 -268q23 0 65.5 0.5t60.5 0.5q1 -18 -1 -55h-150l-1 -56h151q0 -35 -2 -52q-19 0 -71 -0.5t-78 -0.5l-1 -76l90 -3q0 -41 -1 -62q-19 0 -66.5 0.5t-71.5 0.5q-22 0 -69 -0.5t-68 -0.5q0 42 1 61l78 3q6 0 6 6z" />
    <glyph glyph-name="brokenbar" unicode="&#xa6;" horiz-adv-x="541" 
d="M236 675h70v-350h-70v350zM236 175h70v-350h-70v350z" />
    <glyph glyph-name="section" unicode="&#xa7;" horiz-adv-x="462" 
d="M413 210q0 -80 -54 -141q23 -30 23 -80q0 -76 -57 -127q-53 -50 -133 -50q-103 0 -173 57q6 19 23.5 39t36.5 26q56 -56 122 -56q41 0 66 25q22 23 22 61q0 37 -23 60.5t-88 63.5q-65 39 -96 80.5t-31 99.5q0 78 60 142q-30 37 -30 89q0 68 60 115q54 42 136 42
q90 0 145 -48q-4 -17 -20.5 -36.5t-35.5 -26.5q-17 17 -49 31.5t-59 14.5q-40 0 -60 -20q-25 -23 -25 -57q0 -18 5.5 -31.5t25 -30t33 -25.5t54.5 -34q61 -38 91.5 -80.5t30.5 -102.5zM131 300q0 -42 22 -68t70 -57q77 -52 91 -65q19 26 19 71q0 40 -21 66t-70 61
q-9 6 -27.5 19t-32.5 23.5t-26 20.5q-25 -29 -25 -71z" />
    <glyph glyph-name="dieresis" unicode="&#xa8;" horiz-adv-x="382" 
d="M108 602q24 0 36.5 -15.5t12.5 -34.5q0 -21 -14 -35.5t-37 -14.5q-21 0 -36 14.5t-15 35.5q0 19 14 34.5t39 15.5zM278 602q23 0 36.5 -15.5t13.5 -34.5q0 -21 -15 -35.5t-36 -14.5q-23 0 -37 14.5t-14 35.5q0 20 13 35t39 15z" />
    <glyph glyph-name="copyright" unicode="&#xa9;" horiz-adv-x="759" 
d="M384 660q141 0 234 -95t93 -237q0 -140 -97.5 -239t-237.5 -99q-141 0 -234 95t-93 237q0 140 97.5 239t237.5 99zM379 617q-118 0 -196 -86t-78 -208q0 -123 77 -206.5t197 -83.5q119 0 197.5 86t78.5 208q0 123 -77.5 206.5t-198.5 83.5zM455 378l-11 63q0 6 -4 8
q-12 9 -35 9q-40 0 -66 -26q-45 -44 -45 -117q0 -60 32 -92q29 -29 81 -29q50 0 94 21q5 -22 9 -47q-63 -29 -120 -29q-74 0 -118 34q-63 45 -63 130q0 99 75 162q56 44 137 44q52 0 78 -11q3 -39 7 -114q-24 -3 -51 -6z" />
    <glyph glyph-name="ordfeminine" unicode="&#xaa;" horiz-adv-x="381" 
d="M230 340h-3q-59 -33 -109 -33q-31 0 -61 23.5t-30 55.5q0 39 40.5 74t111.5 35h48q1 45 -11.5 65.5t-42.5 20.5q-41 0 -93 -46q-17 18 -33 41q76 69 157 69q43 0 76 -32t33 -86q0 -22 -0.5 -81t-0.5 -73q0 -9 5 -9l47 2q0 -32 -1 -46q-59 -13 -108 -13q-12 9 -25 33z
M115 395q0 -14 13.5 -23t31.5 -9q31 0 65 23q2 2 2 4v59q-3 1 -26 1q-86 0 -86 -55z" />
    <glyph glyph-name="guillemotleft" unicode="&#xab;" horiz-adv-x="442" 
d="M140 222q59 -93 97 -148q-16 -17 -39 -35q-85 90 -151 156q-1 16 -1 50q77 77 152 158q25 -19 38 -35q-69 -102 -96 -146zM309 222q43 -67 95 -143q-11 -12 -36 -33q-99 105 -146 153q-1 14 -1 43q48 50 145 155q18 -15 37 -34q-11 -16 -30 -45t-34.5 -52t-29.5 -44z" />
    <glyph glyph-name="logicalnot" unicode="&#xac;" horiz-adv-x="541" 
d="M405 24v189h-346q0 36 3 69q29 0 410 3q4 0 4 -4q0 -40 -1 -131t-1 -123q-33 -3 -69 -3z" />
    <glyph glyph-name="uni00AD" unicode="&#xad;" horiz-adv-x="340" 
d="M151 207h-117q0 11 0.5 34t1.5 34q21 0 61 0.5t60 0.5q25 0 75 0.5t74 1.5q0 -38 -3 -71h-152z" />
    <glyph glyph-name="registered" unicode="&#xae;" horiz-adv-x="488" 
d="M247 660q83 0 138 -55.5t55 -138.5q0 -82 -57.5 -139.5t-140.5 -57.5q-84 0 -138.5 55t-54.5 138q0 82 57.5 140t140.5 58zM243 627q-67 0 -111 -47.5t-44 -116.5t43.5 -115t111.5 -46t112.5 47t44.5 116t-44 115.5t-113 46.5zM171 391v147h-20v30q26 1 77 1q38 0 59 -5
t32.5 -19t11.5 -30q0 -40 -43 -55v-5q15 -7 37 -53q6 -11 14 -11l14 -1v-29h-64q-6 8 -19 37t-14 32q-6 10 -22 10h-10v-49l21 -1v-29h-94v29zM224 539v-69h10q20 0 31.5 10t11.5 26q0 33 -42 33h-11z" />
    <glyph glyph-name="macron" unicode="&#xaf;" horiz-adv-x="382" 
d="M300 573q2 -29 0 -59q-30 0 -105 0.5t-112 0.5q-2 27 0 56q146 2 217 2z" />
    <glyph glyph-name="degree" unicode="&#xb0;" horiz-adv-x="344" 
d="M174 655q56 0 89.5 -32t33.5 -83t-36 -85t-88 -34q-53 0 -89 31t-36 84q0 48 36 83.5t90 35.5zM173 605q-25 0 -40.5 -20t-15.5 -48q0 -29 16 -47.5t40 -18.5q26 0 40.5 18.5t14.5 48.5q0 67 -55 67z" />
    <glyph glyph-name="plusminus" unicode="&#xb1;" horiz-adv-x="541" 
d="M237 333v151q46 4 73 4q-1 -22 -1.5 -74.5t-0.5 -79.5q29 0 88 0.5t86 1.5q0 -38 -3 -73h-171q-1 -50 -1 -138q-31 -3 -70 -3v141h-172q0 47 2 69q108 0 170 1zM478 1l-415 -2q0 39 3 70q295 0 414 1q0 -25 -2 -69z" />
    <glyph glyph-name="twosuperior" unicode="&#xb2;" 
d="M304 653q0 -71 -103 -145q-20 -15 -46 -32l1 -5q18 0 80.5 2.5t70.5 2.5q2 0 2 -2q0 -31 -3 -58h-172h-81q-9 23 -13 41q53 35 90 67q25 22 40.5 37t30.5 40t15 49t-15 41q-11 14 -38 14q-28 0 -41 -12q-3 -1 -3 -5l-11 -56q-40 2 -55 4q4 73 5 99q49 20 115 20
q68 0 99 -28q32 -29 32 -74z" />
    <glyph glyph-name="threesuperior" unicode="&#xb3;" 
d="M103 519l12 -51q1 -3 4 -6q12 -7 35 -7q34 0 48 13q20 13 20 38q0 56 -81 56h-37q-1 17 -1 48q113 -1 113 57q0 19 -12 30t-40 11q-25 0 -40 -10q-3 -3 -3 -5l-9 -49q-6 0 -17.5 1t-21 1.5t-18.5 0.5q2 31 4 89q52 19 116 19q68 0 97 -22q31 -24 31 -55q0 -61 -74 -81v-4
q40 -6 61 -29t21 -52q0 -50 -44 -77q-39 -27 -119 -27q-56 0 -92 8q-2 18 -6 52t-5 43q42 6 58 8z" />
    <glyph glyph-name="acute" unicode="&#xb4;" horiz-adv-x="382" 
d="M250 662q20 -18 53 -57q-20 -15 -76.5 -59t-85.5 -65q-11 12 -35 40q23 22 72 70.5t72 70.5z" />
    <glyph glyph-name="mu" unicode="&#xb5;" horiz-adv-x="547" 
d="M173 20l-5 -2q1 -37 6 -234q-17 -13 -52 -21t-54 -8q3 141 3 373q0 115 2 273q22 12 56 20t55 8q2 0 2 -3q-2 -150 -2 -233q0 -68 15 -91q19 -32 61 -32q28 0 59.5 20.5t31.5 42.5v267q21 12 56 20.5t56 8.5q2 0 2 -4q0 -54 -1 -156t-1 -140q0 -65 27 -65q17 0 49 9
q7 -35 9 -57q-52 -26 -139 -26q-24 17 -48 60l-6 1q-69 -60 -119 -60q-34 0 -63 29z" />
    <glyph glyph-name="paragraph" unicode="&#xb6;" horiz-adv-x="578" 
d="M486 585l-3 -716q-25 -6 -67 -12l-2 730h-66l-3 -721q-37 -9 -69 -13l-1 351h-17q-47 0 -89 18q-58 24 -94 72.5t-36 121.5q0 71 38 124t91 78q65 32 204 32q19 0 178 -3q1 -19 1 -63z" />
    <glyph glyph-name="periodcentered" unicode="&#xb7;" horiz-adv-x="267" 
d="M136 328q31 0 48 -20t17 -47q0 -28 -19 -47.5t-49 -19.5q-28 0 -48 18.5t-20 47.5q0 27 19 47.5t52 20.5z" />
    <glyph glyph-name="cedilla" unicode="&#xb8;" horiz-adv-x="382" 
d="M150 -73l82 74h64l-70 -66q28 -5 45 -24t17 -45q0 -41 -38 -67t-105 -27q-3 12 -5 44q77 5 77 46q0 15 -12 27q-14 13 -45 11q-2 4 -3.5 8.5t-3.5 10t-3 8.5z" />
    <glyph glyph-name="onesuperior" unicode="&#xb9;" 
d="M235 463l79 -1v-46h-118h-132q0 30 1 46l86 1q2 0 2 3v207q-82 -16 -88 -17q-6 32 -8 47q28 8 72.5 23t72.5 24t33 9q1 0 1 -3q0 -44 -0.5 -145t-0.5 -148z" />
    <glyph glyph-name="ordmasculine" unicode="&#xba;" horiz-adv-x="398" 
d="M192 307q-71 0 -109 38q-50 47 -50 123q0 89 63 141q45 36 111 36q60 0 98 -28q60 -45 60 -133q0 -97 -69 -147q-40 -30 -104 -30zM199 354q30 0 49 20q25 29 25 105q0 65 -22 94q-18 25 -49 25q-29 0 -50 -22q-27 -34 -27 -98q0 -71 25 -101q19 -23 49 -23z" />
    <glyph glyph-name="guillemotright" unicode="&#xbb;" horiz-adv-x="442" 
d="M133 220q-52 80 -93 142q14 16 36 35q17 -18 67 -71.5t78 -83.5q0 -16 -2 -44q-25 -27 -73.5 -77.5t-71.5 -75.5q-12 10 -36 34q55 78 95 141zM301 221q-47 74 -95 147q16 18 37 35q103 -107 153 -158q0 -18 -2 -50q-29 -30 -84 -87t-67 -70q-31 29 -38 36q51 74 96 147z
" />
    <glyph glyph-name="onequarter" unicode="&#xbc;" horiz-adv-x="800" 
d="M249 360l80 -1q0 -7 -0.5 -23t-0.5 -23h-118h-132q0 30 1 46l86 1q2 0 2 3v207q-82 -16 -88 -17q-5 26 -8 47q29 8 72.5 22.5l72 24t33.5 9.5q1 0 1 -3q0 -44 -0.5 -145t-0.5 -148zM257 -17q-39 18 -52 26q107 183 171 294q87 151 203 358q35 -13 57 -27
q-158 -273 -208 -360q-28 -49 -91 -155t-80 -136zM684 41l42 -1v-40h-88h-95q0 27 1 39l67 2q3 0 3 2v37h-154q-9 18 -23 50q16 19 79 101q74 92 86 106q30 0 84 -2q0 -31 -0.5 -100t-0.5 -103h61q0 -14 -2 -50h-60v-41zM615 269h-7q-19 -27 -54 -71q-9 -12 -24 -32.5
t-20 -27.5q-4 -6 3 -6h101z" />
    <glyph glyph-name="onehalf" unicode="&#xbd;" horiz-adv-x="800" 
d="M238 360l79 -1v-46h-118h-132q0 30 1 46l86 1q2 0 2 3v207q-82 -16 -88 -17q-5 26 -8 47q29 8 72.5 22.5l72 24t33.5 9.5q1 0 1 -3q0 -44 -0.5 -145t-0.5 -148zM243 -17q-5 3 -15.5 8t-19.5 9.5l-17 8.5q107 183 171 294q2 4 203 358q36 -14 56 -27q-70 -120 -207 -360
q-28 -49 -91 -155t-80 -136zM739 238q0 -72 -103 -146q-13 -11 -46 -32l1 -5q18 0 80.5 2.5t70.5 2.5q2 0 2 -1q0 -32 -3 -59h-171h-81q-9 26 -13 42q52 33 90 66q25 21 40.5 36.5t30 41t14.5 49.5q0 23 -14 41q-13 14 -39 14q-27 0 -40 -12q-3 -2 -3 -6l-11 -56
q-9 1 -28 2.5t-27 1.5q4 76 5 100q49 20 115 20q67 0 98 -28q32 -29 32 -74z" />
    <glyph glyph-name="threequarters" unicode="&#xbe;" horiz-adv-x="800" 
d="M132 416l11 -51q1 -3 4 -6q12 -7 35 -7q33 0 49 13q20 15 20 38q0 56 -82 56h-37q-1 17 -1 48q113 -1 113 58q0 19 -12 29q-11 11 -39 11q-25 0 -40 -10q-3 -1 -3 -5l-10 -49q-36 2 -56 4q2 27 4 88q52 19 116 19q69 0 96 -22q31 -22 31 -55q0 -61 -73 -80v-5
q40 -6 61 -29t21 -51q0 -51 -44 -78q-39 -27 -120 -27q-56 0 -92 8q-5 36 -10 95q42 6 58 8zM251 -17q-41 19 -53 26q32 53 93 158t79 135q31 55 98.5 175.5t103.5 183.5q35 -13 57 -27q-30 -52 -102.5 -177.5t-105.5 -182.5q-12 -22 -170 -291zM676 41l42 -1v-40h-88h-95
q0 27 1 39l67 2q3 0 3 2v37h-153q-13 23 -23 50q14 18 39.5 51t38.5 50q74 92 86 106q30 0 84 -2q0 -31 -0.5 -100t-0.5 -103h61q0 -14 -2 -50h-60v-41zM607 269h-7q-19 -27 -54 -71q-42 -58 -43 -60q-4 -6 3 -6h100z" />
    <glyph glyph-name="questiondown" unicode="&#xbf;" horiz-adv-x="453" 
d="M245 314q-29 0 -46.5 18.5t-17.5 45.5q0 24 19.5 42t47.5 18q27 0 46.5 -16.5t19.5 -42.5q0 -27 -19 -46t-50 -19zM36 -73q0 62 40 110t122 100q23 15 23 28q0 20 -13 72q30 12 74 18q14 -19 28.5 -56.5t15.5 -63.5q-92 -63 -127.5 -103.5t-35.5 -96.5q0 -42 24.5 -67
t64.5 -25q37 0 60 17q6 4 7 12l20 84q42 -3 76 -9q-4 -59 -11 -143q-66 -33 -175 -33q-91 0 -142 44t-51 112z" />
    <glyph glyph-name="Agrave" unicode="&#xc0;" horiz-adv-x="619" 
d="M-11 62l51 3q5 2 6 5q26 68 222 586q28 2 90 2q35 -96 108.5 -308.5t98.5 -283.5l57 -3q0 -42 -1 -62h-105q-25 0 -74.5 -0.5t-69.5 -0.5q0 42 1 63l66 3q5 0 2 5q-33 97 -38 109q-1 4 -6 4l-217 -1q-34 -104 -38 -118l75 -2q0 -42 -1 -62h-136q-16 0 -47 -0.5t-45 -0.5
q0 42 1 62zM296 514h-5q-14 -41 -45 -131t-45 -130q-1 -6 2 -6h181q-30 90 -88 267zM220 865q53 -38 165 -120q-17 -30 -29 -44q-32 17 -98 52t-83 44q22 39 45 68z" />
    <glyph glyph-name="Aacute" unicode="&#xc1;" horiz-adv-x="619" 
d="M-11 62l51 3q5 2 6 5q26 68 222 586q28 2 90 2q35 -96 108.5 -308.5t98.5 -283.5l57 -3q0 -42 -1 -62h-105q-25 0 -74.5 -0.5t-69.5 -0.5q0 42 1 63l66 3q5 0 2 5q-33 97 -38 109q-1 4 -6 4l-217 -1q-34 -104 -38 -118l75 -2q0 -42 -1 -62h-136q-16 0 -47 -0.5t-45 -0.5
q0 42 1 62zM296 514h-5q-14 -41 -45 -131t-45 -130q-1 -6 2 -6h181q-30 90 -88 267zM399 864q22 -27 45 -67q-27 -15 -181 -97q-19 27 -29 44q32 23 165 120z" />
    <glyph glyph-name="Acircumflex" unicode="&#xc2;" horiz-adv-x="619" 
d="M-11 62l51 3q5 2 6 5q26 68 222 586q28 2 90 2q35 -96 108.5 -308.5t98.5 -283.5l57 -3q0 -42 -1 -62h-105q-25 0 -74.5 -0.5t-69.5 -0.5q0 42 1 63l66 3q5 0 2 5q-33 97 -38 109q-1 4 -6 4l-217 -1q-34 -104 -38 -118l75 -2q0 -42 -1 -62h-136q-16 0 -47 -0.5t-45 -0.5
q0 42 1 62zM296 514h-5q-14 -41 -45 -131t-45 -130q-1 -6 2 -6h181q-30 90 -88 267zM317 778q-84 -52 -117 -74q-12 14 -32 39q14 12 60 49.5t70 56.5q12 1 39 1q23 -19 70 -57.5t58 -47.5q-13 -20 -33 -40q-11 7 -115 73z" />
    <glyph glyph-name="Atilde" unicode="&#xc3;" horiz-adv-x="619" 
d="M-11 62l51 3q5 2 6 5q26 68 222 586q28 2 90 2q35 -96 108.5 -308.5t98.5 -283.5l57 -3q0 -42 -1 -62h-105q-25 0 -74.5 -0.5t-69.5 -0.5q0 42 1 63l66 3q5 0 2 5q-33 97 -38 109q-1 4 -6 4l-217 -1q-34 -104 -38 -118l75 -2q0 -42 -1 -62h-136q-16 0 -47 -0.5t-45 -0.5
q0 42 1 62zM296 514h-5q-14 -41 -45 -131t-45 -130q-1 -6 2 -6h181q-30 90 -88 267zM255 825q28 0 72 -26q40 -22 56 -22q15 0 24.5 12.5t11.5 32.5q23 2 47 0q-2 -46 -23.5 -79t-62.5 -33q-23 0 -69 27q-42 22 -59 22q-14 0 -25 -12.5t-13 -32.5h-46q2 45 26.5 78t60.5 33z
" />
    <glyph glyph-name="Adieresis" unicode="&#xc4;" horiz-adv-x="619" 
d="M-11 62l51 3q5 2 6 5q26 68 222 586q28 2 90 2q35 -96 108.5 -308.5t98.5 -283.5l57 -3q0 -42 -1 -62h-105q-25 0 -74.5 -0.5t-69.5 -0.5q0 42 1 63l66 3q5 0 2 5q-33 97 -38 109q-1 4 -6 4l-217 -1q-34 -104 -38 -118l75 -2q0 -42 -1 -62h-136q-16 0 -47 -0.5t-45 -0.5
q0 42 1 62zM296 514h-5q-14 -41 -45 -131t-45 -130q-1 -6 2 -6h181q-30 90 -88 267zM227 817q23 0 36 -15.5t13 -34.5q0 -22 -14.5 -36.5t-37.5 -14.5q-21 0 -36 14.5t-15 36.5q0 19 14 34.5t40 15.5zM410 817q24 0 37.5 -15.5t13.5 -34.5q0 -22 -14.5 -36.5t-35.5 -14.5
q-24 0 -38.5 14.5t-14.5 36.5q0 19 13.5 34.5t38.5 15.5z" />
    <glyph glyph-name="Aring" unicode="&#xc5;" horiz-adv-x="619" 
d="M-11 62l51 3q5 2 6 5q26 68 222 586q28 2 90 2q35 -96 108.5 -308.5t98.5 -283.5l57 -3q0 -42 -1 -62h-105q-25 0 -74.5 -0.5t-69.5 -0.5q0 42 1 63l66 3q5 0 2 5q-33 97 -38 109q-1 4 -6 4l-217 -1q-34 -104 -38 -118l75 -2q0 -42 -1 -62h-136q-16 0 -47 -0.5t-45 -0.5
q0 42 1 62zM296 514h-5q-14 -41 -45 -131t-45 -130q-1 -6 2 -6h181q-30 90 -88 267zM313 885q48 0 78 -26t30 -66t-31.5 -67t-77.5 -27q-47 0 -78 24.5t-31 67.5q0 37 31.5 65.5t78.5 28.5zM312 842q-21 0 -35 -15t-14 -36t14.5 -35t35.5 -14q22 0 34.5 14t12.5 36t-12.5 36
t-35.5 14z" />
    <glyph glyph-name="AE" unicode="&#xc6;" horiz-adv-x="875" 
d="M428 261l-181 -1q-13 -25 -35 -66t-38.5 -72.5t-29.5 -56.5l80 -3q0 -41 -1 -61h-147q-16 0 -47 -0.5t-45 -0.5q0 42 1 62l56 4q5 0 7 5q52 87 169.5 289t167.5 286q3 4 7 4q5 0 51.5 -0.5t69.5 -0.5q12 0 101.5 0.5t100.5 0.5h92q6 -78 9 -162q-35 -5 -71 -8l-17 82
q-3 16 -21 18q-48 5 -134 5h-21l-1 -254q11 0 124 3q18 0 20 19l6 44q48 0 69 -1q-1 -31 -1 -99q-1 -31 -1 -87q-44 -2 -70 -2l-3 40q-1 11 -5.5 15t-15.5 4q-37 1 -123 1l-1 -182q0 -14 8.5 -17.5t45.5 -3.5q90 0 120 6q13 4 19 20l27 77q17 -3 71 -13q-14 -79 -32 -156
q-12 0 -123.5 0.5t-191.5 0.5q-23 0 -69 -0.5t-67 -0.5q0 43 1 63l71 3q4 0 4 4v188q0 4 -6 4zM434 583h-5q-45 -76 -146 -255q-3 -6 2 -6h149v261z" />
    <glyph glyph-name="Ccedilla" unicode="&#xc7;" horiz-adv-x="596" 
d="M269 -80l75 71h-7q-104 0 -181 59q-50 37 -80 99t-30 138q0 187 135 296q95 77 234 77q87 0 130 -18q7 -90 12 -184q-22 -4 -77 -10l-20 106q-2 11 -7 14q-25 16 -67 16q-78 0 -132 -54q-80 -83 -80 -215q0 -125 60 -188q52 -57 146 -57q77 0 168 31q9 -31 14 -69
q-73 -28 -146 -37l-66 -65q73 -10 73 -70q0 -42 -42 -71t-114 -29q-5 18 -7 45q85 2 85 47q0 18 -14 29q-15 11 -51 11q-8 20 -11 28z" />
    <glyph glyph-name="Egrave" unicode="&#xc8;" horiz-adv-x="566" 
d="M51 62l61 3q4 0 4 4v515l-67 3q0 23 2 63q17 0 59 -0.5t63 -0.5q16 0 115.5 0.5t110.5 0.5h92q6 -78 9 -162q-36 -5 -72 -8l-16 82q-3 16 -21 18q-52 5 -136 5h-21l-1 -222q22 0 63.5 0.5t63.5 1.5q17 0 19 19l5 44q48 0 69 -1q0 -15 -0.5 -48.5t-0.5 -50.5t-0.5 -49.5
t-0.5 -45.5q-42 -2 -69 -2l-4 47q-1 20 -20 20q-77 2 -125 1l-1 -213q0 -14 8.5 -17.5t45.5 -3.5q95 0 123 7q12 3 18 19l31 86q33 -4 71 -13q-19 -92 -36 -165q-13 0 -125.5 0.5t-191.5 0.5q-23 0 -65.5 -0.5t-60.5 -0.5q0 43 1 63zM212 865q20 -14 78.5 -57t85.5 -63
q-13 -22 -29 -45q-118 65 -181 97q27 44 46 68z" />
    <glyph glyph-name="Eacute" unicode="&#xc9;" horiz-adv-x="566" 
d="M51 62l61 3q4 0 4 4v515l-67 3q0 23 2 63q17 0 59 -0.5t63 -0.5q16 0 115.5 0.5t110.5 0.5h92q6 -78 9 -162q-36 -5 -72 -8l-16 82q-3 16 -21 18q-52 5 -136 5h-21l-1 -222q22 0 63.5 0.5t63.5 1.5q17 0 19 19l5 44q48 0 69 -1q0 -15 -0.5 -48.5t-0.5 -50.5t-0.5 -49.5
t-0.5 -45.5q-42 -2 -69 -2l-4 47q-1 20 -20 20q-77 2 -125 1l-1 -213q0 -14 8.5 -17.5t45.5 -3.5q95 0 123 7q12 3 18 19l31 86q33 -4 71 -13q-19 -92 -36 -165q-13 0 -125.5 0.5t-191.5 0.5q-23 0 -65.5 -0.5t-60.5 -0.5q0 43 1 63zM383 864q22 -27 45 -67
q-140 -75 -180 -97q-19 27 -29 44q111 81 164 120z" />
    <glyph glyph-name="Ecircumflex" unicode="&#xca;" horiz-adv-x="566" 
d="M51 62l61 3q4 0 4 4v515l-67 3q0 23 2 63q17 0 59 -0.5t63 -0.5q16 0 115.5 0.5t110.5 0.5h92q6 -78 9 -162q-36 -5 -72 -8l-16 82q-3 16 -21 18q-52 5 -136 5h-21l-1 -222q22 0 63.5 0.5t63.5 1.5q17 0 19 19l5 44q48 0 69 -1q0 -15 -0.5 -48.5t-0.5 -50.5t-0.5 -49.5
t-0.5 -45.5q-42 -2 -69 -2l-4 47q-1 20 -20 20q-77 2 -125 1l-1 -213q0 -14 8.5 -17.5t45.5 -3.5q95 0 123 7q12 3 18 19l31 86q33 -4 71 -13q-19 -92 -36 -165q-13 0 -125.5 0.5t-191.5 0.5q-23 0 -65.5 -0.5t-60.5 -0.5q0 43 1 63zM284 778q-10 -6 -53 -33t-63 -40
q-12 12 -32 38q64 52 129 106q12 1 39 1q66 -53 128 -105q-13 -20 -33 -40q-11 7 -115 73z" />
    <glyph glyph-name="Edieresis" unicode="&#xcb;" horiz-adv-x="566" 
d="M51 62l61 3q4 0 4 4v515l-67 3q0 23 2 63q17 0 59 -0.5t63 -0.5q16 0 115.5 0.5t110.5 0.5h92q6 -78 9 -162q-36 -5 -72 -8l-16 82q-3 16 -21 18q-52 5 -136 5h-21l-1 -222q22 0 63.5 0.5t63.5 1.5q17 0 19 19l5 44q48 0 69 -1q0 -15 -0.5 -48.5t-0.5 -50.5t-0.5 -49.5
t-0.5 -45.5q-42 -2 -69 -2l-4 47q-1 20 -20 20q-77 2 -125 1l-1 -213q0 -14 8.5 -17.5t45.5 -3.5q95 0 123 7q12 3 18 19l31 86q33 -4 71 -13q-19 -92 -36 -165q-13 0 -125.5 0.5t-191.5 0.5q-23 0 -65.5 -0.5t-60.5 -0.5q0 43 1 63zM191 817q23 0 36 -15.5t13 -34.5
q0 -22 -14.5 -36.5t-37.5 -14.5q-21 0 -36 14.5t-15 36.5q0 19 14 34.5t40 15.5zM375 817q24 0 37.5 -15.5t13.5 -34.5q0 -22 -14.5 -36.5t-35.5 -14.5q-24 0 -38.5 14.5t-14.5 36.5q0 19 13.5 34.5t38.5 15.5z" />
    <glyph glyph-name="Igrave" unicode="&#xcc;" horiz-adv-x="348" 
d="M116 584l-71 3q0 43 1 63h135h130q0 -43 -1 -63l-72 -3q-2 0 -2 -4l-3 -513l77 -3q1 -22 -1 -64q-18 0 -63.5 0.5t-68.5 0.5q-21 0 -66.5 -0.5t-65.5 -0.5q0 43 1 63l67 3q3 0 3 4v514zM95 865q53 -38 165 -120q-15 -26 -30 -44q-27 15 -90 48.5t-90 47.5q22 39 45 68z
" />
    <glyph glyph-name="Iacute" unicode="&#xcd;" horiz-adv-x="348" 
d="M116 584l-71 3q0 43 1 63h135h130q0 -43 -1 -63l-72 -3q-2 0 -2 -4l-3 -513l77 -3q1 -22 -1 -64q-18 0 -63.5 0.5t-68.5 0.5q-21 0 -66.5 -0.5t-65.5 -0.5q0 43 1 63l67 3q3 0 3 4v514zM264 864q22 -29 44 -67q-24 -13 -87 -47t-93 -50q-19 27 -29 44q32 23 165 120z" />
    <glyph glyph-name="Icircumflex" unicode="&#xce;" horiz-adv-x="348" 
d="M116 584l-71 3q0 43 1 63h135h130q0 -43 -1 -63l-72 -3q-2 0 -2 -4l-3 -513l77 -3q1 -22 -1 -64q-18 0 -63.5 0.5t-68.5 0.5q-21 0 -66.5 -0.5t-65.5 -0.5q0 43 1 63l67 3q3 0 3 4v514zM180 779q-18 -12 -58.5 -37t-58.5 -37q-19 20 -32 39q24 19 68.5 55.5t60.5 49.5
q26 2 39 1q18 -14 63 -50.5t66 -53.5q-4 -7 -33 -41q-20 13 -62.5 40t-52.5 34z" />
    <glyph glyph-name="Idieresis" unicode="&#xcf;" horiz-adv-x="348" 
d="M116 584l-71 3q0 43 1 63h135h130q0 -43 -1 -63l-72 -3q-2 0 -2 -4l-3 -513l77 -3q1 -22 -1 -64q-18 0 -63.5 0.5t-68.5 0.5q-21 0 -66.5 -0.5t-65.5 -0.5q0 43 1 63l67 3q3 0 3 4v514zM92 817q23 0 36 -15.5t13 -34.5q0 -22 -14.5 -36.5t-37.5 -14.5q-21 0 -36 14.5
t-15 36.5q0 19 14 34.5t40 15.5zM275 817q24 0 37.5 -15.5t13.5 -34.5q0 -22 -14.5 -36.5t-35.5 -14.5q-24 0 -38.5 14.5t-14.5 36.5q0 19 13.5 34.5t38.5 15.5z" />
    <glyph glyph-name="Eth" unicode="&#xd0;" horiz-adv-x="717" 
d="M133 355l1 229l-68 2q0 10 0.5 31t0.5 32q126 2 221 2q155 0 240 -49q64 -36 103.5 -105.5t39.5 -148.5q0 -191 -134 -288q-81 -60 -228 -60h-118h-125q0 10 0.5 31t0.5 30l62 3q4 0 4 5v219h-81q0 46 2 66q26 1 79 1zM251 288l-1 -199q0 -16 10.5 -22.5t43.5 -6.5
q107 0 168 55q34 31 53.5 86t19.5 112q0 80 -19 130.5t-62 90.5q-60 56 -167 56q-33 0 -44 -4l-2 -230q24 0 75.5 0.5t80.5 0.5q0 -27 -4 -69h-152z" />
    <glyph glyph-name="Ntilde" unicode="&#xd1;" horiz-adv-x="716" 
d="M44 63l58 3q4 0 4 4l-1 515l-67 3q0 43 1 62h165q165 -240 328 -496l6 1q-2 290 -4 431l-85 1q0 10 0.5 31.5t0.5 31.5h127q18 0 52.5 0.5t47.5 0.5v-62l-54 -3q-3 0 -3 -5l-4 -575q-32 -14 -82 -14q-173 229 -339 479h-7q0 -69 -0.5 -203.5t-0.5 -201.5l89 -2
q0 -10 -0.5 -31.5t-0.5 -31.5h-137q-17 0 -49.5 -0.5t-45.5 -0.5q0 43 1 63zM311 825q28 0 72 -26q40 -22 56 -22q15 0 24.5 12.5t11.5 32.5q23 2 47 0q-2 -46 -23.5 -79t-62.5 -33q-23 0 -69 27q-42 22 -59 22q-14 0 -25 -12.5t-13 -31.5q-23 -2 -46 0q2 44 26.5 77
t60.5 33z" />
    <glyph glyph-name="Ograve" unicode="&#xd2;" horiz-adv-x="725" 
d="M347 -10q-130 0 -211 83q-90 92 -90 246q0 93 40.5 169t102.5 117q84 55 194 55q97 0 171 -49q56 -38 90 -110t34 -158q0 -78 -26.5 -149.5t-77.5 -120.5q-86 -83 -227 -83zM366 55q76 0 121 53q62 75 62 213t-58 214q-45 60 -122 60q-73 0 -120 -48q-73 -73 -73 -219
q0 -148 63 -218q49 -55 127 -55zM292 868q30 -21 90 -65t75 -54q-9 -17 -29 -45q-19 10 -56.5 30.5t-69 37t-55.5 29.5q20 35 45 67z" />
    <glyph glyph-name="Oacute" unicode="&#xd3;" horiz-adv-x="725" 
d="M347 -10q-130 0 -211 83q-90 92 -90 246q0 93 40.5 169t102.5 117q84 55 194 55q97 0 171 -49q56 -38 90 -110t34 -158q0 -78 -26.5 -149.5t-77.5 -120.5q-86 -83 -227 -83zM366 55q76 0 121 53q62 75 62 213t-58 214q-45 60 -122 60q-73 0 -120 -48q-73 -73 -73 -219
q0 -148 63 -218q49 -55 127 -55zM466 868q22 -27 45 -67q-140 -75 -180 -97q-17 24 -30 44q29 21 88.5 64.5t76.5 55.5z" />
    <glyph glyph-name="Ocircumflex" unicode="&#xd4;" horiz-adv-x="725" 
d="M347 -10q-130 0 -211 83q-90 92 -90 246q0 93 40.5 169t102.5 117q84 55 194 55q97 0 171 -49q56 -38 90 -110t34 -158q0 -78 -26.5 -149.5t-77.5 -120.5q-86 -83 -227 -83zM366 55q76 0 121 53q62 75 62 213t-58 214q-45 60 -122 60q-73 0 -120 -48q-73 -73 -73 -219
q0 -148 63 -218q49 -55 127 -55zM379 779q-85 -53 -117 -73q-12 12 -32 38q64 52 129 106q12 1 39 1q19 -15 64 -52t65 -53q-13 -20 -33 -40q-16 10 -56 35.5t-59 37.5z" />
    <glyph glyph-name="Otilde" unicode="&#xd5;" horiz-adv-x="725" 
d="M347 -10q-130 0 -211 83q-90 92 -90 246q0 93 40.5 169t102.5 117q84 55 194 55q97 0 171 -49q56 -38 90 -110t34 -158q0 -78 -26.5 -149.5t-77.5 -120.5q-86 -83 -227 -83zM366 55q76 0 121 53q62 75 62 213t-58 214q-45 60 -122 60q-73 0 -120 -48q-73 -73 -73 -219
q0 -148 63 -218q49 -55 127 -55zM318 828q28 0 72 -26q40 -22 56 -22q15 0 24.5 12.5t11.5 32.5q23 2 47 0q-2 -46 -23.5 -79t-62.5 -33q-24 0 -70 27q-40 22 -58 22q-14 0 -25 -12t-13 -32q-23 -2 -46 0q2 44 26.5 77t60.5 33z" />
    <glyph glyph-name="Odieresis" unicode="&#xd6;" horiz-adv-x="725" 
d="M347 -10q-130 0 -211 83q-90 92 -90 246q0 93 40.5 169t102.5 117q84 55 194 55q97 0 171 -49q56 -38 90 -110t34 -158q0 -78 -26.5 -149.5t-77.5 -120.5q-86 -83 -227 -83zM366 55q76 0 121 53q62 75 62 213t-58 214q-45 60 -122 60q-73 0 -120 -48q-73 -73 -73 -219
q0 -148 63 -218q49 -55 127 -55zM290 817q23 0 36 -15.5t13 -34.5q0 -22 -14.5 -36.5t-37.5 -14.5q-21 0 -36 14.5t-15 36.5q0 19 14 34.5t40 15.5zM474 817q24 0 37.5 -15.5t13.5 -34.5q0 -22 -14.5 -36.5t-35.5 -14.5q-24 0 -38.5 14.5t-14.5 36.5q0 19 13.5 34.5
t38.5 15.5z" />
    <glyph glyph-name="multiply" unicode="&#xd7;" horiz-adv-x="541" 
d="M321 234q33 -34 93 -97t65 -68q-18 -21 -48 -47q-8 8 -160 163l-162 -162q-32 30 -47 46q77 78 159 165q-52 53 -147 148q22 25 54 53q76 -80 143 -148q70 71 147 152q28 -22 54 -53q-97 -97 -151 -152z" />
    <glyph glyph-name="Oslash" unicode="&#xd8;" horiz-adv-x="725" 
d="M387 660q98 0 174 -56q11 12 33.5 37.5t33.5 38.5q18 -13 54 -47q-12 -14 -36 -40t-35 -39q30 -37 49 -94.5t19 -116.5q0 -78 -26.5 -148.5t-75.5 -119.5q-88 -85 -228 -85q-107 0 -182 57q-23 -25 -81 -88q-23 19 -47 43q58 64 82 90q-74 84 -74 228q0 93 40.5 169
t104.5 118q83 53 195 53zM369 595q-77 0 -125 -51q-74 -78 -74 -227q0 -96 28 -145q90 108 146 172q18 22 156 185q-45 66 -131 66zM366 55q81 0 125 54q64 77 64 222q0 87 -25 137q-44 -52 -148 -175q-110 -125 -152 -174q51 -64 136 -64z" />
    <glyph glyph-name="Ugrave" unicode="&#xd9;" horiz-adv-x="672" 
d="M214 584l-2 -317q-1 -108 39 -159q36 -44 103 -44q59 0 99 42q42 44 42 163q0 218 -1 312q0 3 -4 3l-78 3q0 10 0.5 31t0.5 31h124q20 0 57 0.5t53 0.5q0 -42 -1 -63l-57 -3l-2 -308q-1 -150 -72 -221q-63 -65 -171 -65q-120 0 -183 60q-68 63 -68 211v318q0 6 -5 6
l-54 2q0 43 1 63q17 0 59 -0.5t62 -0.5q25 0 72 0.5t67 0.5q0 -43 -1 -63zM282 864q30 -21 90 -65t75 -54q-9 -17 -29 -45q-154 83 -182 97q27 45 46 67z" />
    <glyph glyph-name="Uacute" unicode="&#xda;" horiz-adv-x="672" 
d="M214 584l-2 -317q-1 -108 39 -159q36 -44 103 -44q59 0 99 42q42 44 42 163q0 218 -1 312q0 3 -4 3l-78 3q0 10 0.5 31t0.5 31h124q20 0 57 0.5t53 0.5q0 -42 -1 -63l-57 -3l-2 -308q-1 -150 -72 -221q-63 -65 -171 -65q-120 0 -183 60q-68 63 -68 211v318q0 6 -5 6
l-54 2q0 43 1 63q17 0 59 -0.5t62 -0.5q25 0 72 0.5t67 0.5q0 -43 -1 -63zM449 864q27 -37 45 -67q-24 -13 -55.5 -29.5t-69 -37t-56.5 -30.5q-17 24 -30 44q79 57 166 120z" />
    <glyph glyph-name="Ucircumflex" unicode="&#xdb;" horiz-adv-x="672" 
d="M214 584l-2 -317q-1 -108 39 -159q36 -44 103 -44q59 0 99 42q42 44 42 163q0 218 -1 312q0 3 -4 3l-78 3q0 10 0.5 31t0.5 31h124q20 0 57 0.5t53 0.5q0 -42 -1 -63l-57 -3l-2 -308q-1 -150 -72 -221q-63 -65 -171 -65q-120 0 -183 60q-68 63 -68 211v318q0 6 -5 6
l-54 2q0 43 1 63q17 0 59 -0.5t62 -0.5q25 0 72 0.5t67 0.5q0 -43 -1 -63zM359 778q-89 -55 -118 -73q-18 20 -32 38q118 96 130 106q12 1 39 1q41 -33 129 -105q-13 -20 -33 -40q-16 10 -56 35.5t-59 37.5z" />
    <glyph glyph-name="Udieresis" unicode="&#xdc;" horiz-adv-x="672" 
d="M214 584l-2 -317q-1 -108 39 -159q36 -44 103 -44q59 0 99 42q42 44 42 163q0 218 -1 312q0 3 -4 3l-78 3q0 10 0.5 31t0.5 31h124q20 0 57 0.5t53 0.5q0 -42 -1 -63l-57 -3l-2 -308q-1 -150 -72 -221q-63 -65 -171 -65q-120 0 -183 60q-68 63 -68 211v318q0 6 -5 6
l-54 2q0 43 1 63q17 0 59 -0.5t62 -0.5q25 0 72 0.5t67 0.5q0 -43 -1 -63zM269 817q23 0 36 -15.5t13 -34.5q0 -22 -14.5 -36.5t-37.5 -14.5q-21 0 -36 14.5t-15 36.5q0 19 14 34.5t40 15.5zM453 817q24 0 37.5 -15.5t13.5 -34.5q0 -22 -14.5 -36.5t-35.5 -14.5
q-24 0 -38.5 14.5t-14.5 36.5q0 19 13.5 34.5t38.5 15.5z" />
    <glyph glyph-name="Yacute" unicode="&#xdd;" horiz-adv-x="588" 
d="M157 63l72 3q5 0 5 5v176q-44 78 -182 333q-2 4 -5 4l-47 3q0 43 1 63q15 0 53 -0.5t57 -0.5q28 0 81.5 0.5t74.5 0.5q0 -43 -1 -63l-77 -4q43 -96 128 -261h5q87 159 129 257q1 3 -3 5l-70 2q0 43 1 63h132q15 0 45 0.5t42 0.5q0 -43 -1 -63l-48 -3q-18 -30 -90 -154
t-107 -181l-1 -182l84 -3q0 -43 -1 -64q-18 0 -67 0.5t-73 0.5q-21 0 -68.5 -0.5t-69.5 -0.5q0 43 1 63zM427 864q31 -42 45 -67q-24 -13 -55.5 -29.5t-69 -37t-56.5 -30.5q-19 27 -29 44q32 23 165 120z" />
    <glyph glyph-name="Thorn" unicode="&#xde;" horiz-adv-x="584" 
d="M115 69v516l-63 2q0 43 1 63h131h125q0 -40 -1 -59l-73 -3q-4 0 -4 -4v-62h44q84 0 140 -15q60 -18 95.5 -63t35.5 -101q0 -61 -33.5 -109t-83.5 -69q-61 -28 -147 -28h-53v-72l90 -3q0 -41 -1 -62q-19 0 -71 0.5t-78 0.5q-19 0 -59 -0.5t-58 -0.5q0 42 1 62l58 3
q4 0 4 4zM231 456l-2 -247q3 -9 48 -9q62 0 100 26q49 34 49 107q0 60 -40.5 93.5t-109.5 33.5q-33 0 -45 -4z" />
    <glyph glyph-name="germandbls" unicode="&#xdf;" horiz-adv-x="625" 
d="M22 423l64 2q6 0 6 7q1 75 17.5 118t60.5 77q78 60 170 60q66 0 113 -40q61 -56 51 -172q-52 -38 -65 -49q-37 -32 -37 -63q0 -27 16 -40t63 -33q60 -23 85.5 -56.5t25.5 -80.5q0 -83 -69 -130q-47 -33 -135 -33q-46 0 -95 11q-10 86 -14 126q25 6 63 12l14 -62
q2 -8 9 -11q19 -11 42 -11q33 0 53 16q23 18 23 53q0 32 -15.5 48.5t-68.5 37.5q-95 39 -95 125q0 11 3 21.5t5.5 17.5t11 18.5t11 14.5t13.5 15l11 13q34 36 39 42q6 79 -35 116q-23 22 -59 22q-44 0 -72 -31q-16 -18 -21 -50.5t-6 -105.5q0 -49 -0.5 -179.5t-0.5 -185.5
l27 -2q0 -10 -0.5 -30t-0.5 -30h-82q-18 0 -57 -0.5t-56 -0.5q0 40 1 60l54 3q4 0 4 5q0 195 -1 289h-73q0 26 2 66z" />
    <glyph glyph-name="agrave" unicode="&#xe0;" horiz-adv-x="483" 
d="M297 35h-5q-87 -45 -146 -45q-41 0 -80.5 31.5t-39.5 74.5q0 50 54.5 95.5t152.5 45.5h61q2 62 -16 90.5t-58 28.5q-53 0 -123 -62q-20 21 -42 52q103 92 205 92q60 0 101.5 -42.5t41.5 -114.5q0 -29 -1 -108t-1 -98q0 -7 1.5 -10t5.5 -2l61 2v-59q-48 -16 -137 -16
q-9 9 -35 45zM140 108q0 -21 17 -34t41 -13q45 0 93 33q2 2 2 7v79q-1 0 -15 0.5t-26 0.5q-56 0 -84 -20.5t-28 -52.5zM177 662q22 -22 70.5 -71t69.5 -70q-15 -19 -36 -40q-146 116 -157 124q23 28 53 57z" />
    <glyph glyph-name="aacute" unicode="&#xe1;" horiz-adv-x="483" 
d="M297 35h-5q-87 -45 -146 -45q-41 0 -80.5 31.5t-39.5 74.5q0 50 54.5 95.5t152.5 45.5h61q2 62 -16 90.5t-58 28.5q-53 0 -123 -62q-20 21 -42 52q103 92 205 92q60 0 101.5 -42.5t41.5 -114.5q0 -29 -1 -108t-1 -98q0 -7 1.5 -10t5.5 -2l61 2v-59q-48 -16 -137 -16
q-9 9 -35 45zM140 108q0 -21 17 -34t41 -13q45 0 93 33q2 2 2 7v79q-1 0 -15 0.5t-26 0.5q-56 0 -84 -20.5t-28 -52.5zM329 662q20 -18 53 -57q-20 -15 -76.5 -59t-85.5 -65q-24 26 -35 40q27 26 83.5 82t60.5 59z" />
    <glyph glyph-name="acircumflex" unicode="&#xe2;" horiz-adv-x="483" 
d="M297 35h-5q-87 -45 -146 -45q-41 0 -80.5 31.5t-39.5 74.5q0 50 54.5 95.5t152.5 45.5h61q2 62 -16 90.5t-58 28.5q-53 0 -123 -62q-20 21 -42 52q103 92 205 92q60 0 101.5 -42.5t41.5 -114.5q0 -29 -1 -108t-1 -98q0 -7 1.5 -10t5.5 -2l61 2v-59q-48 -16 -137 -16
q-9 9 -35 45zM140 108q0 -21 17 -34t41 -13q45 0 93 33q2 2 2 7v79q-1 0 -15 0.5t-26 0.5q-56 0 -84 -20.5t-28 -52.5zM243 573q-25 -24 -98 -94q-12 10 -38 33q9 11 50.5 59.5t61.5 71.5q15 1 48 1q19 -21 59 -68.5t53 -62.5q-24 -24 -37 -34q-38 37 -99 94z" />
    <glyph glyph-name="atilde" unicode="&#xe3;" horiz-adv-x="483" 
d="M297 35h-5q-87 -45 -146 -45q-41 0 -80.5 31.5t-39.5 74.5q0 50 54.5 95.5t152.5 45.5h61q2 62 -16 90.5t-58 28.5q-53 0 -123 -62q-20 21 -42 52q103 92 205 92q60 0 101.5 -42.5t41.5 -114.5q0 -29 -1 -108t-1 -98q0 -7 1.5 -10t5.5 -2l61 2v-59q-48 -16 -137 -16
q-9 9 -35 45zM140 108q0 -21 17 -34t41 -13q45 0 93 33q2 2 2 7v79q-1 0 -15 0.5t-26 0.5q-56 0 -84 -20.5t-28 -52.5zM178 614q9 0 16.5 -1.5t16 -6t13 -7t13.5 -9t12 -8.5q36 -23 49 -23q27 0 33 51q24 2 45 0q-6 -114 -80 -114q-22 0 -65 29q-3 2 -11 8t-11.5 8t-9.5 5.5
t-11 4.5t-11 1q-27 0 -36 -51h-45q4 50 24.5 81.5t57.5 31.5z" />
    <glyph glyph-name="adieresis" unicode="&#xe4;" horiz-adv-x="483" 
d="M297 35h-5q-87 -45 -146 -45q-41 0 -80.5 31.5t-39.5 74.5q0 50 54.5 95.5t152.5 45.5h61q2 62 -16 90.5t-58 28.5q-53 0 -123 -62q-20 21 -42 52q103 92 205 92q60 0 101.5 -42.5t41.5 -114.5q0 -29 -1 -108t-1 -98q0 -7 1.5 -10t5.5 -2l61 2v-59q-48 -16 -137 -16
q-9 9 -35 45zM140 108q0 -21 17 -34t41 -13q45 0 93 33q2 2 2 7v79q-1 0 -15 0.5t-26 0.5q-56 0 -84 -20.5t-28 -52.5zM154 601q24 0 36.5 -15.5t12.5 -34.5q0 -21 -14 -35.5t-37 -14.5q-21 0 -36 14.5t-15 35.5q0 19 14 34.5t39 15.5zM325 601q23 0 36.5 -15.5t13.5 -34.5
q0 -21 -15 -35.5t-36 -14.5q-23 0 -37 14.5t-14 35.5q0 20 13 35t39 15z" />
    <glyph glyph-name="aring" unicode="&#xe5;" horiz-adv-x="483" 
d="M297 35h-5q-87 -45 -146 -45q-41 0 -80.5 31.5t-39.5 74.5q0 50 54.5 95.5t153.5 45.5h60q2 62 -15.5 90.5t-58.5 28.5q-54 0 -122 -62q-26 27 -42 52q103 92 204 92q60 0 101.5 -42.5t41.5 -114.5q0 -29 -1 -108t-1 -98q0 -7 1.5 -10t5.5 -2l61 2v-59q-48 -16 -137 -16
q-9 9 -35 45zM140 108q0 -21 17 -34t41 -13q45 0 93 33q2 2 2 7v79q-1 0 -15 0.5t-26 0.5q-56 0 -84 -20.5t-28 -52.5zM246 676q46 0 74.5 -25t28.5 -64q0 -40 -30 -67t-75 -27t-75.5 25t-30.5 67q0 35 31 63t77 28zM244 634q-21 0 -34.5 -14.5t-13.5 -35.5t14.5 -35
t34.5 -14q23 0 35 14t12 36t-12.5 35.5t-35.5 13.5z" />
    <glyph glyph-name="ae" unicode="&#xe6;" horiz-adv-x="720" 
d="M336 53h-7q-99 -63 -185 -63q-39 0 -78.5 31.5t-39.5 73.5q0 50 54.5 96t152.5 46h60q2 62 -15.5 90.5t-56.5 28.5q-55 0 -123 -62q-19 21 -42 52q103 92 194 92q82 0 110 -78h5q53 78 153 78q81 0 124 -51q44 -53 44 -141q-2 -10 -18.5 -27t-24.5 -18q-44 -3 -238 -3
q1 -67 31 -100q31 -33 92 -33q58 0 134 30q11 -34 15 -61q-90 -44 -173 -44q-110 0 -168 63zM501 376q-38 0 -62 -29q-30 -37 -32 -89q116 0 161 2q11 0 11 11q0 46 -21 74q-20 31 -57 31zM201 60q25 0 55 11.5t49 26.5q4 3 3 7q-12 32 -15 75h-6t-14 0.5t-19 0.5
q-56 0 -84.5 -20t-28.5 -52q0 -21 17 -35t43 -14z" />
    <glyph glyph-name="ccedilla" unicode="&#xe7;" horiz-adv-x="419" 
d="M150 -73l71 64h-6q-61 0 -120 50t-59 145q0 109 73 180.5t189 71.5q62 0 100 -22q0 -17 -14.5 -46.5t-26.5 -36.5q-1 0 -9.5 4t-17 7.5t-20 7t-24.5 6t-24 2.5q-47 0 -73 -35q-35 -44 -35 -118q0 -71 34 -111q26 -31 80 -31q55 0 120 26q6 -20 15 -59q-51 -26 -112 -36
l-65 -61q28 -5 45 -23.5t17 -45.5q0 -41 -38 -67t-105 -27q-3 12 -5 44q77 5 77 43q0 18 -12 30q-14 13 -45 11q-2 4 -3.5 8.5t-3.5 10t-3 8.5z" />
    <glyph glyph-name="egrave" unicode="&#xe8;" horiz-adv-x="468" 
d="M36 194q0 103 63.5 173.5t165.5 70.5q83 0 125 -52q44 -53 44 -140q-2 -10 -18.5 -27.5t-24.5 -18.5q-44 -3 -238 -3q0 -66 30 -99q31 -33 92 -33q59 0 135 30q11 -34 15 -61q-93 -44 -174 -44q-99 0 -157 54.5t-58 149.5zM250 376q-40 0 -63 -29q-31 -40 -32 -90
q92 0 161 3q11 0 11 11q0 44 -20 75q-22 30 -57 30zM203 662q24 -23 72.5 -73t67.5 -68q-19 -25 -36 -40q-146 116 -157 124q23 28 53 57z" />
    <glyph glyph-name="eacute" unicode="&#xe9;" horiz-adv-x="468" 
d="M36 194q0 103 63.5 173.5t165.5 70.5q83 0 125 -52q44 -53 44 -140q-2 -10 -18.5 -27.5t-24.5 -18.5q-44 -3 -238 -3q0 -66 30 -99q31 -33 92 -33q59 0 135 30q11 -34 15 -61q-93 -44 -174 -44q-99 0 -157 54.5t-58 149.5zM250 376q-40 0 -63 -29q-31 -40 -32 -90
q92 0 161 3q11 0 11 11q0 44 -20 75q-22 30 -57 30zM328 662q20 -18 53 -57q-20 -15 -76.5 -59t-85.5 -65q-11 12 -35 40q23 22 72 70.5t72 70.5z" />
    <glyph glyph-name="ecircumflex" unicode="&#xea;" horiz-adv-x="468" 
d="M36 194q0 103 63.5 173.5t165.5 70.5q83 0 125 -52q44 -53 44 -140q-2 -10 -18.5 -27.5t-24.5 -18.5q-44 -3 -238 -3q0 -66 30 -99q31 -33 92 -33q59 0 135 30q11 -34 15 -61q-93 -44 -174 -44q-99 0 -157 54.5t-58 149.5zM250 376q-40 0 -63 -29q-31 -40 -32 -90
q92 0 161 3q11 0 11 11q0 44 -20 75q-22 30 -57 30zM262 573q-25 -24 -98 -94q-26 22 -38 34q17 19 55 64t57 66q15 1 48 1q12 -14 111 -131q-15 -16 -36 -34q-38 37 -99 94z" />
    <glyph glyph-name="edieresis" unicode="&#xeb;" horiz-adv-x="468" 
d="M36 194q0 103 63.5 173.5t165.5 70.5q83 0 125 -52q44 -53 44 -140q-2 -10 -18.5 -27.5t-24.5 -18.5q-44 -3 -238 -3q0 -66 30 -99q31 -33 92 -33q58 0 136 30q6 -20 15 -61q-93 -44 -175 -44q-99 0 -157 54.5t-58 149.5zM250 376q-40 0 -63 -29q-31 -40 -32 -90
q92 0 161 3q11 0 11 11q0 44 -20 75q-22 30 -57 30zM176 601q24 0 36.5 -15.5t12.5 -34.5q0 -21 -14 -35.5t-37 -14.5q-21 0 -36 14.5t-15 35.5q0 19 14 34.5t39 15.5zM347 601q23 0 36.5 -15.5t13.5 -34.5q0 -21 -15 -35.5t-36 -14.5q-23 0 -37 14.5t-14 35.5q0 20 13 35
t39 15z" />
    <glyph glyph-name="igrave" unicode="&#xec;" horiz-adv-x="288" 
d="M95 349l-71 3v18.5v23v18.5q20 2 64.5 8.5t79.5 12t39 5.5q1 0 1 -3q0 -55 -1 -188t-1 -184l64 -2q0 -41 -1 -60h-122q-19 0 -59 -0.5t-59 -0.5q0 41 1 60l61 3q4 0 4 4v282zM75 662q22 -22 70.5 -71t69.5 -70q-15 -19 -36 -40q-146 116 -157 124q23 28 53 57z" />
    <glyph glyph-name="iacute" unicode="&#xed;" horiz-adv-x="288" 
d="M95 349l-71 3v18.5v23v18.5q20 2 64.5 8.5t79.5 12t39 5.5q1 0 1 -3q0 -55 -1 -188t-1 -184l64 -2q0 -41 -1 -60h-122q-19 0 -59 -0.5t-59 -0.5q0 41 1 60l61 3q4 0 4 4v282zM213 662q20 -18 53 -57q-28 -21 -82.5 -63.5t-78.5 -60.5q-17 17 -35 40q22 22 71.5 70.5
t71.5 70.5z" />
    <glyph glyph-name="icircumflex" unicode="&#xee;" horiz-adv-x="288" 
d="M95 349l-71 3v18.5v23v18.5q20 2 64.5 8.5t79.5 12t39 5.5q1 0 1 -3q0 -55 -1 -188t-1 -184l64 -2q0 -41 -1 -60h-122q-19 0 -59 -0.5t-59 -0.5q0 41 1 60l61 3q4 0 4 4v282zM147 573q-48 -45 -97 -94q-22 17 -39 34q20 23 59 68.5t53 61.5q15 1 48 1q15 -18 54.5 -64.5
t56.5 -66.5q-15 -16 -36 -34q-38 37 -99 94z" />
    <glyph glyph-name="idieresis" unicode="&#xef;" horiz-adv-x="288" 
d="M95 349l-71 3v18.5v23v18.5q20 2 64.5 8.5t79.5 12t39 5.5q1 0 1 -3q0 -55 -1 -188t-1 -184l64 -2q0 -41 -1 -60h-122q-19 0 -59 -0.5t-59 -0.5q0 41 1 60l61 3q4 0 4 4v282zM58 601q24 0 36.5 -15.5t12.5 -34.5q0 -21 -14 -35.5t-37 -14.5q-21 0 -36 14.5t-15 35.5
q0 19 14 34.5t39 15.5zM228 601q23 0 36.5 -15.5t13.5 -34.5q0 -21 -15 -35.5t-36 -14.5q-23 0 -37 14.5t-14 35.5q0 20 13 35t39 15z" />
    <glyph glyph-name="eth" unicode="&#xf0;" horiz-adv-x="518" 
d="M350 395l7 3q-28 95 -80 149q-75 -56 -98 -74q-21 24 -34 43q24 19 87 66q-49 43 -139 55q7 36 13 57q105 -4 190 -59q77 59 96 74q21 -25 34 -46q-5 -4 -35.5 -26.5t-46.5 -34.5q57 -48 95 -131.5t38 -176.5q0 -167 -82 -247q-59 -57 -153 -57q-79 0 -126 37
q-79 61 -79 166q0 106 75 175q59 56 143 56q62 0 95 -29zM254 48q44 0 71 37q38 52 38 161q0 68 -16 85q-31 33 -86 33q-46 0 -75 -38q-30 -44 -30 -120q0 -96 39 -135q23 -23 59 -23z" />
    <glyph glyph-name="ntilde" unicode="&#xf1;" horiz-adv-x="580" 
d="M95 350l-71 2q0 10 0.5 29.5t0.5 27.5q19 3 59.5 10t72 12.5t33.5 5.5t2 -3q1 -7 4 -19.5t5 -22.5t3 -18l5 -1q71 43 100.5 54t64.5 11q33 0 61 -20.5t45 -49.5q20 -34 20 -79q0 -16 -3 -226l58 -2q0 -41 -1 -60h-115q-19 0 -56 -0.5t-52 -0.5v60l51 3q2 0 4 4v161
q0 75 -11 94q-17 31 -56 31q-22 0 -53 -14t-56 -34q-3 -104 -3 -242l60 -2q0 -10 -0.5 -30.5t-0.5 -29.5h-118q-18 0 -56.5 -0.5t-55.5 -0.5q0 41 1 60l55 3q3 0 3 4v283zM239 614q10 0 21 -3.5t16 -6.5t18.5 -12t15.5 -10q3 -2 10 -7t10 -6.5t8 -4.5t10 -4t10 -1
q27 0 33 51q24 2 45 0q-6 -114 -79 -114q-23 0 -66 29q-3 2 -11 8t-11.5 8t-9.5 5.5t-11 4.5t-11 1q-27 0 -36 -51h-45q4 50 24.5 81.5t58.5 31.5z" />
    <glyph glyph-name="ograve" unicode="&#xf2;" horiz-adv-x="522" 
d="M252 -10q-94 0 -146 48q-70 61 -70 166q0 117 89 188q61 46 148 46q77 0 130 -37q83 -60 83 -178q0 -60 -26 -111t-69 -82q-56 -40 -139 -40zM262 49q42 0 66 29q36 41 36 141q0 85 -31 126q-25 34 -69 34q-42 0 -67 -30q-38 -44 -38 -134q0 -95 37 -136q24 -30 66 -30z
M208 662q25 -25 76 -76.5t64 -64.5q-5 -7 -36 -40q-146 116 -157 124q23 28 53 57z" />
    <glyph glyph-name="oacute" unicode="&#xf3;" horiz-adv-x="522" 
d="M252 -10q-94 0 -146 48q-70 61 -70 166q0 117 89 188q61 46 148 46q77 0 130 -37q83 -60 83 -178q0 -60 -26 -111t-69 -82q-56 -40 -139 -40zM262 49q42 0 66 29q36 41 36 141q0 85 -31 126q-25 34 -69 34q-42 0 -67 -30q-38 -44 -38 -134q0 -95 37 -136q24 -30 66 -30z
M340 662q26 -23 53 -57q-20 -15 -76.5 -59t-85.5 -65q-11 12 -35 40q23 22 72 70.5t72 70.5z" />
    <glyph glyph-name="ocircumflex" unicode="&#xf4;" horiz-adv-x="522" 
d="M252 -10q-94 0 -146 48q-70 61 -70 166q0 117 89 188q61 46 148 46q77 0 130 -37q83 -60 83 -178q0 -60 -26 -111t-69 -82q-56 -40 -139 -40zM262 49q42 0 66 29q36 41 36 141q0 85 -31 126q-25 34 -69 34q-42 0 -67 -30q-38 -44 -38 -134q0 -95 37 -136q24 -30 66 -30z
M272 573q-15 -14 -48.5 -46.5t-49.5 -46.5q-30 25 -38 33q109 126 112 130q15 1 48 1q26 -30 111 -131q-15 -16 -36 -34q-38 37 -99 94z" />
    <glyph glyph-name="otilde" unicode="&#xf5;" horiz-adv-x="522" 
d="M252 -10q-94 0 -146 48q-70 61 -70 166q0 117 89 188q61 46 148 46q77 0 130 -37q83 -60 83 -178q0 -60 -26 -111t-69 -82q-56 -40 -139 -40zM262 49q42 0 66 29q36 41 36 141q0 85 -31 126q-25 34 -69 34q-42 0 -67 -30q-38 -44 -38 -134q0 -95 37 -136q24 -30 66 -30z
M216 614q10 0 21 -3.5t16 -6.5t18.5 -12t15.5 -10q3 -2 10 -7t10 -6.5t8 -4.5t10 -4t10 -1q27 0 33 51q24 2 45 0q-6 -114 -79 -114q-5 0 -10.5 0.5t-11 3t-8.5 3.5t-9.5 5t-8.5 5t-9.5 6t-8.5 6q-3 2 -11 8t-11.5 8t-9.5 5.5t-11 4.5t-11 1q-28 0 -36 -51h-14.5h-16.5h-14
q4 50 24.5 81.5t58.5 31.5z" />
    <glyph glyph-name="odieresis" unicode="&#xf6;" horiz-adv-x="522" 
d="M252 -10q-94 0 -146 48q-70 61 -70 166q0 117 89 188q61 46 148 46q77 0 130 -37q83 -60 83 -178q0 -60 -26 -111t-69 -82q-56 -40 -139 -40zM262 49q42 0 66 29q36 41 36 141q0 85 -31 126q-25 34 -69 34q-42 0 -67 -30q-38 -44 -38 -134q0 -95 37 -136q24 -30 66 -30z
M187 601q24 0 36.5 -15.5t12.5 -34.5q0 -21 -14 -35.5t-37 -14.5q-21 0 -36 14.5t-15 35.5q0 19 14 34.5t39 15.5zM357 601q23 0 36.5 -15.5t13.5 -34.5q0 -21 -15 -35.5t-36 -14.5q-23 0 -37 14.5t-14 35.5q0 20 13 35t39 15z" />
    <glyph glyph-name="divide" unicode="&#xf7;" horiz-adv-x="541" 
d="M214 397q0 24 16.5 41t41.5 17q24 0 39.5 -16.5t15.5 -41.5t-15.5 -42.5t-41.5 -17.5q-24 0 -40 17.5t-16 42.5zM477 203h-415q0 25 2 69q47 0 416 3q0 -39 -3 -72zM214 83q0 24 16.5 41t41.5 17q24 0 39.5 -17t15.5 -44q-1 -23 -15.5 -40t-39.5 -17q-26 0 -42 17t-16 43
z" />
    <glyph glyph-name="oslash" unicode="&#xf8;" horiz-adv-x="522" 
d="M274 438q64 0 114 -30q15 19 56 67q28 -21 49 -44q-29 -34 -55 -63q48 -55 48 -144q0 -61 -26 -112.5t-72 -83.5q-56 -38 -135 -38q-68 0 -117 28q-13 -14 -36 -40t-30 -33q-16 13 -43 40q34 38 61 71q-52 55 -52 147q0 118 87 186q61 49 151 49zM264 379q-42 0 -72 -31
q-42 -50 -42 -136q0 -50 14 -79q31 37 88.5 108t84.5 103q-26 35 -73 35zM264 48q42 0 67 29q42 45 42 138q0 46 -12 73q-26 -31 -83.5 -100.5t-87.5 -105.5q26 -34 74 -34z" />
    <glyph glyph-name="ugrave" unicode="&#xf9;" horiz-adv-x="545" 
d="M358 42h-5q-61 -35 -87 -43.5t-59 -8.5q-48 0 -90 44.5t-42 93.5q0 43 0.5 121.5t0.5 111.5l-54 2q0 21 2 61q15 0 54.5 1.5t71.5 2.5t37 1q3 0 3 -3q-3 -222 -3 -236q0 -70 14 -91q19 -30 56 -30q43 0 94 38v254l-58 2q0 11 0.5 32t0.5 31q111 3 170 3q1 0 1 -4
q0 -54 -1 -172.5t-1 -177.5q0 -11 6 -11l62 2q0 -40 -1 -59q-10 -4 -54 -10.5t-80 -6.5q-17 14 -38 52zM200 662l141 -141q-11 -14 -36 -39q-11 8 -69.5 54.5t-88.5 68.5q16 20 53 57z" />
    <glyph glyph-name="uacute" unicode="&#xfa;" horiz-adv-x="545" 
d="M358 42h-5q-61 -35 -87 -43.5t-59 -8.5q-48 0 -90 44.5t-42 93.5q0 43 0.5 121.5t0.5 111.5l-54 2q0 21 2 61q15 0 54.5 1.5t71.5 2.5t37 1q3 0 3 -3q-3 -222 -3 -236q0 -70 14 -91q19 -30 56 -30q43 0 94 38v254l-58 2q0 11 0.5 32t0.5 31q111 3 170 3q1 0 1 -4
q0 -54 -1 -172.5t-1 -177.5q0 -11 6 -11l62 2q0 -40 -1 -59q-10 -4 -54 -10.5t-80 -6.5q-17 14 -38 52zM341 662q26 -23 53 -57q-20 -15 -76.5 -59t-85.5 -65q-17 17 -35 40q5 5 61 60t83 81z" />
    <glyph glyph-name="ucircumflex" unicode="&#xfb;" horiz-adv-x="545" 
d="M358 42h-5q-61 -35 -87 -43.5t-59 -8.5q-48 0 -90 44.5t-42 93.5q0 43 0.5 121.5t0.5 111.5l-54 2q0 21 2 61q15 0 54.5 1.5t71.5 2.5t37 1q3 0 3 -3q-3 -222 -3 -236q0 -70 14 -91q19 -30 56 -30q43 0 94 38v254l-58 2q0 11 0.5 32t0.5 31q111 3 170 3q1 0 1 -4
q0 -54 -1 -172.5t-1 -177.5q0 -11 6 -11l62 2q0 -40 -1 -59q-10 -4 -54 -10.5t-80 -6.5q-17 14 -38 52zM268 573q-23 -22 -97 -93q-26 20 -39 33q101 118 112 130q16 1 48 1q19 -21 59 -68.5t53 -62.5q-17 -18 -37 -34q-69 67 -99 94z" />
    <glyph glyph-name="udieresis" unicode="&#xfc;" horiz-adv-x="545" 
d="M358 42h-5q-61 -35 -87 -43.5t-59 -8.5q-48 0 -90 44.5t-42 93.5q0 43 0.5 121.5t0.5 111.5l-54 2q0 21 2 61q15 0 54.5 1.5t71.5 2.5t37 1q3 0 3 -3q-3 -222 -3 -236q0 -70 14 -91q19 -30 56 -30q43 0 94 38v254l-58 2q0 11 0.5 32t0.5 31q111 3 170 3q1 0 1 -4
q0 -54 -1 -172.5t-1 -177.5q0 -11 6 -11l62 2q0 -40 -1 -59q-10 -4 -54 -10.5t-80 -6.5q-17 14 -38 52zM181 601q24 0 36.5 -15.5t12.5 -34.5q0 -21 -14 -35.5t-37 -14.5q-21 0 -36 14.5t-15 35.5q0 19 14 34.5t39 15.5zM352 601q23 0 36.5 -15.5t13.5 -34.5
q0 -21 -15 -35.5t-36 -14.5q-23 0 -37 14.5t-14 35.5q0 20 13 35t39 15z" />
    <glyph glyph-name="yacute" unicode="&#xfd;" horiz-adv-x="484" 
d="M486 367l-41 -2q-31 -83 -83 -206q-89 -216 -153 -313q-51 -77 -82 -96q-18 0 -52.5 24t-34.5 37q46 30 83 68q54 59 74 109q-58 142 -85 214q-50 134 -60 159q0 3 -5 3l-45 3q0 10 0.5 30.5t1.5 30.5h100h130q0 -41 -1 -61l-60 -3q13 -45 40 -123q10 -33 49 -141h6
q25 66 44 125q24 73 40 134q0 5 -4 5l-49 2q0 43 1 61q15 0 52 0.5t55 0.5h80q0 -41 -1 -61zM343 662q24 -21 53 -57q-121 -93 -161 -124q-11 12 -35 40q26 25 77 75.5t66 65.5z" />
    <glyph glyph-name="thorn" unicode="&#xfe;" horiz-adv-x="534" 
d="M184 383h5q65 35 92.5 45t59.5 10q67 0 112 -58.5t45 -131.5q0 -72 -25 -130q-23 -53 -76 -95q-45 -33 -113 -33q-55 0 -96 19l-6 -2q1 -53 1 -176l87 -2q0 -22 -2 -60q-94 0 -141 -1q-79 0 -113 -1v59l54 4q4 0 4 6v711l-72 2q0 40 1 59q19 2 64 9t80.5 12.5t39.5 5.5
q2 0 2 -3q0 -54 -3 -249zM378 216q0 66 -18 97q-25 41 -69 41q-49 0 -105 -39q-1 -67 -1 -215q-1 -15 27.5 -29.5t56.5 -14.5q47 0 71 30q38 45 38 130z" />
    <glyph glyph-name="ydieresis" unicode="&#xff;" horiz-adv-x="484" 
d="M486 367l-41 -2q-31 -83 -83 -206q-89 -216 -153 -313q-51 -77 -82 -96q-18 0 -52.5 24t-34.5 37q46 30 83 68q54 59 74 109q-58 142 -85 214q-50 134 -60 159q0 3 -5 3l-45 3q0 10 0.5 30.5t1.5 30.5h100h130q0 -41 -1 -61l-60 -3q13 -45 40 -123q10 -33 49 -141h6
q25 66 44 125q24 73 40 134q0 5 -4 5l-49 2q0 43 1 61q15 0 52 0.5t55 0.5h80q0 -41 -1 -61zM172 601q24 0 36.5 -15.5t12.5 -34.5q0 -21 -14 -35.5t-37 -14.5q-21 0 -36 14.5t-15 35.5q0 19 14 34.5t39 15.5zM342 601q23 0 36.5 -15.5t13.5 -34.5q0 -21 -15 -35.5
t-36 -14.5q-23 0 -37 14.5t-14 35.5q0 20 13 35t39 15z" />
    <glyph glyph-name="Amacron" unicode="&#x100;" horiz-adv-x="619" 
d="M-11 62l51 3q5 2 6 5q26 68 222 586q28 2 90 2q35 -96 108.5 -308.5t98.5 -283.5l57 -3q0 -42 -1 -62h-105q-25 0 -74.5 -0.5t-69.5 -0.5q0 42 1 63l66 3q5 0 2 5q-33 97 -38 109q-1 4 -6 4l-217 -1q-34 -104 -38 -118l75 -2q0 -42 -1 -62h-136q-16 0 -47 -0.5t-45 -0.5
q0 42 1 62zM296 514h-5q-14 -41 -45 -131t-45 -130q-1 -6 2 -6h181q-30 90 -88 267zM430 794q2 -29 0 -59q-36 0 -119.5 0.5t-124.5 0.5q-2 26 0 56q42 0 122.5 1t121.5 1z" />
    <glyph glyph-name="amacron" unicode="&#x101;" horiz-adv-x="483" 
d="M297 35h-5q-87 -45 -146 -45q-41 0 -80.5 31.5t-39.5 74.5q0 50 54.5 95.5t152.5 45.5h61q2 62 -16 90.5t-58 28.5q-53 0 -123 -62q-20 21 -42 52q103 92 205 92q60 0 101.5 -42.5t41.5 -114.5q0 -29 -1 -108t-1 -98q0 -7 1.5 -10t5.5 -2l61 2v-59q-48 -16 -137 -16
q-9 9 -35 45zM140 108q0 -21 17 -34t41 -13q45 0 93 33q2 2 2 7v79q-1 0 -15 0.5t-26 0.5q-56 0 -84 -20.5t-28 -52.5zM351 573q2 -29 0 -59q-31 0 -106 0.5t-111 0.5q-2 27 0 56q146 2 217 2z" />
    <glyph glyph-name="Abreve" unicode="&#x102;" horiz-adv-x="619" 
d="M-11 62l51 3q5 2 6 5q26 68 222 586q28 2 90 2q35 -96 108.5 -308.5t98.5 -283.5l57 -3q0 -42 -1 -62h-105q-25 0 -74.5 -0.5t-69.5 -0.5q0 42 1 63l66 3q5 0 2 5q-33 97 -38 109q-1 4 -6 4l-217 -1q-34 -104 -38 -118l75 -2q0 -42 -1 -62h-136q-16 0 -47 -0.5t-45 -0.5
q0 42 1 62zM296 514h-5q-14 -41 -45 -131t-45 -130q-1 -6 2 -6h181q-30 90 -88 267zM311 741q-52 0 -92 31.5t-48 76.5q26 10 50 14q12 -27 37.5 -43.5t55.5 -16.5q31 0 56 17t34 40q25 -3 51 -11q-8 -41 -49 -74.5t-95 -33.5z" />
    <glyph glyph-name="abreve" unicode="&#x103;" horiz-adv-x="483" 
d="M297 35h-5q-87 -45 -146 -45q-41 0 -80.5 31.5t-39.5 74.5q0 50 54.5 95.5t152.5 45.5h61q2 62 -16 90.5t-58 28.5q-53 0 -123 -62q-20 21 -42 52q103 92 205 92q60 0 101.5 -42.5t41.5 -114.5q0 -29 -1 -108t-1 -98q0 -7 1.5 -10t5.5 -2l61 2v-59q-48 -16 -137 -16
q-9 9 -35 45zM140 108q0 -21 17 -34t41 -13q45 0 93 33q2 2 2 7v79q-1 0 -15 0.5t-26 0.5q-56 0 -84 -20.5t-28 -52.5zM240 496q-48 0 -83.5 30.5t-43.5 75.5q23 10 51 15q23 -60 79 -60q28 0 48 16.5t28 39.5q23 -3 52 -10q-7 -41 -44 -74t-87 -33z" />
    <glyph glyph-name="Aogonek" unicode="&#x104;" horiz-adv-x="619" 
d="M296 514h-5q-14 -41 -45 -131t-45 -130q-1 -6 2 -6h180q-15 45 -46 140t-41 127zM332 -126q0 70 93 126h-53q0 42 1 62l66 3q5 2 2 5q-28 85 -38 110q-1 4 -6 4l-217 -1q-34 -104 -38 -118l75 -2q0 -42 -1 -63h-136h-92q0 42 1 62l51 3q4 0 6 5q26 68 222 586q54 2 90 2
q35 -96 108.5 -308.5t98.5 -283.5l57 -3q0 -42 -1 -63h-105h-43q-64 -52 -64 -110q0 -24 14.5 -37.5t35.5 -13.5q14 0 43 8q8 -23 11 -42q-33 -19 -74 -19q-43 0 -75 23t-32 65z" />
    <glyph glyph-name="aogonek" unicode="&#x105;" horiz-adv-x="483" 
d="M140 108q0 -21 17 -34t41 -13q45 0 93 33q2 2 2 7v79q-1 0 -15 0.5t-26 0.5q-56 0 -84 -20.5t-28 -52.5zM247 -125q0 66 85 115q-9 9 -35 45h-5q-87 -45 -146 -45q-41 0 -80.5 31.5t-39.5 74.5q0 50 54.5 95.5t152.5 45.5h61q2 62 -16 90.5t-58 28.5q-53 0 -123 -62
q-20 21 -42 52q103 92 205 92q60 0 101.5 -42.5t41.5 -114.5q0 -33 -1 -105t-1 -101q0 -7 1.5 -10t5.5 -2l61 2v-59q-2 -1 -37 -6.5t-56 -13.5q-58 -33 -58 -96q0 -24 14 -36t34 -12q19 0 39 8q9 -24 11 -40q-30 -18 -69 -18q-40 0 -70 22t-30 61z" />
    <glyph glyph-name="Cacute" unicode="&#x106;" horiz-adv-x="596" 
d="M46 288q0 186 135 295q95 77 235 77q86 0 129 -18q7 -90 12 -184q-22 -4 -77 -10l-19 106q-3 12 -8 14q-25 16 -67 16q-78 0 -132 -54q-80 -83 -80 -215q0 -125 60 -188q54 -57 146 -57q86 0 168 36q9 -32 14 -69q-118 -47 -205 -47q-121 0 -201 60q-50 37 -80 99.5
t-30 138.5zM474 871q19 -25 45 -67q-24 -13 -55.5 -29.5t-69 -37t-56.5 -30.5q-19 27 -29 44q32 23 165 120z" />
    <glyph glyph-name="cacute" unicode="&#x107;" horiz-adv-x="419" 
d="M36 187q0 108 73 179.5t189 71.5q62 0 100 -22q0 -17 -14.5 -46.5t-26.5 -36.5q-1 0 -9.5 4t-17 7.5t-20 7t-24.5 6t-24 2.5q-46 0 -73 -34q-35 -46 -35 -119q0 -71 34 -111q26 -31 81 -31q45 0 120 28q11 -39 14 -59q-87 -44 -170 -44q-84 0 -140.5 53t-56.5 144z
M348 662q20 -18 53 -57q-20 -15 -76.5 -59t-85.5 -65q-11 12 -35 40q23 22 72 70.5t72 70.5z" />
    <glyph glyph-name="Ccaron" unicode="&#x10c;" horiz-adv-x="596" 
d="M46 288q0 186 135 295q95 77 235 77q86 0 129 -18q7 -90 12 -184q-22 -4 -77 -10l-19 106q-3 12 -8 14q-25 16 -67 16q-78 0 -132 -54q-80 -83 -80 -215q0 -125 60 -188q54 -57 146 -57q86 0 168 36q9 -32 14 -69q-118 -47 -205 -47q-121 0 -201 60q-50 37 -80 99.5
t-30 138.5zM361 788q58 38 116 74q13 -12 33 -40q-21 -17 -66.5 -54t-63.5 -51h-11.5h-15h-12.5q-70 58 -128 105q16 23 31 39q64 -40 117 -73z" />
    <glyph glyph-name="ccaron" unicode="&#x10d;" horiz-adv-x="419" 
d="M36 187q0 108 73 179.5t189 71.5q62 0 100 -22q0 -17 -14.5 -46.5t-26.5 -36.5q-1 0 -9.5 4t-17 7.5t-20 7t-24.5 6t-24 2.5q-46 0 -73 -34q-35 -46 -35 -119q0 -71 34 -111q26 -31 81 -31q45 0 120 28q11 -39 14 -59q-87 -44 -170 -44q-84 0 -140.5 53t-56.5 144z
M258 562q24 23 99 95q13 -10 37 -34q-17 -20 -57 -67t-55 -65q-33 0 -49 1q-4 5 -46.5 55.5t-64.5 75.5q18 18 38 33q26 -25 98 -94z" />
    <glyph glyph-name="Dcaron" unicode="&#x10e;" horiz-adv-x="699" 
d="M49 61l62 3q4 0 4 4v516l-67 2q0 42 1 63q124 2 222 2q153 0 239 -49q64 -36 103.5 -104.5t39.5 -149.5q0 -94 -35.5 -169t-98.5 -120q-85 -59 -228 -59h-118h-125q0 42 1 61zM234 586l-2 -496q0 -17 11 -23.5t44 -6.5q106 0 167 55q34 32 53.5 86.5t19.5 112.5
q0 80 -19.5 131t-64.5 92q-59 53 -161 53q-36 0 -48 -4zM302 784q58 38 116 74q16 -15 33 -40q-13 -11 -60.5 -49t-70.5 -56h-38q-78 65 -129 105q18 25 32 39q15 -9 55.5 -34.5t61.5 -38.5z" />
    <glyph glyph-name="dcaron" unicode="&#x10f;" horiz-adv-x="624" 
d="M359 35h-6q-60 -29 -86.5 -37t-51.5 -8q-72 0 -120 48q-59 59 -59 153q0 106 71 185q56 62 144 62q44 0 94 -16l5 3q0 59 -2 187l-80 2q0 41 1 60q23 3 69.5 9.5t82 11.5t40.5 5q2 0 2 -3q0 -83 -1.5 -301.5t-1.5 -315.5q0 -16 9 -16l61 3v-59q-13 -5 -58 -11.5t-80 -6.5
q-18 13 -33 45zM265 367q-51 0 -78 -39q-31 -45 -31 -124q0 -67 27 -105q25 -35 68 -35q45 0 92 30q5 4 5 15v237q-40 21 -83 21zM564 700q26 0 46.5 -22.5t20.5 -51.5q0 -45 -29 -84.5t-76 -63.5q-15 15 -29 32q59 38 59 81q0 29 -44 41q-4 28 12 48t40 20z" />
    <glyph glyph-name="Dcroat" unicode="&#x110;" horiz-adv-x="717" 
d="M133 355l1 229l-68 2q0 10 0.5 31t0.5 32q126 2 221 2q155 0 240 -49q64 -36 103.5 -105.5t39.5 -148.5q0 -191 -134 -288q-81 -60 -228 -60h-118h-125q0 10 0.5 31t0.5 30l62 3q4 0 4 5v219h-81q0 46 2 66q26 1 79 1zM251 288l-1 -199q0 -16 10.5 -22.5t43.5 -6.5
q107 0 168 55q34 31 53.5 86t19.5 112q0 80 -19 130.5t-62 90.5q-60 56 -167 56q-33 0 -44 -4l-2 -230q24 0 75.5 0.5t80.5 0.5q0 -27 -4 -69h-152z" />
    <glyph glyph-name="dcroat" unicode="&#x111;" horiz-adv-x="541" 
d="M156 203q0 -66 27 -104q25 -35 69 -35t91 30q5 3 5 15v237q-40 21 -82 21q-52 0 -79 -39q-31 -45 -31 -125zM349 505l-113 1q0 18 2 50q16 0 53 0.5t58 0.5q0 9 -0.5 27.5t-0.5 27.5l-80 2q0 41 1 60q23 3 69.5 9.5t82 11.5t40.5 5q2 0 2 -3v-139q10 0 28.5 0.5t26.5 0.5
q0 -29 -3 -54h-53q-2 -288 -2 -425q0 -16 9 -16l61 3v-59q-13 -5 -58 -11.5t-80 -6.5q-18 13 -33 45h-6q-60 -29 -86.5 -37t-51.5 -8q-72 0 -120 48q-59 59 -59 153q0 106 71 185q56 62 144 62q44 0 94 -16l5 3q0 54 -1 80z" />
    <glyph glyph-name="Emacron" unicode="&#x112;" horiz-adv-x="566" 
d="M51 62l61 3q4 0 4 4v515l-67 3q0 23 2 63q17 0 59 -0.5t63 -0.5q16 0 115.5 0.5t110.5 0.5h92q6 -78 9 -162q-36 -5 -72 -8l-16 82q-3 16 -21 18q-52 5 -136 5h-21l-1 -222q22 0 63.5 0.5t63.5 1.5q17 0 19 19l5 44q48 0 69 -1q0 -15 -0.5 -48.5t-0.5 -50.5t-0.5 -49.5
t-0.5 -45.5q-42 -2 -69 -2l-4 47q-1 20 -20 20q-77 2 -125 1l-1 -213q0 -14 8.5 -17.5t45.5 -3.5q95 0 123 7q12 3 18 19l31 86q33 -4 71 -13q-19 -92 -36 -165q-13 0 -125.5 0.5t-191.5 0.5q-23 0 -65.5 -0.5t-60.5 -0.5q0 43 1 63zM400 794q2 -29 0 -59q-36 0 -119.5 0.5
t-124.5 0.5q-2 26 0 56q41 0 121.5 1t122.5 1z" />
    <glyph glyph-name="emacron" unicode="&#x113;" horiz-adv-x="468" 
d="M36 194q0 103 63.5 173.5t165.5 70.5q83 0 125 -52q44 -53 44 -140q-2 -10 -18.5 -27.5t-24.5 -18.5q-44 -3 -238 -3q0 -66 30 -99q31 -33 92 -33q59 0 135 30q11 -34 15 -61q-93 -44 -174 -44q-99 0 -157 54.5t-58 149.5zM250 376q-40 0 -63 -29q-31 -40 -32 -90
q92 0 161 3q11 0 11 11q0 44 -20 75q-22 30 -57 30zM358 572q2 -30 0 -59q-30 0 -105 0.5t-112 0.5q-2 27 0 56q146 2 217 2z" />
    <glyph glyph-name="Edotaccent" unicode="&#x116;" horiz-adv-x="566" 
d="M51 62l61 3q4 0 4 4v515l-67 3q0 23 2 63q17 0 59 -0.5t63 -0.5q16 0 115.5 0.5t110.5 0.5h92q6 -78 9 -162q-36 -5 -72 -8l-16 82q-3 16 -21 18q-52 5 -136 5h-21l-1 -222q22 0 63.5 0.5t63.5 1.5q17 0 19 19l5 44q48 0 69 -1q0 -15 -0.5 -48.5t-0.5 -50.5t-0.5 -49.5
t-0.5 -45.5q-42 -2 -69 -2l-4 47q-1 20 -20 20q-77 2 -125 1l-1 -213q0 -14 8.5 -17.5t45.5 -3.5q95 0 123 7q12 3 18 19l31 86q33 -4 71 -13q-19 -92 -36 -165q-13 0 -125.5 0.5t-191.5 0.5q-23 0 -65.5 -0.5t-60.5 -0.5q0 43 1 63zM281 825q26 0 40.5 -16.5t14.5 -37.5
q0 -24 -16 -40t-41 -16q-23 0 -39.5 15.5t-16.5 39.5q0 21 15.5 38t42.5 17z" />
    <glyph glyph-name="edotaccent" unicode="&#x117;" horiz-adv-x="468" 
d="M36 194q0 103 63.5 173.5t165.5 70.5q83 0 125 -52q44 -53 44 -140q-2 -10 -18.5 -27.5t-24.5 -18.5q-44 -3 -238 -3q0 -66 30 -99q31 -33 92 -33q59 0 135 30q11 -34 15 -61q-93 -44 -174 -44q-99 0 -157 54.5t-58 149.5zM250 376q-40 0 -63 -29q-31 -40 -32 -90
q92 0 161 3q11 0 11 11q0 44 -20 75q-22 30 -57 30zM259 616q26 0 40 -16t14 -38q0 -23 -15.5 -39t-40.5 -16q-23 0 -39 15.5t-16 39.5q0 21 15 37.5t42 16.5z" />
    <glyph glyph-name="Eogonek" unicode="&#x118;" horiz-adv-x="566" 
d="M349 -128q0 32 25.5 66t73.5 62q-37 0 -127.5 0.5t-144.5 0.5q-23 0 -65.5 -0.5t-60.5 -0.5q0 43 1 62l61 3q4 0 4 4v516l-67 2q0 23 2 63h122q167 0 226 1h92q6 -81 9 -163q-8 -1 -33 -4t-39 -4l-16 83q-3 15 -21 17q-52 5 -136 5h-21l-1 -222q22 0 63.5 0.5t63.5 1.5
q17 0 19 19l5 44q48 0 69 -1q0 -15 -0.5 -48.5t-0.5 -50.5q-1 -33 -1 -95q-42 -2 -69 -2l-4 47q-3 20 -20 20q-77 2 -125 1l-1 -213q0 -14 8.5 -17.5t45.5 -3.5q86 0 123 7q11 3 18 19l31 87q37 -6 71 -14q-20 -100 -36 -164q-29 -22 -49 -53.5t-20 -58.5q0 -24 15.5 -37.5
t36.5 -13.5q13 0 42 8q8 -21 12 -42q-35 -19 -75 -19q-43 0 -74.5 23t-31.5 65z" />
    <glyph glyph-name="eogonek" unicode="&#x119;" horiz-adv-x="468" 
d="M250 376q-40 0 -62 -29q-31 -40 -33 -90q85 0 161 3q11 0 11 11q0 44 -20 75q-22 30 -57 30zM251 -98q0 44 56 94q-36 -6 -55 -6q-100 0 -158 54t-58 149q0 104 64 174.5t166 70.5q83 0 125 -52q44 -53 44 -140q-2 -10 -18.5 -27.5t-24.5 -18.5q-69 -3 -238 -3
q0 -66 30 -99q31 -33 91 -33q58 0 136 30q11 -34 15 -61q-4 -2 -22 -10t-28 -14q-53 -34 -53 -93q0 -23 13.5 -35.5t34.5 -12.5q16 0 39 7q8 -26 11 -39q-30 -18 -69 -18q-41 0 -71 22t-30 61z" />
    <glyph glyph-name="Ecaron" unicode="&#x11a;" horiz-adv-x="566" 
d="M51 62l61 3q4 0 4 4v515l-67 3q0 23 2 63q17 0 59 -0.5t63 -0.5q16 0 115.5 0.5t110.5 0.5h92q6 -78 9 -162q-36 -5 -72 -8l-16 82q-3 16 -21 18q-52 5 -136 5h-21l-1 -222q22 0 63.5 0.5t63.5 1.5q17 0 19 19l5 44q48 0 69 -1q0 -15 -0.5 -48.5t-0.5 -50.5t-0.5 -49.5
t-0.5 -45.5q-42 -2 -69 -2l-4 47q-1 20 -20 20q-77 2 -125 1l-1 -213q0 -14 8.5 -17.5t45.5 -3.5q95 0 123 7q12 3 18 19l31 86q33 -4 71 -13q-19 -92 -36 -165q-13 0 -125.5 0.5t-191.5 0.5q-23 0 -65.5 -0.5t-60.5 -0.5q0 43 1 63zM281 783q23 15 69 44.5t47 30.5
q16 -15 33 -40q-21 -17 -66.5 -54.5t-63.5 -51.5q-27 0 -39 1q-29 25 -127 104q12 18 31 39q82 -51 116 -73z" />
    <glyph glyph-name="ecaron" unicode="&#x11b;" horiz-adv-x="468" 
d="M36 194q0 103 63.5 173.5t165.5 70.5q83 0 125 -52q44 -53 44 -140q-2 -10 -18.5 -27.5t-24.5 -18.5q-44 -3 -238 -3q0 -66 30 -99q31 -33 92 -33q59 0 135 30q11 -34 15 -61q-93 -44 -174 -44q-99 0 -157 54.5t-58 149.5zM250 376q-40 0 -63 -29q-31 -40 -32 -90
q92 0 161 3q11 0 11 11q0 44 -20 75q-22 30 -57 30zM260 562q91 88 98 95q13 -10 37 -34q-14 -16 -54 -64t-58 -68q-33 0 -48 1q-4 5 -46.5 55.5t-64.5 75.5q22 22 38 33q13 -12 47 -44.5t51 -49.5z" />
    <glyph glyph-name="Gbreve" unicode="&#x11e;" horiz-adv-x="671" 
d="M506 447l-16 102q-4 13 -8 16q-30 24 -85 24q-81 0 -138 -54q-82 -77 -82 -217q0 -130 64 -197q61 -67 161 -67q26 0 44 6t19 13v155l-95 2q0 45 1 65h151h112q1 -21 -1 -65l-47 -2q-4 0 -4 -4l-3 -200q-56 -34 -184 -34q-153 0 -238 68q-110 92 -110 246q0 95 40 169
t107 121q91 66 230 66q97 0 151 -26q6 -87 9 -180q-21 -3 -78 -7zM376 719q-52 0 -92 31.5t-48 76.5q26 10 50 14q12 -27 37 -43.5t56 -16.5q30 0 55 17t35 40q26 -3 51 -11q-8 -41 -49 -74.5t-95 -33.5z" />
    <glyph glyph-name="gbreve" unicode="&#x11f;" horiz-adv-x="496" 
d="M138 115v6q-40 19 -69.5 55t-29.5 88q0 72 59.5 123t150.5 51q51 0 80 -8q15 -3 22 -3q105 5 139 7q3 -29 1 -67q-21 -1 -89 -1l-1 -3q29 -32 29 -85q0 -65 -45 -113q-60 -62 -180 -57q-37 -30 -37 -44q0 -18 22 -23t95 -7q71 -3 103.5 -8.5t55.5 -21.5
q25 -18 35.5 -35.5t10.5 -49.5q0 -45 -30 -82.5t-86 -59.5q-71 -27 -160 -27q-97 0 -151.5 30.5t-54.5 86.5q0 22 21 39q18 13 47 32.5t42 29.5v6q-66 22 -66 77q0 8 12.5 17.5t73.5 46.5zM154 271q0 -109 81 -109q37 0 59.5 30t22.5 87q0 51 -20 78q-18 26 -58 26
q-39 0 -62 -29.5t-23 -82.5zM379 -104q0 28 -18.5 37.5t-76.5 14.5q-25 2 -59.5 4.5t-44.5 2.5q-21 -21 -30 -30.5t-17.5 -24.5t-8.5 -29q0 -31 33 -47t77 -16q64 0 102 21q43 25 43 67zM257 496q-48 0 -83.5 30.5t-43.5 75.5q22 10 50 15q25 -60 80 -60q28 0 48 16.5
t28 39.5q21 -2 51 -10q-6 -40 -43 -73.5t-87 -33.5z" />
    <glyph glyph-name="Gcommaaccent" unicode="&#x122;" horiz-adv-x="671" 
d="M506 447l-16 102q-4 13 -8 16q-30 24 -85 24q-81 0 -138 -54q-82 -77 -82 -217q0 -130 64 -197q61 -67 161 -67q26 0 44 6t19 13v155l-95 2q0 45 1 65h151h112q1 -21 -1 -65l-47 -2q-4 0 -4 -4l-3 -200q-56 -34 -184 -34q-153 0 -238 68q-110 92 -110 246q0 95 40 169
t107 121q91 66 230 66q97 0 151 -26q6 -87 9 -180q-21 -3 -78 -7zM384 -51q26 0 47 -24.5t21 -56.5q0 -49 -29.5 -92.5t-77.5 -70.5q-5 6 -14.5 18t-14.5 18q60 42 60 89q0 32 -45 44q-4 32 12 53.5t41 21.5z" />
    <glyph glyph-name="gcommaaccent" unicode="&#x123;" horiz-adv-x="496" 
d="M138 115v6q-40 19 -69.5 55t-29.5 88q0 72 59.5 123t150.5 51q51 0 80 -8q15 -3 22 -3q105 5 139 7q3 -29 1 -67q-21 -1 -89 -1l-1 -3q29 -32 29 -85q0 -65 -45 -113q-60 -62 -180 -57q-37 -30 -37 -44q0 -18 22 -23t95 -7q71 -3 103.5 -8.5t55.5 -21.5
q25 -18 35.5 -35.5t10.5 -49.5q0 -45 -30 -82.5t-86 -59.5q-71 -27 -160 -27q-97 0 -151.5 30.5t-54.5 86.5q0 22 21 39q18 13 47 32.5t42 29.5v6q-66 22 -66 77q0 8 12.5 17.5t73.5 46.5zM154 271q0 -109 81 -109q37 0 59.5 30t22.5 87q0 51 -20 78q-18 26 -58 26
q-39 0 -62 -29.5t-23 -82.5zM379 -104q0 28 -18.5 37.5t-76.5 14.5q-25 2 -59.5 4.5t-44.5 2.5q-21 -21 -30 -30.5t-17.5 -24.5t-8.5 -29q0 -31 33 -47t77 -16q64 0 102 21q43 25 43 67zM253 496q-26 0 -46.5 22t-20.5 51q0 45 29 84t77 64q17 -17 28 -32q-59 -38 -59 -81
q0 -16 14 -26t31 -14q4 -29 -12 -48.5t-41 -19.5z" />
    <glyph glyph-name="Imacron" unicode="&#x12a;" horiz-adv-x="348" 
d="M116 584l-71 3q0 43 1 63h135h130q0 -43 -1 -63l-72 -3q-2 0 -2 -4l-3 -513l77 -3q1 -22 -1 -64q-18 0 -63.5 0.5t-68.5 0.5q-21 0 -66.5 -0.5t-65.5 -0.5q0 43 1 63l67 3q3 0 3 4v514zM300 792q2 -30 0 -59q-36 0 -119.5 0.5t-124.5 0.5q-2 26 0 56q41 0 121.5 1
t122.5 1z" />
    <glyph glyph-name="imacron" unicode="&#x12b;" horiz-adv-x="288" 
d="M95 349l-71 3v18.5v23v18.5q20 2 64.5 8.5t79.5 12t39 5.5q1 0 1 -3q0 -55 -1 -188t-1 -184l64 -2q0 -41 -1 -60h-122q-19 0 -59 -0.5t-59 -0.5q0 41 1 60l61 3q4 0 4 4v282zM253 573q2 -29 0 -59q-31 0 -106 0.5t-111 0.5q-2 27 0 56q146 2 217 2z" />
    <glyph glyph-name="Iogonek" unicode="&#x12e;" horiz-adv-x="348" 
d="M97 -124q0 70 90 125q-20 0 -70 -0.5t-72 -0.5q0 43 1 63l67 3q3 0 3 4v514l-71 3q0 43 1 63h135h130q0 -43 -1 -63l-72 -3q-2 0 -2 -4l-3 -513l77 -3q1 -22 -1 -64q-64 0 -81 -5q-26 -8 -41.5 -37t-15.5 -59q0 -25 13 -41.5t36 -16.5q17 0 46 8q8 -21 12 -42
q-35 -19 -77 -19q-43 0 -73.5 23t-30.5 65z" />
    <glyph glyph-name="iogonek" unicode="&#x12f;" horiz-adv-x="288" 
d="M145 652q32 0 49 -19.5t17 -44.5q0 -30 -20 -49.5t-50 -19.5q-27 0 -47.5 19.5t-20.5 47.5q0 27 20 46.5t52 19.5zM73 -114q0 63 82 114q-14 0 -60.5 -0.5t-65.5 -0.5v60l62 3q4 1 4 5v282l-71 3v18.5v23v18.5q20 2 64.5 8.5t79.5 12t39 5.5q1 0 1 -3q0 -56 -1 -188.5
t-1 -183.5l64 -3q0 -41 -1 -60q-50 4 -77 -9q-48 -25 -48 -84q0 -55 48 -55q20 0 40 8q5 -13 11 -39q-30 -18 -69 -18q-41 0 -71 22t-30 61z" />
    <glyph glyph-name="Idotaccent" unicode="&#x130;" horiz-adv-x="348" 
d="M116 584l-71 3q0 43 1 63h135h130q0 -43 -1 -63l-72 -3q-2 0 -2 -4l-3 -513l77 -3q1 -22 -1 -64q-18 0 -63.5 0.5t-68.5 0.5q-21 0 -66.5 -0.5t-65.5 -0.5q0 43 1 63l67 3q3 0 3 4v514zM179 824q26 0 40.5 -16.5t14.5 -37.5q0 -24 -16 -40t-41 -16q-23 0 -39.5 15.5
t-16.5 39.5q0 21 15.5 38t42.5 17z" />
    <glyph glyph-name="dotlessi" unicode="&#x131;" horiz-adv-x="288" 
d="M95 349l-71 3v18.5v23v18.5q20 2 64.5 8.5t79.5 12t39 5.5q1 0 1 -3q0 -55 -1 -188t-1 -184l64 -2q0 -41 -1 -60h-122q-19 0 -59 -0.5t-59 -0.5q0 41 1 60l61 3q4 0 4 4v282z" />
    <glyph glyph-name="Kcommaaccent" unicode="&#x136;" horiz-adv-x="650" 
d="M115 584l-64 3q0 43 1 63q18 0 62 -0.5t66 -0.5q21 0 62.5 0.5t57.5 0.5q1 -22 -1 -63l-61 -3q-3 0 -3 -5l-2 -219q27 0 60 6q58 58 174 212q5 5 -2 5l-59 3q0 43 1 63h138q16 0 45.5 0.5t41.5 0.5q0 -43 -1 -63l-46 -3q-112 -128 -203 -225v-6q57 -42 107 -134
q57 -100 74 -125q14 -25 34 -26l62 -4q0 -43 -1 -62q-52 -2 -92 -2q-22 -1 -83 -1q-14 19 -93 162q-73 139 -106 139q-27 0 -51 -2l-1 -231l70 -3q1 -22 -1 -64q-16 0 -59.5 0.5t-66.5 0.5q-20 0 -63.5 -0.5t-61.5 -0.5q0 43 1 63l60 3q4 2 4 4v514zM336 -37q26 0 47 -24.5
t21 -56.5q0 -50 -29 -93t-78 -70q-16 17 -29 35q60 42 60 89q0 33 -45 45q-4 32 12 53.5t41 21.5z" />
    <glyph glyph-name="kcommaaccent" unicode="&#x137;" horiz-adv-x="529" 
d="M82 613l-71 1q0 10 0.5 30.5t0.5 29.5q18 2 63.5 9t80.5 12t39 5q3 0 3 -4q0 -72 -1.5 -239.5t-1.5 -193.5q33 0 59 3q52 47 92 93q4 4 -2 4l-43 2q0 43 1 62h116q14 0 42.5 0.5t41.5 0.5q0 -42 -1 -61l-42 -3q-67 -61 -124 -111v-6q46 -37 78 -99q35 -63 44 -75
q6 -9 17 -9l55 -2q0 -41 -1 -60q-74 -2 -161 -2q-23 36 -56 112q-39 83 -69 92q-34 0 -47 -1q0 -21 -0.5 -70t-0.5 -70l52 -2q0 -41 -1 -60h-111q-19 0 -57.5 -0.5t-55.5 -0.5q0 41 1 60l57 3q3 0 3 4v546zM266 -48q26 0 46.5 -22t20.5 -51q0 -45 -29 -84.5t-77 -63.5
q-15 15 -29 32q60 37 60 81q0 31 -45 40q-4 29 12 48.5t41 19.5z" />
    <glyph glyph-name="Lacute" unicode="&#x139;" horiz-adv-x="537" 
d="M116 584l-66 2q0 23 2 63h127h137q0 -23 -2 -63l-77 -3q-3 0 -3 -3l-2 -496q0 -14 6.5 -17.5t37.5 -3.5q96 0 126 6q13 5 17 20l36 104q41 -7 72 -15q-14 -71 -40 -179q-13 0 -122.5 0.5t-188.5 0.5q-23 0 -66 -0.5t-61 -0.5q0 23 2 63l61 3q4 0 4 4v515zM284 864
q22 -27 45 -67q-115 -63 -180 -97q-10 14 -30 44q29 20 91 65.5t74 54.5z" />
    <glyph glyph-name="lacute" unicode="&#x13a;" horiz-adv-x="279" 
d="M83 613l-75 2q0 22 2 60q20 2 65.5 8.5t81 11.5t39.5 5q3 0 3 -4q0 -69 -1.5 -297t-2.5 -336l69 -2v-60h-126q-20 0 -61.5 -0.5t-59.5 -0.5q0 9 0.5 30t0.5 30l61 3q4 0 4 4v546zM212 884q26 -34 45 -67q-17 -9 -83 -44t-98 -52q-15 20 -29 44q20 14 78.5 56.5t86.5 62.5
z" />
    <glyph glyph-name="Lcommaaccent" unicode="&#x13b;" horiz-adv-x="537" 
d="M116 584l-66 2q0 23 2 63h127h137q0 -23 -2 -63l-77 -3q-3 0 -3 -3l-2 -496q0 -14 6.5 -17.5t37.5 -3.5q96 0 126 6q13 5 17 20l36 105q32 -5 72 -16q-14 -71 -40 -179q-13 0 -122.5 0.5t-188.5 0.5q-23 0 -66 -0.5t-61 -0.5q0 23 2 63l61 3q4 0 4 4v515zM294 -51
q26 0 47 -24.5t21 -56.5q0 -49 -29.5 -92.5t-77.5 -69.5q-2 2 -13 15t-16 20q60 42 60 89q0 18 -13.5 29t-31.5 15q-4 32 12 53.5t41 21.5z" />
    <glyph glyph-name="lcommaaccent" unicode="&#x13c;" horiz-adv-x="279" 
d="M83 613l-75 2q0 22 2 60q20 2 65.5 8.5t81 11.5t39.5 5q3 0 3 -4q0 -69 -1.5 -297t-2.5 -336l69 -2v-60h-126q-20 0 -61.5 -0.5t-59.5 -0.5q0 9 0.5 30t0.5 30l61 3q4 0 4 4v546zM145 -52q26 0 46.5 -22.5t20.5 -50.5q0 -45 -29 -84.5t-76 -64.5q-28 31 -29 32
q59 38 59 81q0 30 -45 41q-3 28 13 48t40 20z" />
    <glyph glyph-name="Lcaron" unicode="&#x13d;" horiz-adv-x="537" 
d="M116 584l-66 2q0 23 2 63h127h137q0 -23 -2 -63l-77 -3q-3 0 -3 -3l-2 -496q0 -14 6.5 -17.5t37.5 -3.5q96 0 126 6q13 5 17 20l36 104q41 -7 72 -15q-14 -71 -40 -179q-13 0 -122.5 0.5t-188.5 0.5q-23 0 -66 -0.5t-61 -0.5q0 23 2 63l61 3q4 0 4 4v515zM419 648
q25 0 45 -23.5t20 -53.5q0 -47 -28 -88t-73 -67q-16 18 -28 34q57 39 57 84q0 17 -14.5 28.5t-28.5 13.5q-4 31 11.5 51.5t38.5 20.5z" />
    <glyph glyph-name="lcaron" unicode="&#x13e;" 
d="M83 612l-75 3q0 22 2 60q20 2 65.5 8.5t81 11.5t39.5 5q3 0 3 -4q0 -71 -1.5 -298.5t-2.5 -334.5l69 -2v-60h-126q-20 0 -61.5 -0.5t-59.5 -0.5q0 9 0.5 30t0.5 30l61 3q4 0 4 4v545zM300 700q26 0 46.5 -22.5t20.5 -50.5q0 -45 -29 -85t-76 -64q-21 21 -29 32
q59 38 59 81q0 30 -45 41q-4 29 12 48.5t41 19.5z" />
    <glyph glyph-name="Lslash" unicode="&#x141;" horiz-adv-x="557" 
d="M135 584l-65 2q-1 22 1 63h128h136q0 -43 -1 -63l-77 -3q-3 0 -3 -3l-1 -193q60 29 132 66q15 -29 25 -64q-29 -14 -83.5 -40t-73.5 -35l-2 -230q0 -14 6.5 -17.5t38.5 -3.5q96 0 124 6q13 3 19 20l36 104q44 -7 72 -15q-14 -71 -40 -179q-13 0 -122.5 0.5t-189.5 0.5
q-23 0 -65.5 -0.5t-60.5 -0.5q0 43 1 63l61 3q4 0 4 3v193q-50 -24 -76 -37q-13 26 -25 57q18 8 51.5 25t49.5 25v253z" />
    <glyph glyph-name="lslash" unicode="&#x142;" horiz-adv-x="325" 
d="M41 60l61 3q4 0 4 4v213q-14 -7 -42.5 -20.5t-30.5 -14.5q-13 25 -23 58q64 32 96 49v261l-75 2q0 10 0.5 30.5t0.5 29.5q21 2 66.5 8.5t81 11.5t39.5 5q3 0 3 -4q-1 -42 -1.5 -140.5t-0.5 -147.5l26 13t30.5 15.5t25.5 12.5q11 -24 24 -64q-99 -48 -107 -52
q0 -48 -0.5 -139t-0.5 -131l69 -2q0 -41 -1 -60h-125q-20 0 -61.5 -0.5t-59.5 -0.5q0 9 0.5 30t0.5 30z" />
    <glyph glyph-name="Nacute" unicode="&#x143;" horiz-adv-x="716" 
d="M44 63l58 3q4 0 4 4l-1 515l-67 3q0 43 1 62h165q165 -240 328 -496l6 1q-2 290 -4 431l-85 1q0 10 0.5 31.5t0.5 31.5h127q18 0 52.5 0.5t47.5 0.5v-62l-54 -3q-3 0 -3 -5l-4 -575q-32 -14 -82 -14q-173 229 -339 479h-7q0 -69 -0.5 -203.5t-0.5 -201.5l89 -2
q0 -10 -0.5 -31.5t-0.5 -31.5h-137q-17 0 -49.5 -0.5t-45.5 -0.5q0 43 1 63zM437 850q22 -27 45 -67q-118 -65 -181 -97q-19 27 -29 44q32 23 165 120z" />
    <glyph glyph-name="nacute" unicode="&#x144;" horiz-adv-x="580" 
d="M95 350l-71 2q0 10 0.5 29.5t0.5 27.5q19 3 59.5 10t72 12.5t33.5 5.5t2 -3q1 -7 4 -19.5t5 -22.5t3 -18l5 -1q71 43 100.5 54t64.5 11q33 0 61 -20.5t45 -49.5q20 -34 20 -79q0 -16 -3 -226l58 -2q0 -41 -1 -60h-115q-19 0 -56 -0.5t-52 -0.5v60l51 3q2 0 4 4v161
q0 75 -11 94q-17 31 -56 31q-22 0 -53 -14t-56 -34q-3 -104 -3 -242l60 -2q0 -10 -0.5 -30.5t-0.5 -29.5h-118q-18 0 -56.5 -0.5t-55.5 -0.5q0 41 1 60l55 3q3 0 3 4v283zM369 662q20 -18 53 -57q-20 -15 -76.5 -59t-85.5 -65q-11 12 -35 40q27 26 83.5 82t60.5 59z" />
    <glyph glyph-name="Ncommaaccent" unicode="&#x145;" horiz-adv-x="716" 
d="M44 63l58 3q4 0 4 4l-1 515l-67 3q0 43 1 62h165q165 -240 328 -496l6 1q-2 290 -4 431l-85 1q0 10 0.5 31.5t0.5 31.5h127q18 0 52.5 0.5t47.5 0.5v-62l-54 -3q-3 0 -3 -5l-4 -575q-32 -14 -82 -14q-173 229 -339 479h-7q0 -69 -0.5 -203.5t-0.5 -201.5l89 -2
q0 -10 -0.5 -31.5t-0.5 -31.5h-137q-17 0 -49.5 -0.5t-45.5 -0.5q0 43 1 63zM365 -37q26 0 47 -24.5t21 -56.5q0 -49 -29.5 -92.5t-77.5 -69.5q-16 17 -29 35q60 42 60 89q0 18 -13.5 29t-31.5 15q-4 32 12 53.5t41 21.5z" />
    <glyph glyph-name="ncommaaccent" unicode="&#x146;" horiz-adv-x="580" 
d="M95 350l-71 2q0 10 0.5 29.5t0.5 27.5q19 3 59.5 10t72 12.5t33.5 5.5t2 -3q1 -7 4 -19.5t5 -22.5t3 -18l5 -1q71 43 100.5 54t64.5 11q33 0 61 -20.5t45 -49.5q20 -34 20 -79q0 -16 -3 -226l58 -2q0 -41 -1 -60h-115q-19 0 -56 -0.5t-52 -0.5v60l51 3q2 0 4 4v161
q0 75 -11 94q-17 31 -56 31q-22 0 -53 -14t-56 -34q-3 -104 -3 -242l60 -2q0 -10 -0.5 -30.5t-0.5 -29.5h-118q-18 0 -56.5 -0.5t-55.5 -0.5q0 41 1 60l55 3q3 0 3 4v283zM290 -53q26 0 46.5 -22t20.5 -51q0 -45 -29 -84.5t-76 -63.5q-17 17 -28 32q58 38 58 81q0 28 -44 40
q-4 29 12 48.5t40 19.5z" />
    <glyph glyph-name="Ncaron" unicode="&#x147;" horiz-adv-x="716" 
d="M44 63l58 3q4 0 4 4l-1 515l-67 3q0 43 1 62h165q165 -240 328 -496l6 1q-2 290 -4 431l-85 1q0 10 0.5 31.5t0.5 31.5h127q18 0 52.5 0.5t47.5 0.5v-62l-54 -3q-3 0 -3 -5l-4 -575q-32 -14 -82 -14q-173 229 -339 479h-7q0 -69 -0.5 -203.5t-0.5 -201.5l89 -2
q0 -10 -0.5 -31.5t-0.5 -31.5h-137q-17 0 -49.5 -0.5t-45.5 -0.5q0 43 1 63zM349 784q58 38 116 74q16 -15 33 -40q-75 -59 -130 -105q-13 -1 -39 1q-23 18 -67 54t-61 50q12 18 31 39q64 -40 117 -73z" />
    <glyph glyph-name="ncaron" unicode="&#x148;" horiz-adv-x="580" 
d="M95 350l-71 2q0 10 0.5 29.5t0.5 27.5q19 3 59.5 10t72 12.5t33.5 5.5t2 -3q1 -7 4 -19.5t5 -22.5t3 -18l5 -1q71 43 100.5 54t64.5 11q33 0 61 -20.5t45 -49.5q20 -34 20 -79q0 -16 -3 -226l58 -2q0 -41 -1 -60h-115q-19 0 -56 -0.5t-52 -0.5v60l51 3q2 0 4 4v161
q0 75 -11 94q-17 31 -56 31q-22 0 -53 -14t-56 -34q-3 -104 -3 -242l60 -2q0 -10 -0.5 -30.5t-0.5 -29.5h-118q-18 0 -56.5 -0.5t-55.5 -0.5q0 41 1 60l55 3q3 0 3 4v283zM291 562q18 18 52.5 50.5t46.5 44.5q21 -17 36 -34q-97 -115 -112 -132q-32 0 -48 1q-4 5 -46.5 55.5
t-64.5 75.5q22 22 38 33q26 -25 98 -94z" />
    <glyph glyph-name="Omacron" unicode="&#x14c;" horiz-adv-x="725" 
d="M347 -10q-130 0 -211 83q-90 92 -90 246q0 93 40.5 169t102.5 117q84 55 194 55q97 0 171 -49q56 -38 90 -110t34 -158q0 -78 -26.5 -149.5t-77.5 -120.5q-86 -83 -227 -83zM366 55q76 0 121 53q62 75 62 213t-58 214q-45 60 -122 60q-73 0 -120 -48q-73 -73 -73 -219
q0 -148 63 -218q49 -55 127 -55zM486 794q2 -29 0 -59q-36 0 -119.5 0.5t-124.5 0.5q-2 26 0 56q41 0 121.5 1t122.5 1z" />
    <glyph glyph-name="omacron" unicode="&#x14d;" horiz-adv-x="522" 
d="M252 -10q-94 0 -146 48q-70 61 -70 166q0 117 89 188q61 46 148 46q77 0 130 -37q83 -60 83 -178q0 -60 -26 -111t-69 -82q-56 -40 -139 -40zM262 49q42 0 66 29q36 41 36 141q0 85 -31 126q-25 34 -69 34q-42 0 -67 -30q-38 -44 -38 -134q0 -95 37 -136q24 -30 66 -30z
M380 573q2 -29 0 -59q-31 0 -105.5 0.5t-111.5 0.5q-2 27 0 56q146 2 217 2z" />
    <glyph glyph-name="Ohungarumlaut" unicode="&#x150;" horiz-adv-x="725" 
d="M347 -10q-130 0 -211 83q-90 92 -90 246q0 93 40.5 169t102.5 117q84 55 194 55q97 0 171 -49q56 -38 90 -110t34 -158q0 -78 -26.5 -149.5t-77.5 -120.5q-86 -83 -227 -83zM366 55q76 0 121 53q62 75 62 213t-58 214q-45 60 -122 60q-73 0 -120 -48q-73 -73 -73 -219
q0 -148 63 -218q49 -55 127 -55zM379 879q18 -17 42 -53q-67 -47 -154 -107q-7 7 -32 37q13 11 144 123zM519 874q14 -13 43 -51q-30 -21 -153 -110q-17 19 -32 38q15 13 65.5 57t76.5 66z" />
    <glyph glyph-name="ohungarumlaut" unicode="&#x151;" horiz-adv-x="522" 
d="M252 -10q-94 0 -146 48q-70 61 -70 166q0 117 89 188q61 46 148 46q77 0 130 -37q83 -60 83 -178q0 -60 -26 -111t-69 -82q-56 -40 -139 -40zM262 49q42 0 66 29q36 41 36 141q0 85 -31 126q-25 34 -69 34q-42 0 -67 -30q-38 -44 -38 -134q0 -95 37 -136q24 -30 66 -30z
M272 658q15 -12 47 -48q-24 -20 -71.5 -59.5t-68.5 -57.5q-24 24 -34 35q20 20 63.5 64.5t63.5 65.5zM414 653q20 -16 47 -47q-35 -31 -138 -118q-23 23 -34 35q19 20 62 65t63 65z" />
    <glyph glyph-name="OE" unicode="&#x152;" horiz-adv-x="969" 
d="M47 319q0 89 36.5 166t100.5 123q74 52 175 52q54 0 97.5 -19.5t67.5 -49.5v59q10 0 31 -0.5t30 -0.5q16 0 112.5 0.5t107.5 0.5h92q9 -153 9 -162q-36 -5 -72 -8l-16 82q-3 16 -23 18q-48 5 -135 5h-21l-1 -221q22 0 63.5 0.5t63.5 1.5q18 0 20 20l6 43q47 0 68 -1
q0 -15 -0.5 -48.5t-0.5 -50.5v-95q-44 -2 -70 -2l-4 47q-1 20 -22 20q-76 2 -124 1l-1 -214q0 -14 8.5 -17.5t45.5 -3.5q96 0 124 7q12 3 18 20l31 85q37 -6 71 -14q-19 -94 -36 -164q-12 0 -120 0.5t-188 0.5h-68v71q-63 -81 -190 -81q-114 0 -191 74q-95 92 -95 255z
M177 329q0 -145 59 -216q51 -58 128 -58q52 0 93.5 28t63.5 82v329q-18 47 -58.5 74t-94.5 27q-76 0 -121 -50q-70 -74 -70 -216z" />
    <glyph glyph-name="oe" unicode="&#x153;" horiz-adv-x="791" 
d="M416 71h-6q-55 -81 -163 -81q-90 0 -141 47q-70 62 -70 167q0 118 87 186q58 48 146 48q52 0 92.5 -25.5t57.5 -64.5h6q56 90 164 90q82 0 124 -52q44 -54 44 -141q-2 -10 -18.5 -26.5t-24.5 -17.5q-52 -3 -236 -3q0 -66 30 -99q32 -34 91 -34q58 0 134 30q11 -34 15 -61
q-90 -44 -174 -44q-116 0 -158 81zM263 48q40 0 65 28q35 41 35 142q0 86 -30 126q-24 35 -67 35t-70 -31q-37 -45 -37 -130q0 -97 37 -139q24 -31 67 -31zM571 376q-36 0 -59 -29q-31 -38 -32 -89q114 0 157 2q12 0 12 11q0 46 -21 74q-21 31 -57 31z" />
    <glyph glyph-name="Racute" unicode="&#x154;" horiz-adv-x="615" 
d="M116 584l-63 3q1 10 1.5 31t0.5 31q122 2 208 2q85 0 142 -15q56 -13 93.5 -58.5t37.5 -96.5q0 -62 -36.5 -108t-94.5 -69v-5q9 -4 17 -10t14 -12t14 -17.5t13 -19t14 -24.5t14 -26t16 -31.5t17 -33.5q18 -35 26.5 -46t17.5 -12l56 -4q0 -10 -0.5 -30.5t-0.5 -31.5h-70
q-10 0 -46 -1t-44 -1q-18 27 -61.5 117t-51.5 105q-14 25 -31.5 35t-45.5 10q-35 0 -43 -2l-1 -199l72 -3q0 -10 -0.5 -30.5t-0.5 -30.5h-130q-21 0 -60.5 -0.5t-56.5 -0.5q1 21 1 62l58 3q4 0 4 4v515zM232 586l-2 -257q5 -2 41 -2q71 0 108 38t37 90q0 62 -38 98.5
t-99 36.5q-39 0 -47 -4zM388 865q23 -29 45 -68q-17 -9 -83 -44t-98 -52q-15 19 -29 44q29 20 91 65.5t74 54.5z" />
    <glyph glyph-name="racute" unicode="&#x155;" horiz-adv-x="409" 
d="M95 352l-67 2q0 39 1 58q18 3 58.5 9.5t72 11.5t33.5 5t2 -3q2 -33 6 -131l6 -1q42 83 70.5 109.5t64.5 26.5t65 -12q0 -23 -12.5 -58.5t-23.5 -45.5q-40 9 -57 9t-31 -12q-27 -22 -60 -84q-16 -31 -16 -88q-1 -27 -1 -85l89 -3q0 -40 -1 -59h-138q-19 0 -60 -0.5
t-59 -0.5q0 41 1 59l53 3q4 0 4 4v286zM304 672q28 -25 52 -57q-121 -93 -161 -124q-17 17 -35 40q5 5 61 60t83 81z" />
    <glyph glyph-name="Rcommaaccent" unicode="&#x156;" horiz-adv-x="615" 
d="M116 584l-63 3q1 10 1.5 31t0.5 31q122 2 208 2q85 0 142 -15q56 -13 93.5 -58.5t37.5 -96.5q0 -62 -36.5 -108t-94.5 -69v-5q9 -4 17 -10t14 -12t14 -17.5t13 -19t14 -24.5t14 -26t16 -31.5t17 -33.5q18 -35 26.5 -46t17.5 -12l56 -4q0 -10 -0.5 -30.5t-0.5 -31.5h-70
q-10 0 -46 -1t-44 -1q-18 27 -61.5 117t-51.5 105q-14 25 -31.5 35t-45.5 10q-35 0 -43 -2l-1 -199l72 -3q0 -10 -0.5 -30.5t-0.5 -30.5h-130q-21 0 -60.5 -0.5t-56.5 -0.5q1 21 1 62l58 3q4 0 4 4v515zM232 586l-2 -257q5 -2 41 -2q71 0 108 38t37 90q0 62 -38 98.5
t-99 36.5q-39 0 -47 -4zM330 -37q26 0 47 -24.5t21 -56.5q0 -49 -29.5 -92.5t-77.5 -70.5q-20 24 -29 36q60 42 60 89q0 32 -45 44q-4 32 12 53.5t41 21.5z" />
    <glyph glyph-name="rcommaaccent" unicode="&#x157;" horiz-adv-x="409" 
d="M95 352l-67 2q0 39 1 58q18 3 58.5 9.5t72 11.5t33.5 5t2 -3q2 -33 6 -131l6 -1q42 83 70.5 109.5t64.5 26.5t65 -12q0 -23 -12.5 -58.5t-23.5 -45.5q-40 9 -57 9t-31 -12q-27 -22 -60 -84q-16 -31 -16 -88q-1 -27 -1 -85l89 -3q0 -40 -1 -59h-138q-19 0 -60 -0.5
t-59 -0.5q0 41 1 59l53 3q4 0 4 4v286zM180 -53q26 0 46.5 -22t20.5 -51q0 -45 -29 -84.5t-76 -63.5q-15 16 -29 32q59 38 59 81q0 29 -45 40q-3 29 13 48.5t40 19.5z" />
    <glyph glyph-name="Rcaron" unicode="&#x158;" horiz-adv-x="615" 
d="M116 584l-63 3q1 10 1.5 31t0.5 31q122 2 208 2q85 0 142 -15q56 -13 93.5 -58.5t37.5 -96.5q0 -62 -36.5 -108t-94.5 -69v-5q9 -4 17 -10t14 -12t14 -17.5t13 -19t14 -24.5t14 -26t16 -31.5t17 -33.5q18 -35 26.5 -46t17.5 -12l56 -4q0 -10 -0.5 -30.5t-0.5 -31.5h-70
q-10 0 -46 -1t-44 -1q-18 27 -61.5 117t-51.5 105q-14 25 -31.5 35t-45.5 10q-35 0 -43 -2l-1 -199l72 -3q0 -10 -0.5 -30.5t-0.5 -30.5h-130q-21 0 -60.5 -0.5t-56.5 -0.5q1 21 1 62l58 3q4 0 4 4v515zM232 586l-2 -257q5 -2 41 -2q71 0 108 38t37 90q0 62 -38 98.5
t-99 36.5q-39 0 -47 -4zM290 784q58 38 116 74q13 -12 33 -40q-21 -17 -66.5 -54t-63.5 -51h-39q-70 58 -128 105q16 23 31 39q64 -40 117 -73z" />
    <glyph glyph-name="rcaron" unicode="&#x159;" horiz-adv-x="409" 
d="M95 352l-67 2q0 39 1 58q18 3 58.5 9.5t72 11.5t33.5 5t2 -3q2 -33 6 -131l6 -1q42 83 70.5 109.5t64.5 26.5t65 -12q0 -23 -12.5 -58.5t-23.5 -45.5q-40 9 -57 9t-31 -12q-27 -22 -60 -84q-16 -31 -16 -88q-1 -27 -1 -85l89 -3q0 -40 -1 -59h-138q-19 0 -60 -0.5
t-59 -0.5q0 41 1 59l53 3q4 0 4 4v286zM224 562q91 88 98 95q20 -16 37 -34q-17 -20 -57 -67t-55 -65q-33 0 -48 1q-4 5 -46.5 55.5t-64.5 75.5q22 22 38 33q26 -25 98 -94z" />
    <glyph glyph-name="Sacute" unicode="&#x15a;" horiz-adv-x="511" 
d="M115 194l22 -102q1 -7 7 -11q31 -21 82 -21q64 0 95 31q28 28 28 70q0 26 -5.5 42.5t-26 31.5t-35 22t-59.5 26q-78 33 -120.5 76t-42.5 107q0 85 67 140q64 54 183 54q85 0 127 -21q2 -20 13 -162q-59 -8 -75 -9l-20 93q-3 8 -6 10q-21 18 -64 18q-48 0 -79 -25
q-33 -27 -33 -72q0 -43 23.5 -63t103.5 -52q83 -33 122.5 -75t39.5 -108q0 -92 -65 -148q-67 -56 -193 -56q-90 0 -150 22q-4 34 -16 170q31 7 77 12zM364 875q22 -27 45 -67q-100 -56 -180 -97q-19 27 -29 44q18 13 77 56t87 64z" />
    <glyph glyph-name="sacute" unicode="&#x15b;" horiz-adv-x="421" 
d="M99 144l15 -61q3 -8 8 -12q26 -18 63 -18q40 0 59 12q26 15 26 45q0 28 -18 39.5t-80 29.5q-64 19 -93 48t-29 73q0 37 21 66t52 45q51 27 128 27q72 0 107 -16q8 -60 12 -120q-64 -10 -67 -10l-15 59q-2 7 -6 11q-19 13 -51 13t-51 -14q-22 -15 -22 -45q0 -23 17 -33.5
t79 -28.5q63 -17 94 -43t31 -80q0 -75 -74 -116q-45 -25 -133 -25q-76 0 -125 18q-3 20 -8 61.5t-7 62.5q28 7 67 12zM308 662q24 -21 52 -57q-142 -110 -161 -124q-11 12 -35 40q23 22 72 70.5t72 70.5z" />
    <glyph glyph-name="Scedilla" unicode="&#x15e;" horiz-adv-x="511" 
d="M138 -80l75 70q-26 0 -40 2q-69 2 -119 20q-4 34 -16 170q46 9 77 12l22 -102q1 -7 7 -11q33 -21 82 -21q64 0 95 31q28 28 28 70q0 26 -5.5 42.5t-26 31.5t-35 22t-59.5 26q-78 33 -120.5 76t-42.5 107q0 84 67 140q64 54 183 54q85 0 127 -21q2 -20 13 -162
q-59 -8 -75 -9l-20 93q-1 7 -6 10q-21 18 -64 18q-48 0 -79 -25q-33 -27 -33 -72q0 -43 23.5 -63t103.5 -52q83 -34 122.5 -75t39.5 -108q0 -92 -65 -148q-46 -38 -110 -49l-68 -67q73 -10 73 -71q0 -42 -42 -71t-114 -29q-5 18 -7 45q85 2 85 47q0 20 -14 29q-14 12 -51 12
q-8 20 -11 28z" />
    <glyph glyph-name="scedilla" unicode="&#x15f;" horiz-adv-x="421" 
d="M110 -73l69 63h-15q-69 2 -116 18q-2 20 -7.5 61.5t-7.5 62.5q30 7 67 12l14 -61q3 -8 8 -12q26 -18 63 -18q40 0 59 12q26 15 26 45q0 28 -18 39.5t-80 29.5q-64 19 -93 48t-29 73q0 37 21 66t52 45q51 27 128 27q72 0 107 -16q8 -60 12 -120q-64 -10 -67 -10l-15 59
q-2 7 -6 11q-19 13 -51 13t-51 -14q-22 -15 -22 -45q0 -23 17 -33.5t79 -28.5q63 -17 94 -43t31 -80q0 -75 -74 -116q-21 -12 -53 -18l-66 -62q28 -5 45 -24t17 -45q0 -41 -38 -67t-105 -27q-3 12 -5 44q77 5 77 46q0 16 -12 26q-14 14 -45 12q-2 4 -3.5 8.5t-3.5 10t-3 8.5
z" />
    <glyph glyph-name="Scaron" unicode="&#x160;" horiz-adv-x="511" 
d="M115 194l22 -102q1 -7 7 -11q31 -21 82 -21q64 0 95 31q28 28 28 70q0 26 -5.5 42.5t-26 31.5t-35 22t-59.5 26q-78 33 -120.5 76t-42.5 107q0 85 67 140q64 54 183 54q85 0 127 -21q2 -20 13 -162q-59 -8 -75 -9l-20 93q-3 8 -6 10q-21 18 -64 18q-48 0 -79 -25
q-33 -27 -33 -72q0 -43 23.5 -63t103.5 -52q83 -33 122.5 -75t39.5 -108q0 -92 -65 -148q-67 -56 -193 -56q-90 0 -150 22q-4 34 -16 170q31 7 77 12zM282 784q38 25 115 74q16 -15 33 -40q-16 -13 -61.5 -50t-68.5 -55h-38q-78 65 -129 105q22 28 32 39q15 -9 55.5 -34.5
t61.5 -38.5z" />
    <glyph glyph-name="scaron" unicode="&#x161;" horiz-adv-x="421" 
d="M99 144l15 -61q3 -8 8 -12q26 -18 63 -18q40 0 59 12q26 15 26 45q0 28 -18 39.5t-80 29.5q-64 19 -93 48t-29 73q0 37 21 66t52 45q51 27 128 27q72 0 107 -16q8 -60 12 -120q-64 -10 -67 -10l-15 59q-2 7 -6 11q-19 13 -51 13t-51 -14q-22 -15 -22 -45q0 -23 17 -33.5
t79 -28.5q63 -17 94 -43t31 -80q0 -75 -74 -116q-45 -25 -133 -25q-76 0 -125 18q-3 20 -8 61.5t-7 62.5q28 7 67 12zM225 562q24 23 99 95q21 -17 36 -34q-14 -16 -54 -64t-58 -68q-32 0 -47 1q-13 15 -52 61t-60 70q19 19 39 33q17 -16 54 -52t43 -42z" />
    <glyph glyph-name="Tcommaaccent" unicode="&#x162;" horiz-adv-x="588" 
d="M157 63l75 3q4 0 4 4v513q-66 0 -104 -4q-20 -2 -23 -20l-17 -96q-10 1 -37 3t-40 3q2 29 5.5 89.5t5.5 91.5q8 0 40 -0.5t53 -0.5h182h176q41 1 90 1q6 -86 9 -179q-42 -5 -78 -8l-15 97q-3 17 -23 18q-27 4 -105 4l-2 -515l83 -4q0 -42 -1 -63q-18 0 -66 0.5t-72 0.5
q-22 0 -70 -0.5t-71 -0.5q0 43 1 63zM291 -39q26 0 47 -24.5t21 -56.5q0 -50 -29 -93t-78 -70q-4 5 -14 17l-15 18q60 42 60 89q0 33 -45 45q-4 32 12 53.5t41 21.5z" />
    <glyph glyph-name="tcommaaccent" unicode="&#x163;" horiz-adv-x="386" 
d="M197 -10q-46 0 -76 28q-20 17 -25.5 34t-5.5 44q0 31 0.5 82t0.5 57q0 15 0.5 64.5t0.5 57.5h-69q0 44 2 64q11 1 32.5 2.5t31.5 1.5q7 0 7 7q1 42 5 89q16 9 41.5 19.5t43 16.5t19.5 6t2 -3q0 -63 -2 -135q107 0 156 1q0 -4 -3 -70q-22 0 -74.5 0.5t-79.5 0.5v-100
q-1 -41 -1 -138q0 -26 16.5 -40t40.5 -14q42 0 101 16q5 -27 9 -61q-80 -30 -173 -30zM213 -56q26 0 46.5 -22.5t20.5 -50.5q0 -45 -29 -84.5t-76 -64.5q-28 31 -29 32q59 39 59 81q0 30 -45 41q-3 29 13 48.5t40 19.5z" />
    <glyph glyph-name="Tcaron" unicode="&#x164;" horiz-adv-x="588" 
d="M157 63l75 3q4 0 4 4v513q-66 0 -104 -4q-20 -2 -23 -20l-17 -96q-10 1 -37 3t-40 3q2 29 5.5 89.5t5.5 91.5q8 0 40 -0.5t53 -0.5h182h176q41 1 90 1q6 -86 9 -179q-42 -5 -78 -8l-15 97q-3 17 -23 18q-27 4 -105 4l-2 -515l83 -4q0 -42 -1 -63q-18 0 -66 0.5t-72 0.5
q-22 0 -70 -0.5t-71 -0.5q0 43 1 63zM303 783q58 38 116 74q15 -14 32 -40q-21 -17 -66.5 -54.5t-63.5 -51.5q-26 0 -38 1q-70 58 -128 105q16 23 31 39q64 -40 117 -73z" />
    <glyph glyph-name="tcaron" unicode="&#x165;" horiz-adv-x="386" 
d="M197 -10q-46 0 -76 28q-20 17 -25.5 34t-5.5 44q0 31 0.5 82t0.5 57q0 15 0.5 64.5t0.5 57.5h-69q0 44 2 64q11 1 32.5 2.5t31.5 1.5q7 0 7 7q1 42 5 89q16 9 41.5 19.5t43 16.5t19.5 6t2 -3q0 -63 -2 -135q107 0 156 1q0 -4 -3 -70q-22 0 -74.5 0.5t-79.5 0.5v-100
q-1 -41 -1 -138q0 -26 16.5 -40t40.5 -14q42 0 101 16q5 -27 9 -61q-80 -30 -173 -30zM311 686q26 0 46.5 -22.5t20.5 -50.5q0 -45 -29 -84.5t-76 -64.5q-15 16 -29 32q59 39 59 81q0 30 -45 41q-3 29 13 48.5t40 19.5z" />
    <glyph glyph-name="Umacron" unicode="&#x16a;" horiz-adv-x="672" 
d="M214 584l-2 -317q-1 -108 39 -159q36 -44 103 -44q59 0 99 42q42 44 42 163q0 218 -1 312q0 3 -4 3l-78 3q0 42 1 62h124q20 0 57 0.5t53 0.5q0 -42 -1 -63l-57 -3l-2 -308q-1 -150 -72 -221q-63 -65 -171 -65q-120 0 -183 60q-68 63 -68 211v318q0 6 -5 6l-54 2
q0 43 1 63q17 0 59 -0.5t62 -0.5q25 0 72 0.5t67 0.5q0 -43 -1 -63zM469 794q2 -29 0 -59q-36 0 -119.5 0.5t-124.5 0.5q-2 26 0 56q41 0 121.5 1t122.5 1z" />
    <glyph glyph-name="umacron" unicode="&#x16b;" horiz-adv-x="545" 
d="M358 42h-5q-61 -35 -87 -43.5t-59 -8.5q-48 0 -90 44.5t-42 93.5q0 43 0.5 121.5t0.5 111.5l-54 2q0 21 2 61q15 0 54.5 1.5t71.5 2.5t37 1q3 0 3 -3q-3 -222 -3 -236q0 -70 14 -91q19 -30 56 -30q43 0 94 38v254l-58 2q0 43 1 63q111 3 170 3q1 0 1 -4q0 -54 -1 -172.5
t-1 -177.5q0 -11 6 -11l62 2q0 -40 -1 -59q-10 -4 -54 -10.5t-80 -6.5q-17 14 -38 52zM391 579q2 -29 0 -59q-31 0 -105.5 0.5t-110.5 0.5q-2 36 -1 56q146 2 217 2z" />
    <glyph glyph-name="Uring" unicode="&#x16e;" horiz-adv-x="672" 
d="M214 584l-2 -317q-1 -108 39 -159q36 -44 103 -44q59 0 99 42q42 44 42 163q0 218 -1 312q0 3 -4 3l-78 3q0 10 0.5 31t0.5 31h124q20 0 57 0.5t53 0.5q0 -42 -1 -63l-57 -3l-2 -308q-1 -150 -72 -221q-63 -65 -171 -65q-120 0 -183 60q-68 63 -68 211v318q0 6 -5 6
l-54 2q0 43 1 63q17 0 59 -0.5t62 -0.5q25 0 72 0.5t67 0.5q0 -43 -1 -63zM348 885q47 0 77 -26t30 -66t-31.5 -67t-76.5 -27q-47 0 -78 24.5t-31 67.5q0 37 31.5 65.5t78.5 28.5zM346 842q-21 0 -34.5 -15t-13.5 -36t14 -35t35 -14q22 0 34.5 14t12.5 36t-12.5 36t-35.5 14
z" />
    <glyph glyph-name="uring" unicode="&#x16f;" horiz-adv-x="545" 
d="M358 42h-5q-61 -35 -87 -43.5t-59 -8.5q-48 0 -90 44.5t-42 93.5q0 43 0.5 121.5t0.5 111.5l-54 2q0 21 2 61q15 0 54.5 1.5t71.5 2.5t37 1q3 0 3 -3q-3 -222 -3 -236q0 -70 14 -91q19 -30 56 -30q43 0 94 38v254l-58 2q0 11 0.5 32t0.5 31q111 3 170 3q1 0 1 -4
q0 -54 -1 -172.5t-1 -177.5q0 -11 6 -11l62 2q0 -40 -1 -59q-10 -4 -54 -10.5t-80 -6.5q-17 14 -38 52zM262 676q46 0 74.5 -25t28.5 -64q0 -40 -30 -67t-75 -27t-75.5 25t-30.5 67q0 35 31 63t77 28zM260 634q-21 0 -34.5 -14.5t-13.5 -35.5t14.5 -35t34.5 -14q23 0 35 14
t12 36t-12.5 35.5t-35.5 13.5z" />
    <glyph glyph-name="Uhungarumlaut" unicode="&#x170;" horiz-adv-x="672" 
d="M214 584l-2 -317q-1 -108 39 -159q36 -44 103 -44q59 0 99 42q42 44 42 163q0 218 -1 312q0 3 -4 3l-78 3q0 10 0.5 31t0.5 31h124q20 0 57 0.5t53 0.5q0 -42 -1 -63l-57 -3l-2 -308q-1 -150 -72 -221q-63 -65 -171 -65q-120 0 -183 60q-68 63 -68 211v318q0 6 -5 6
l-54 2q0 43 1 63q17 0 59 -0.5t62 -0.5q25 0 72 0.5t67 0.5q0 -43 -1 -63zM362 878q16 -15 42 -52q-59 -43 -154 -108q-17 19 -32 38q25 22 76.5 65.5t67.5 56.5zM502 873q14 -13 43 -51q-51 -36 -153 -110q-4 4 -32 38q73 64 142 123z" />
    <glyph glyph-name="uhungarumlaut" unicode="&#x171;" horiz-adv-x="545" 
d="M358 42h-5q-61 -35 -87 -43.5t-59 -8.5q-48 0 -90 44.5t-42 93.5q0 43 0.5 121.5t0.5 111.5l-54 2q0 21 2 61q15 0 54.5 1.5t71.5 2.5t37 1q3 0 3 -3q-3 -222 -3 -236q0 -70 14 -91q19 -30 56 -30q43 0 94 38v254l-58 2q0 11 0.5 32t0.5 31q111 3 170 3q1 0 1 -4
q0 -54 -1 -172.5t-1 -177.5q0 -11 6 -11l62 2q0 -40 -1 -59q-10 -4 -54 -10.5t-80 -6.5q-17 14 -38 52zM274 658q17 -14 47 -48q-24 -20 -71.5 -59.5t-68.5 -57.5q-19 17 -35 35q20 21 64 65.5t64 64.5zM416 653q22 -18 46 -47q-40 -35 -137 -118q-20 19 -34 35
q20 20 62.5 65t62.5 65z" />
    <glyph glyph-name="Uogonek" unicode="&#x172;" horiz-adv-x="672" 
d="M247 -134q0 70 86 124q-113 5 -172 59q-40 37 -54 88.5t-14 123.5v318q0 6 -5 6l-54 2q0 43 1 63h121h139q0 -43 -1 -63l-80 -3l-2 -318q-1 -107 39 -158q36 -44 103 -44q59 0 99 42q42 44 42 163q0 218 -1 312q0 3 -4 3l-78 3q0 10 0.5 31.5t0.5 30.5h124q20 0 57 0.5
t53 0.5q0 -42 -1 -63l-57 -3l-2 -309q-1 -148 -72 -221q-42 -42 -120 -65q-32 -9 -52 -41t-20 -65q0 -24 15.5 -38t36.5 -14q12 0 41 8q8 -21 12 -42q-35 -19 -75 -19q-43 0 -74.5 23t-31.5 65z" />
    <glyph glyph-name="uogonek" unicode="&#x173;" horiz-adv-x="545" 
d="M327 -122q0 61 81 113q-4 -1 -12 -1q-17 14 -38 52h-5q-61 -35 -87 -43.5t-59 -8.5q-48 0 -90 44.5t-42 93.5q0 43 0.5 121.5t0.5 111.5l-54 2q0 21 2 61q24 0 82 2.5t81 2.5q3 0 3 -3q-3 -222 -3 -236q0 -70 14 -91q19 -30 56 -30q43 0 94 38v254l-58 2q0 11 0.5 32
t0.5 31q168 3 170 3q1 0 1 -4q0 -54 -1 -172.5t-1 -177.5q0 -11 6 -11l62 2q0 -41 -1 -59q-2 -1 -13.5 -3t-28 -5.5t-28.5 -7.5q-33 -12 -48 -40t-15 -53q0 -22 13.5 -37.5t32.5 -15.5q22 0 42 8q5 -14 11 -40q-30 -18 -69 -18q-40 0 -70 22t-30 61z" />
    <glyph glyph-name="Ydieresis" unicode="&#x178;" horiz-adv-x="588" 
d="M157 63l72 3q5 0 5 5v176q-44 78 -182 333q-2 4 -5 4l-47 3q0 43 1 63q15 0 53 -0.5t57 -0.5q28 0 81.5 0.5t74.5 0.5q0 -43 -1 -63l-77 -4q43 -96 128 -261h5q87 159 129 257q1 3 -3 5l-70 2q0 43 1 63h132q15 0 45 0.5t42 0.5q0 -43 -1 -63l-48 -3q-18 -30 -90 -154
t-107 -181l-1 -182l84 -3q0 -43 -1 -64q-18 0 -67 0.5t-73 0.5q-21 0 -68.5 -0.5t-69.5 -0.5q0 43 1 63zM237 817q23 0 36 -15.5t13 -34.5q0 -22 -14.5 -36.5t-37.5 -14.5q-21 0 -36 14.5t-15 36.5q0 19 14 34.5t40 15.5zM420 817q24 0 37.5 -15.5t13.5 -34.5
q0 -22 -14.5 -36.5t-35.5 -14.5q-24 0 -38.5 14.5t-14.5 36.5q0 19 13.5 34.5t38.5 15.5z" />
    <glyph glyph-name="Zacute" unicode="&#x179;" horiz-adv-x="592" 
d="M168 76l1 -4q214 0 254 10q21 6 29 28l32 96q50 -8 78 -15q-26 -119 -45 -192q-4 0 -50.5 0.5t-116.5 0.5h-131h-168q-9 17 -24 59q114 148 382 515l-2 4h-123q-83 0 -100 -4q-15 -5 -21 -24l-33 -103q-42 7 -77 14q15 87 35 191q24 -2 97 -2l338 -1q15 -40 24 -79
q-225 -305 -379 -494zM371 864q22 -27 45 -67q-118 -65 -181 -97q-19 27 -29 44q32 23 165 120z" />
    <glyph glyph-name="zacute" unicode="&#x17a;" horiz-adv-x="466" 
d="M160 66l1 -4q105 0 151 3q28 2 33 19l30 79q23 -4 67 -15q-11 -49 -37 -149l-55 1h-98h-121h-88q-10 22 -19 54q110 124 274 307l-1 5q-107 0 -135 -1q-21 0 -27 -15l-27 -79q-20 3 -70 12q5 27 16 76.5t15 69.5q2 0 35.5 -1t64.5 -1h238q11 -33 20 -74q-18 -22 -71 -79
t-115 -122t-81 -86zM307 662q20 -18 53 -57q-20 -15 -76.5 -59t-85.5 -65q-24 26 -35 40q27 26 83.5 82t60.5 59z" />
    <glyph glyph-name="Zdotaccent" unicode="&#x17b;" horiz-adv-x="592" 
d="M167 76l2 -4q213 0 253 10q21 6 29 28l32 96q47 -7 78 -15q-21 -100 -44 -192q-5 0 -51.5 0.5t-116.5 0.5h-131h-168q-13 30 -24 59q114 148 382 515l-2 4h-123q-83 0 -99 -4q-16 -5 -22 -24l-33 -103q-38 6 -76 14q26 150 34 191q26 -2 97 -2l339 -1q12 -33 23 -79
q-225 -305 -379 -494zM304 830q26 0 40.5 -16.5t14.5 -37.5q0 -24 -16 -40t-41 -16q-23 0 -39.5 15.5t-16.5 39.5q0 21 15.5 38t42.5 17z" />
    <glyph glyph-name="zdotaccent" unicode="&#x17c;" horiz-adv-x="466" 
d="M160 66l1 -4q105 0 151 3q28 2 33 19l31 79q20 -3 66 -15q-17 -77 -36 -149l-56 1h-98h-121h-88q-14 39 -19 54q110 124 274 307l-1 5q-107 0 -135 -1q-21 0 -27 -15l-27 -79q-14 2 -70 12q8 36 31 146q1 0 35 -1t66 -1h238q8 -28 20 -74q-19 -23 -70.5 -78
t-117.5 -124.5t-80 -84.5zM235 616q26 0 40 -16t14 -38q0 -23 -15.5 -39t-40.5 -16q-23 0 -39 15.5t-16 39.5q0 21 15 37.5t42 16.5z" />
    <glyph glyph-name="Zcaron" unicode="&#x17d;" horiz-adv-x="592" 
d="M168 76l1 -4q214 0 254 10q21 6 29 28l32 96q50 -8 78 -15q-26 -119 -45 -192q-4 0 -50.5 0.5t-116.5 0.5h-131h-168q-9 17 -24 59q114 148 382 515l-2 4h-123q-83 0 -100 -4q-15 -5 -21 -24l-33 -103q-42 7 -77 14q15 87 35 191q24 -2 97 -2l338 -1q15 -40 24 -79
q-225 -305 -379 -494zM318 783q39 25 116 74q16 -15 33 -40q-22 -18 -69.5 -56.5t-60.5 -48.5q-13 -1 -39 1q-81 67 -128 104q14 21 32 39q19 -12 116 -73z" />
    <glyph glyph-name="zcaron" unicode="&#x17e;" horiz-adv-x="466" 
d="M160 66l1 -4q105 0 151 3q28 2 33 19l30 79q23 -4 67 -15q-11 -49 -37 -149l-55 1h-98h-121h-88q-10 22 -19 54q110 124 274 307l-1 5q-107 0 -135 -1q-21 0 -27 -15l-27 -79q-20 3 -70 12q5 27 16 76.5t15 69.5q2 0 35.5 -1t64.5 -1h238q11 -33 20 -74q-18 -22 -71 -79
t-115 -122t-81 -86zM235 562q24 23 99 95q21 -17 36 -34q-2 -2 -47 -56t-64 -76q-33 0 -48 1q-16 19 -54.5 64t-57.5 67q18 18 38 33q26 -25 98 -94z" />
    <glyph glyph-name="florin" unicode="&#x192;" horiz-adv-x="541" 
d="M452 655q46 0 81 -14q0 -14 -14 -44.5t-26 -40.5q-58 18 -88 18q-42 0 -61 -28q-16 -20 -23.5 -56.5t-11.5 -118.5q28 0 88 0.5t92 0.5q0 -36 -3 -68h-56.5h-68.5h-55q-12 -243 -22 -294q-15 -83 -84 -136t-140 -53q-44 0 -69 11q0 12 13 40t24 39q38 -12 68 -12
q34 0 59 29.5t30 87.5q5 67 12 288h-119q0 25 2 65q84 2 114 2q5 0 5 7q4 88 19 129.5t57 79.5q74 68 177 68z" />
    <glyph glyph-name="Scommaaccent" unicode="&#x218;" horiz-adv-x="511" 
d="M115 194l22 -102q1 -7 7 -11q31 -21 82 -21q64 0 95 31q28 28 28 70q0 26 -5.5 42.5t-26 31.5t-35 22t-59.5 26q-78 33 -120.5 76t-42.5 107q0 85 67 140q64 54 183 54q85 0 127 -21q2 -20 13 -162q-59 -8 -75 -9l-20 93q-3 8 -6 10q-21 18 -64 18q-48 0 -79 -25
q-33 -27 -33 -72q0 -43 23.5 -63t103.5 -52q83 -34 122.5 -75t39.5 -108q0 -92 -65 -148q-67 -56 -193 -56q-90 0 -150 22q-4 34 -16 170q31 7 77 12zM252 -51q26 0 47 -24.5t21 -56.5q0 -49 -29.5 -92.5t-77.5 -70.5l-15 18t-14 18q60 42 60 88q0 33 -45 45q-4 32 12 53.5
t41 21.5z" />
    <glyph glyph-name="scommaaccent" unicode="&#x219;" horiz-adv-x="421" 
d="M100 144l14 -61q3 -8 8 -12q26 -18 63 -18q40 0 59 12q26 15 26 45q0 28 -18 39.5t-80 29.5q-64 19 -93 48t-29 73q0 37 21 66t52 45q51 27 128 27q72 0 107 -16q8 -60 12 -120q-64 -10 -67 -10l-15 59q-2 7 -6 11q-19 13 -51 13t-51 -14q-22 -15 -22 -45q0 -23 17 -33.5
t79 -28.5q63 -17 94 -43t31 -80q0 -75 -74 -116q-45 -25 -132 -25q-76 0 -125 18q-2 20 -7.5 61.5t-7.5 62.5q30 7 67 12zM212 -61q26 0 46.5 -22t20.5 -51q0 -45 -29 -84.5t-76 -63.5q-16 16 -29 32q59 38 59 80q0 30 -45 41q-3 29 13 48.5t40 19.5z" />
    <glyph glyph-name="uni021A" unicode="&#x21a;" horiz-adv-x="588" 
d="M157 63l75 3q4 0 4 4v513q-65 0 -105 -4q-19 -2 -22 -20l-17 -96q-10 1 -37 3t-40 3q2 29 5.5 89.5t5.5 91.5q8 0 40 -0.5t53 -0.5h181h176q41 1 91 1q6 -114 8 -179q-39 -5 -77 -8l-16 97q-3 17 -22 18q-28 4 -105 4l-2 -515l83 -4q0 -42 -1 -63q-18 0 -66 0.5t-72 0.5
q-22 0 -70 -0.5t-71 -0.5q0 43 1 63zM291 -39q26 0 47 -24.5t21 -56.5q0 -50 -29 -93t-77 -70q-18 20 -29 35q59 42 59 89q0 34 -45 45q-4 32 12 53.5t41 21.5z" />
    <glyph glyph-name="uni021B" unicode="&#x21b;" horiz-adv-x="386" 
d="M198 -10q-47 0 -77 28q-20 17 -25.5 34t-5.5 44q0 31 0.5 82t0.5 57q0 14 0.5 64t0.5 58h-69q0 43 2 63q18 2 64 4q7 0 7 7q2 43 5 90q16 9 41.5 19.5t43 16.5t19.5 6t2 -3q0 -64 -2 -134q107 0 156 1q0 -5 -3 -71q-22 0 -74.5 0.5t-79.5 0.5v-100q-1 -41 -1 -138
q0 -26 16.5 -40t40.5 -14q42 0 101 16q5 -27 9 -61q-80 -30 -172 -30zM212 -56q26 0 47 -22.5t21 -50.5q0 -45 -29 -84.5t-77 -64.5q-4 4 -14 15t-14 17q59 40 59 81q0 29 -45 41q-3 29 12.5 48.5t39.5 19.5z" />
    <glyph glyph-name="circumflex" unicode="&#x2c6;" horiz-adv-x="382" 
d="M192 573q-25 -24 -98 -94q-4 3 -17.5 15t-20.5 19q20 23 59 68.5t53 61.5q16 1 48 1q19 -21 59 -68.5t53 -62.5q-24 -24 -37 -34q-38 37 -99 94z" />
    <glyph glyph-name="caron" unicode="&#x2c7;" horiz-adv-x="382" 
d="M192 562q24 23 99 95q13 -10 37 -34q-17 -20 -57 -67t-55 -64q-23 -2 -48 0q-16 19 -54.5 64t-57.5 67q18 18 38 33q26 -25 98 -94z" />
    <glyph glyph-name="uni02C9" unicode="&#x2c9;" horiz-adv-x="382" 
d="M300 573q2 -29 0 -59q-30 0 -105 0.5t-112 0.5q-2 27 0 56q146 2 217 2z" />
    <glyph glyph-name="breve" unicode="&#x2d8;" horiz-adv-x="382" 
d="M189 496q-48 0 -83 30.5t-43 75.5q23 10 50 15q23 -60 80 -60q27 0 47.5 16.5t28.5 39.5q22 -3 51 -10q-7 -41 -44 -74t-87 -33z" />
    <glyph glyph-name="dotaccent" unicode="&#x2d9;" horiz-adv-x="382" 
d="M193 619q26 0 40 -16t14 -38q0 -23 -15.5 -39t-40.5 -16q-23 0 -39 15.5t-16 39.5q0 21 15 37.5t42 16.5z" />
    <glyph glyph-name="ring" unicode="&#x2da;" horiz-adv-x="382" 
d="M194 676q46 0 74.5 -25t28.5 -64q0 -40 -30 -67t-75 -27t-75.5 25t-30.5 67q0 35 31 63t77 28zM192 634q-21 0 -34.5 -14.5t-13.5 -35.5t14.5 -35t34.5 -14q23 0 35 14t12 36t-12.5 35.5t-35.5 13.5z" />
    <glyph glyph-name="ogonek" unicode="&#x2db;" horiz-adv-x="382" 
d="M201 -113q0 68 91 119h45q-64 -49 -64 -104q0 -23 13.5 -35.5t34.5 -12.5q19 0 39 8q9 -32 11 -40q-30 -18 -69 -18q-41 0 -71 22t-30 61z" />
    <glyph glyph-name="tilde" unicode="&#x2dc;" horiz-adv-x="382" 
d="M134 615q8 0 15.5 -1.5t16.5 -6l13 -6.5t14 -9.5t12 -8.5q3 -2 10 -7t10 -6.5t8.5 -4.5t10.5 -4t10 -1q27 0 33 51q24 1 45 0q-6 -114 -80 -114q-24 0 -65 29q-2 2 -13.5 9.5t-15 9.5t-11.5 5t-15 3q-28 0 -36 -51h-45q4 50 24.5 81.5t58.5 31.5z" />
    <glyph glyph-name="hungarumlaut" unicode="&#x2dd;" horiz-adv-x="382" 
d="M172 658q17 -14 47 -48q-10 -8 -61 -51t-79 -65q-6 5 -35 34q48 48 128 130zM314 653q20 -16 47 -47q-25 -21 -72 -61.5t-66 -56.5q-20 19 -34 35q20 20 63 65t62 65z" />
    <glyph glyph-name="pi" unicode="&#x3c0;" horiz-adv-x="568" 
d="M530 388h-61v-245q0 -95 12 -143h-107q-16 27 -16 134v254h-133q-3 -98 -20 -216t-40 -172h-107q24 70 41 184.5t18 203.5q-32 0 -47 -1q-25 -2 -44 -6l-13 65q37 27 149 27h380z" />
    <glyph glyph-name="uni2010" unicode="&#x2010;" horiz-adv-x="340" 
d="M151 207h-117q0 11 0.5 34t1.5 34q21 0 61 0.5t60 0.5q25 0 75 0.5t74 1.5q0 -38 -3 -71h-152z" />
    <glyph glyph-name="figuredash" unicode="&#x2012;" horiz-adv-x="541" 
d="M38 331h2q41 0 120 0.5t117 0.5q90 0 228 2q0 -40 -3 -70h-224h-242q0 25 2 67z" />
    <glyph glyph-name="endash" unicode="&#x2013;" horiz-adv-x="500" 
d="M258 207h-224q0 26 2 68q37 0 111.5 0.5t110.5 0.5q88 0 208 2q0 -40 -3 -71h-205z" />
    <glyph glyph-name="emdash" unicode="&#x2014;" horiz-adv-x="1000" 
d="M492 207h-458q0 11 0.5 34t1.5 34q75 0 226.5 0.5t226.5 0.5q183 0 477 2q0 -40 -3 -71h-471z" />
    <glyph glyph-name="quoteleft" unicode="&#x2018;" horiz-adv-x="234" 
d="M128 433q-30 0 -54 27.5t-24 64.5q0 58 36.5 111.5t90.5 79.5q18 -18 34 -42q-69 -47 -69 -101q0 -36 53 -51q4 -39 -15 -64t-52 -25z" />
    <glyph glyph-name="quoteright" unicode="&#x2019;" horiz-adv-x="234" 
d="M109 699q30 0 54 -27.5t24 -64.5q0 -57 -36.5 -111t-90.5 -80q-19 21 -34 43q69 46 69 101q0 36 -52 52q-4 38 14.5 62.5t51.5 24.5z" />
    <glyph glyph-name="quotesinglbase" unicode="&#x201a;" horiz-adv-x="256" 
d="M124 125q30 0 54 -27.5t24 -64.5q0 -57 -36.5 -111t-90.5 -80q-19 21 -34 43q69 46 69 101q0 36 -52 52q-4 38 14.5 62.5t51.5 24.5z" />
    <glyph glyph-name="quotedblleft" unicode="&#x201c;" horiz-adv-x="409" 
d="M124 454q-29 0 -51.5 26t-22.5 61q0 53 34.5 104t86.5 75q19 -21 32 -41q-66 -45 -66 -94q0 -34 51 -47q5 -36 -14 -60t-50 -24zM308 454q-29 0 -51.5 26t-22.5 61q0 53 34.5 104t86.5 75q15 -17 31 -41q-65 -45 -65 -94q0 -33 51 -47q4 -36 -14.5 -60t-49.5 -24z" />
    <glyph glyph-name="quotedblright" unicode="&#x201d;" horiz-adv-x="409" 
d="M104 699q28 0 51 -26t23 -61q0 -54 -34.5 -104.5t-85.5 -74.5q-19 21 -32 41q65 44 65 94q0 33 -51 50q-4 36 14.5 58.5t49.5 22.5zM288 699q28 0 51 -26t23 -61q0 -54 -34.5 -104.5t-85.5 -74.5q-17 21 -32 41q65 44 65 94q0 34 -51 49q-3 36 15.5 59t48.5 23z" />
    <glyph glyph-name="quotedblbase" unicode="&#x201e;" horiz-adv-x="431" 
d="M120 119q28 0 51 -26t23 -61q0 -54 -34.5 -104t-85.5 -75q-23 28 -32 41q65 46 65 94q0 33 -51 50q-4 36 14.5 58.5t49.5 22.5zM304 119q28 0 51 -26t23 -61q0 -54 -34.5 -104t-85.5 -75q-17 21 -32 41q65 45 65 94q0 32 -51 50q-3 36 15.5 58.5t48.5 22.5z" />
    <glyph glyph-name="dagger" unicode="&#x2020;" horiz-adv-x="503" 
d="M300 654q0 -2 1 -4q-1 -33 -5 -216q54 1 164 1q0 -42 -4 -74h-161q-10 -447 -11 -526q-18 -9 -75 -14q-2 86 -7 273.5t-7 266.5h-154q2 42 3 71q98 2 143 2q7 0 7 7q-2 131 -4 180q21 11 58.5 22t51.5 11z" />
    <glyph glyph-name="daggerdbl" unicode="&#x2021;" horiz-adv-x="503" 
d="M300 654q0 -2 1 -4q-1 -33 -2.5 -113.5t-2.5 -101.5q27 0 82 0.5t83 0.5q0 -38 -3 -74h-164q-1 -40 -2 -115t-1 -99q26 0 83 -0.5t85 -0.5q0 -39 -4 -71q-24 0 -82.5 -0.5t-84.5 -0.5q-2 -69 -4 -240q-23 -9 -75 -13q-3 82 -7 252q-95 0 -160 -1q0 40 3 76
q25 0 75.5 -0.5t73.5 -0.5q5 0 5 7q-1 32 -2 104t-1 103h-156q0 5 3 71q54 0 144 2q7 0 7 7q-1 81 -5 180q14 9 54.5 20.5t56.5 11.5z" />
    <glyph glyph-name="bullet" unicode="&#x2022;" horiz-adv-x="356" 
d="M181 380q55 0 85 -37t30 -85q0 -49 -33 -85t-84 -36t-84.5 33t-33.5 84t33 88.5t87 37.5z" />
    <glyph glyph-name="onedotenleader" unicode="&#x2024;" horiz-adv-x="287" 
d="M147 125q31 0 48 -20.5t17 -46.5q0 -29 -19 -48.5t-49 -19.5q-28 0 -48 18.5t-20 47.5q0 27 19 48t52 21z" />
    <glyph glyph-name="twodotenleader" unicode="&#x2025;" horiz-adv-x="574" 
d="M147 125q31 0 48 -20.5t17 -46.5q0 -29 -19 -48.5t-49 -19.5q-28 0 -48 18.5t-20 47.5q0 27 19 48t52 21zM434 125q31 0 48 -20.5t17 -46.5q0 -29 -19 -48.5t-49 -19.5q-28 0 -48 18.5t-20 47.5q0 27 19 48t52 21z" />
    <glyph glyph-name="ellipsis" unicode="&#x2026;" horiz-adv-x="861" 
d="M147 125q31 0 48 -20.5t17 -46.5q0 -29 -19 -48.5t-49 -19.5q-28 0 -48 18.5t-20 47.5q0 27 19 48t52 21zM434 125q31 0 48 -20.5t17 -46.5q0 -29 -19 -48.5t-49 -19.5q-28 0 -48 18.5t-20 47.5q0 27 19 48t52 21zM721 125q31 0 48 -20.5t17 -46.5q0 -29 -19 -48.5
t-49 -19.5q-28 0 -48 18.5t-20 47.5q0 27 19 48t52 21z" />
    <glyph glyph-name="perthousand" unicode="&#x2030;" horiz-adv-x="1168" 
d="M527 604l-5 3q-58 -1 -210 -1q19 -15 31 -47.5t12 -69.5q0 -94 -60 -147q-42 -36 -101 -36q-55 0 -94 30q-60 45 -60 143q0 88 59 137q43 36 110 36q236 0 379 11q9 -11 27 -40q-57 -95 -189 -320q-55 -94 -196 -334q-36 17 -53 28q142 243 195 336q126 219 155 271z
M199 603q-25 0 -42 -18q-28 -31 -28 -106q0 -81 26 -105q19 -19 43 -19q25 0 40 15q28 28 28 112q0 71 -24 102q-14 19 -43 19zM610 336q60 0 98 -33q51 -47 51 -134q0 -94 -57 -144q-40 -36 -100 -36q-58 0 -96 28q-26 19 -43 55.5t-17 82.5q0 92 61 145q42 36 103 36z
M978 336q63 0 99 -34q51 -47 51 -133q0 -44 -15.5 -82.5t-41.5 -61.5q-40 -36 -101 -36q-60 0 -96 28q-26 19 -43 56t-17 82q0 43 16.5 82t44.5 62q43 37 103 37zM604 287q-26 0 -42 -19q-27 -30 -27 -110q0 -76 24 -102q17 -18 44 -18q25 0 42 16q26 26 26 107
q0 77 -24 106q-14 20 -43 20zM972 287q-26 0 -42 -19q-27 -30 -27 -110q0 -77 24 -101q16 -19 45 -19q24 0 41 16q27 27 27 109q0 74 -23 104q-16 20 -45 20z" />
    <glyph glyph-name="guilsinglleft" unicode="&#x2039;" horiz-adv-x="275" 
d="M140 221q45 -74 97 -150q-15 -14 -40 -33q-75 81 -150 156q-1 16 -1 50q75 77 151 157q14 -9 39 -34q-60 -89 -96 -146z" />
    <glyph glyph-name="guilsinglright" unicode="&#x203a;" horiz-adv-x="275" 
d="M136 221q-44 70 -97 146q26 26 39 35q104 -108 152 -157q0 -18 -2 -50q-97 -101 -150 -157q-12 9 -39 34q39 58 97 149z" />
    <glyph glyph-name="fraction" unicode="&#x2044;" horiz-adv-x="99" 
d="M-115 -17q-42 21 -51 26l90 153t82 140q160 284 202 359q36 -14 56 -27q-70 -120 -207 -360q-68 -117 -172 -291z" />
    <glyph glyph-name="zero.superior" unicode="&#x2070;" 
d="M320 584q0 -96 -51 -144q-35 -32 -95 -32q-56 0 -90 33q-45 45 -45 129q0 100 53 150q34 34 95 34q59 0 92 -37q41 -44 41 -133zM180 710q-20 0 -34 -21q-19 -33 -19 -116q0 -76 18 -102q11 -18 34 -18t33 15q20 28 20 106q0 83 -15 113q-12 23 -37 23z" />
    <glyph glyph-name="four.superior" unicode="&#x2074;" 
d="M268 456l42 -1v-40h-88h-95q0 27 1 39l67 2q3 0 3 2v38h-153q-13 23 -23 50q14 18 39.5 51t38.5 50q74 92 86 106q30 0 84 -2q0 -31 -0.5 -100t-0.5 -103h61q0 -14 -2 -50h-60v-42zM199 685h-7q-19 -27 -54 -71q-42 -58 -43 -60q-4 -6 3 -6h100z" />
    <glyph glyph-name="five.superior" unicode="&#x2075;" 
d="M68 574l-7 7q8 84 20 167h111h109q0 -20 -4 -58q-29 0 -80.5 0.5t-73.5 0.5q-2 -11 -6.5 -33.5l-5.5 -27.5q30 2 44 2q60 0 96.5 -27t36.5 -73q0 -61 -47 -94q-41 -30 -122 -30q-56 0 -81 7q-10 57 -13 93q30 7 56 10l14 -52q1 -3 4 -6q10 -5 33 -5q33 0 51 15
q20 17 20 46q0 62 -88 62q-31 0 -67 -4z" />
    <glyph glyph-name="six.superior" unicode="&#x2076;" 
d="M127 601h3q38 26 81 26q45 0 74 -25q33 -30 33 -75q0 -58 -41 -91q-35 -29 -97 -29q-60 0 -95 31q-43 40 -43 121q0 97 57 153q45 43 121 43q35 0 67 -8q8 -71 9 -83q-44 -8 -56 -9l-11 43q-2 5 -5 6q-8 4 -20 4q-27 0 -45 -21q-26 -30 -32 -86zM186 450q22 0 35 16
q12 17 12 48q0 36 -18 53q-10 10 -31 10q-32 0 -55 -30q-1 -54 21 -81q13 -16 36 -16z" />
    <glyph glyph-name="seven.superior" unicode="&#x2077;" 
d="M241 685l-1 3q-104 1 -118 -1q-8 0 -12 -11l-13 -44q-7 1 -56 9q11 66 17 108q19 -1 61 -1h185q9 -22 17 -54q-88 -136 -112 -218q-7 -25 -7 -62q-29 -3 -85 -3q-1 35 11 67q23 60 113 207z" />
    <glyph glyph-name="eight.superior" unicode="&#x2078;" 
d="M244 597v-4q36 -11 56 -33t19 -50q0 -43 -34 -71q-38 -31 -113 -31q-70 0 -103 25q-32 22 -32 62q0 27 19.5 51t54.5 38v3q-59 28 -59 76q0 41 36 66q37 25 98 25q60 0 90 -22q29 -21 29 -56q0 -52 -61 -79zM129 668q0 -16 15 -28t50 -24q36 20 36 52q0 19 -11 30
q-11 13 -36 13t-38 -10q-16 -11 -16 -33zM238 500q0 21 -17.5 34.5t-59.5 28.5q-42 -22 -42 -61q0 -25 18 -38q16 -13 42 -13t41 11q18 11 18 38z" />
    <glyph glyph-name="nine.superior" unicode="&#x2079;" 
d="M229 562l-3 1q-35 -26 -80 -26q-48 0 -78 28t-30 70q0 52 41 88q38 31 97 31q62 0 95 -33q43 -41 43 -120q0 -100 -58 -152q-44 -41 -119 -41q-48 0 -75 8q-2 15 -6.5 42.5t-6.5 38.5q26 7 55 12l14 -42q1 -3 7 -9q7 -3 23 -3q34 0 50 20q26 31 31 87zM170 711
q-21 0 -33 -16q-15 -20 -15 -48q0 -30 15 -47q11 -14 35 -14q33 0 55 27q2 55 -21 82q-11 16 -36 16z" />
    <glyph glyph-name="parenleft.superior" unicode="&#x207d;" horiz-adv-x="259" 
d="M73 567q0 80 41 142.5t97 95.5q13 -12 26 -32q-36 -30 -60 -83.5t-24 -119.5q0 -126 84 -210q-17 -19 -31 -29q-38 29 -63.5 55t-47.5 74.5t-22 106.5z" />
    <glyph glyph-name="parenright.superior" unicode="&#x207e;" horiz-adv-x="259" 
d="M188 573q0 -147 -136 -242q-12 12 -28 30q84 84 84 210t-83 204q18 21 29 30q56 -34 95 -93t39 -139z" />
    <glyph glyph-name="n.superior" unicode="&#x207f;" horiz-adv-x="445" 
d="M75 576l-55 1q0 8 0.5 23.5t0.5 22.5q14 2 45.5 7t56 9.5t27.5 4.5q2 0 2 -2q5 -35 7 -46l2 -1q53 33 75 41.5t49 8.5q49 0 79 -53q16 -26 16 -62q0 -63 -2 -167l45 -2q0 -32 -1 -48h-89h-81v48l38 2q3 0 3 3v118q0 55 -8 70q-13 23 -42 23q-37 0 -81 -35q0 -26 -0.5 -90
t-0.5 -89l44 -2v-48h-89h-86v48l43 2q3 0 3 3z" />
    <glyph glyph-name="zero.inferior" unicode="&#x2080;" 
d="M320 55q0 -96 -51 -144q-35 -32 -95 -32q-56 0 -90 33q-45 45 -45 129q0 100 53 150q34 34 95 34q59 0 92 -37q41 -44 41 -133zM180 181q-20 0 -34 -21q-19 -33 -19 -116q0 -76 18 -102q11 -18 34 -18t33 15q20 28 20 106q0 83 -15 113q-12 23 -37 23z" />
    <glyph glyph-name="one.inferior" unicode="&#x2081;" 
d="M235 -66l79 -1v-46h-118h-132q0 30 1 46l86 1q2 0 2 3v207q-82 -16 -88 -17q-6 32 -8 47q28 8 72.5 23t72.5 24t33 9q1 0 1 -3q0 -44 -0.5 -145t-0.5 -148z" />
    <glyph glyph-name="two.inferior" unicode="&#x2082;" 
d="M304 124q0 -71 -103 -145q-20 -15 -46 -32l1 -5q18 0 80.5 2.5t70.5 2.5q2 0 2 -2q0 -31 -3 -58h-172h-81q-9 23 -13 42q52 33 90 66q25 22 40.5 37t30.5 40t15 49t-15 41q-11 14 -38 14q-28 0 -41 -12q-3 -2 -3 -5l-11 -56q-40 2 -55 4q4 73 5 99q49 20 115 20
q68 0 99 -28q32 -29 32 -74z" />
    <glyph glyph-name="three.inferior" unicode="&#x2083;" 
d="M103 -9l12 -52q2 -4 4 -6q12 -7 35 -7q34 0 48 13q20 13 20 39q0 55 -81 55h-37q-1 17 -1 48q113 -1 113 57q0 20 -12 30q-12 11 -40 11q-25 0 -40 -10q-3 -3 -3 -5l-9 -49q-6 0 -17.5 1t-21 1.5t-18.5 0.5q2 31 4 89q52 19 116 19q68 0 97 -22q31 -24 31 -55
q0 -61 -74 -81v-4q40 -6 61 -29t21 -51q0 -51 -44 -78q-39 -27 -119 -27q-56 0 -92 8q-2 18 -6 52.5t-5 42.5q9 2 19 3.5t21 3t18 2.5z" />
    <glyph glyph-name="four.inferior" unicode="&#x2084;" 
d="M268 -73l42 -1v-40h-88h-95q0 27 1 39l67 2q3 0 3 2v38h-153q-13 23 -23 50q14 18 39.5 51t38.5 50q74 92 86 106q30 0 84 -2q0 -30 -0.5 -99.5t-0.5 -103.5h61q0 -14 -2 -50h-60v-42zM199 156h-7q-19 -27 -54 -71q-42 -58 -43 -60q-4 -6 3 -6h100z" />
    <glyph glyph-name="five.inferior" unicode="&#x2085;" 
d="M68 45l-7 7q8 84 20 167h111h109q0 -20 -4 -58q-29 0 -80.5 0.5t-73.5 0.5q-2 -11 -6.5 -33.5l-5.5 -27.5q30 2 44 2q60 0 96.5 -27t36.5 -73q0 -61 -47 -94q-41 -30 -122 -30q-56 0 -81 7q-10 57 -13 93q30 7 56 10l14 -52q1 -3 4 -6q13 -5 33 -5q33 0 51 15
q20 17 20 46q0 62 -88 62q-31 0 -67 -4z" />
    <glyph glyph-name="six.inferior" unicode="&#x2086;" 
d="M127 72h3q38 26 81 26q45 0 74 -25q33 -30 33 -75q0 -57 -41 -90q-35 -29 -97 -29q-60 0 -95 31q-43 40 -43 120q0 97 57 153q45 43 121 43q35 0 67 -8q8 -71 9 -83q-44 -8 -56 -9l-11 43q-2 5 -5 6q-8 4 -20 4q-27 0 -45 -21q-26 -30 -32 -86zM186 -78q22 0 35 16
q12 17 12 48q0 36 -18 52q-10 10 -31 10q-32 0 -55 -30q-1 -54 21 -80q13 -16 36 -16z" />
    <glyph glyph-name="seven.inferior" unicode="&#x2087;" 
d="M241 156l-1 3q-104 1 -118 -1q-8 0 -12 -11l-13 -44q-7 1 -56 9q11 66 17 108q19 -1 61 -1h185q9 -22 17 -54q-88 -136 -112 -218q-7 -25 -7 -62q-29 -3 -85 -3q-1 35 11 67q23 60 113 207z" />
    <glyph glyph-name="eight.inferior" unicode="&#x2088;" 
d="M244 68v-4q36 -11 56 -33t19 -50q0 -43 -34 -71q-40 -31 -113 -31q-68 0 -103 25q-32 22 -32 62q0 59 74 89v3q-59 28 -59 76q0 41 36 66q37 25 98 25q60 0 90 -22q29 -21 29 -56q0 -50 -61 -79zM129 139q0 -16 15 -28t50 -24q36 19 36 52q0 19 -11 30q-11 13 -36 13
t-38 -10q-16 -11 -16 -33zM238 -29q0 21 -17.5 34.5t-59.5 28.5q-42 -22 -42 -61q0 -23 18 -38q16 -13 42 -13t41 11q18 11 18 38z" />
    <glyph glyph-name="nine.inferior" unicode="&#x2089;" 
d="M229 33l-3 1q-35 -26 -80 -26q-48 0 -78 28t-30 70q0 52 41 88q38 31 97 31q62 0 95 -33q43 -41 43 -120q0 -100 -58 -152q-44 -41 -119 -41q-48 0 -75 8q-2 15 -6.5 42.5t-6.5 38.5q25 7 55 12l14 -42q1 -3 7 -9q7 -3 23 -3q34 0 50 20q26 31 31 87zM170 182
q-21 0 -33 -16q-15 -20 -15 -48q0 -30 15 -47q11 -14 35 -14q33 0 55 27q2 55 -21 82q-11 16 -36 16z" />
    <glyph glyph-name="parenleft.inferior" unicode="&#x208d;" horiz-adv-x="259" 
d="M73 38q0 80 41 142.5t97 95.5q13 -12 26 -32q-36 -30 -60 -83.5t-24 -119.5q0 -126 84 -210q-17 -19 -31 -29q-38 29 -63.5 55t-47.5 74.5t-22 106.5z" />
    <glyph glyph-name="parenright.inferior" unicode="&#x208e;" horiz-adv-x="259" 
d="M188 44q0 -147 -136 -242q-12 12 -28 30q84 84 84 210t-83 204q18 21 29 30q56 -34 95 -93t39 -139z" />
    <glyph glyph-name="colonmonetary" unicode="&#x20a1;" horiz-adv-x="545" 
d="M368 32l-10 -109q-14 -2 -46 -2l9 108q-30 0 -63 5l-10 -111q-15 -2 -47 -2l11 124q-86 26 -130.5 93t-44.5 149q0 110 59 195.5t161 114.5l9 117q21 4 53 4l-10 -110q27 4 59 4l8 101q20 5 53 5l-10 -109q71 -3 115 -31q0 -18 -13.5 -43.5t-27.5 -37.5q-42 29 -81 36
l-39 -432q54 4 125 28q9 -33 13 -62q-72 -27 -143 -35zM327 100l36 442q-26 3 -60 -3l-38 -429q27 -8 62 -10zM220 130l32 393q-46 -23 -76 -80t-30 -132q0 -127 74 -181z" />
    <glyph glyph-name="Euro" unicode="&#x20ac;" horiz-adv-x="541" 
d="M0 333v47h54q28 120 123 197q45 37 104.5 57t115.5 20q76 0 117 -19q7 -88 12 -181q-46 -8 -76 -10l-19 105q-4 12 -8 14q-23 15 -55 15q-66 0 -119 -53q-57 -60 -73 -145h208v-47h-213q-1 -7 -1 -23q0 -17 2 -45h212v-46h-203q11 -53 48 -94q23 -24 61.5 -40t73.5 -16
q73 0 153 36q9 -31 14 -69q-39 -16 -59.5 -23.5t-57.5 -15t-72 -7.5q-113 0 -190 59q-79 60 -100 170h-52v46h45q-1 8 -1 24q0 21 3 44h-47z" />
    <glyph glyph-name="uni2113" unicode="&#x2113;" horiz-adv-x="510" 
d="M429 161l52 -50q-71 -122 -205 -122q-72 0 -113.5 39t-51.5 109q0 3 -3 8q-9 -7 -26 -18t-23 -15l-31 59q52 35 80 57v240q0 112 45 167t120 55q63 0 100 -42t37 -112q0 -85 -48.5 -163t-148.5 -166v-14q0 -113 90 -113q70 0 126 81zM213 485v-178q111 116 111 227
q0 82 -52 82q-26 0 -42.5 -32t-16.5 -99z" />
    <glyph glyph-name="trademark" unicode="&#x2122;" horiz-adv-x="639" 
d="M81 434l32 1v177q-29 0 -39 -3l-7 -48q-14 1 -40 3q1 32 3 86q19 0 58 -0.5t59 -0.5t56.5 0.5t54.5 0.5q0 -11 1.5 -39.5t2.5 -46.5q-13 -1 -41 -3l-7 48q-11 3 -40 3v-178h34v-38q-8 0 -29 0.5t-33 0.5t-34 -0.5t-32 -0.5q0 25 1 38zM282 433l31 1q0 28 0.5 90t0.5 87
l-31 1v38q18 0 54 -0.5t52 -0.5q8 -23 25.5 -82t25.5 -83h5q8 25 27.5 86.5t24.5 78.5q16 0 50.5 0.5t51.5 0.5v-38l-31 -1q1 -54 1 -177l31 -1v-36h-55q-10 0 -26.5 -0.5t-22.5 -0.5v37l21 1q1 46 1 139h-5q-24 -76 -57 -164h-38q-26 73 -55 166h-5v-141l22 -1v-36h-46
q-9 0 -26.5 -0.5t-25.5 -0.5v37z" />
    <glyph glyph-name="Omega" unicode="&#x2126;" horiz-adv-x="713" 
d="M675 87v-87h-264v68q59 42 97 112t38 159q0 93 -50.5 162.5t-136.5 69.5q-87 0 -139.5 -68.5t-52.5 -164.5q0 -83 39 -158.5t96 -111.5v-68h-265v87h134v5q-52 42 -86.5 108.5t-34.5 149.5q0 134 88 222.5t223 88.5q137 0 219.5 -87.5t82.5 -214.5q0 -162 -123 -267v-5
h135z" />
    <glyph glyph-name="estimated" unicode="&#x212e;" horiz-adv-x="831" 
d="M785 310h-598q-5 0 -5 -5l1 -180q0 -13 8 -21q93 -98 228 -98q70 0 131.5 29.5t106.5 80.5h53q-50 -60 -127 -95t-165 -35q-154 0 -262.5 97t-108.5 235q0 137 108.5 234.5t260.5 97.5q153 0 261 -97.5t108 -234.5v-8zM650 333v182q0 12 -9 21q-92 94 -224 94
q-133 0 -226 -96q-9 -9 -9 -23v-178q0 -5 5 -5h459q4 0 4 5z" />
    <glyph glyph-name="onethird" unicode="&#x2153;" horiz-adv-x="800" 
d="M230 360l79 -1v-46h-118h-132q0 30 1 46l86 1q2 0 2 3v207q-82 -16 -88 -17q-5 26 -8 47q29 8 72.5 22.5l72 24t33.5 9.5q1 0 1 -3q0 -44 -0.5 -145t-0.5 -148zM238 -17q-39 18 -52 26q74 125 171 294q108 191 202 358q35 -13 57 -27q-70 -120 -207 -360
q-28 -49 -91 -155t-80 -136zM537 103l13 -51q1 -3 4 -6q12 -7 35 -7q33 0 48 12q20 15 20 39q0 56 -81 56h-37q-1 17 -1 48q112 -1 112 57q0 19 -12 30q-11 11 -39 11q-25 0 -40 -10q-3 -3 -3 -5l-9 -49l-57 3q2 31 4 89q52 19 116 19q69 0 96 -22q31 -24 31 -55
q0 -61 -73 -81v-4q40 -6 61 -29t21 -52q0 -49 -44 -78q-40 -26 -119 -26q-56 0 -92 8q-1 10 -5 43t-7 52q42 6 58 8z" />
    <glyph glyph-name="twothirds" unicode="&#x2154;" horiz-adv-x="800" 
d="M304 550q0 -71 -103 -145q-13 -11 -46 -32l1 -5q18 0 80.5 2.5t70.5 2.5q2 0 2 -2q0 -31 -3 -58h-171h-81q-9 23 -13 42q52 33 90 66q25 21 40.5 36.5t30 41t14.5 49.5t-14 41q-13 14 -39 14q-25 0 -40 -12q-3 -1 -3 -6l-11 -56q-9 1 -28 2.5t-27 1.5q4 72 5 100
q49 20 115 20q67 0 98 -28q32 -29 32 -75zM243 -17q-39 18 -52 26q56 95 171 293q160 284 202 359q35 -13 57 -27q-70 -120 -207 -360q-28 -49 -91 -155t-80 -136zM542 103l12 -51q1 -3 4 -6q12 -7 35 -7q33 0 48 12q20 15 20 39q0 56 -81 56h-37q-1 17 -1 48q113 -1 113 57
q0 19 -12 30t-40 11q-25 0 -40 -10q-3 -3 -3 -5l-9 -49q-6 0 -17.5 1t-21 1.5t-18.5 0.5q2 31 4 89q52 19 116 19q70 0 97 -22q31 -24 31 -55q0 -61 -74 -81v-4q40 -6 61 -29t21 -52q0 -49 -44 -78q-40 -26 -119 -26q-56 0 -92 8q-2 17 -6 52t-5 43q42 6 58 8z" />
    <glyph glyph-name="oneeighth" unicode="&#x215b;" horiz-adv-x="800" 
d="M234 360l79 -1v-46h-118h-132q0 30 1 46l86 1q2 0 2 3v207q-82 -16 -88 -17q-5 26 -8 47q29 8 72.5 22.5l72 24t33.5 9.5q1 0 1 -3q0 -44 -0.5 -145t-0.5 -148zM242 -17q-39 18 -52 26q107 183 171 294q108 191 202 358q35 -13 57 -27q-70 -120 -207 -360
q-28 -49 -91 -155t-80 -136zM678 181v-3q77 -25 75 -84q0 -42 -34 -71q-40 -31 -113 -31q-68 0 -103 25q-32 22 -32 62q0 28 19.5 52t54.5 37v4q-59 26 -59 76q0 39 36 66q37 25 98 25q60 0 90 -22q29 -21 29 -56q0 -51 -61 -80zM563 253q0 -17 14.5 -28.5t50.5 -24.5
q36 20 36 53q0 19 -11 30q-11 13 -36 13t-38 -10q-16 -11 -16 -33zM672 85q0 21 -17 34t-60 29q-42 -24 -42 -62q0 -24 18 -37q16 -14 42 -14q24 0 41 11q18 13 18 39z" />
    <glyph glyph-name="threeeighths" unicode="&#x215c;" horiz-adv-x="800" 
d="M115 417l12 -52q1 -3 4 -6q12 -7 35 -7q34 0 48 13q20 13 20 38q0 56 -81 56h-37q-1 17 -1 48q113 -1 113 58q0 19 -12 29q-12 11 -40 11q-25 0 -40 -10q-3 -1 -3 -5l-9 -49q-36 2 -57 4q2 27 4 88q52 19 116 19q70 0 97 -22q31 -22 31 -55q0 -61 -74 -80v-5
q40 -6 61 -29t21 -51q0 -51 -44 -78q-39 -27 -119 -27q-56 0 -92 8q-2 18 -6 52t-5 43q9 2 19 3.5t21 3t18 2.5zM235 -17q-5 3 -15.5 8t-19.5 9.5l-17 8.5q91 153 171 293q44 76 203 359q33 -12 56 -27q-139 -244 -207 -360q-28 -49 -91 -155t-80 -136zM670 181v-3
q76 -25 76 -84q0 -42 -34 -71q-40 -31 -113 -31q-68 0 -103 25q-32 22 -32 62q0 28 19.5 52t54.5 37v4q-59 26 -59 76q0 39 36 66q37 25 97 25t90 -22q29 -21 29 -56q0 -51 -61 -80zM556 253q0 -17 14.5 -28.5t50.5 -24.5q35 20 35 53q0 19 -11 30q-11 13 -36 13
q-24 0 -37 -10q-16 -11 -16 -33zM665 85q0 21 -17 34t-60 29q-42 -24 -42 -62q0 -24 18 -37q16 -14 42 -14q24 0 41 11q18 13 18 39z" />
    <glyph glyph-name="fiveeighths" unicode="&#x215d;" horiz-adv-x="800" 
d="M85 470l-7 7q8 85 20 167h111h109q0 -21 -4 -57h-154l-12 -60q30 2 44 2q60 0 96.5 -27t36.5 -73q0 -61 -47 -94q-40 -30 -122 -30q-56 0 -81 7q-10 57 -13 93q30 7 56 10l14 -52q1 -3 4 -6q10 -5 33 -5q33 0 51 15q20 17 20 45q0 62 -88 62q-31 0 -67 -4zM232 -17
q-39 18 -52 26q107 183 171 294q108 191 202 358q35 -13 57 -27q-70 -120 -207 -360q-28 -49 -91 -155t-80 -136zM667 181v-3q76 -25 76 -84q0 -42 -34 -71q-40 -31 -114 -31q-68 0 -103 25q-32 22 -32 62q0 28 19.5 52t55.5 37v4q-59 26 -59 76q0 39 36 66q37 25 97 25
t90 -22q29 -21 29 -56q0 -51 -61 -80zM553 253q0 -17 14.5 -28.5t50.5 -24.5q35 20 35 53q0 19 -11 30q-11 13 -36 13q-24 0 -37 -10q-16 -11 -16 -33zM662 85q0 21 -17.5 34t-60.5 29q-42 -24 -42 -62q0 -24 18 -37q16 -14 43 -14q24 0 41 11q18 13 18 39z" />
    <glyph glyph-name="seveneighths" unicode="&#x215e;" horiz-adv-x="800" 
d="M270 581l-1 3q-102 1 -118 0q-8 -1 -12 -12l-13 -44q-9 2 -29 5t-27 4q11 66 17 108q9 0 30 -0.5t31 -0.5h185q12 -31 17 -54q-89 -138 -112 -218q-7 -24 -7 -61q-44 -3 -85 -3q-1 35 11 67q22 57 113 206zM199 -17l-52 26q62 103 171 294q57 98 202 358q35 -13 57 -27
q-70 -120 -207 -360q-59 -104 -171 -291zM634 182v-4q76 -23 76 -84q0 -42 -34 -71q-40 -31 -113 -31q-68 0 -103 25q-32 22 -32 62q0 28 19.5 52t54.5 38v3q-59 28 -59 76q0 39 36 66q37 25 97 25t90 -22q29 -21 29 -56q0 -52 -61 -79zM520 253q0 -16 15 -28t50 -24
q35 20 35 52q0 19 -11 30q-11 13 -36 13q-24 0 -37 -10q-16 -11 -16 -33zM629 85q0 21 -17 34t-60 29q-42 -24 -42 -62q0 -24 18 -37q16 -14 42 -14q24 0 41 11q18 13 18 39z" />
    <glyph glyph-name="partialdiff" unicode="&#x2202;" horiz-adv-x="550" 
d="M89 588l-32 72q79 52 178 52q116 0 196.5 -91.5t80.5 -251.5q0 -178 -82.5 -277.5t-199.5 -99.5q-97 0 -149.5 64t-52.5 148q0 100 61.5 167.5t154.5 67.5q50 0 93.5 -25.5t58.5 -51.5q2 -1 3 0v25q0 109 -51 173t-127 64q-73 0 -132 -36zM264 354q-53 0 -88.5 -44
t-35.5 -108q0 -56 28 -89t74 -33h1q55 0 94 56t48 133q-11 34 -43.5 59.5t-77.5 25.5z" />
    <glyph glyph-name="Delta" unicode="&#x2206;" horiz-adv-x="623" 
d="M28 0v59l219 593h132l216 -592v-60h-567zM149 92h319l-114 321q-33 94 -44 142h-6q-17 -63 -39 -130z" />
    <glyph glyph-name="product" unicode="&#x220f;" horiz-adv-x="641" 
d="M529 557v-624h-105v624h-207v-624h-105v624h-90v92h597v-92h-90z" />
    <glyph glyph-name="summation" unicode="&#x2211;" horiz-adv-x="523" 
d="M19 -67v64l230 291l-218 287v74h458v-93h-312v-5l194 -258l-205 -262v-6h352v-92h-499z" />
    <glyph glyph-name="minus" unicode="&#x2212;" horiz-adv-x="541" 
d="M477 202h-414q0 25 2 69q46 0 415 3q0 -39 -3 -72z" />
    <glyph glyph-name="uni2215" unicode="&#x2215;" horiz-adv-x="99" 
d="M-115 -17q-42 21 -51 26l90 153t82 140q160 284 202 359q36 -14 56 -27q-70 -120 -207 -360q-68 -117 -172 -291z" />
    <glyph glyph-name="uni2219" unicode="&#x2219;" horiz-adv-x="267" 
d="M136 328q31 0 48 -20t17 -47q0 -28 -19 -47.5t-49 -19.5q-28 0 -48 18.5t-20 47.5q0 27 19 47.5t52 20.5z" />
    <glyph glyph-name="radical" unicode="&#x221a;" horiz-adv-x="566" 
d="M585 822l-224 -905h-82l-156 412l-75 -31l-21 57l154 64l114 -318q9 -30 19 -67h2q6 35 14 69l172 719h83z" />
    <glyph glyph-name="infinity" unicode="&#x221e;" horiz-adv-x="734" 
d="M543 106q-34 0 -69.5 18.5t-54 35t-53.5 50.5q-2 -2 -15 -14.5t-16 -15.5t-15 -14t-17 -14t-16.5 -12t-19 -12t-19 -8.5t-21 -7.5t-22 -4t-24.5 -2q-66 0 -108 44t-42 112q0 64 44.5 110t113.5 46q34 0 70 -18t55.5 -35.5t52.5 -50.5q61 59 90 76q45 28 95 28
q66 0 108 -44t42 -112q0 -64 -45 -110t-114 -46zM544 181q33 0 56 24t23 57q0 35 -22 58t-55 23q-24 0 -50 -14.5t-39 -26.5t-40 -39q3 -3 20 -20.5t24.5 -23.5t23 -17.5t30 -16t29.5 -4.5zM188 181q24 0 49.5 14.5t39 27t39.5 39.5q-22 22 -34 33q-50 48 -92 48
q-33 0 -56.5 -24t-23.5 -57q0 -35 22 -58t56 -23z" />
    <glyph glyph-name="integral" unicode="&#x222b;" 
d="M335 778l-13 -70q-13 4 -32 4q-31 0 -46 -23q-25 -33 -25 -151q0 -74 6.5 -224t6.5 -226q0 -128 -38 -183q-35 -60 -109 -60q-37 0 -61 11l14 71q18 -5 37 -5q26 0 43 21q27 32 27 143q0 83 -7 236t-7 223q0 141 56 201q37 39 98 39q24 0 50 -7z" />
    <glyph glyph-name="approxequal" unicode="&#x2248;" horiz-adv-x="541" 
d="M449 375l40 -43q-21 -31 -55 -51t-71 -20q-29 0 -56 10q-10 3 -25.5 10t-18.5 8q-6 2 -19.5 8.5t-22.5 9.5q-21 8 -45 8q-45 0 -89 -48l-38 45q54 69 128 69q27 0 54 -9q9 -3 23.5 -10t21.5 -9q24 -12 39 -17q23 -9 47 -9q41 0 87 48zM453 211l39 -42q-52 -73 -128 -73
q-26 0 -53 9q-10 4 -27.5 11.5t-18.5 8.5q-7 3 -21 9.5t-22 9.5q-23 7 -45 7q-45 0 -88 -49l-38 47q23 29 57 48.5t70 19.5q22 0 52 -8q5 -2 48 -20q6 -3 18.5 -9t19.5 -9q25 -9 48 -9q46 0 89 49z" />
    <glyph glyph-name="notequal" unicode="&#x2260;" horiz-adv-x="541" 
d="M328 286l-35 -96h187q0 -23 -2 -69q-135 0 -210 -1q-6 -16 -17 -47t-16 -45q-41 15 -64 26q11 27 23 66q-23 0 -67 -0.5t-65 -1.5q0 39 3 72h154q6 16 17.5 48t17.5 48h-191q0 25 2 69q136 0 213 1q8 22 33 92q27 -9 66 -27q-7 -20 -23 -64q89 0 127 1q0 -39 -3 -72h-150
z" />
    <glyph glyph-name="lessequal" unicode="&#x2264;" horiz-adv-x="541" 
d="M198 365q52 -47 233 -193q-23 -33 -40 -51q-6 5 -281 213q-2 19 -2 59q54 39 153.5 110.5t131.5 94.5q16 -19 37 -53q-165 -125 -232 -180zM66 -2q0 63 3 69h410q0 -22 -2 -66q-315 0 -411 -3z" />
    <glyph glyph-name="greaterequal" unicode="&#x2265;" horiz-adv-x="541" 
d="M341 359q-15 13 -65.5 54t-104.5 84.5t-61 48.5q20 32 38 52q131 -95 282 -208q2 -38 1 -59q-188 -140 -284 -210q-20 21 -40 50q7 5 110 87.5t124 100.5zM62 -2q0 60 3 66q44 0 410 3q0 -46 -2 -68q-381 0 -411 -1z" />
    <glyph glyph-name="lozenge" unicode="&#x25ca;" horiz-adv-x="538" 
d="M496 320l-183 -354h-88l-183 354l183 355h88zM400 318l-120 245q-11 22 -12 25h-2q-3 -9 -11 -25l-118 -241l121 -245q5 -10 11 -25h2q2 5 12 25z" />
    <glyph glyph-name="Euro.fitted" unicode="&#xe000;" horiz-adv-x="607" 
d="M31 333v47h54q29 121 122 197q93 77 231 77q86 0 127 -19q7 -88 12 -181q-46 -8 -76 -10l-19 105q-2 11 -7 14q-23 15 -66 15q-77 0 -130 -53q-55 -58 -73 -145h230v-47h-235q-1 -7 -1 -23q0 -17 2 -45h234v-46h-224q10 -52 47 -94q54 -56 144 -56q85 0 165 36
q9 -31 14 -69q-118 -46 -201 -46q-119 0 -198 59q-81 62 -100 170h-52v46h45q-1 8 -1 24q0 21 3 44h-47z" />
    <glyph glyph-name="Euro.oldstyle" unicode="&#xe001;" horiz-adv-x="543" 
d="M17 246v42h46q21 105 105 168q79 62 201 62q77 0 117 -14q8 -95 11 -156q-48 -6 -75 -8l-17 86q-2 8 -6 11q-20 10 -51 10q-65 0 -108 -42q-46 -46 -58 -117l212 1v-43h-215q0 -11 1 -18q0 -16 3 -30h208v-42h-195q10 -26 32 -50q41 -41 120 -41q60 0 140 26
q9 -39 13 -65q-100 -36 -179 -36q-107 0 -175 48q-61 44 -81 118h-49v42h40q0 4 -0.5 12t-0.5 12q0 16 1 24h-40z" />
    <glyph glyph-name="cent.fitted" unicode="&#xe005;" horiz-adv-x="497" 
d="M40 297q0 91 58.5 158.5t160.5 83.5v102q35 7 65 8q0 -16 -0.5 -51.5t-0.5 -54.5q3 1 13 1q62 0 115 -24q0 -17 -12 -45t-24 -35q-62 31 -95 32q-4 -184 -5 -295q54 1 124 30q10 -36 15 -56q-76 -34 -139 -41q0 -20 -0.5 -57.5t-0.5 -53.5q-10 -1 -30.5 -3t-30.5 -3
q0 73 1 113q-87 2 -150.5 49.5t-63.5 141.5zM148 316q0 -64 32 -101q27 -30 74 -38q0 44 1 144t2 150q-48 -9 -78.5 -54t-30.5 -101z" />
    <glyph glyph-name="degree.oldstyle" unicode="&#xe006;" horiz-adv-x="344" 
d="M174 616q56 0 89.5 -32t33.5 -83q0 -50 -36.5 -84t-88.5 -34t-88 31t-36 84q0 47 36.5 82.5t89.5 35.5zM173 565q-25 0 -40.5 -19.5t-15.5 -46.5q0 -29 16 -47t40 -18q26 0 40.5 18t14.5 47q0 30 -14 48t-41 18z" />
    <glyph glyph-name="dollar.fitted" unicode="&#xe007;" horiz-adv-x="492" 
d="M46 448q0 35 19.5 67.5t50.5 53.5q51 36 123 41q0 17 0.5 49t1.5 49q25 6 63 8q-2 -58 -3 -104q83 1 138 -29q0 -16 -13 -42.5t-27 -35.5q-57 37 -101 43q0 -28 -1.5 -87t-2.5 -91q81 -25 121.5 -61.5t40.5 -99.5q0 -79 -55 -126q-54 -47 -138 -53q-1 -17 -1.5 -49.5
t-0.5 -49.5q-40 -4 -59 -4q2 66 2 101q-46 -1 -95.5 9.5t-82.5 28.5q3 16 17.5 41t27.5 35q80 -47 135 -52q3 186 3 194q-42 16 -64.5 26.5t-49 30t-38 45.5t-11.5 62zM142 463q0 -31 21 -47.5t72 -32.5q0 18 1 52.5t1.5 62t0.5 50.5q-41 -2 -67 -23q-29 -22 -29 -62z
M362 182q0 35 -22 54.5t-72 33.5q-1 -31 -2.5 -91t-1.5 -88q44 3 70 25q28 23 28 66z" />
    <glyph glyph-name="florin.fitted" unicode="&#xe00a;" horiz-adv-x="488" 
d="M421 655q46 0 81 -14q0 -14 -14 -44.5t-26 -40.5q-58 18 -88 18q-42 0 -61 -28q-16 -20 -23.5 -56.5t-11.5 -118.5q28 0 88 0.5t92 0.5q0 -36 -3 -68h-180q-12 -243 -22 -294q-15 -83 -84 -136t-140 -53q-44 0 -69 11q0 12 13 40t24 39q38 -12 68 -12q34 0 59 29.5
t30 87.5q5 67 12 288h-119q0 25 2 65q84 2 114 2q5 0 5 7q4 88 19 129.5t57 79.5q74 68 177 68z" />
    <glyph glyph-name="florin.oldstyle" unicode="&#xe00b;" horiz-adv-x="450" 
d="M373 518q44 0 73 -11q0 -14 -12.5 -42t-24.5 -37q-42 15 -73 15q-38 0 -54 -23q-22 -32 -25 -131q23 0 72 0.5t76 0.5q0 -24 -2 -64h-149q-9 -182 -19 -234q-12 -66 -70.5 -112t-122.5 -46q-39 0 -65 8q0 14 11.5 38.5t22.5 35.5q35 -10 57 -10q66 0 73 96q6 72 9 224
h-98q0 22 2 62q18 0 49.5 0.5t45.5 0.5q4 0 4 6q3 68 17 101t50 66q62 56 153 56z" />
    <glyph glyph-name="numbersign.oldstyle" unicode="&#xe00c;" horiz-adv-x="544" 
d="M197 505q24 2 70 2q-9 -47 -25 -143h108q15 86 23 141q22 1 70 1q-18 -106 -25 -141h98q0 -33 -3 -60h-107q-7 -44 -21 -134h105q0 -39 -3 -60h-113q-3 -17 -8.5 -49.5t-10 -58.5t-8.5 -48q-43 -2 -64 -1q2 14 11.5 69.5t14.5 86.5h-111q-18 -104 -27 -155q-39 -2 -63 -1
q11 59 25 156q-18 0 -53 -0.5t-48 -0.5q0 37 3 62h109q14 90 20 135h-108q0 31 3 58h115q16 94 23 141zM231 306q-3 -23 -10.5 -68t-11.5 -67q19 0 55.5 -0.5t54.5 -0.5q7 46 21 136h-109z" />
    <glyph glyph-name="bullet.001" unicode="&#xe00d;" horiz-adv-x="1000" 
d="M615 635q2 -39 2.5 -127t1.5 -114q-50 -2 -239 -2v77.5v93.5v70q67 4 235 2zM334 353q2 -34 1.5 -118.5t0.5 -121.5q-94 -5 -238 -3q-3 101 1 242q68 3 235 1zM901 353q0 -181 -1 -242q-118 -3 -236 0q-3 126 0 243q42 1 131 0t106 -1zM616 68q3 -184 1 -241
q-157 -2 -236 0q-1 33 -1 77t0.5 94.5t0.5 71.5q168 0 235 -2z" />
    <glyph glyph-name="bullet.002" unicode="&#xe00e;" horiz-adv-x="1000" 
d="M515 734q76 -150 134 -300q0 -1 -4 -7q-114 -4 -294 -2q40 109 137 309h27zM998 246q0 -20 -1 -30q-182 -97 -299 -144q-1 25 -1 312q196 -78 301 -138zM0 213v25q135 71 305 143q2 -83 2 -314q-216 96 -307 146zM351 26l4 10q265 0 296 -1q-60 -163 -129 -305h-32
q-54 100 -139 296z" />
    <glyph glyph-name="bullet.003" unicode="&#xe00f;" horiz-adv-x="1000" 
d="M334 634q1 -35 1.5 -118t1.5 -120q-80 -3 -241 -3q0 39 -0.5 123.5t-0.5 116.5q63 3 239 1zM902 634q0 -96 -2 -240q-133 -2 -239 0q-1 85 1 242q102 2 240 -2zM618 350q2 -136 2 -240q-124 -3 -241 0q-2 52 1 241q169 0 238 -1zM334 67q3 -97 1 -241q-70 -3 -238 0
q-5 122 0 239q94 4 237 2zM903 65q0 -116 -4 -240q-85 -1 -238 1q0 166 2 240q104 3 240 -1z" />
    <glyph glyph-name="bullet.004" unicode="&#xe010;" horiz-adv-x="1000" 
d="M15 723q68 1 461 1q9 -219 1 -486q-88 -2 -462 -2v151v193.5v142.5zM81 650q-3 -262 1 -339q80 -4 333 3q1 73 -5 338q-34 1 -329 -2zM163 566q33 2 166 2q2 -48 2 -172q-52 -2 -168 0q-2 89 0 170zM664 567q26 1 168 1q2 -46 2 -173q-107 -4 -169 0q-1 27 -1 172z
M521 226q167 1 462 -1q2 -265 0 -486q-201 -3 -463 1q-4 254 1 486zM587 154q-6 -188 -2 -340q303 -3 333 -3q2 231 0 338q-233 6 -331 5zM669 64q46 2 167 2q2 -56 2 -172h-169v50v64.5v55.5zM163 61h168q1 -17 1 -173q-112 -2 -169 -1q-2 112 0 174z" />
    <glyph glyph-name="bullet.005" unicode="&#xe011;" horiz-adv-x="916" 
d="M85 261l7 4q479 0 668 4q2 303 -1 421q47 2 74 0q-1 -193 -1 -486l-8 -5h-206.5t-250.5 -0.5t-209 -2.5q-3 -86 0 -420q-42 -2 -67 -1l-7 5q1 105 1 265.5v215.5zM200 408v279q181 2 281 1q1 -46 1 -137.5v-140.5q-61 -2 -282 -2zM270 474q98 -2 144 1q0 82 -3 148
q-34 -1 -146 -4q3 -112 5 -145zM435 -223q-2 176 -2 280q186 0 283 -1v-278q-123 -3 -281 -1zM505 -159l3 -1q119 3 141 4q0 80 -3 146q-103 0 -145 -2q0 -100 4 -147z" />
    <glyph glyph-name="bullet.006" unicode="&#xe012;" horiz-adv-x="1000" 
d="M759 429v-85h233v-67q-71 -2 -233 -2v-84q160 0 233 -2v-65q-68 -1 -233 -1v-82q30 0 113 -1t120 -1v-66q-72 -1 -236 -1v-234q-12 0 -35.5 0.5t-31.5 0.5q0 29 -1.5 112t-1.5 113q-25 -1 -81 -1v-67.5v-87.5v-69q-10 -1 -66 -1v226h-81v-69.5v-89.5v-67q-13 -1 -36.5 0
t-30.5 1q0 27 -0.5 110t-0.5 114h-78q-1 -41 -2 -126t-1 -98h-20.5h-25h-20.5q-1 32 -1 117v115q-161 0 -234 1q-1 21 -1 66q32 0 115 1t119 2q-1 30 -1 84q-33 1 -117 0t-115 -1v22v25v18q195 3 232 3v85q-31 1 -114 1h-118q-1 11 -1 67h73.5h92h67.5v84q-30 0 -112.5 1
t-119.5 1q-1 11 -1 66q35 0 119.5 0.5t115.5 0.5v228q11 0 34 0.5t32 0.5q1 -30 1.5 -110.5t0.5 -112.5q25 1 82 1v70v87.5v62.5q21 1 65 1q3 -162 3 -221h79q1 35 1.5 118.5t0.5 102.5h65q1 -25 1.5 -108.5t0.5 -112.5q13 0 40 -0.5t40 -0.5q0 110 2 222h21h25.5h19.5v-227
q32 -1 117 -1.5t119 -0.5q2 -42 2 -65q-30 0 -116 -1t-119 -2zM686 433q-134 3 -376 3q0 -30 -0.5 -101t-0.5 -144.5t1 -153.5q202 -5 381 -2q0 99 -2.5 240.5t-2.5 157.5z" />
    <glyph glyph-name="bullet.007" unicode="&#xe013;" horiz-adv-x="1000" 
d="M500 -216l-9 14q268 573 439 904l18 2q2 -117 2 -920q-67 0 -224.5 -0.5t-225.5 0.5zM418 -203l-9 -11q-31 -1 -359 -1v889l10 6q246 5 357 0q0 -526 1 -883zM594 -144l5 -8q195 3 277 7q2 65 6.5 290.5t7.5 324.5l-8 1q-161 -325 -288 -615z" />
    <glyph glyph-name="bullet.008" unicode="&#xe014;" horiz-adv-x="1000" 
d="M409 680l9 -9v-886q-80 -2 -358 0l-9 6q-1 215 -1 890q328 0 359 -1zM948 -238l-18 1q-175 340 -438 905q4 10 6 14q68 1 226 0.5t225 -0.5q2 -647 -1 -920zM605 616l-5 -6q115 -275 282 -613l7 1q-3 207 -14 615q-54 3 -270 3z" />
    <glyph glyph-name="bullet.009" unicode="&#xe015;" horiz-adv-x="1000" 
d="M508 -205l-6 -14q-68 -1 -226.5 -0.5t-225.5 0.5q-2 648 1 920l18 -1q172 -336 439 -905zM591 -217l-10 8q1 356 1 889q44 0 179 0.5t180 -0.5l8 -6q1 -216 1 -891q-35 0 -113 -0.5t-140.5 -0.5t-105.5 1zM397 -156l4 8q-92 219 -280 613h-9q2 -101 5 -327t4 -288
q84 -4 276 -6z" />
    <glyph glyph-name="bullet.010" unicode="&#xe016;" horiz-adv-x="1000" 
d="M502 681l7 -14q-286 -608 -439 -904l-18 -1q-1 78 -1 919h451zM582 671l8 9h360q0 -204 -0.5 -500t-0.5 -391l-9 -6q-291 0 -358 2v886zM401 606l-4 8q-196 3 -272 0q-5 -125 -10 -617l8 -1q198 423 278 610z" />
    <glyph glyph-name="bullet.011" unicode="&#xe017;" horiz-adv-x="860" 
d="M235 -315l-6 4q34 95 69 181q-140 0 -201 1v250.5v265.5v185q313 3 665 2q3 -488 2 -702q-66 -1 -199 -1q10 -30 33 -90.5t33 -89.5l-6 -7q-331 0 -390 1zM431 220h9q17 -45 54 -145.5t49 -131.5q5 0 61 1t84 2q4 276 4 558q-299 -2 -520 -6q-4 -540 -4 -554
q94 -2 158 -2q99 262 105 278z" />
    <glyph glyph-name="bullet.012" unicode="&#xe018;" horiz-adv-x="860" 
d="M659 755l3 -7q-7 -29 -24.5 -92t-25.5 -92h49h54.5h45.5q0 -510 -1 -687q-382 -2 -659 -1q0 600 1 687q50 1 143 1q-55 167 -61 185l6 6q40 0 141 0.5t185 0.5t143 -1zM425 183l10 -1q105 374 138 503q-114 5 -289 3l-4 -6q124 -433 145 -499z" />
    <glyph glyph-name="bullet.013" unicode="&#xe019;" horiz-adv-x="1000" 
d="M89 23l-7 5q-2 220 1 389l4 5q23 -9 80 -32.5t87 -35.5v220q88 0 231.5 0.5t246.5 0.5t185 -1q3 -334 2 -703q-177 -2 -663 -2q-1 38 -1 219q-71 -29 -166 -65zM583 222l1 -9q-114 -48 -256 -102q0 -51 2 -165q191 -4 518 -4q-2 386 -5 557q-3 0 -199.5 2t-315.5 2
q-2 -116 -1 -178q87 -33 256 -103z" />
    <glyph glyph-name="bullet.014" unicode="&#xe01a;" horiz-adv-x="1000" 
d="M911 -7l-7 -3q-61 20 -163 48q1 -2 0.5 -79t-0.5 -79q-492 0 -651 2q-4 343 -1 680q54 0 178.5 0.5t242.5 0.5t230 -1q1 -56 1 -152q141 50 164 58l6 -5q2 -311 0 -470zM361 227l-1 -10q340 -98 484 -138q2 196 0 288l-5 6q-29 -9 -209.5 -63t-268.5 -83z" />
    <glyph glyph-name="bullet.015" unicode="&#xe01b;" horiz-adv-x="1000" 
d="M0 56v676h1000v-670l-7 1q-35 44 -148 167h-7q-55 -56 -150 -164h-5q-70 98 -161 214h-6q-1 -1 -172 -207l-8 -1q-97 116 -154 176h-10q-54 -61 -165 -192h-7zM0 -268v155q66 0 291.5 -1t406.5 -0.5t302 2.5v-156h-1000z" />
    <glyph glyph-name="bullet.016" unicode="&#xe01c;" horiz-adv-x="394" 
d="M207 395h-21q-62 103 -168 297l5 8q291 0 344 -1q-61 -127 -160 -304zM195 334q39 0 65 -29t26 -70q0 -45 -25 -75t-66 -30q-42 0 -70.5 28t-28.5 70q0 46 29 76t70 30zM184 71h19q54 -87 169 -298l-5 -8q-309 0 -344 1q90 182 161 305z" />
    <glyph glyph-name="bullet.017" unicode="&#xe01d;" horiz-adv-x="1000" 
d="M660 218v22q61 37 290 169l8 -5q0 -313 -1 -348q-189 99 -297 162zM339 241l1 -19q-156 -95 -291 -171l-8 5q0 313 1 348q143 -73 297 -163zM590 229q0 -41 -24 -68t-61 -27q-45 0 -70 27t-25 67q0 41 25.5 71t63.5 30q39 0 65 -28t26 -72z" />
    <glyph glyph-name="bullet.018" unicode="&#xe01e;" horiz-adv-x="574" 
d="M0 315v33q160 2 251 1q64 -43 114.5 -88.5t112.5 -111.5q67 0 96 1v-33q-152 -2 -251 -1q-41 23 -122.5 94t-111.5 106q-12 0 -43 -0.5t-46 -0.5z" />
    <glyph glyph-name="bullet.019" unicode="&#xe01f;" horiz-adv-x="574" 
d="M574 348v-32q-14 0 -45.5 0.5t-43.5 0.5q-30 -35 -111.5 -106.5t-122.5 -94.5q-98 -1 -251 1v32h96q62 66 112.5 111.5t114.5 88.5q91 1 251 -1z" />
    <glyph glyph-name="bullet.020" unicode="&#xe020;" horiz-adv-x="982" 
d="M49 93l4 3q138 -88 145 -93v-3q-25 -1 -79 -0.5t-76 0.5q-6 45 6 93zM145 385h3q3 -11 17.5 -56.5t20.5 -68.5q-7 -2 -106 -18q4 28 23.5 73t41.5 70zM410 538l3 -3q-18 -59 -40 -117q-53 25 -116 59q20 21 67.5 40.5t85.5 20.5zM718 473l-2 -4q-52 -27 -104 -52
q-7 19 -23 59l-24 60q42 -3 85.5 -22t67.5 -41zM833 378l3 3q28 -34 46 -80t23 -78q-36 10 -108 33q13 47 36 122zM725 50h-5q-11 103 -73 178q-57 62 -151 62q-58 0 -97.5 -17t-77.5 -56q-61 -81 -69 -177h-5q-142 102 -183 133l1 3q121 24 202 38l1 2q-47 135 -69 207l2 5
q76 -35 202 -97h2q48 130 78 209h6q50 -108 91 -210h1q72 38 196 97l3 -4q-30 -102 -63 -209v-1q71 -19 185 -52v-5q-75 -48 -177 -106zM937 4l-3 -4h-163v4q29 16 86 47.5t70 38.5q7 -20 10 -86zM322 0l-3 5q0 46 14.5 89t35.5 66q50 56 122 56q81 0 122 -65
q35 -59 40 -150q-25 -1 -179 -1h-152z" />
    <glyph glyph-name="bullet.021" unicode="&#xe021;" horiz-adv-x="886" 
d="M527 76l1 -2q65 1 174 8.5t123 13.5q3 -25 -1.5 -56t-12.5 -39q-31 0 -134 -0.5t-167 -0.5q-352 2 -439 3q-15 23 -15 93q60 -15 300 -22l1 2q-187 178 -267 286q2 22 16.5 46t30.5 32q37 -57 131.5 -165t132.5 -138h2q0 83 -11 464q13 12 41 19t50 3q-2 -56 -5 -243
t-1 -251l2 -1q52 55 130.5 154t114.5 157q11 1 30 -24t23 -51q-32 -51 -109.5 -138.5t-140.5 -149.5z" />
    <glyph glyph-name="bullet.022" unicode="&#xe022;" horiz-adv-x="1000" 
d="M499 485l5 5q241 4 491 2l3 -4q-87 -204 -231 -514h-7q-173 321 -261 511zM255 491h7q122 -272 227 -514l-3 -4q-294 -3 -488 1q-4 2 -5 4q127 261 262 513zM591 435l-3 -3q131 -254 168 -325h5q95 195 152 325l-2 3q-90 5 -320 0zM251 357l-4 -1q-74 -141 -164 -324
l3 -3q104 -2 315 2l2 3q-58 132 -152 323z" />
    <glyph glyph-name="bullet.023" unicode="&#xe023;" horiz-adv-x="1000" 
d="M761 84l-8 -1q-106 168 -244 412l5 9q42 1 475 1l4 -10q-144 -266 -232 -411zM489 -34l-5 -9q-124 -2 -471 1l-6 10q124 224 241 408h8q108 -181 233 -410z" />
    <glyph glyph-name="bullet.024" unicode="&#xe024;" horiz-adv-x="672" 
d="M501 -48l-12 1q-140 193 -331 440q-151 -197 -158 -206v100q125 171 155 214h12q255 -342 329 -437h9q54 70 167 223v-100q-15 -21 -74.5 -103t-96.5 -132zM508 272l-11 -1q-117 176 -142 214l2 11q128 3 292 1l4 -11q-57 -87 -145 -214zM306 -26l-3 -11q-41 -1 -292 -1
l-3 11q51 80 140 215h11q60 -86 147 -214z" />
    <glyph glyph-name="bullet.025" unicode="&#xe025;" horiz-adv-x="1000" 
d="M743 -23l-6 -5q-83 0 -246 0.5t-245 1.5l-6 3q-1 243 1 740l6 2q503 -233 694 -327l1 -8q-134 -280 -199 -407zM705 31l5 2q69 150 147 331l-2 7q-281 130 -549 246l-4 -4q0 -97 2 -577q65 0 198.5 -2t202.5 -3zM674 121l-3 -3q-127 18 -321 51l-2 4q111 154 214 280l3 1
q52 -150 109 -333zM614 171l1 2q-36 102 -71 186h-3q-109 -141 -121 -157l1 -3q87 -16 193 -28z" />
    <glyph glyph-name="bullet.026" unicode="&#xe026;" horiz-adv-x="1000" 
d="M16 -27l-2 6q268 574 327 693l8 1q199 -93 407 -198l5 -6q0 -83 -0.5 -246t-1.5 -245l-3 -6q-243 -1 -740 1zM116 38l4 -4q99 -1 577 2q0 65 2 198.5t3 201.5l-2 5q-137 65 -330 148l-7 -2q-86 -185 -247 -549zM272 301l-1 3q207 75 327 117l3 -3q-19 -183 -43 -337
l-4 -2q-83 60 -282 222zM366 284v-3q109 -89 159 -129l3 1q13 96 21 208l-2 1q-19 -8 -181 -78z" />
    <glyph glyph-name="bullet.027" unicode="&#xe027;" horiz-adv-x="1000" 
d="M244 -11l-5 6q0 83 0.5 246t1.5 245l3 6q244 1 740 -1l2 -6q-273 -585 -327 -694l-8 -1q-213 101 -407 199zM298 27l2 -5q141 -65 330 -147l7 2q95 204 247 549l-4 4q-99 1 -577 -2q0 -65 -2 -198t-3 -203zM401 47l-3 3q23 188 44 333l5 2q131 -93 279 -222l1 -3
q-126 -48 -326 -113zM451 106l2 -1q116 45 179 75v3q-93 79 -157 129l-3 -1q-8 -59 -21 -205z" />
    <glyph glyph-name="bullet.028" unicode="&#xe028;" horiz-adv-x="1000" 
d="M257 488l6 5q83 0 246 -0.5t245 -1.5l6 -4q1 -243 -1 -741l-6 -2q-487 226 -694 327l-1 8q105 223 199 409zM295 433l-5 -2q-62 -133 -147 -331l2 -7q204 -95 549 -247l4 4q1 100 -2 578q-65 0 -198 2t-203 3zM324 342l3 3q91 -11 324 -49l2 -6q-43 -61 -219 -282l-3 -1
q-76 228 -107 335zM383 293l-1 -2q46 -139 66 -192h3q82 102 130 163l-1 3q-77 13 -197 28z" />
    <glyph glyph-name="bullet.029" unicode="&#xe029;" horiz-adv-x="1000" 
d="M775 567l-1 -13q-46 -55 -125 -151.5t-88 -107.5q117 -119 252 -241h9q38 48 107.5 139t70.5 93v-99q-166 -225 -171 -232l-15 1q-110 107 -349 331q148 175 218 264q-45 35 -132 101t-105 80h99q101 -73 230 -165zM479 526v-13q-61 -70 -194 -233l1 -12
q172 -165 325 -304q-1 0 -49.5 -0.5t-49.5 0.5q-45 42 -138.5 126.5t-140.5 128.5q-2 53 0 105q122 147 149 180l-1 9q-60 51 -148 122q-2 42 0 83q27 -21 77.5 -60.5t91.5 -71.5t77 -60zM711 310q69 86 98 120q31 -27 99 -91q-72 -92 -99 -125q-68 66 -98 96z" />
    <glyph glyph-name="bullet.030" unicode="&#xe02a;" horiz-adv-x="1000" 
d="M446 732h100q-131 -102 -228 -181q57 -73 217 -264q-35 -33 -157.5 -149t-191.5 -182l-15 -1q-126 172 -171 232v99q24 -30 84.5 -109.5t94.5 -122.5h9q138 125 251 241q-164 202 -213 259v13zM714 268l1 12q-119 148 -194 233l1 13q78 59 245 193q2 -41 0 -83
q-63 -52 -148 -123v-9q53 -67 148 -180q2 -52 0 -105q-47 -44 -140.5 -128.5t-138.5 -126.5q-48 -1 -98 0q162 147 324 304zM290 310q-15 -15 -48 -47t-50 -49q-27 33 -99 125q83 78 98 91q31 -36 99 -120z" />
    <glyph glyph-name="bullet.031" unicode="&#xe02b;" horiz-adv-x="1000" 
d="M545 -268h-100q176 133 237 181q-90 115 -217 263q45 43 164 155.5t185 176.5l15 1q27 -35 83.5 -109t87.5 -114v-99q-142 179 -179 224h-9q-129 -117 -251 -242q30 -36 100 -122t113 -137v-13q-221 -159 -229 -165zM286 195l-1 -12q128 -158 194 -232l-1 -13
q-62 -46 -245 -193q-2 41 0 83q63 52 148 123v9q-53 67 -148 180q-2 52 0 105q31 28 88 80t103.5 94.5t87.5 80.5q50 1 98 0q-131 -117 -324 -305zM710 154q15 16 98 96q74 -91 99 -125q-67 -63 -98 -91q-17 20 -49.5 60t-49.5 60z" />
    <glyph glyph-name="bullet.032" unicode="&#xe02c;" horiz-adv-x="1000" 
d="M545 -268h-99q-47 37 -127.5 96.5t-93.5 69.5l1 13q45 53 117 141t96 117q-122 126 -252 243h-9q-44 -54 -178 -225v100q18 23 76 99.5t95 123.5l15 -1q70 -68 195.5 -186.5t153.5 -145.5q-127 -150 -218 -264q58 -46 228 -181zM715 184l-1 12q-175 172 -325 305
q1 0 49.5 0.5t49.5 -0.5q41 -38 87.5 -80.5t103.5 -94.5t88 -80q2 -52 0 -106q-100 -118 -149 -179l1 -9q28 -24 81 -68t67 -56q2 -42 0 -83q-185 148 -246 194v13q43 49 194 232zM289 154q-64 -80 -98 -120q-29 26 -99 92q33 42 99 124q43 -39 98 -96z" />
    <glyph glyph-name="bullet.033" unicode="&#xe02d;" horiz-adv-x="1000" 
d="M889 353l1 -15q-75 -147 -212 -379q-49 0 -138.5 -1t-164.5 -1t-147 2q-6 480 0 744l11 4q361 -181 650 -354zM552 467l-7 2q-135 -148 -254 -298l2 -6q165 -50 352 -92l5 5q-32 146 -98 389z" />
    <glyph glyph-name="bullet.034" unicode="&#xe02e;" horiz-adv-x="1000" 
d="M380 621l14 1q147 -75 380 -212q0 -49 1 -138.5t1 -164.5t-2 -147q-512 -4 -745 1l-4 10q204 396 355 650zM258 299l-1 -7q123 -125 282 -267l7 2q48 170 93 370l-5 5q-193 -48 -376 -103z" />
    <glyph glyph-name="bullet.035" unicode="&#xe02f;" horiz-adv-x="1000" 
d="M621 -157l-15 -1q-133 69 -379 212q0 49 -1 138.5t-1 165t2 147.5q511 4 744 -1l4 -10q-193 -381 -354 -651zM735 181l2 6q-139 129 -298 254l-7 -2q-32 -152 -62 -368l5 -5q154 44 360 115z" />
    <glyph glyph-name="bullet.036" unicode="&#xe030;" horiz-adv-x="1000" 
d="M111 111l-1 15q74 143 212 379q49 0 138.5 1t164.5 1t147 -2q6 -479 0 -744l-11 -4q-356 181 -650 354zM433 -10l7 -2q129 128 268 281l-2 6q-127 43 -361 107l-4 -5q35 -162 92 -387z" />
    <glyph glyph-name="sterling.fitted" unicode="&#xe031;" horiz-adv-x="549" 
d="M359 654q57 0 101 -16q8 -87 11 -158q-10 -1 -22 -2.5t-27 -3.5t-23 -3l-19 96q-2 11 -8 13q-18 6 -44 6q-38 0 -64 -27q-26 -29 -26 -91q0 -24 13 -126q55 0 171 2q2 -31 -2 -68h-158q0 -6 0.5 -18t0.5 -17q0 -93 -65 -165q-10 -10 6 -10q170 0 194 7q12 3 20 21l32 98
q32 -5 72 -16q-7 -29 -20.5 -88.5t-19.5 -88.5q-8 0 -122 0.5t-201 0.5q-22 0 -68.5 -0.5t-70.5 -0.5q0 22 2 66l72 3q10 0 15 5q44 47 44 146q0 32 -4 57h-99q0 23 2 63q54 0 81 1q4 0 3 4q-14 82 -14 116q0 90 68 143q66 51 169 51z" />
    <glyph glyph-name="sterling.oldstyle" unicode="&#xe032;" horiz-adv-x="528" 
d="M401 85l27 74q46 -8 67 -14q-7 -34 -33 -146q-17 0 -117.5 0.5t-170.5 0.5h-146q0 42 1 62l74 2q9 0 12 4q32 36 32 107q0 23 -3 39h-91q0 40 1 59q51 0 76 1q4 0 3 4q-11 57 -11 82q0 73 60 115q59 43 159 43q63 0 102 -14q7 -77 11 -132q-22 -3 -68 -7l-16 73
q-2 8 -7 10q-18 8 -47 8q-40 0 -59 -20q-25 -27 -25 -70q0 -28 11 -90q112 0 172 1q1 -29 -2 -63h-162q0 -3 0.5 -11.5t0.5 -13.5q0 -64 -49 -118q-8 -9 5 -9q146 0 176 6q12 3 17 17z" />
    <glyph glyph-name="yen.fitted" unicode="&#xe033;" horiz-adv-x="542" 
d="M221 70v71q-23 0 -75 -0.5t-75 -0.5q0 22 2 54q22 0 71.5 -0.5t76.5 -0.5v57h-151q0 19 2 51q40 1 131 1q-98 178 -146 265q-3 5 -9 6l-36 2q0 42 1 60h94q28 0 77.5 0.5t67.5 0.5q0 -42 -1 -61l-74 -3l117 -246h6q60 120 114 240q2 6 -5 6l-67 2q0 41 1 61h120
q14 0 40 0.5t35 0.5q0 -42 -1 -61l-39 -3q-73 -136 -149 -268q23 0 65.5 0.5t60.5 0.5q1 -18 -1 -55h-150l-1 -56h151q0 -35 -2 -52q-20 0 -72 -0.5t-77 -0.5l-1 -76l90 -3q0 -41 -1 -62q-19 0 -66.5 0.5t-71.5 0.5q-22 0 -69 -0.5t-68 -0.5q0 42 1 61l78 3q6 0 6 6z" />
    <glyph glyph-name="yen.oldstyle" unicode="&#xe034;" horiz-adv-x="500" 
d="M267 264h5q57 93 104 179q2 5 -4 5l-52 1q0 40 1 57h109q22 1 67 1q0 -37 -1 -57l-38 -2q-26 -39 -74 -110.5t-63 -94.5q39 1 116 1q2 -26 -1 -46h-140l-1 -42h141q0 -29 -1 -44q-21 0 -69 -0.5t-71 -0.5l-1 -52l86 -2q0 -21 -2 -57q-19 0 -63 0.5t-65 0.5
q-19 0 -63 -0.5t-67 -0.5q0 38 1 57l76 2q4 0 4 4v48q-20 0 -68.5 -0.5t-71.5 -0.5q-1 17 1 46h139v42h-141q0 30 1 45h121q-46 67 -134 201q-4 4 -8 4l-37 2q0 39 1 57h88h127q0 -37 -1 -57l-57 -2q70 -124 106 -184z" />
    <glyph glyph-name="uniF634" unicode="&#xf634;" horiz-adv-x="382" 
d="M192 -35q26 0 47 -24.5t21 -56.5q0 -49 -29.5 -92.5t-77.5 -70.5l-15 18t-14 18q60 41 60 88q0 33 -45 45q-4 32 12 53.5t41 21.5z" />
    <glyph glyph-name="space_uni0326" unicode="&#xf6c3;" horiz-adv-x="382" 
d="M192 -50q26 0 46.5 -22t20.5 -51q0 -45 -29 -84t-76 -64q-16 16 -29 32q59 38 59 80q0 30 -45 41q-3 29 13 48.5t40 19.5z" />
    <glyph glyph-name="acute.cap" unicode="&#xf6c9;" horiz-adv-x="382" 
d="M368 865q22 -27 45 -67q-23 -12 -86.5 -46.5t-94.5 -50.5q-19 27 -29 44q32 23 165 120z" />
    <glyph glyph-name="caron.cap" unicode="&#xf6ca;" horiz-adv-x="382" 
d="M282 784q65 40 116 74q13 -12 33 -40q-21 -17 -66.5 -54.5t-63.5 -51.5q-27 0 -39 1q-64 54 -128 105q17 25 32 39q20 -13 63 -40t53 -33z" />
    <glyph glyph-name="dieresis.cap" unicode="&#xf6cb;" horiz-adv-x="382" 
d="M191 817q23 0 36 -15.5t13 -34.5q0 -22 -14.5 -36.5t-37.5 -14.5q-21 0 -36 14.5t-15 36.5q0 19 14 34.5t40 15.5zM375 817q24 0 37.5 -15.5t13.5 -34.5q0 -22 -14.5 -36.5t-35.5 -14.5q-24 0 -38.5 14.5t-14.5 36.5q0 19 13.5 34.5t38.5 15.5z" />
    <glyph glyph-name="grave.cap" unicode="&#xf6ce;" horiz-adv-x="382" 
d="M198 865q53 -38 165 -120q-10 -17 -29 -44q-25 13 -56 29.5t-69 37t-56 30.5q23 40 45 67z" />
    <glyph glyph-name="hungarumlaut.cap" unicode="&#xf6cf;" horiz-adv-x="382" 
d="M249 878q19 -17 43 -52q-26 -18 -77.5 -54t-77.5 -54q-4 4 -32 38q128 108 144 122zM389 874q17 -17 43 -51q-51 -36 -153 -110q-17 19 -32 38q67 56 142 123z" />
    <glyph glyph-name="macron.cap" unicode="&#xf6d0;" horiz-adv-x="382" 
d="M406 794q2 -29 0 -59q-36 0 -119.5 0.5t-125.5 0.5q-2 26 0 56q42 0 122.5 1t122.5 1z" />
    <glyph glyph-name="R_p" unicode="&#xf6dd;" horiz-adv-x="1093" 
d="M116 579l-63 3q1 10 1.5 31t0.5 31q120 2 205 2q80 0 136 -15q56 -13 93.5 -57.5t37.5 -96.5q0 -62 -36 -107t-95 -68v-5q17 -8 30.5 -20.5t30 -40.5t25.5 -45.5t33 -66.5q17 -35 26 -46t18 -11l83 -3l1 286h-58q0 40 1 58q150 31 156 31q2 0 2 -3t2.5 -23.5t3.5 -29.5
l6 -1q68 37 94.5 46.5t55.5 9.5q66 0 110 -59t43 -133q0 -70 -27 -128q-26 -60 -78 -98q-42 -30 -104 -30q-51 0 -92 19l-4 -2q0 -28 -0.5 -92.5t-0.5 -93.5l88 -2q0 -41 -1 -60q-95 0 -143 -1q-79 0 -113 -1v59l54 4q4 0 4 6v176q-35 -1 -98 -1q-10 0 -46 -1t-44 -1
q-19 26 -62.5 117.5t-50.5 103.5q-15 25 -30 34.5t-43 9.5q-30 0 -38 -2l-1 -197l69 -3v-61h-128q-21 0 -60.5 -0.5t-56.5 -0.5q1 21 1 62l58 3q4 0 4 4v510zM232 581l-2 -254q5 -2 37 -2q70 0 105 37t35 89q0 63 -36.5 98.5t-96.5 35.5q-34 0 -42 -4zM857 354
q-46 0 -100 -39q-2 -134 -2 -215q0 -16 26 -30t53 -14q42 0 68 31q37 42 37 127q0 65 -19 100q-22 40 -63 40z" />
    <glyph glyph-name="cent.inferior" unicode="&#xf6df;" 
d="M180 -130l1 62q-56 2 -95.5 29t-39.5 78q0 54 37 93t101 45v56q21 3 46 3l-1 -57h6q39 0 76 -16q0 -14 -8 -32t-17 -24q-37 22 -59 22l-2 -148q32 1 76 20q9 -27 12 -41q-45 -21 -88 -26l-1 -62q-7 -1 -22 -1.5t-22 -0.5zM181 -18l2 146q-27 -3 -45 -25.5t-18 -51.5
q0 -41 27 -58q14 -9 34 -11z" />
    <glyph glyph-name="cent.superior" unicode="&#xf6e0;" 
d="M180 399l1 62q-56 2 -95.5 29t-39.5 78q0 54 37 93t101 45v56q21 3 46 3l-1 -57h6q39 0 76 -16q0 -14 -8 -32t-17 -24q-37 22 -59 22l-2 -148q32 1 76 20q9 -27 12 -40q-44 -22 -88 -27l-1 -62q-7 -1 -22 -1.5t-22 -0.5zM181 511l2 146q-27 -3 -45 -25.5t-18 -51.5
q0 -39 27 -58q14 -9 34 -11z" />
    <glyph glyph-name="comma.inferior" unicode="&#xf6e1;" horiz-adv-x="245" 
d="M183 -91q0 -47 -29.5 -89t-77.5 -69q-3 4 -9.5 11.5t-11.5 13.5t-9 11q60 41 60 86q0 31 -46 43q-4 31 12.5 52t39.5 21q28 0 49.5 -24t21.5 -56z" />
    <glyph glyph-name="comma.superior" unicode="&#xf6e2;" horiz-adv-x="245" 
d="M183 438q0 -47 -29.5 -88.5t-77.5 -68.5q-5 6 -15 17.5t-15 17.5q60 41 60 86q0 32 -46 43q-4 31 12.5 52t39.5 21q28 0 49.5 -24t21.5 -56z" />
    <glyph glyph-name="dollar.inferior" unicode="&#xf6e3;" 
d="M209 167l-2 -84q52 -12 78 -32t26 -55q0 -46 -33 -72q-31 -26 -88 -29l-1 -55q-28 -2 -43 -3l2 58q-67 0 -113 25q1 11 10 28.5t18 24.5q44 -29 85 -32l2 89q-53 14 -78.5 33.5t-25.5 56.5q0 40 38 66q31 22 83 25l1 55q19 4 44 4l-1 -58q54 -1 91 -19q0 -12 -8.5 -28.5
t-17.5 -24.5q-38 26 -67 27zM165 91l1 76q-22 0 -38 -11q-12 -12 -12 -27q0 -14 11 -22.5t38 -15.5zM192 22l-2 -82q23 1 38 11q14 11 14 30q0 29 -50 41z" />
    <glyph glyph-name="dollar.superior" unicode="&#xf6e4;" 
d="M209 696l-2 -84q52 -12 78 -32t26 -55q0 -47 -33 -72q-31 -26 -88 -29l-1 -55q-28 -2 -43 -3l2 58q-67 0 -113 25q1 11 10 28.5t18 24.5q44 -29 85 -32l2 89q-53 14 -78.5 33.5t-25.5 56.5q0 40 38 66q31 22 83 25l1 55q19 4 44 4l-1 -58q54 -1 91 -19q0 -12 -8.5 -28.5
t-17.5 -24.5q-38 26 -67 27zM165 620l1 76q-22 0 -38 -11q-12 -12 -12 -27q0 -14 11 -22.5t38 -15.5zM192 551l-2 -82q23 1 38 11q14 11 14 30q0 29 -50 41z" />
    <glyph glyph-name="hyphen.inferior" unicode="&#xf6e5;" horiz-adv-x="278" 
d="M37 82q17 0 51 0.5t50 0.5q70 0 103 1q0 -23 -2 -61h-104h-99q0 39 1 59z" />
    <glyph glyph-name="hyphen.superior" unicode="&#xf6e6;" horiz-adv-x="278" 
d="M37 611q17 0 51 0.5t50 0.5q70 0 103 1q0 -23 -2 -61h-104h-99q0 39 1 59z" />
    <glyph glyph-name="period.inferior" unicode="&#xf6e7;" horiz-adv-x="245" 
d="M124 -12q25 0 39 -16t14 -38q0 -24 -15.5 -39.5t-39.5 -15.5q-23 0 -39 15t-16 39q0 22 15.5 38.5t41.5 16.5z" />
    <glyph glyph-name="period.superior" unicode="&#xf6e8;" horiz-adv-x="245" 
d="M124 517q25 0 39 -16t14 -38q0 -24 -15.5 -39.5t-39.5 -15.5q-23 0 -39 15t-16 39q0 22 15.5 38.5t41.5 16.5z" />
    <glyph glyph-name="b.superior" unicode="&#xf6ea;" horiz-adv-x="406" 
d="M139 609l2 -1q50 25 69 31t42 6q39 0 70.5 -32.5t36.5 -73.5q11 -57 -1 -105q-13 -61 -60 -99q-36 -28 -100 -28q-43 0 -79 22l-21 -27q-6 0 -14 1.5t-18.5 3.5t-17.5 3q5 48 5 89v373l-54 3q0 33 1 47q16 1 48.5 6t59 9t30.5 4q2 0 2 -2q0 -31 -0.5 -110t-0.5 -120z
M215 581q-36 0 -76 -28q-1 -50 -1 -161q0 -13 19.5 -23t41.5 -10q33 0 53 24q27 32 27 92q0 54 -18 81q-18 25 -46 25z" />
    <glyph glyph-name="d.superior" unicode="&#xf6eb;" horiz-adv-x="424" 
d="M275 340h-5q-67 -34 -101 -34q-54 0 -90 36q-45 43 -45 116q0 80 53 139q41 47 110 47q30 0 67 -11l2 1v136l-60 2v49q18 2 53.5 6.5t63 8.5t31.5 4q2 0 2 -3q0 -63 -1 -225.5t-1 -234.5q0 -12 7 -12l46 1v-14v-18v-15q-42 -13 -108 -13q-13 10 -24 34zM206 587
q-34 0 -52 -25q-25 -33 -25 -95q0 -53 20 -78q19 -24 48 -24q31 0 66 21q3 2 3 11v176q-28 14 -60 14z" />
    <glyph glyph-name="e.superior" unicode="&#xf6ec;" horiz-adv-x="366" 
d="M34 461q0 94 63 145q44 39 110 39q61 0 93 -39q33 -42 33 -114q0 -4 -12.5 -16.5t-17.5 -13.5q-36 -2 -178 -2q0 -45 22 -70q23 -24 69 -24q49 0 99 23q6 -20 12 -49q-68 -33 -131 -33q-75 0 -118.5 41t-43.5 113zM195 595q-28 0 -45 -20q-23 -30 -24 -67q56 0 116 2
q8 0 8 9q0 33 -14 54q-16 22 -41 22z" />
    <glyph glyph-name="i.superior" unicode="&#xf6ed;" horiz-adv-x="225" 
d="M113 806q24 0 37 -15t13 -35q0 -24 -15.5 -39t-37.5 -15q-21 0 -36.5 15.5t-15.5 37.5q0 21 15 36t40 15zM75 576l-55 1v48q16 2 50 7t60.5 9t29.5 4q1 0 1 -2q0 -43 -0.5 -142.5t-0.5 -138.5l49 -2q0 -32 -1 -48h-93h-91q0 33 1 48l47 2q3 0 3 3v211z" />
    <glyph glyph-name="l.superior" unicode="&#xf6ee;" horiz-adv-x="218" 
d="M64 771l-57 2q0 33 1 47q15 2 49.5 6.5t62 8.5t30.5 4t3 -3q-3 -396 -3 -474l53 -2q0 -32 -1 -48h-96h-93q0 8 0.5 24t0.5 24l47 2q3 0 3 3v406z" />
    <glyph glyph-name="m.superior" unicode="&#xf6ef;" horiz-adv-x="633" 
d="M75 577l-53 1q0 32 1 46q13 2 44.5 7t57 9t27.5 4t2 -2q2 -28 4 -41l3 -1q49 29 70 37t44 8q49 0 78 -50h2q52 32 72.5 40.5t44.5 8.5q43 0 78 -46q18 -29 18 -62q0 -28 -1 -87t-1 -86l46 -1q0 -8 -0.5 -25t-0.5 -25h-85h-82q0 34 1 49l35 2q3 0 3 3v140q0 33 -8 49
q-11 23 -40 23t-70 -28q0 -27 -0.5 -92.5t-0.5 -94.5l42 -1q0 -33 -1 -50h-88h-74q0 8 0.5 24.5t0.5 24.5l36 2q3 0 3 3v145q0 36 -8 49q-10 20 -38 20q-31 0 -77 -32q0 -28 -0.5 -93t-0.5 -92l44 -2q0 -32 -1 -49h-89h-84q0 34 1 49l43 2q3 0 3 3z" />
    <glyph glyph-name="r.superior" unicode="&#xf6f1;" horiz-adv-x="315" 
d="M74 578l-52 1q0 7 0.5 23t0.5 23q14 2 45 6.5t56 8.5t27 4q1 0 1 -2q1 -10 3 -96l4 -1q31 61 52.5 80.5t48.5 19.5t49 -9q0 -18 -9 -45t-18 -34q-2 0 -18 3t-24 3q-13 0 -24 -10q-22 -17 -45 -62q-11 -23 -11 -67q-1 -20 -1 -62l69 -2q0 -8 -0.5 -24t-0.5 -24h-107h-92
q0 8 0.5 24t0.5 23l42 2l3 2v215z" />
    <glyph glyph-name="s.superior" unicode="&#xf6f2;" horiz-adv-x="331" 
d="M81 425l11 -46q2 -6 6 -9q20 -13 49 -13t43 8q19 10 19 33q0 21 -13.5 29t-61.5 21q-93 27 -93 92q0 55 55 84q37 21 100 21q52 0 82 -12l9 -93q-29 -5 -52 -8l-12 45q0 5 -5 8q-13 9 -39 9q-28 0 -41 -12q-13 -10 -13 -28t13 -25.5t61 -21.5q47 -13 71 -33t24 -61
q0 -57 -56 -87q-33 -19 -101 -19q-60 0 -97 13q-3 32 -11 96q23 6 52 9z" />
    <glyph glyph-name="t.superior" unicode="&#xf6f3;" horiz-adv-x="301" 
d="M70 388v103q1 20 1 91h-52q0 8 0.5 25t0.5 25q8 0 24.5 1t24.5 2q5 0 5 5q2 50 4 66q19 11 47 22t32 11q2 0 2 -3q-1 -11 -1.5 -49.5t-0.5 -51.5q81 0 119 1q0 -19 -2 -55q-16 0 -56.5 0.5t-60.5 0.5q0 -1 -0.5 -28t-0.5 -46v-101q0 -19 12 -29.5t30 -10.5q33 0 78 12
q3 -14 7 -49q-65 -23 -131 -23q-37 0 -60 21q-22 20 -22 60z" />
    <glyph glyph-name="breve.sc" unicode="&#xf6f4;" horiz-adv-x="382" 
d="M189 572q-48 0 -83 30.5t-43 75.5q25 9 50 14q23 -59 80 -59q27 0 47.5 16.5t28.5 39.5q26 -3 51 -11q-7 -40 -44 -73t-87 -33z" />
    <glyph glyph-name="caron.sc" unicode="&#xf6f5;" horiz-adv-x="382" 
d="M192 645q16 15 50 48t49 47q20 -15 37 -34q-17 -20 -57 -67t-55 -64q-23 -2 -48 0q-16 19 -54.5 64t-57.5 67q18 18 38 33q26 -25 98 -94z" />
    <glyph glyph-name="circumflex.sc" unicode="&#xf6f6;" horiz-adv-x="382" 
d="M192 655q-15 -14 -48.5 -46.5t-49.5 -46.5q-30 25 -38 33q53 62 112 131h15.5h18.5h14q19 -21 59 -68.5t53 -62.5q-24 -24 -37 -34q-71 68 -99 94z" />
    <glyph glyph-name="dotaccent.sc" unicode="&#xf6f7;" horiz-adv-x="382" 
d="M193 693q26 0 40 -16t14 -38q0 -23 -15.5 -39t-40.5 -16q-23 0 -39 15.5t-16 39.5q0 21 15 37.5t42 16.5z" />
    <glyph glyph-name="hungarumlaut.sc" unicode="&#xf6f8;" horiz-adv-x="382" 
d="M216 718q13 -13 38 -55q-52 -30 -158 -90l-15 21t-14 19q124 87 149 105zM388 714q11 -13 37 -55q-29 -17 -82.5 -48t-73.5 -43q-17 22 -28 40q34 25 147 106z" />
    <glyph glyph-name="lslash.sc" unicode="&#xf6f9;" horiz-adv-x="500" 
d="M227 237l-1 -159q0 -11 5.5 -14t31.5 -3q79 0 106 5q10 3 14 16l31 86q24 -4 70 -14q-14 -75 -34 -155q-59 1 -278 1h-114q0 39 1 60l51 2q4 0 4 3v128q-22 -9 -65 -30q-15 29 -24 55q18 9 50.5 23.5t38.5 17.5v185l-56 2q0 23 2 61h116h122q0 -17 -2 -61l-66 -2
q-2 0 -2 -3l-1 -135q28 13 116 54q14 -31 23 -61q-117 -53 -139 -62z" />
    <glyph glyph-name="oe.sc" unicode="&#xf6fa;" horiz-adv-x="844" 
d="M552 229l-1 -150q0 -11 7.5 -14t38.5 -3q76 0 100 6q10 1 16 15l25 64q44 -7 69 -13q-9 -47 -29 -134h-270h-63q0 21 -2 53q-55 -63 -160 -63q-97 0 -161 58q-80 72 -80 200q0 70 30 130.5t83 96.5q63 43 150 43t139 -54l2 43h56h186h87q4 -45 8 -133q-12 -2 -35.5 -4.5
t-34.5 -3.5l-14 61q-2 13 -18 14q-34 4 -110 4h-18l-1 -156q19 0 53 0.5t52 1.5q13 0 16 15l4 31q12 0 34.5 -0.5t33.5 -0.5q0 -13 -0.5 -39.5t-0.5 -39.5v-76q-46 -2 -69 -2l-3 33q-1 16 -17 16q-64 2 -103 1zM316 52q40 0 74 21.5t51 61.5v244q-14 35 -46.5 55.5
t-75.5 20.5q-57 0 -96 -37q-56 -56 -56 -161q0 -107 46 -160q41 -45 103 -45z" />
    <glyph glyph-name="ogonek.sc" unicode="&#xf6fb;" horiz-adv-x="382" 
d="M310 6h45q-64 -49 -64 -104q0 -23 13.5 -35.5t34.5 -12.5q19 0 39 8q9 -32 11 -40q-30 -18 -69 -18q-41 0 -71 22t-30 60q0 69 91 120z" />
    <glyph glyph-name="ring.sc" unicode="&#xf6fc;" horiz-adv-x="382" 
d="M194 753q46 0 76 -25t30 -64q0 -40 -31.5 -67t-76.5 -27q-46 0 -77.5 25t-31.5 67q0 35 32.5 63t78.5 28zM192 711q-22 0 -36.5 -14.5t-14.5 -35.5t15.5 -35t36.5 -14q23 0 36.5 14t13.5 36q0 23 -13.5 36t-37.5 13z" />
    <glyph glyph-name="scaron.sc" unicode="&#xf6fd;" horiz-adv-x="472" 
d="M114 161l18 -80q3 -7 7 -10q22 -15 67 -15q62 0 87 24q20 19 20 47q0 17 -5 28.5t-20.5 22t-27.5 16t-43 17.5l-15 6q-141 53 -141 147q0 66 55 110q54 44 169 44q75 0 117 -18q8 -70 11 -136q-6 -1 -31.5 -3.5t-39.5 -3.5l-17 74q-1 5 -5 9q-17 12 -52 12q-49 0 -73 -18
q-25 -20 -25 -49q0 -32 20.5 -46t90.5 -40q71 -26 106.5 -60.5t35.5 -87.5q0 -72 -55 -115q-59 -46 -176 -46q-81 0 -136 19q-8 69 -15 141q50 9 73 11zM249 655q24 23 99 95q13 -10 37 -34q-28 -32 -112 -132q-33 0 -49 1q-4 5 -46.5 55.5t-64.5 75.5q18 18 38 33
q26 -25 98 -94z" />
    <glyph glyph-name="tilde.sc" unicode="&#xf6fe;" horiz-adv-x="382" 
d="M251 574q-23 0 -64 29q-2 2 -13.5 9.5t-15 9.5t-11.5 5t-15 3q-28 0 -36 -51q-16 -1 -45 1q4 49 24.5 80.5t57.5 31.5q9 0 16.5 -1.5t16.5 -6t12.5 -6.5t14.5 -9.5t12 -8.5q3 -2 10 -7t10 -6.5t8.5 -4.5t10.5 -4t10 -1q27 0 33 51q24 2 45 0q-6 -114 -81 -114z" />
    <glyph glyph-name="zcaron.sc" unicode="&#xf6ff;" horiz-adv-x="528" 
d="M174 71l1 -3q164 0 193 8q17 4 24 22l28 77q44 -6 75 -15q-14 -65 -38 -161q-2 0 -96 0.5t-163 0.5h-147q-3 7 -9.5 24t-9.5 24q51 62 159.5 197t154.5 191l-1 4q-143 1 -171 -4q-11 -3 -18 -18l-28 -82q-61 10 -74 13q20 108 30 159q6 0 36 -0.5t44 -0.5q202 0 302 1
q11 -28 20 -65q-243 -293 -312 -372zM272 655q15 14 49.5 47t49.5 47q20 -15 36 -34q-82 -97 -112 -131h-48q-71 85 -111 131q22 22 38 33q16 -14 49.5 -46.5t48.5 -46.5z" />
    <glyph glyph-name="exclam.sc" unicode="&#xf721;" horiz-adv-x="281" 
d="M205 518q2 0 2 -2q-4 -43 -16 -171t-16 -171q-24 -6 -70 -9q-1 17 -8 80t-8 79q-1 18 -20 179q56 15 136 15zM143 116q29 0 46 -19t17 -46q0 -26 -18.5 -43.5t-47.5 -17.5q-27 0 -46 17t-19 43q0 27 19 46.5t49 19.5z" />
    <glyph glyph-name="dollar.oldstyle" unicode="&#xf724;" horiz-adv-x="443" 
d="M262 397l-4 -128q142 -28 142 -127q0 -61 -40 -96q-45 -42 -124 -46l-2 -77q-20 -2 -54 -4l1 81q-103 2 -154 33q5 36 39 70q56 -40 117 -43l2 137q-70 18 -106.5 47t-36.5 83t51 94q42 31 115 36l1 77q36 6 57 7l-2 -83q78 -2 126 -27q0 -15 -11.5 -38t-24.5 -32
q-50 34 -92 36zM205 281l2 117q-38 0 -57 -19q-20 -17 -20 -40q0 -45 75 -58zM240 187l-3 -130q33 2 53 16q23 17 23 46q0 28 -17.5 43.5t-55.5 24.5z" />
    <glyph glyph-name="ampersand.sc" unicode="&#xf726;" horiz-adv-x="673" 
d="M313 280v-4q32 -22 143 -123q14 16 26.5 48t13.5 55q0 5 -4 5l-46 2q0 38 1 56h102q13 0 42 0.5t46 0.5q1 -28 0 -57l-47 -2q-29 -93 -89 -152q15 -14 42 -41q10 -9 32 -9l59 -1q1 -21 -1 -58q-22 -1 -75.5 -3.5t-77.5 -4.5q-9 9 -26.5 29.5t-25.5 28.5q-82 -60 -195 -60
q-81 0 -130 29q-67 41 -67 111q0 46 33 85.5t88 61.5v3q-71 49 -71 110q0 54 47 90q50 38 132 38q72 0 113 -29q44 -31 44 -79q0 -84 -109 -130zM189 400q0 -25 16.5 -44t52.5 -43q66 32 66 87q0 26 -16 43q-18 18 -50 18q-33 0 -50 -16q-19 -18 -19 -45zM266 56
q72 0 116 37q-86 87 -172 147q-60 -34 -60 -93q0 -40 31 -65q31 -26 85 -26z" />
    <glyph glyph-name="zero.oldstyle" unicode="&#xf730;" horiz-adv-x="555" 
d="M269 -10q-86 0 -147 46q-81 60 -81 176q0 55 24 104t65 82q63 50 160 50q88 0 145 -45q80 -62 80 -174q0 -123 -88 -191q-62 -48 -158 -48zM276 68q54 0 85 31q45 45 45 123q0 73 -45 118q-30 30 -81 30q-48 0 -79 -30q-50 -47 -50 -124q0 -74 45 -119q31 -29 80 -29z
" />
    <glyph glyph-name="one.oldstyle" unicode="&#xf731;" horiz-adv-x="462" 
d="M54 62l141 3q4 0 4 5v262l-70 -17.5l-70 -17.5q-3 13 -13 61q265 97 266 97q4 0 4 -4q-3 -336 -3 -386l127 -3q0 -42 -1 -61h-187q-30 0 -96 -0.5t-103 -0.5q0 40 1 62z" />
    <glyph glyph-name="two.oldstyle" unicode="&#xf732;" horiz-adv-x="470" 
d="M175 80v-7q122 2 257 2q0 -44 -4 -75h-264h-122q-9 24 -18 66q101 53 130 69q72 43 104 78.5t32 79.5q0 31 -19 52q-23 24 -66 24q-72 0 -130 -62q-23 20 -44 46q86 95 215 95q84 0 128 -46q39 -39 39 -95q0 -62 -37.5 -107.5t-119.5 -86.5q-35 -17 -81 -33z" />
    <glyph glyph-name="three.oldstyle" unicode="&#xf733;" horiz-adv-x="454" 
d="M271 165v-7q69 -4 107.5 -46t38.5 -96q0 -86 -67 -139q-72 -58 -197 -58q-91 0 -143 28q4 17 20 62q55 -22 114 -22q77 0 119 38q35 30 35 82q0 50 -38.5 78.5t-107.5 28.5q-38 0 -51 -1q-3 60 -3 63q92 1 135 32.5t43 81.5q0 36 -21 58q-22 24 -65 24q-72 0 -128 -58
q-20 20 -39 47q79 87 206 87q80 0 125 -45q37 -37 37 -91t-34 -92.5t-86 -54.5z" />
    <glyph glyph-name="four.oldstyle" unicode="&#xf734;" horiz-adv-x="529" 
d="M310 -176v178q-15 0 -130.5 -0.5t-132.5 -0.5q-20 43 -30 75q53 77 132 179q66 85 158 191q59 0 113 -3q-1 -65 -2 -197t-1 -174h102q0 -34 -3 -67h-100q0 -25 -0.5 -84.5t-0.5 -91.5q-40 -5 -105 -5zM312 347h-5q-26 -33 -103 -138q-59 -82 -87 -127q-5 -7 2 -7
q90 -2 191 -2z" />
    <glyph glyph-name="five.oldstyle" unicode="&#xf735;" horiz-adv-x="463" 
d="M67 145l-12 11q28 220 37 282h153h164q0 -45 -4 -80q-200 -2 -242 -3q-16 -94 -22 -128q18 1 63 1q106 0 163 -51.5t57 -128.5q0 -107 -82 -171q-74 -57 -200 -57q-73 0 -123 25q10 39 19 61q50 -18 103 -18q83 0 125 36q43 38 43 103q0 57 -40 89t-118 32q-21 0 -84 -3z
" />
    <glyph glyph-name="six.oldstyle" unicode="&#xf736;" horiz-adv-x="519" 
d="M164 337l7 -2q51 57 134 57q78 0 124 -48q50 -53 50 -128q0 -108 -73 -175q-57 -51 -151 -51q-97 0 -153 62q-27 28 -43.5 74t-16.5 96q0 178 126 306q82 81 208 113q18 -31 26 -60q-93 -29 -149 -87q-65 -66 -89 -157zM265 51q41 0 65 27q33 34 33 112q0 60 -30 100
q-23 30 -64 30q-72 0 -109 -67v-36q2 -80 33 -126q27 -40 72 -40z" />
    <glyph glyph-name="seven.oldstyle" unicode="&#xf737;" horiz-adv-x="465" 
d="M317 349l-2 5q-207 0 -293 -3q1 36 9 88q31 0 117 -0.5t131 -0.5h139q11 -27 23 -75q-93 -168 -263 -547q-52 15 -83 30q23 52 98.5 224.5t123.5 278.5z" />
    <glyph glyph-name="eight.oldstyle" unicode="&#xf738;" horiz-adv-x="517" 
d="M344 335v-5q64 -21 99.5 -63t35.5 -94q0 -88 -68 -138q-61 -45 -162 -45q-97 0 -152 40q-60 44 -60 115q0 53 36.5 98t100.5 67v6q-106 44 -106 140q0 63 54 110q57 50 153 50q89 0 138 -43q43 -39 43 -95q0 -96 -112 -143zM170 470q0 -38 26.5 -63t82.5 -46
q77 38 77 108q0 37 -20 60q-24 28 -71 28q-48 0 -73 -28q-22 -26 -22 -59zM371 152q0 44 -32 73.5t-103 54.5q-39 -18 -64 -52.5t-25 -73.5q0 -46 29 -75q31 -31 82 -31q53 0 84 29q29 29 29 75z" />
    <glyph glyph-name="nine.oldstyle" unicode="&#xf739;" horiz-adv-x="515" 
d="M356 109l-6 3q-49 -55 -132 -55q-77 0 -126 47q-54 52 -54 131q0 95 72 159q62 54 154 54q91 0 145 -56q65 -67 65 -186q0 -180 -123 -296q-88 -82 -216 -103q-13 23 -26 65q108 24 166 83q62 60 81 154zM249 387q-37 0 -61 -26q-35 -38 -35 -111q0 -62 32 -96
q25 -28 63 -28q28 0 58.5 17t48.5 45q1 9 1 26q0 84 -30 129q-28 44 -77 44z" />
    <glyph glyph-name="question.sc" unicode="&#xf73f;" horiz-adv-x="445" 
d="M408 394q0 -53 -35.5 -90t-107.5 -73q-17 -9 -17 -22q0 -18 10 -53q-30 -12 -79 -17q-12 15 -24.5 45.5t-12.5 51.5q80 44 111 73.5t31 71.5q0 68 -76 68q-42 0 -67 -18q-2 -1 -6 -9l-16 -70q-28 2 -74 8q6 89 8 125q70 33 176 33q84 0 131.5 -33.5t47.5 -90.5zM218 107
q28 0 45.5 -17t17.5 -44q0 -23 -18.5 -39.5t-46.5 -16.5q-27 0 -46 16t-19 40t19 42.5t48 18.5z" />
    <glyph glyph-name="grave.sc" unicode="&#xf760;" horiz-adv-x="382" 
d="M111 720q2 -2 167 -108q-11 -22 -27 -46q-126 62 -180 87q24 45 40 67z" />
    <glyph glyph-name="a.sc" unicode="&#xf761;" horiz-adv-x="553" 
d="M1 59l41 2q3 1 6 4q159 383 188 448q34 2 95 2q11 -30 77 -204t97 -249l46 -3q0 -40 -1 -59h-93h-128q0 9 0.5 28.5t0.5 30.5l56 3q4 0 2 4q-4 13 -27 72q-1 4 -5 4l-189 -1q-6 -14 -16.5 -42.5t-13.5 -36.5l65 -3q0 -40 -1 -59h-122h-79q0 38 1 59zM270 403h-7
q-9 -24 -36 -95t-39 -104q-2 -5 1 -5h153q-11 29 -72 204z" />
    <glyph glyph-name="b.sc" unicode="&#xf762;" horiz-adv-x="542" 
d="M45 59l55 3q4 0 4 4v378l-59 3q0 11 0.5 31t0.5 28q106 2 185 2q125 0 173 -21q29 -13 48 -39t19 -56q0 -40 -27.5 -70.5t-70.5 -45.5v-5q55 -8 92 -42t37 -81q0 -66 -58 -107t-157 -41h-123h-119v59zM216 448l-1 -157q6 -1 30 -1q50 0 83 21.5t33 61.5q0 37 -28 57.5
t-80 20.5q-27 0 -37 -3zM215 231l-1 -148q-1 -14 11.5 -19.5t42.5 -5.5q52 0 84.5 21t32.5 65q0 37 -33 62.5t-102 25.5q-28 0 -35 -1z" />
    <glyph glyph-name="c.sc" unicode="&#xf763;" horiz-adv-x="535" 
d="M408 340l-17 86q-2 8 -6 11q-20 10 -51 10q-65 0 -108 -42q-61 -59 -61 -159q0 -91 49 -140q42 -41 120 -41q60 0 140 26q9 -39 13 -65q-100 -36 -179 -36q-107 0 -175 48q-41 29 -66 78t-25 108q0 146 112 232q79 62 201 62q77 0 117 -14q8 -95 11 -156q-43 -6 -75 -8z
" />
    </font>
</defs>
</svg>
