<?xml version="1.0" encoding="UTF-8" standalone="no"?><svg xmlns="http://www.w3.org/2000/svg" xmlns:xlink="http://www.w3.org/1999/xlink" clip-rule="evenodd" stroke-miterlimit="10" viewBox="0 0 1024 768"><desc>SVG generated by Keynote</desc><defs></defs><g transform="matrix(1.00, 0.00, -0.00, -1.00, 0.0, 768.0)"><path d="M 0.0 768.0 L 1024.0 768.0 L 1024.0 0.0 L 0.0 0.0 Z M 0.0 768.0 " fill="#000000"></path><text xml:space="preserve" font-family="AvenirNext-Regular,Avenir Next" font-size="80.0" fill="#FEFFFF" transform="matrix(1.00, 0.00, -0.00, -1.00, 91.1, 637.3)">S</text><text xml:space="preserve" font-family="AvenirNext-Regular,Avenir Next" font-size="80.0" fill="#FEFFFF" transform="matrix(1.00, 0.00, -0.00, -1.00, 136.2, 637.3)">o</text><text xml:space="preserve" font-family="AvenirNext-Regular,Avenir Next" font-size="80.0" fill="#FEFFFF" transform="matrix(1.00, 0.00, -0.00, -1.00, 185.1, 637.3)">l</text><text xml:space="preserve" font-family="AvenirNext-Regular,Avenir Next" font-size="80.0" fill="#FEFFFF" transform="matrix(1.00, 0.00, -0.00, -1.00, 205.2, 637.3)">u</text><text xml:space="preserve" font-family="AvenirNext-Regular,Avenir Next" font-size="80.0" fill="#FEFFFF" transform="matrix(1.00, 0.00, -0.00, -1.00, 251.7, 637.3)">t</text><text xml:space="preserve" font-family="AvenirNext-Regular,Avenir Next" font-size="80.0" fill="#FEFFFF" transform="matrix(1.00, 0.00, -0.00, -1.00, 277.1, 637.3)">i</text><text xml:space="preserve" font-family="AvenirNext-Regular,Avenir Next" font-size="80.0" fill="#FEFFFF" transform="matrix(1.00, 0.00, -0.00, -1.00, 297.1, 637.3)">o</text><text xml:space="preserve" font-family="AvenirNext-Regular,Avenir Next" font-size="80.0" fill="#FEFFFF" transform="matrix(1.00, 0.00, -0.00, -1.00, 346.0, 637.3)">n</text><text xml:space="preserve" font-family="AvenirNext-Regular,Avenir Next" font-size="80.0" fill="#FEFFFF" transform="matrix(1.00, 0.00, -0.00, -1.00, 392.4, 637.3)">s</text><text xml:space="preserve" font-family="AvenirNext-Regular,Avenir Next" font-size="80.0" fill="#FEFFFF" transform="matrix(1.00, 0.00, -0.00, -1.00, 428.0, 637.3)">:</text><text xml:space="preserve" font-family="AvenirNext-Regular,Avenir Next" font-size="80.0" fill="#FEFFFF" transform="matrix(1.00, 0.00, -0.00, -1.00, 452.0, 637.3)"> </text><text xml:space="preserve" font-family="AvenirNext-Regular,Avenir Next" font-size="80.0" fill="#FEFFFF" transform="matrix(1.00, 0.00, -0.00, -1.00, 472.0, 637.3)">C</text><text xml:space="preserve" font-family="AvenirNext-Regular,Avenir Next" font-size="80.0" fill="#FEFFFF" transform="matrix(1.00, 0.00, -0.00, -1.00, 528.6, 637.3)">o</text><text xml:space="preserve" font-family="AvenirNext-Regular,Avenir Next" font-size="80.0" fill="#FEFFFF" transform="matrix(1.00, 0.00, -0.00, -1.00, 577.5, 637.3)">i</text><text xml:space="preserve" font-family="AvenirNext-Regular,Avenir Next" font-size="80.0" fill="#FEFFFF" transform="matrix(1.00, 0.00, -0.00, -1.00, 597.5, 637.3)">n</text><text xml:space="preserve" font-family="AvenirNext-Regular,Avenir Next" font-size="80.0" fill="#FEFFFF" transform="matrix(1.00, 0.00, -0.00, -1.00, 644.0, 637.3)">c</text><text xml:space="preserve" font-family="AvenirNext-Regular,Avenir Next" font-size="80.0" fill="#FEFFFF" transform="matrix(1.00, 0.00, -0.00, -1.00, 684.0, 637.3)">i</text><text xml:space="preserve" font-family="AvenirNext-Regular,Avenir Next" font-size="80.0" fill="#FEFFFF" transform="matrix(1.00, 0.00, -0.00, -1.00, 704.0, 637.3)">d</text><text xml:space="preserve" font-family="AvenirNext-Regular,Avenir Next" font-size="80.0" fill="#FEFFFF" transform="matrix(1.00, 0.00, -0.00, -1.00, 754.9, 637.3)">e</text><text xml:space="preserve" font-family="AvenirNext-Regular,Avenir Next" font-size="80.0" fill="#FEFFFF" transform="matrix(1.00, 0.00, -0.00, -1.00, 800.7, 637.3)">n</text><text xml:space="preserve" font-family="AvenirNext-Regular,Avenir Next" font-size="80.0" fill="#FEFFFF" transform="matrix(1.00, 0.00, -0.00, -1.00, 847.2, 637.3)">c</text><text xml:space="preserve" font-family="AvenirNext-Regular,Avenir Next" font-size="80.0" fill="#FEFFFF" transform="matrix(1.00, 0.00, -0.00, -1.00, 887.2, 637.3)">e</text><text xml:space="preserve" font-family="AvenirNext-Regular,Avenir Next" font-size="28.5" fill="#FEFFFF" transform="matrix(1.00, 0.00, -0.00, -1.00, 114.0, 520.9)">•</text><text xml:space="preserve" font-family="AvenirNext-Regular,Avenir Next" font-size="38.0" fill="#FEFFFF" transform="matrix(1.00, 0.00, -0.00, -1.00, 149.0, 517.9)">R</text><text xml:space="preserve" font-family="AvenirNext-Regular,Avenir Next" font-size="38.0" fill="#FEFFFF" transform="matrix(1.00, 0.00, -0.00, -1.00, 171.3, 517.9)">e</text><text xml:space="preserve" font-family="AvenirNext-Regular,Avenir Next" font-size="38.0" fill="#FEFFFF" transform="matrix(1.00, 0.00, -0.00, -1.00, 193.0, 517.9)">j</text><text xml:space="preserve" font-family="AvenirNext-Regular,Avenir Next" font-size="38.0" fill="#FEFFFF" transform="matrix(1.00, 0.00, -0.00, -1.00, 202.6, 517.9)">e</text><text xml:space="preserve" font-family="AvenirNext-Regular,Avenir Next" font-size="38.0" fill="#FEFFFF" transform="matrix(1.00, 0.00, -0.00, -1.00, 224.3, 517.9)">c</text><text xml:space="preserve" font-family="AvenirNext-Regular,Avenir Next" font-size="38.0" fill="#FEFFFF" transform="matrix(1.00, 0.00, -0.00, -1.00, 243.3, 517.9)">t</text><text xml:space="preserve" font-family="AvenirNext-Regular,Avenir Next" font-size="38.0" fill="#FEFFFF" transform="matrix(1.00, 0.00, -0.00, -1.00, 255.4, 517.9)"> </text><text xml:space="preserve" font-family="AvenirNext-Regular,Avenir Next" font-size="38.0" fill="#FEFFFF" transform="matrix(1.00, 0.00, -0.00, -1.00, 264.9, 517.9)">p</text><text xml:space="preserve" font-family="AvenirNext-Regular,Avenir Next" font-size="38.0" fill="#FEFFFF" transform="matrix(1.00, 0.00, -0.00, -1.00, 289.0, 517.9)">r</text><text xml:space="preserve" font-family="AvenirNext-Regular,Avenir Next" font-size="38.0" fill="#FEFFFF" transform="matrix(1.00, 0.00, -0.00, -1.00, 302.0, 517.9)">e</text><text xml:space="preserve" font-family="AvenirNext-Regular,Avenir Next" font-size="38.0" fill="#FEFFFF" transform="matrix(1.00, 0.00, -0.00, -1.00, 323.7, 517.9)">m</text><text xml:space="preserve" font-family="AvenirNext-Regular,Avenir Next" font-size="38.0" fill="#FEFFFF" transform="matrix(1.00, 0.00, -0.00, -1.00, 357.3, 517.9)">i</text><text xml:space="preserve" font-family="AvenirNext-Regular,Avenir Next" font-size="38.0" fill="#FEFFFF" transform="matrix(1.00, 0.00, -0.00, -1.00, 366.8, 517.9)">s</text><text xml:space="preserve" font-family="AvenirNext-Regular,Avenir Next" font-size="38.0" fill="#FEFFFF" transform="matrix(1.00, 0.00, -0.00, -1.00, 383.6, 517.9)">e</text><text xml:space="preserve" font-family="AvenirNext-Regular,Avenir Next" font-size="38.0" fill="#FEFFFF" transform="matrix(1.00, 0.00, -0.00, -1.00, 405.4, 517.9)"> </text><text xml:space="preserve" font-family="AvenirNext-Regular,Avenir Next" font-size="38.0" fill="#FEFFFF" transform="matrix(1.00, 0.00, -0.00, -1.00, 414.9, 517.9)">5</text><text xml:space="preserve" font-family="AvenirNext-Regular,Avenir Next" font-size="38.0" fill="#FEFFFF" transform="matrix(1.00, 0.00, -0.00, -1.00, 436.9, 517.9)"> </text><text xml:space="preserve" font-family="AvenirNext-Regular,Avenir Next" font-size="28.5" fill="#FEFFFF" transform="matrix(1.00, 0.00, -0.00, -1.00, 114.0, 426.9)">•</text><text xml:space="preserve" font-family="AvenirNext-Regular,Avenir Next" font-size="38.0" fill="#FEFFFF" transform="matrix(1.00, 0.00, -0.00, -1.00, 149.0, 423.9)">Y</text><text xml:space="preserve" font-family="AvenirNext-Regular,Avenir Next" font-size="38.0" fill="#FEFFFF" transform="matrix(1.00, 0.00, -0.00, -1.00, 168.5, 423.9)">o</text><text xml:space="preserve" font-family="AvenirNext-Regular,Avenir Next" font-size="38.0" fill="#FEFFFF" transform="matrix(1.00, 0.00, -0.00, -1.00, 191.7, 423.9)">u</text><text xml:space="preserve" font-family="AvenirNext-Regular,Avenir Next" font-size="38.0" fill="#FEFFFF" transform="matrix(1.00, 0.00, -0.00, -1.00, 213.8, 423.9)"> </text><text xml:space="preserve" font-family="AvenirNext-Regular,Avenir Next" font-size="38.0" fill="#FEFFFF" transform="matrix(1.00, 0.00, -0.00, -1.00, 223.3, 423.9)">c</text><text xml:space="preserve" font-family="AvenirNext-Regular,Avenir Next" font-size="38.0" fill="#FEFFFF" transform="matrix(1.00, 0.00, -0.00, -1.00, 242.3, 423.9)">o</text><text xml:space="preserve" font-family="AvenirNext-Regular,Avenir Next" font-size="38.0" fill="#FEFFFF" transform="matrix(1.00, 0.00, -0.00, -1.00, 265.5, 423.9)">u</text><text xml:space="preserve" font-family="AvenirNext-Regular,Avenir Next" font-size="38.0" fill="#FEFFFF" transform="matrix(1.00, 0.00, -0.00, -1.00, 287.5, 423.9)">l</text><text xml:space="preserve" font-family="AvenirNext-Regular,Avenir Next" font-size="38.0" fill="#FEFFFF" transform="matrix(1.00, 0.00, -0.00, -1.00, 297.1, 423.9)">d</text><text xml:space="preserve" font-family="AvenirNext-Regular,Avenir Next" font-size="38.0" fill="#FEFFFF" transform="matrix(1.00, 0.00, -0.00, -1.00, 321.3, 423.9)"> </text><text xml:space="preserve" font-family="AvenirNext-Regular,Avenir Next" font-size="38.0" fill="#FEFFFF" transform="matrix(1.00, 0.00, -0.00, -1.00, 330.8, 423.9)">l</text><text xml:space="preserve" font-family="AvenirNext-Regular,Avenir Next" font-size="38.0" fill="#FEFFFF" transform="matrix(1.00, 0.00, -0.00, -1.00, 340.4, 423.9)">o</text><text xml:space="preserve" font-family="AvenirNext-Regular,Avenir Next" font-size="38.0" fill="#FEFFFF" transform="matrix(1.00, 0.00, -0.00, -1.00, 363.6, 423.9)">c</text><text xml:space="preserve" font-family="AvenirNext-Regular,Avenir Next" font-size="38.0" fill="#FEFFFF" transform="matrix(1.00, 0.00, -0.00, -1.00, 382.6, 423.9)">a</text><text xml:space="preserve" font-family="AvenirNext-Regular,Avenir Next" font-size="38.0" fill="#FEFFFF" transform="matrix(1.00, 0.00, -0.00, -1.00, 402.5, 423.9)">t</text><text xml:space="preserve" font-family="AvenirNext-Regular,Avenir Next" font-size="38.0" fill="#FEFFFF" transform="matrix(1.00, 0.00, -0.00, -1.00, 414.6, 423.9)">e</text><text xml:space="preserve" font-family="AvenirNext-Regular,Avenir Next" font-size="38.0" fill="#FEFFFF" transform="matrix(1.00, 0.00, -0.00, -1.00, 436.3, 423.9)"> </text><text xml:space="preserve" font-family="AvenirNext-Regular,Avenir Next" font-size="38.0" fill="#FEFFFF" transform="matrix(1.00, 0.00, -0.00, -1.00, 445.8, 423.9)">h</text><text xml:space="preserve" font-family="AvenirNext-Regular,Avenir Next" font-size="38.0" fill="#FEFFFF" transform="matrix(1.00, 0.00, -0.00, -1.00, 468.0, 423.9)">i</text><text xml:space="preserve" font-family="AvenirNext-Regular,Avenir Next" font-size="38.0" fill="#FEFFFF" transform="matrix(1.00, 0.00, -0.00, -1.00, 477.5, 423.9)">m</text><text xml:space="preserve" font-family="AvenirNext-Regular,Avenir Next" font-size="38.0" fill="#FEFFFF" transform="matrix(1.00, 0.00, -0.00, -1.00, 511.0, 423.9)">,</text><text xml:space="preserve" font-family="AvenirNext-Regular,Avenir Next" font-size="38.0" fill="#FEFFFF" transform="matrix(1.00, 0.00, -0.00, -1.00, 519.8, 423.9)"> </text><text xml:space="preserve" font-family="AvenirNext-Regular,Avenir Next" font-size="38.0" fill="#FEFFFF" transform="matrix(1.00, 0.00, -0.00, -1.00, 529.3, 423.9)">b</text><text xml:space="preserve" font-family="AvenirNext-Regular,Avenir Next" font-size="38.0" fill="#FEFFFF" transform="matrix(1.00, 0.00, -0.00, -1.00, 553.5, 423.9)">u</text><text xml:space="preserve" font-family="AvenirNext-Regular,Avenir Next" font-size="38.0" fill="#FEFFFF" transform="matrix(1.00, 0.00, -0.00, -1.00, 575.5, 423.9)">t</text><text xml:space="preserve" font-family="AvenirNext-Regular,Avenir Next" font-size="38.0" fill="#FEFFFF" transform="matrix(1.00, 0.00, -0.00, -1.00, 587.6, 423.9)"> </text><text xml:space="preserve" font-family="AvenirNext-Regular,Avenir Next" font-size="38.0" fill="#FEFFFF" transform="matrix(1.00, 0.00, -0.00, -1.00, 597.1, 423.9)">s</text><text xml:space="preserve" font-family="AvenirNext-Regular,Avenir Next" font-size="38.0" fill="#FEFFFF" transform="matrix(1.00, 0.00, -0.00, -1.00, 614.0, 423.9)">o</text><text xml:space="preserve" font-family="AvenirNext-Regular,Avenir Next" font-size="38.0" fill="#FEFFFF" transform="matrix(1.00, 0.00, -0.00, -1.00, 637.2, 423.9)">m</text><text xml:space="preserve" font-family="AvenirNext-Regular,Avenir Next" font-size="38.0" fill="#FEFFFF" transform="matrix(1.00, 0.00, -0.00, -1.00, 670.7, 423.9)">e</text><text xml:space="preserve" font-family="AvenirNext-Regular,Avenir Next" font-size="38.0" fill="#FEFFFF" transform="matrix(1.00, 0.00, -0.00, -1.00, 692.5, 423.9)">t</text><text xml:space="preserve" font-family="AvenirNext-Regular,Avenir Next" font-size="38.0" fill="#FEFFFF" transform="matrix(1.00, 0.00, -0.00, -1.00, 704.5, 423.9)">h</text><text xml:space="preserve" font-family="AvenirNext-Regular,Avenir Next" font-size="38.0" fill="#FEFFFF" transform="matrix(1.00, 0.00, -0.00, -1.00, 726.7, 423.9)">i</text><text xml:space="preserve" font-family="AvenirNext-Regular,Avenir Next" font-size="38.0" fill="#FEFFFF" transform="matrix(1.00, 0.00, -0.00, -1.00, 736.2, 423.9)">n</text><text xml:space="preserve" font-family="AvenirNext-Regular,Avenir Next" font-size="38.0" fill="#FEFFFF" transform="matrix(1.00, 0.00, -0.00, -1.00, 758.3, 423.9)">g</text><text xml:space="preserve" font-family="AvenirNext-Regular,Avenir Next" font-size="38.0" fill="#FEFFFF" transform="matrix(1.00, 0.00, -0.00, -1.00, 782.3, 423.9)"> </text><text xml:space="preserve" font-family="AvenirNext-Regular,Avenir Next" font-size="38.0" fill="#FEFFFF" transform="matrix(1.00, 0.00, -0.00, -1.00, 791.8, 423.9)">w</text><text xml:space="preserve" font-family="AvenirNext-Regular,Avenir Next" font-size="38.0" fill="#FEFFFF" transform="matrix(1.00, 0.00, -0.00, -1.00, 820.1, 423.9)">o</text><text xml:space="preserve" font-family="AvenirNext-Regular,Avenir Next" font-size="38.0" fill="#FEFFFF" transform="matrix(1.00, 0.00, -0.00, -1.00, 843.3, 423.9)">u</text><text xml:space="preserve" font-family="AvenirNext-Regular,Avenir Next" font-size="38.0" fill="#FEFFFF" transform="matrix(1.00, 0.00, -0.00, -1.00, 865.4, 423.9)">l</text><text xml:space="preserve" font-family="AvenirNext-Regular,Avenir Next" font-size="38.0" fill="#FEFFFF" transform="matrix(1.00, 0.00, -0.00, -1.00, 875.0, 423.9)">d</text><text xml:space="preserve" font-family="AvenirNext-Regular,Avenir Next" font-size="38.0" fill="#FEFFFF" transform="matrix(1.00, 0.00, -0.00, -1.00, 899.2, 423.9)"> </text><text xml:space="preserve" font-family="AvenirNext-Regular,Avenir Next" font-size="38.0" fill="#FEFFFF" transform="matrix(1.00, 0.00, -0.00, -1.00, 149.0, 371.9)">a</text><text xml:space="preserve" font-family="AvenirNext-Regular,Avenir Next" font-size="38.0" fill="#FEFFFF" transform="matrix(1.00, 0.00, -0.00, -1.00, 169.3, 371.9)">l</text><text xml:space="preserve" font-family="AvenirNext-Regular,Avenir Next" font-size="38.0" fill="#FEFFFF" transform="matrix(1.00, 0.00, -0.00, -1.00, 178.9, 371.9)">w</text><text xml:space="preserve" font-family="AvenirNext-Regular,Avenir Next" font-size="38.0" fill="#FEFFFF" transform="matrix(1.00, 0.00, -0.00, -1.00, 207.2, 371.9)">a</text><text xml:space="preserve" font-family="AvenirNext-Regular,Avenir Next" font-size="38.0" fill="#FEFFFF" transform="matrix(1.00, 0.00, -0.00, -1.00, 227.5, 371.9)">y</text><text xml:space="preserve" font-family="AvenirNext-Regular,Avenir Next" font-size="38.0" fill="#FEFFFF" transform="matrix(1.00, 0.00, -0.00, -1.00, 246.1, 371.9)">s</text><text xml:space="preserve" font-family="AvenirNext-Regular,Avenir Next" font-size="38.0" fill="#FEFFFF" transform="matrix(1.00, 0.00, -0.00, -1.00, 262.9, 371.9)"> </text><text xml:space="preserve" font-family="AvenirNext-Regular,Avenir Next" font-size="38.0" fill="#FEFFFF" transform="matrix(1.00, 0.00, -0.00, -1.00, 272.4, 371.9)">p</text><text xml:space="preserve" font-family="AvenirNext-Regular,Avenir Next" font-size="38.0" fill="#FEFFFF" transform="matrix(1.00, 0.00, -0.00, -1.00, 296.6, 371.9)">r</text><text xml:space="preserve" font-family="AvenirNext-Regular,Avenir Next" font-size="38.0" fill="#FEFFFF" transform="matrix(1.00, 0.00, -0.00, -1.00, 309.6, 371.9)">e</text><text xml:space="preserve" font-family="AvenirNext-Regular,Avenir Next" font-size="38.0" fill="#FEFFFF" transform="matrix(1.00, 0.00, -0.00, -1.00, 331.3, 371.9)">v</text><text xml:space="preserve" font-family="AvenirNext-Regular,Avenir Next" font-size="38.0" fill="#FEFFFF" transform="matrix(1.00, 0.00, -0.00, -1.00, 349.8, 371.9)">e</text><text xml:space="preserve" font-family="AvenirNext-Regular,Avenir Next" font-size="38.0" fill="#FEFFFF" transform="matrix(1.00, 0.00, -0.00, -1.00, 371.6, 371.9)">n</text><text xml:space="preserve" font-family="AvenirNext-Regular,Avenir Next" font-size="38.0" fill="#FEFFFF" transform="matrix(1.00, 0.00, -0.00, -1.00, 393.6, 371.9)">t</text><text xml:space="preserve" font-family="AvenirNext-Regular,Avenir Next" font-size="38.0" fill="#FEFFFF" transform="matrix(1.00, 0.00, -0.00, -1.00, 405.7, 371.9)"> </text><text xml:space="preserve" font-family="AvenirNext-Regular,Avenir Next" font-size="38.0" fill="#FEFFFF" transform="matrix(1.00, 0.00, -0.00, -1.00, 415.2, 371.9)">s</text><text xml:space="preserve" font-family="AvenirNext-Regular,Avenir Next" font-size="38.0" fill="#FEFFFF" transform="matrix(1.00, 0.00, -0.00, -1.00, 432.1, 371.9)">u</text><text xml:space="preserve" font-family="AvenirNext-Regular,Avenir Next" font-size="38.0" fill="#FEFFFF" transform="matrix(1.00, 0.00, -0.00, -1.00, 454.1, 371.9)">c</text><text xml:space="preserve" font-family="AvenirNext-Regular,Avenir Next" font-size="38.0" fill="#FEFFFF" transform="matrix(1.00, 0.00, -0.00, -1.00, 473.1, 371.9)">c</text><text xml:space="preserve" font-family="AvenirNext-Regular,Avenir Next" font-size="38.0" fill="#FEFFFF" transform="matrix(1.00, 0.00, -0.00, -1.00, 492.1, 371.9)">e</text><text xml:space="preserve" font-family="AvenirNext-Regular,Avenir Next" font-size="38.0" fill="#FEFFFF" transform="matrix(1.00, 0.00, -0.00, -1.00, 513.9, 371.9)">s</text><text xml:space="preserve" font-family="AvenirNext-Regular,Avenir Next" font-size="38.0" fill="#FEFFFF" transform="matrix(1.00, 0.00, -0.00, -1.00, 530.7, 371.9)">s</text><text xml:space="preserve" font-family="AvenirNext-Regular,Avenir Next" font-size="38.0" fill="#FEFFFF" transform="matrix(1.00, 0.00, -0.00, -1.00, 547.6, 371.9)"> </text><text xml:space="preserve" font-family="AvenirNext-Regular,Avenir Next" font-size="28.5" fill="#FEFFFF" transform="matrix(1.00, 0.00, -0.00, -1.00, 114.0, 280.9)">•</text><text xml:space="preserve" font-family="AvenirNext-Regular,Avenir Next" font-size="38.0" fill="#FEFFFF" transform="matrix(1.00, 0.00, -0.00, -1.00, 149.0, 277.9)">F</text><text xml:space="preserve" font-family="AvenirNext-Regular,Avenir Next" font-size="38.0" fill="#FEFFFF" transform="matrix(1.00, 0.00, -0.00, -1.00, 168.8, 277.9)">r</text><text xml:space="preserve" font-family="AvenirNext-Regular,Avenir Next" font-size="38.0" fill="#FEFFFF" transform="matrix(1.00, 0.00, -0.00, -1.00, 181.8, 277.9)">e</text><text xml:space="preserve" font-family="AvenirNext-Regular,Avenir Next" font-size="38.0" fill="#FEFFFF" transform="matrix(1.00, 0.00, -0.00, -1.00, 203.5, 277.9)">e</text><text xml:space="preserve" font-family="AvenirNext-Regular,Avenir Next" font-size="38.0" fill="#FEFFFF" transform="matrix(1.00, 0.00, -0.00, -1.00, 225.2, 277.9)"> </text><text xml:space="preserve" font-family="AvenirNext-Regular,Avenir Next" font-size="38.0" fill="#FEFFFF" transform="matrix(1.00, 0.00, -0.00, -1.00, 234.7, 277.9)">w</text><text xml:space="preserve" font-family="AvenirNext-Regular,Avenir Next" font-size="38.0" fill="#FEFFFF" transform="matrix(1.00, 0.00, -0.00, -1.00, 263.1, 277.9)">i</text><text xml:space="preserve" font-family="AvenirNext-Regular,Avenir Next" font-size="38.0" fill="#FEFFFF" transform="matrix(1.00, 0.00, -0.00, -1.00, 272.6, 277.9)">l</text><text xml:space="preserve" font-family="AvenirNext-Regular,Avenir Next" font-size="38.0" fill="#FEFFFF" transform="matrix(1.00, 0.00, -0.00, -1.00, 282.2, 277.9)">l</text><text xml:space="preserve" font-family="AvenirNext-Regular,Avenir Next" font-size="38.0" fill="#FEFFFF" transform="matrix(1.00, 0.00, -0.00, -1.00, 291.7, 277.9)"> </text><text xml:space="preserve" font-family="AvenirNext-Regular,Avenir Next" font-size="38.0" fill="#FEFFFF" transform="matrix(1.00, 0.00, -0.00, -1.00, 301.2, 277.9)">d</text><text xml:space="preserve" font-family="AvenirNext-Regular,Avenir Next" font-size="38.0" fill="#FEFFFF" transform="matrix(1.00, 0.00, -0.00, -1.00, 325.4, 277.9)">o</text><text xml:space="preserve" font-family="AvenirNext-Regular,Avenir Next" font-size="38.0" fill="#FEFFFF" transform="matrix(1.00, 0.00, -0.00, -1.00, 348.7, 277.9)">e</text><text xml:space="preserve" font-family="AvenirNext-Regular,Avenir Next" font-size="38.0" fill="#FEFFFF" transform="matrix(1.00, 0.00, -0.00, -1.00, 370.4, 277.9)">s</text><text xml:space="preserve" font-family="AvenirNext-Regular,Avenir Next" font-size="38.0" fill="#FEFFFF" transform="matrix(1.00, 0.00, -0.00, -1.00, 387.3, 277.9)"> </text><text xml:space="preserve" font-family="AvenirNext-Regular,Avenir Next" font-size="38.0" fill="#FEFFFF" transform="matrix(1.00, 0.00, -0.00, -1.00, 396.8, 277.9)">n</text><text xml:space="preserve" font-family="AvenirNext-Regular,Avenir Next" font-size="38.0" fill="#FEFFFF" transform="matrix(1.00, 0.00, -0.00, -1.00, 418.8, 277.9)">o</text><text xml:space="preserve" font-family="AvenirNext-Regular,Avenir Next" font-size="38.0" fill="#FEFFFF" transform="matrix(1.00, 0.00, -0.00, -1.00, 442.1, 277.9)">t</text><text xml:space="preserve" font-family="AvenirNext-Regular,Avenir Next" font-size="38.0" fill="#FEFFFF" transform="matrix(1.00, 0.00, -0.00, -1.00, 454.1, 277.9)"> </text><text xml:space="preserve" font-family="AvenirNext-Regular,Avenir Next" font-size="38.0" fill="#FEFFFF" transform="matrix(1.00, 0.00, -0.00, -1.00, 463.6, 277.9)">g</text><text xml:space="preserve" font-family="AvenirNext-Regular,Avenir Next" font-size="38.0" fill="#FEFFFF" transform="matrix(1.00, 0.00, -0.00, -1.00, 487.6, 277.9)">u</text><text xml:space="preserve" font-family="AvenirNext-Regular,Avenir Next" font-size="38.0" fill="#FEFFFF" transform="matrix(1.00, 0.00, -0.00, -1.00, 509.7, 277.9)">a</text><text xml:space="preserve" font-family="AvenirNext-Regular,Avenir Next" font-size="38.0" fill="#FEFFFF" transform="matrix(1.00, 0.00, -0.00, -1.00, 530.0, 277.9)">r</text><text xml:space="preserve" font-family="AvenirNext-Regular,Avenir Next" font-size="38.0" fill="#FEFFFF" transform="matrix(1.00, 0.00, -0.00, -1.00, 543.2, 277.9)">a</text><text xml:space="preserve" font-family="AvenirNext-Regular,Avenir Next" font-size="38.0" fill="#FEFFFF" transform="matrix(1.00, 0.00, -0.00, -1.00, 563.5, 277.9)">n</text><text xml:space="preserve" font-family="AvenirNext-Regular,Avenir Next" font-size="38.0" fill="#FEFFFF" transform="matrix(1.00, 0.00, -0.00, -1.00, 585.6, 277.9)">t</text><text xml:space="preserve" font-family="AvenirNext-Regular,Avenir Next" font-size="38.0" fill="#FEFFFF" transform="matrix(1.00, 0.00, -0.00, -1.00, 597.6, 277.9)">e</text><text xml:space="preserve" font-family="AvenirNext-Regular,Avenir Next" font-size="38.0" fill="#FEFFFF" transform="matrix(1.00, 0.00, -0.00, -1.00, 619.4, 277.9)">e</text><text xml:space="preserve" font-family="AvenirNext-Regular,Avenir Next" font-size="38.0" fill="#FEFFFF" transform="matrix(1.00, 0.00, -0.00, -1.00, 641.1, 277.9)"> </text><text xml:space="preserve" font-family="AvenirNext-Regular,Avenir Next" font-size="38.0" fill="#FEFFFF" transform="matrix(1.00, 0.00, -0.00, -1.00, 650.6, 277.9)">s</text><text xml:space="preserve" font-family="AvenirNext-Regular,Avenir Next" font-size="38.0" fill="#FEFFFF" transform="matrix(1.00, 0.00, -0.00, -1.00, 667.5, 277.9)">u</text><text xml:space="preserve" font-family="AvenirNext-Regular,Avenir Next" font-size="38.0" fill="#FEFFFF" transform="matrix(1.00, 0.00, -0.00, -1.00, 689.5, 277.9)">c</text><text xml:space="preserve" font-family="AvenirNext-Regular,Avenir Next" font-size="38.0" fill="#FEFFFF" transform="matrix(1.00, 0.00, -0.00, -1.00, 708.5, 277.9)">c</text><text xml:space="preserve" font-family="AvenirNext-Regular,Avenir Next" font-size="38.0" fill="#FEFFFF" transform="matrix(1.00, 0.00, -0.00, -1.00, 727.5, 277.9)">e</text><text xml:space="preserve" font-family="AvenirNext-Regular,Avenir Next" font-size="38.0" fill="#FEFFFF" transform="matrix(1.00, 0.00, -0.00, -1.00, 749.3, 277.9)">s</text><text xml:space="preserve" font-family="AvenirNext-Regular,Avenir Next" font-size="38.0" fill="#FEFFFF" transform="matrix(1.00, 0.00, -0.00, -1.00, 766.2, 277.9)">s</text><text xml:space="preserve" font-family="AvenirNext-Regular,Avenir Next" font-size="38.0" fill="#FEFFFF" transform="matrix(1.00, 0.00, -0.00, -1.00, 783.0, 277.9)"> </text><text xml:space="preserve" font-family="AvenirNext-Regular,Avenir Next" font-size="28.5" fill="#FEFFFF" transform="matrix(1.00, 0.00, -0.00, -1.00, 114.0, 186.9)">•</text><text xml:space="preserve" font-family="AvenirNext-Regular,Avenir Next" font-size="38.0" fill="#FEFFFF" transform="matrix(1.00, 0.00, -0.00, -1.00, 149.0, 183.9)">O</text><text xml:space="preserve" font-family="AvenirNext-Regular,Avenir Next" font-size="38.0" fill="#FEFFFF" transform="matrix(1.00, 0.00, -0.00, -1.00, 181.3, 183.9)">b</text><text xml:space="preserve" font-family="AvenirNext-Regular,Avenir Next" font-size="38.0" fill="#FEFFFF" transform="matrix(1.00, 0.00, -0.00, -1.00, 205.5, 183.9)">j</text><text xml:space="preserve" font-family="AvenirNext-Regular,Avenir Next" font-size="38.0" fill="#FEFFFF" transform="matrix(1.00, 0.00, -0.00, -1.00, 215.0, 183.9)">e</text><text xml:space="preserve" font-family="AvenirNext-Regular,Avenir Next" font-size="38.0" fill="#FEFFFF" transform="matrix(1.00, 0.00, -0.00, -1.00, 236.8, 183.9)">c</text><text xml:space="preserve" font-family="AvenirNext-Regular,Avenir Next" font-size="38.0" fill="#FEFFFF" transform="matrix(1.00, 0.00, -0.00, -1.00, 255.8, 183.9)">t</text><text xml:space="preserve" font-family="AvenirNext-Regular,Avenir Next" font-size="38.0" fill="#FEFFFF" transform="matrix(1.00, 0.00, -0.00, -1.00, 267.8, 183.9)">i</text><text xml:space="preserve" font-family="AvenirNext-Regular,Avenir Next" font-size="38.0" fill="#FEFFFF" transform="matrix(1.00, 0.00, -0.00, -1.00, 277.3, 183.9)">o</text><text xml:space="preserve" font-family="AvenirNext-Regular,Avenir Next" font-size="38.0" fill="#FEFFFF" transform="matrix(1.00, 0.00, -0.00, -1.00, 300.5, 183.9)">n</text><text xml:space="preserve" font-family="AvenirNext-Regular,Avenir Next" font-size="38.0" fill="#FEFFFF" transform="matrix(1.00, 0.00, -0.00, -1.00, 322.6, 183.9)">:</text><text xml:space="preserve" font-family="AvenirNext-Regular,Avenir Next" font-size="38.0" fill="#FEFFFF" transform="matrix(1.00, 0.00, -0.00, -1.00, 334.0, 183.9)"> </text><text xml:space="preserve" font-family="AvenirNext-Regular,Avenir Next" font-size="28.5" fill="#FEFFFF" transform="matrix(1.00, 0.00, -0.00, -1.00, 149.0, 92.9)">•</text><text xml:space="preserve" font-family="AvenirNext-Regular,Avenir Next" font-size="38.0" fill="#FEFFFF" transform="matrix(1.00, 0.00, -0.00, -1.00, 184.0, 89.9)">W</text><text xml:space="preserve" font-family="AvenirNext-Regular,Avenir Next" font-size="38.0" fill="#FEFFFF" transform="matrix(1.00, 0.00, -0.00, -1.00, 219.6, 89.9)">e</text><text xml:space="preserve" font-family="AvenirNext-Regular,Avenir Next" font-size="38.0" fill="#FEFFFF" transform="matrix(1.00, 0.00, -0.00, -1.00, 241.3, 89.9)"> </text><text xml:space="preserve" font-family="AvenirNext-Regular,Avenir Next" font-size="38.0" fill="#FEFFFF" transform="matrix(1.00, 0.00, -0.00, -1.00, 250.8, 89.9)">w</text><text xml:space="preserve" font-family="AvenirNext-Regular,Avenir Next" font-size="38.0" fill="#FEFFFF" transform="matrix(1.00, 0.00, -0.00, -1.00, 279.2, 89.9)">o</text><text xml:space="preserve" font-family="AvenirNext-Regular,Avenir Next" font-size="38.0" fill="#FEFFFF" transform="matrix(1.00, 0.00, -0.00, -1.00, 302.4, 89.9)">u</text><text xml:space="preserve" font-family="AvenirNext-Regular,Avenir Next" font-size="38.0" fill="#FEFFFF" transform="matrix(1.00, 0.00, -0.00, -1.00, 324.4, 89.9)">l</text><text xml:space="preserve" font-family="AvenirNext-Regular,Avenir Next" font-size="38.0" fill="#FEFFFF" transform="matrix(1.00, 0.00, -0.00, -1.00, 334.0, 89.9)">d</text><text xml:space="preserve" font-family="AvenirNext-Regular,Avenir Next" font-size="38.0" fill="#FEFFFF" transform="matrix(1.00, 0.00, -0.00, -1.00, 358.2, 89.9)"> </text><text xml:space="preserve" font-family="AvenirNext-Regular,Avenir Next" font-size="38.0" fill="#FEFFFF" transform="matrix(1.00, 0.00, -0.00, -1.00, 367.7, 89.9)">s</text><text xml:space="preserve" font-family="AvenirNext-Regular,Avenir Next" font-size="38.0" fill="#FEFFFF" transform="matrix(1.00, 0.00, -0.00, -1.00, 384.6, 89.9)">e</text><text xml:space="preserve" font-family="AvenirNext-Regular,Avenir Next" font-size="38.0" fill="#FEFFFF" transform="matrix(1.00, 0.00, -0.00, -1.00, 406.3, 89.9)">e</text><text xml:space="preserve" font-family="AvenirNext-Regular,Avenir Next" font-size="38.0" fill="#FEFFFF" transform="matrix(1.00, 0.00, -0.00, -1.00, 428.1, 89.9)"> </text><text xml:space="preserve" font-family="AvenirNext-Regular,Avenir Next" font-size="38.0" fill="#FEFFFF" transform="matrix(1.00, 0.00, -0.00, -1.00, 437.6, 89.9)">l</text><text xml:space="preserve" font-family="AvenirNext-Regular,Avenir Next" font-size="38.0" fill="#FEFFFF" transform="matrix(1.00, 0.00, -0.00, -1.00, 447.1, 89.9)">a</text><text xml:space="preserve" font-family="AvenirNext-Regular,Avenir Next" font-size="38.0" fill="#FEFFFF" transform="matrix(1.00, 0.00, -0.00, -1.00, 467.4, 89.9)">r</text><text xml:space="preserve" font-family="AvenirNext-Regular,Avenir Next" font-size="38.0" fill="#FEFFFF" transform="matrix(1.00, 0.00, -0.00, -1.00, 480.4, 89.9)">g</text><text xml:space="preserve" font-family="AvenirNext-Regular,Avenir Next" font-size="38.0" fill="#FEFFFF" transform="matrix(1.00, 0.00, -0.00, -1.00, 504.5, 89.9)">e</text><text xml:space="preserve" font-family="AvenirNext-Regular,Avenir Next" font-size="38.0" fill="#FEFFFF" transform="matrix(1.00, 0.00, -0.00, -1.00, 526.2, 89.9)"> </text><text xml:space="preserve" font-family="AvenirNext-Regular,Avenir Next" font-size="38.0" fill="#FEFFFF" transform="matrix(1.00, 0.00, -0.00, -1.00, 535.7, 89.9)">p</text><text xml:space="preserve" font-family="AvenirNext-Regular,Avenir Next" font-size="38.0" fill="#FEFFFF" transform="matrix(1.00, 0.00, -0.00, -1.00, 559.8, 89.9)">o</text><text xml:space="preserve" font-family="AvenirNext-Regular,Avenir Next" font-size="38.0" fill="#FEFFFF" transform="matrix(1.00, 0.00, -0.00, -1.00, 583.0, 89.9)">c</text><text xml:space="preserve" font-family="AvenirNext-Regular,Avenir Next" font-size="38.0" fill="#FEFFFF" transform="matrix(1.00, 0.00, -0.00, -1.00, 602.0, 89.9)">k</text><text xml:space="preserve" font-family="AvenirNext-Regular,Avenir Next" font-size="38.0" fill="#FEFFFF" transform="matrix(1.00, 0.00, -0.00, -1.00, 620.7, 89.9)">e</text><text xml:space="preserve" font-family="AvenirNext-Regular,Avenir Next" font-size="38.0" fill="#FEFFFF" transform="matrix(1.00, 0.00, -0.00, -1.00, 642.5, 89.9)">t</text><text xml:space="preserve" font-family="AvenirNext-Regular,Avenir Next" font-size="38.0" fill="#FEFFFF" transform="matrix(1.00, 0.00, -0.00, -1.00, 654.5, 89.9)">s</text><text xml:space="preserve" font-family="AvenirNext-Regular,Avenir Next" font-size="38.0" fill="#FEFFFF" transform="matrix(1.00, 0.00, -0.00, -1.00, 671.4, 89.9)"> </text><text xml:space="preserve" font-family="AvenirNext-Regular,Avenir Next" font-size="38.0" fill="#FEFFFF" transform="matrix(1.00, 0.00, -0.00, -1.00, 680.9, 89.9)">o</text><text xml:space="preserve" font-family="AvenirNext-Regular,Avenir Next" font-size="38.0" fill="#FEFFFF" transform="matrix(1.00, 0.00, -0.00, -1.00, 704.1, 89.9)">f</text><text xml:space="preserve" font-family="AvenirNext-Regular,Avenir Next" font-size="38.0" fill="#FEFFFF" transform="matrix(1.00, 0.00, -0.00, -1.00, 716.2, 89.9)"> </text><text xml:space="preserve" font-family="AvenirNext-Regular,Avenir Next" font-size="38.0" fill="#FEFFFF" transform="matrix(1.00, 0.00, -0.00, -1.00, 725.7, 89.9)">c</text><text xml:space="preserve" font-family="AvenirNext-Regular,Avenir Next" font-size="38.0" fill="#FEFFFF" transform="matrix(1.00, 0.00, -0.00, -1.00, 744.7, 89.9)">o</text><text xml:space="preserve" font-family="AvenirNext-Regular,Avenir Next" font-size="38.0" fill="#FEFFFF" transform="matrix(1.00, 0.00, -0.00, -1.00, 767.9, 89.9)">i</text><text xml:space="preserve" font-family="AvenirNext-Regular,Avenir Next" font-size="38.0" fill="#FEFFFF" transform="matrix(1.00, 0.00, -0.00, -1.00, 777.4, 89.9)">n</text><text xml:space="preserve" font-family="AvenirNext-Regular,Avenir Next" font-size="38.0" fill="#FEFFFF" transform="matrix(1.00, 0.00, -0.00, -1.00, 799.5, 89.9)">c</text><text xml:space="preserve" font-family="AvenirNext-Regular,Avenir Next" font-size="38.0" fill="#FEFFFF" transform="matrix(1.00, 0.00, -0.00, -1.00, 818.5, 89.9)">i</text><text xml:space="preserve" font-family="AvenirNext-Regular,Avenir Next" font-size="38.0" fill="#FEFFFF" transform="matrix(1.00, 0.00, -0.00, -1.00, 828.0, 89.9)">d</text><text xml:space="preserve" font-family="AvenirNext-Regular,Avenir Next" font-size="38.0" fill="#FEFFFF" transform="matrix(1.00, 0.00, -0.00, -1.00, 852.2, 89.9)">e</text><text xml:space="preserve" font-family="AvenirNext-Regular,Avenir Next" font-size="38.0" fill="#FEFFFF" transform="matrix(1.00, 0.00, -0.00, -1.00, 874.0, 89.9)">n</text><text xml:space="preserve" font-family="AvenirNext-Regular,Avenir Next" font-size="38.0" fill="#FEFFFF" transform="matrix(1.00, 0.00, -0.00, -1.00, 896.0, 89.9)">c</text><text xml:space="preserve" font-family="AvenirNext-Regular,Avenir Next" font-size="38.0" fill="#FEFFFF" transform="matrix(1.00, 0.00, -0.00, -1.00, 915.0, 89.9)">e</text><image xlink:href="../../24D16EBD-6BD9-4C96-BC0E-F1D401C6F5BE/assets/39627F67AED309EB1F876BBDD71B2E85.png" width="686.00" height="114.00" transform="matrix(0.58, 0.00, -0.00, -0.58, 463.0, 564.0)"></image></g></svg>